G04*
G04 #@! TF.GenerationSoftware,Altium Limited,Altium Designer,24.4.1 (13)*
G04*
G04 Layer_Color=32896*
%FSAX44Y44*%
%MOMM*%
G71*
G04*
G04 #@! TF.SameCoordinates,A6799A11-F43C-4D9C-96F4-C4FD18313EF3*
G04*
G04*
G04 #@! TF.FilePolarity,Positive*
G04*
G01*
G75*
%ADD10C,0.4000*%
%ADD11C,0.2000*%
%ADD12C,0.7000*%
%ADD14C,0.1524*%
%ADD15C,0.1500*%
%ADD40C,0.3000*%
%ADD71C,0.5000*%
%ADD89R,0.9000X0.2000*%
G36*
X00747500Y00810000D02*
Y00803000D01*
X00756500D01*
Y00810000D01*
X00747500D01*
D02*
G37*
G36*
X01181750Y00804500D02*
X01174750D01*
Y00765500D01*
X01181750D01*
Y00804500D01*
D02*
G37*
G36*
X01152050Y00884250D02*
Y00891250D01*
X01143050D01*
Y00884250D01*
X01152050D01*
D02*
G37*
G36*
X00747500Y01001500D02*
Y00994500D01*
X00756500D01*
Y01001500D01*
X00747500D01*
D02*
G37*
G36*
X00954750Y01021000D02*
Y01028000D01*
X00945750D01*
Y01021000D01*
X00954750D01*
D02*
G37*
G36*
X01088500Y01387750D02*
X01057500D01*
Y01377750D01*
X01088500D01*
Y01387750D01*
D02*
G37*
G36*
X01436750Y00732250D02*
X01429750D01*
Y00723250D01*
X01436750D01*
Y00732250D01*
D02*
G37*
G36*
X01437750Y00781600D02*
Y00774600D01*
X01446750D01*
Y00781600D01*
X01437750D01*
D02*
G37*
G36*
X01448750Y00838000D02*
X01455750D01*
Y00847000D01*
X01448750D01*
Y00838000D01*
D02*
G37*
G36*
X01576000Y00795750D02*
X01569000D01*
Y00786750D01*
X01576000D01*
Y00795750D01*
D02*
G37*
G36*
X01318550Y00884250D02*
Y00891250D01*
X01309550D01*
Y00884250D01*
X01318550D01*
D02*
G37*
G36*
X01515300Y01019000D02*
Y01026000D01*
X01506300D01*
Y01019000D01*
X01515300D01*
D02*
G37*
G36*
X01576000Y00875250D02*
X01569000D01*
Y00866250D01*
X01576000D01*
Y00875250D01*
D02*
G37*
D10*
X01093875Y01453750D02*
X01109625D01*
D11*
X01239500Y01029500D02*
Y01064500D01*
X01201500Y01029500D02*
Y01064500D01*
X01202000Y01086500D02*
X01239000D01*
X01202000Y01007500D02*
X01239000D01*
X00959253Y00842999D02*
Y00852500D01*
Y00842999D02*
X01082236D01*
Y00852500D01*
X01082247Y00879500D02*
Y00889001D01*
X00959264D02*
X01082247D01*
X00959264Y00879500D02*
Y00889001D01*
X01207250Y00766500D02*
X01270250D01*
X01207250Y00803500D02*
X01270250D01*
Y00766500D02*
Y00803500D01*
X01174750D02*
X01224750D01*
X01174750Y00766500D02*
X01224750D01*
X01174750D02*
Y00803500D01*
X01515300Y01019000D02*
Y01026000D01*
X01487300Y01019000D02*
Y01026000D01*
X01515300D01*
X01487300Y01019000D02*
X01515300D01*
X01318550Y00884250D02*
Y00891250D01*
X01290550Y00884250D02*
Y00891250D01*
X01318550D01*
X01290550Y00884250D02*
X01318550D01*
X01390500Y01167000D02*
Y01303000D01*
X01254500D02*
X01390500D01*
X01254500Y01167000D02*
Y01303000D01*
Y01167000D02*
X01390500D01*
X00984900Y01499350D02*
X01010400D01*
X01030900Y01467350D02*
Y01499350D01*
X00964400Y01467350D02*
Y01499350D01*
X00942500Y01434250D02*
X00958250D01*
Y01449750D01*
X00919250Y01434250D02*
X00935000D01*
X00919250D02*
Y01449750D01*
X00927246Y01487251D02*
X00950254D01*
Y01468750D02*
Y01487251D01*
X00927246Y01468750D02*
Y01487251D01*
X00821100Y01499350D02*
X00846600D01*
X00867100Y01467350D02*
Y01499350D01*
X00800600Y01467350D02*
Y01499350D01*
X00778750Y01434250D02*
X00794500D01*
Y01449750D01*
X00755500Y01434250D02*
X00771250D01*
X00755500D02*
Y01449750D01*
X00763496Y01487251D02*
X00786504D01*
Y01468750D02*
Y01487251D01*
X00763496Y01468750D02*
Y01487251D01*
X01088500Y01339750D02*
Y01387750D01*
X01057500Y01339750D02*
Y01387750D01*
Y01339750D02*
X01088500D01*
X01057500Y01387750D02*
X01088500D01*
X01136000Y01131500D02*
Y01147250D01*
X01123000Y01131500D02*
Y01147250D01*
X01136000D01*
X01123000Y01131500D02*
X01136000D01*
X01135000D02*
Y01147250D01*
X01134000Y01131500D02*
Y01147000D01*
X01133000Y01131500D02*
Y01147000D01*
X01132000Y01131500D02*
Y01146750D01*
X01136000Y01071500D02*
Y01087250D01*
X01123000Y01071500D02*
Y01087250D01*
X01136000D01*
X01123000Y01071500D02*
X01136000D01*
X01135000D02*
Y01087250D01*
X01134000Y01071500D02*
Y01087000D01*
X01133000Y01071500D02*
Y01087000D01*
X01132000Y01071500D02*
Y01086750D01*
X00747500Y00994500D02*
Y01001500D01*
X00775500Y00994500D02*
Y01001500D01*
X00747500Y00994500D02*
X00775500D01*
X00747500Y01001500D02*
X00775500D01*
X00747500Y00803000D02*
Y00810000D01*
X00775500Y00803000D02*
Y00810000D01*
X00747500Y00803000D02*
X00775500D01*
X00747500Y00810000D02*
X00775500D01*
X01337003Y01049499D02*
Y01059000D01*
Y01049499D02*
X01459986D01*
Y01059000D01*
X01459997Y01086000D02*
Y01095501D01*
X01337014D02*
X01459997D01*
X01337014Y01086000D02*
Y01095501D01*
X01094000Y01488750D02*
X01109750D01*
X01094000Y01475750D02*
X01109750D01*
X01094000D02*
Y01488750D01*
X01109750Y01475750D02*
Y01488750D01*
X01448750Y00838000D02*
X01455750D01*
X01448750Y00866000D02*
X01455750D01*
Y00838000D02*
Y00866000D01*
X01448750Y00838000D02*
Y00866000D01*
X01569000Y00875250D02*
X01576000D01*
X01569000Y00847250D02*
X01576000D01*
X01569000D02*
Y00875250D01*
X01576000Y00847250D02*
Y00875250D01*
X01437750Y00774600D02*
Y00781600D01*
X01465750Y00774600D02*
Y00781600D01*
X01437750Y00774600D02*
X01465750D01*
X01437750Y00781600D02*
X01465750D01*
X01569000Y00795750D02*
X01576000D01*
X01569000Y00767750D02*
X01576000D01*
X01569000D02*
Y00795750D01*
X01576000Y00767750D02*
Y00795750D01*
X01429750Y00732250D02*
X01436750D01*
X01429750Y00704250D02*
X01436750D01*
X01429750D02*
Y00732250D01*
X01436750Y00704250D02*
Y00732250D01*
X00954750Y01021000D02*
Y01028000D01*
X00926750Y01021000D02*
Y01028000D01*
X00954750D01*
X00926750Y01021000D02*
X00954750D01*
X01152050Y00884250D02*
Y00891250D01*
X01124050Y00884250D02*
Y00891250D01*
X01152050D01*
X01124050Y00884250D02*
X01152050D01*
X01760000Y00715000D02*
G03*
X01730000Y00685000I00000000J-00030000D01*
G01*
X00685000Y01475000D02*
G03*
X00715000Y01505000I00000000J00030000D01*
G01*
X01730009Y01522500D02*
G03*
X01720009Y01532500I-00010000J00000000D01*
G01*
X01777500Y00714990D02*
G03*
X01787500Y00724990I00000000J00010000D01*
G01*
Y01465010D02*
G03*
X01777500Y01475010I-00010000J00000000D01*
G01*
X00667500D02*
G03*
X00657500Y01465010I00000000J-00010000D01*
G01*
X00724990Y01532500D02*
G03*
X00714990Y01522500I00000000J-00010000D01*
G01*
X01720009Y00657500D02*
G03*
X01730009Y00667500I00000000J00010000D01*
G01*
X01730000Y01505000D02*
G03*
X01760000Y01475000I00030000J00000000D01*
G01*
X00714990Y00667500D02*
G03*
X00724990Y00657500I00010000J00000000D01*
G01*
X00715000Y00685000D02*
G03*
X00685000Y00715000I-00030000J00000000D01*
G01*
X00657500Y00724990D02*
G03*
X00667500Y00714990I00010000J00000000D01*
G01*
D12*
X01080250Y00908000D02*
X01088250D01*
X01061250Y00908000D02*
X01069250D01*
X01077750Y00826500D02*
Y00834500D01*
X00963750Y00826500D02*
Y00834500D01*
X01143550Y00845250D02*
X01151550D01*
X00946250Y00982000D02*
X00954250D01*
X01149500Y00971750D02*
X01157500D01*
X01666500Y01170000D02*
X01674500D01*
X01647500D02*
X01655500D01*
X01506800Y00980000D02*
X01514800D01*
X01444000Y01030500D02*
X01452000D01*
X01425000D02*
X01433000D01*
X01359250Y00894000D02*
X01367250D01*
X01378250D02*
X01386250D01*
X01222750Y00705750D02*
Y00713750D01*
X01193240Y00712087D02*
X01201240D01*
X01173128D02*
X01181128D01*
X01153016D02*
X01161016D01*
X01256750Y00694500D02*
X01264750D01*
X01276000D02*
X01284000D01*
X01278750Y00785000D02*
X01286750D01*
X01288750Y00753000D02*
X01296750D01*
X01307750D02*
X01315750D01*
X01310050Y00845250D02*
X01318050D01*
X01244750Y00923500D02*
Y00931500D01*
X01244750Y00904500D02*
Y00912500D01*
Y00885500D02*
Y00893500D01*
X01215250Y00896000D02*
X01223250D01*
X01244750Y00866500D02*
Y00874500D01*
X01244750Y00847500D02*
Y00855500D01*
X01240000Y01096000D02*
Y01104000D01*
X01201000Y01096000D02*
Y01104000D01*
X01283000Y01104000D02*
Y01112000D01*
X01315950Y00971700D02*
X01323950D01*
X01303250Y01035250D02*
X01311250D01*
X01284250D02*
X01292250D01*
X01298500Y01078000D02*
X01306500D01*
X01333500Y01104000D02*
Y01112000D01*
X01365500Y01104000D02*
Y01112000D01*
X01431500Y01104000D02*
Y01112000D01*
X01459500Y01198000D02*
Y01206000D01*
Y01179000D02*
Y01187000D01*
Y01160000D02*
Y01168000D01*
X01481000Y01170000D02*
X01489000D01*
X01512700Y01106450D02*
X01520700D01*
X01500000Y01170000D02*
X01508000D01*
X01459500Y01217000D02*
Y01225000D01*
Y01236000D02*
Y01244000D01*
X01242500Y01515500D02*
X01250500D01*
X01242500Y01464500D02*
X01250500D01*
X01315750Y01498250D02*
X01323750D01*
X01285750D02*
X01293750D01*
X01364000Y01515500D02*
X01372000D01*
X01364000Y01464500D02*
X01372000D01*
X01443250Y01471750D02*
Y01479750D01*
X01363500Y01372000D02*
X01371500D01*
X01382500D02*
X01390500D01*
X01401500D02*
X01409500D01*
X01318500D02*
X01326500D01*
X01258500D02*
X01266500D01*
X01058500Y01461250D02*
X01066500D01*
X01039500Y01493250D02*
X01047500D01*
X01058500D02*
X01066500D01*
X01077500Y01429250D02*
X01085500D01*
X01058500D02*
X01066500D01*
X00945250Y01495750D02*
Y01503750D01*
X00781500Y01495750D02*
Y01503750D01*
X00784000Y01406750D02*
X00792000D01*
X00948000D02*
X00956000D01*
X00929000D02*
X00937000D01*
X00894750D02*
X00902750D01*
X00875750D02*
X00883750D01*
X01011000Y01374250D02*
Y01382250D01*
X01000500Y01352750D02*
X01008500D01*
X01019500D02*
X01027500D01*
X01118500D02*
X01126500D01*
X01154500Y01333000D02*
Y01341000D01*
X01135500Y01314000D02*
Y01322000D01*
Y01295000D02*
Y01303000D01*
Y01276000D02*
Y01284000D01*
Y01155750D02*
Y01163750D01*
Y01239000D02*
Y01247000D01*
Y01220000D02*
Y01228000D01*
Y01201000D02*
Y01209000D01*
X01135500Y01182000D02*
Y01190000D01*
X01103500Y01182000D02*
Y01190000D01*
X01123500Y01114750D02*
Y01122750D01*
X01145000Y01109000D02*
X01153000D01*
X01123500Y01095750D02*
Y01103750D01*
X01117750Y01035250D02*
X01125750D01*
X01136750D02*
X01144750D01*
X00996000Y01030500D02*
X01004000D01*
X01015000D02*
X01023000D01*
X00952700Y01106450D02*
X00960700D01*
X00921000Y01170000D02*
X00929000D01*
X00940000Y01170000D02*
X00948000D01*
X00773500Y01170000D02*
X00781500D01*
X00754500D02*
X00762500D01*
X00784000Y01056000D02*
X00792000D01*
X00803000Y01024000D02*
X00811000D01*
X00813500Y01045500D02*
Y01053500D01*
X00784000Y01024000D02*
X00792000D01*
X00741500Y01042000D02*
Y01050000D01*
X00731000Y01020500D02*
X00739000D01*
X00709500Y01026250D02*
Y01034250D01*
Y01007250D02*
Y01015250D01*
X00731000Y00988500D02*
X00739000D01*
X00709500Y00988250D02*
Y00996250D01*
Y00969250D02*
Y00977250D01*
X00760500Y00962500D02*
Y00970500D01*
X00784000Y00992000D02*
X00792000D01*
X00803000D02*
X00811000D01*
X00822000D02*
X00830000D01*
X00841000D02*
X00849000D01*
X00784000Y00832500D02*
X00792000D01*
X00784000Y00800500D02*
X00792000D01*
X00803000D02*
X00811000D01*
X00803000Y00832500D02*
X00811000D01*
X00813500Y00854000D02*
Y00862000D01*
X00784000Y00864500D02*
X00792000D01*
X00741500Y00850500D02*
Y00858500D01*
X00731000Y00829000D02*
X00739000D01*
X00709500Y00834750D02*
Y00842750D01*
Y00815750D02*
Y00823750D01*
Y00796750D02*
Y00804750D01*
X00731000Y00797000D02*
X00739000D01*
X00682250Y00779500D02*
X00690250D01*
X00822000Y00800500D02*
X00830000D01*
X00841000Y00800500D02*
X00849000D01*
X00762500Y00770000D02*
Y00778000D01*
X01452250Y00874500D02*
Y00882500D01*
X01491750Y00828950D02*
X01499750D01*
X01439250Y00808500D02*
Y00816500D01*
X01402250Y00774000D02*
X01410250D01*
X01421250D02*
X01429250D01*
X01439250Y00740750D02*
Y00748750D01*
X01491750Y00708350D02*
X01499750D01*
X01433250Y00687750D02*
Y00695750D01*
X01556500Y00814750D02*
X01564500D01*
X01575500D02*
X01583500D01*
X01575500Y00894250D02*
X01583500D01*
X01556500D02*
X01564500D01*
X01655000Y00847250D02*
X01663000D01*
X01636000D02*
X01644000D01*
X01655000Y00767750D02*
X01663000D01*
X01636000D02*
X01644000D01*
X01077500Y01493250D02*
X01085500D01*
X01077500Y01461250D02*
X01085500D01*
X01435750Y00905000D02*
X01443750D01*
X01620500Y00868750D02*
Y00876750D01*
X01454750Y00905000D02*
X01462750D01*
X01510750Y00828950D02*
X01518750D01*
X01652500Y00868750D02*
Y00876750D01*
X01460750Y00818950D02*
X01468750D01*
X01614500Y00842250D02*
Y00850250D01*
X01652500Y00789250D02*
Y00797250D01*
X01460750Y00739250D02*
X01468750D01*
X01620500Y00789250D02*
Y00797250D01*
X01510850Y00708350D02*
X01518850D01*
X01401250Y00687750D02*
Y00695750D01*
X01610500Y00762750D02*
Y00770750D01*
X01371750Y00685250D02*
X01379750D01*
X01459500Y01291000D02*
Y01299000D01*
X01158250Y00785000D02*
X01166250D01*
D14*
X01179922Y01088214D02*
X01190078Y01081443D01*
X01179922D02*
X01190078Y01088214D01*
X01181614Y01078057D02*
X01179922Y01076364D01*
Y01072979D01*
X01181614Y01071286D01*
X01183307D01*
X01185000Y01072979D01*
Y01074672D01*
Y01072979D01*
X01186693Y01071286D01*
X01188386D01*
X01190078Y01072979D01*
Y01076364D01*
X01188386Y01078057D01*
X00963021Y00904078D02*
X00956250Y00893922D01*
Y00904078D02*
X00963021Y00893922D01*
X00952864D02*
X00949479D01*
X00951172D01*
Y00904078D01*
X00952864Y00902386D01*
X01078922Y00926458D02*
X01089078D01*
Y00931536D01*
X01087386Y00933229D01*
X01084000D01*
X01082307Y00931536D01*
Y00926458D01*
Y00929843D02*
X01078922Y00933229D01*
X01089078Y00943386D02*
X01087386Y00940000D01*
X01084000Y00936614D01*
X01080614D01*
X01078922Y00938307D01*
Y00941693D01*
X01080614Y00943386D01*
X01082307D01*
X01084000Y00941693D01*
Y00936614D01*
X01089078Y00946771D02*
Y00953542D01*
X01087386D01*
X01080614Y00946771D01*
X01078922D01*
X01068136Y00932979D02*
X01069828Y00931286D01*
Y00927900D01*
X01068136Y00926208D01*
X01061364D01*
X01059672Y00927900D01*
Y00931286D01*
X01061364Y00932979D01*
X01069828Y00936364D02*
Y00943136D01*
X01068136D01*
X01061364Y00936364D01*
X01059672D01*
X01068136Y00946521D02*
X01069828Y00948214D01*
Y00951600D01*
X01068136Y00953292D01*
X01061364D01*
X01059672Y00951600D01*
Y00948214D01*
X01061364Y00946521D01*
X01068136D01*
X01083771Y00816886D02*
X01085464Y00818578D01*
X01088849D01*
X01090542Y00816886D01*
Y00810114D01*
X01088849Y00808422D01*
X01085464D01*
X01083771Y00810114D01*
X01075307Y00808422D02*
Y00818578D01*
X01080386Y00813500D01*
X01073614D01*
X01070229Y00816886D02*
X01068536Y00818578D01*
X01065151D01*
X01063458Y00816886D01*
Y00810114D01*
X01065151Y00808422D01*
X01068536D01*
X01070229Y00810114D01*
Y00816886D01*
X00967328D02*
X00969021Y00818578D01*
X00972407D01*
X00974100Y00816886D01*
Y00810114D01*
X00972407Y00808422D01*
X00969021D01*
X00967328Y00810114D01*
X00958864Y00808422D02*
Y00818578D01*
X00963943Y00813500D01*
X00957172D01*
X00953786Y00808422D02*
X00950400D01*
X00952093D01*
Y00818578D01*
X00953786Y00816886D01*
X01135578Y00859292D02*
X01125422D01*
Y00854214D01*
X01127114Y00852521D01*
X01130500D01*
X01132193Y00854214D01*
Y00859292D01*
Y00855907D02*
X01135578Y00852521D01*
X01125422Y00842365D02*
Y00849136D01*
X01130500D01*
X01128807Y00845750D01*
Y00844057D01*
X01130500Y00842365D01*
X01133885D01*
X01135578Y00844057D01*
Y00847443D01*
X01133885Y00849136D01*
X01125422Y00832208D02*
Y00838979D01*
X01130500D01*
X01128807Y00835593D01*
Y00833901D01*
X01130500Y00832208D01*
X01133885D01*
X01135578Y00833901D01*
Y00837286D01*
X01133885Y00838979D01*
X00938828Y00996292D02*
X00928672D01*
Y00991214D01*
X00930364Y00989521D01*
X00933750D01*
X00935443Y00991214D01*
Y00996292D01*
Y00992907D02*
X00938828Y00989521D01*
X00928672Y00979364D02*
Y00986136D01*
X00933750D01*
X00932057Y00982750D01*
Y00981057D01*
X00933750Y00979364D01*
X00937136D01*
X00938828Y00981057D01*
Y00984443D01*
X00937136Y00986136D01*
X00938828Y00970900D02*
X00928672D01*
X00933750Y00975979D01*
Y00969208D01*
X01272714Y00836828D02*
Y00828364D01*
X01271021Y00826672D01*
X01267636D01*
X01265943Y00828364D01*
Y00836828D01*
X01255786D02*
X01262557D01*
Y00831750D01*
X01259172Y00833443D01*
X01257479D01*
X01255786Y00831750D01*
Y00828364D01*
X01257479Y00826672D01*
X01260864D01*
X01262557Y00828364D01*
X01139828Y00982599D02*
X01129672D01*
Y00977521D01*
X01131364Y00975828D01*
X01134750D01*
X01136443Y00977521D01*
Y00982599D01*
Y00979214D02*
X01139828Y00975828D01*
X01129672Y00965672D02*
Y00972443D01*
X01134750D01*
X01133057Y00969057D01*
Y00967365D01*
X01134750Y00965672D01*
X01138136D01*
X01139828Y00967365D01*
Y00970750D01*
X01138136Y00972443D01*
X01139828Y00962286D02*
Y00958901D01*
Y00960593D01*
X01129672D01*
X01131364Y00962286D01*
X01664922Y01190650D02*
X01675078D01*
Y01195729D01*
X01673386Y01197422D01*
X01670000D01*
X01668307Y01195729D01*
Y01190650D01*
Y01194036D02*
X01664922Y01197422D01*
X01675078Y01207578D02*
X01673386Y01204193D01*
X01670000Y01200807D01*
X01666614D01*
X01664922Y01202500D01*
Y01205885D01*
X01666614Y01207578D01*
X01668307D01*
X01670000Y01205885D01*
Y01200807D01*
X01664922Y01210964D02*
Y01214350D01*
Y01212657D01*
X01675078D01*
X01673386Y01210964D01*
X01653386Y01195729D02*
X01655078Y01194036D01*
Y01190650D01*
X01653386Y01188958D01*
X01646614D01*
X01644922Y01190650D01*
Y01194036D01*
X01646614Y01195729D01*
X01655078Y01205885D02*
X01653386Y01202500D01*
X01650000Y01199114D01*
X01646614D01*
X01644922Y01200807D01*
Y01204193D01*
X01646614Y01205885D01*
X01648307D01*
X01650000Y01204193D01*
Y01199114D01*
X01655078Y01216042D02*
X01653386Y01212657D01*
X01650000Y01209271D01*
X01646614D01*
X01644922Y01210964D01*
Y01214350D01*
X01646614Y01216042D01*
X01648307D01*
X01650000Y01214350D01*
Y01209271D01*
X01518464Y01057578D02*
X01511693D01*
X01515078D01*
Y01047422D01*
X01508307Y01055886D02*
X01506614Y01057578D01*
X01503229D01*
X01501536Y01055886D01*
Y01054193D01*
X01503229Y01052500D01*
X01504922D01*
X01503229D01*
X01501536Y01050807D01*
Y01049114D01*
X01503229Y01047422D01*
X01506614D01*
X01508307Y01049114D01*
X01497578Y00993542D02*
X01487422D01*
Y00988464D01*
X01489114Y00986771D01*
X01492500D01*
X01494193Y00988464D01*
Y00993542D01*
Y00990157D02*
X01497578Y00986771D01*
X01487422Y00976615D02*
X01489114Y00980000D01*
X01492500Y00983386D01*
X01495885D01*
X01497578Y00981693D01*
Y00978307D01*
X01495885Y00976615D01*
X01494193D01*
X01492500Y00978307D01*
Y00983386D01*
X01497578Y00966458D02*
Y00973229D01*
X01490807Y00966458D01*
X01489114D01*
X01487422Y00968150D01*
Y00971536D01*
X01489114Y00973229D01*
X01452578Y01011042D02*
X01442422D01*
Y01005964D01*
X01444114Y01004271D01*
X01447500D01*
X01449193Y01005964D01*
Y01011042D01*
Y01007657D02*
X01452578Y01004271D01*
X01442422Y00994114D02*
X01444114Y00997500D01*
X01447500Y01000886D01*
X01450885D01*
X01452578Y00999193D01*
Y00995807D01*
X01450885Y00994114D01*
X01449193D01*
X01447500Y00995807D01*
Y01000886D01*
X01442422Y00983958D02*
Y00990729D01*
X01447500D01*
X01445807Y00987343D01*
Y00985650D01*
X01447500Y00983958D01*
X01450885D01*
X01452578Y00985650D01*
Y00989036D01*
X01450885Y00990729D01*
X01426614Y01004271D02*
X01424922Y01005964D01*
Y01009350D01*
X01426614Y01011042D01*
X01433385D01*
X01435078Y01009350D01*
Y01005964D01*
X01433385Y01004271D01*
X01424922Y00994114D02*
X01426614Y00997500D01*
X01430000Y01000886D01*
X01433385D01*
X01435078Y00999193D01*
Y00995807D01*
X01433385Y00994114D01*
X01431693D01*
X01430000Y00995807D01*
Y01000886D01*
X01426614Y00990729D02*
X01424922Y00989036D01*
Y00985650D01*
X01426614Y00983958D01*
X01428307D01*
X01430000Y00985650D01*
X01431693Y00983958D01*
X01433385D01*
X01435078Y00985650D01*
Y00989036D01*
X01433385Y00990729D01*
X01431693D01*
X01430000Y00989036D01*
X01428307Y00990729D01*
X01426614D01*
X01430000Y00989036D02*
Y00985650D01*
X01367578Y00876042D02*
X01357422D01*
Y00870964D01*
X01359114Y00869271D01*
X01362500D01*
X01364193Y00870964D01*
Y00876042D01*
Y00872657D02*
X01367578Y00869271D01*
X01357422Y00859115D02*
X01359114Y00862500D01*
X01362500Y00865886D01*
X01365885D01*
X01367578Y00864193D01*
Y00860807D01*
X01365885Y00859115D01*
X01364193D01*
X01362500Y00860807D01*
Y00865886D01*
X01359114Y00855729D02*
X01357422Y00854036D01*
Y00850650D01*
X01359114Y00848958D01*
X01360807D01*
X01362500Y00850650D01*
X01364193Y00848958D01*
X01365885D01*
X01367578Y00850650D01*
Y00854036D01*
X01365885Y00855729D01*
X01364193D01*
X01362500Y00854036D01*
X01360807Y00855729D01*
X01359114D01*
X01362500Y00854036D02*
Y00850650D01*
X01379114Y00867578D02*
X01377422Y00869271D01*
Y00872657D01*
X01379114Y00874350D01*
X01385885D01*
X01387578Y00872657D01*
Y00869271D01*
X01385885Y00867578D01*
X01377422Y00864193D02*
Y00857422D01*
X01379114D01*
X01385885Y00864193D01*
X01387578D01*
Y00854036D02*
Y00850650D01*
Y00852343D01*
X01377422D01*
X01379114Y00854036D01*
X01229271Y00730886D02*
X01230964Y00732578D01*
X01234350D01*
X01236042Y00730886D01*
Y00724114D01*
X01234350Y00722422D01*
X01230964D01*
X01229271Y00724114D01*
X01219114Y00722422D02*
X01225886D01*
X01219114Y00729193D01*
Y00730886D01*
X01220807Y00732578D01*
X01224193D01*
X01225886Y00730886D01*
X01215729Y00724114D02*
X01214036Y00722422D01*
X01210650D01*
X01208958Y00724114D01*
Y00730886D01*
X01210650Y00732578D01*
X01214036D01*
X01215729Y00730886D01*
Y00729193D01*
X01214036Y00727500D01*
X01208958D01*
X01189114Y00686771D02*
X01187422Y00688464D01*
Y00691850D01*
X01189114Y00693542D01*
X01195886D01*
X01197578Y00691850D01*
Y00688464D01*
X01195886Y00686771D01*
X01189114Y00683386D02*
X01187422Y00681693D01*
Y00678307D01*
X01189114Y00676614D01*
X01190807D01*
X01192500Y00678307D01*
Y00680000D01*
Y00678307D01*
X01194193Y00676614D01*
X01195886D01*
X01197578Y00678307D01*
Y00681693D01*
X01195886Y00683386D01*
X01189114Y00673229D02*
X01187422Y00671536D01*
Y00668150D01*
X01189114Y00666458D01*
X01190807D01*
X01192500Y00668150D01*
Y00669843D01*
Y00668150D01*
X01194193Y00666458D01*
X01195886D01*
X01197578Y00668150D01*
Y00671536D01*
X01195886Y00673229D01*
X01154114Y00751771D02*
X01152422Y00753464D01*
Y00756850D01*
X01154114Y00758542D01*
X01160885D01*
X01162578Y00756850D01*
Y00753464D01*
X01160885Y00751771D01*
X01154114Y00748386D02*
X01152422Y00746693D01*
Y00743307D01*
X01154114Y00741614D01*
X01155807D01*
X01157500Y00743307D01*
Y00745000D01*
Y00743307D01*
X01159193Y00741614D01*
X01160885D01*
X01162578Y00743307D01*
Y00746693D01*
X01160885Y00748386D01*
X01162578Y00733150D02*
X01152422D01*
X01157500Y00738229D01*
Y00731458D01*
X01143386Y00705729D02*
X01145078Y00704036D01*
Y00700650D01*
X01143386Y00698958D01*
X01136614D01*
X01134922Y00700650D01*
Y00704036D01*
X01136614Y00705729D01*
X01143386Y00709114D02*
X01145078Y00710807D01*
Y00714193D01*
X01143386Y00715885D01*
X01141693D01*
X01140000Y00714193D01*
Y00712500D01*
Y00714193D01*
X01138307Y00715885D01*
X01136614D01*
X01134922Y00714193D01*
Y00710807D01*
X01136614Y00709114D01*
X01145078Y00726042D02*
Y00719271D01*
X01140000D01*
X01141693Y00722657D01*
Y00724350D01*
X01140000Y00726042D01*
X01136614D01*
X01134922Y00724350D01*
Y00720964D01*
X01136614Y00719271D01*
X01257422Y00713958D02*
X01267578D01*
Y00719036D01*
X01265886Y00720729D01*
X01262500D01*
X01260807Y00719036D01*
Y00713958D01*
Y00717343D02*
X01257422Y00720729D01*
X01267578Y00730885D02*
X01265886Y00727500D01*
X01262500Y00724114D01*
X01259114D01*
X01257422Y00725807D01*
Y00729193D01*
X01259114Y00730885D01*
X01260807D01*
X01262500Y00729193D01*
Y00724114D01*
X01267578Y00741042D02*
X01265886Y00737657D01*
X01262500Y00734271D01*
X01259114D01*
X01257422Y00735964D01*
Y00739350D01*
X01259114Y00741042D01*
X01260807D01*
X01262500Y00739350D01*
Y00734271D01*
X01300886Y00685729D02*
X01302578Y00684036D01*
Y00680650D01*
X01300886Y00678958D01*
X01294114D01*
X01292422Y00680650D01*
Y00684036D01*
X01294114Y00685729D01*
X01302578Y00695886D02*
X01300886Y00692500D01*
X01297500Y00689114D01*
X01294114D01*
X01292422Y00690807D01*
Y00694193D01*
X01294114Y00695886D01*
X01295807D01*
X01297500Y00694193D01*
Y00689114D01*
X01294114Y00699271D02*
X01292422Y00700964D01*
Y00704350D01*
X01294114Y00706042D01*
X01300886D01*
X01302578Y00704350D01*
Y00700964D01*
X01300886Y00699271D01*
X01299193D01*
X01297500Y00700964D01*
Y00706042D01*
X01290078Y00806536D02*
X01279922D01*
Y00813307D01*
X01281614Y00816693D02*
X01279922Y00818386D01*
Y00821771D01*
X01281614Y00823464D01*
X01288386D01*
X01290078Y00821771D01*
Y00818386D01*
X01288386Y00816693D01*
X01286693D01*
X01285000Y00818386D01*
Y00823464D01*
X01303386Y00778229D02*
X01305078Y00776536D01*
Y00773150D01*
X01303386Y00771458D01*
X01296614D01*
X01294922Y00773150D01*
Y00776536D01*
X01296614Y00778229D01*
X01303386Y00781614D02*
X01305078Y00783307D01*
Y00786693D01*
X01303386Y00788385D01*
X01301693D01*
X01300000Y00786693D01*
Y00785000D01*
Y00786693D01*
X01298307Y00788385D01*
X01296614D01*
X01294922Y00786693D01*
Y00783307D01*
X01296614Y00781614D01*
X01303386Y00791771D02*
X01305078Y00793464D01*
Y00796850D01*
X01303386Y00798542D01*
X01301693D01*
X01300000Y00796850D01*
X01298307Y00798542D01*
X01296614D01*
X01294922Y00796850D01*
Y00793464D01*
X01296614Y00791771D01*
X01298307D01*
X01300000Y00793464D01*
X01301693Y00791771D01*
X01303386D01*
X01300000Y00793464D02*
Y00796850D01*
X01326614Y00759271D02*
X01324922Y00760964D01*
Y00764350D01*
X01326614Y00766042D01*
X01333385D01*
X01335078Y00764350D01*
Y00760964D01*
X01333385Y00759271D01*
X01326614Y00755886D02*
X01324922Y00754193D01*
Y00750807D01*
X01326614Y00749115D01*
X01328307D01*
X01330000Y00750807D01*
Y00752500D01*
Y00750807D01*
X01331693Y00749115D01*
X01333385D01*
X01335078Y00750807D01*
Y00754193D01*
X01333385Y00755886D01*
Y00745729D02*
X01335078Y00744036D01*
Y00740650D01*
X01333385Y00738958D01*
X01326614D01*
X01324922Y00740650D01*
Y00744036D01*
X01326614Y00745729D01*
X01328307D01*
X01330000Y00744036D01*
Y00738958D01*
X01302578Y00858542D02*
X01292422D01*
Y00853464D01*
X01294114Y00851771D01*
X01297500D01*
X01299193Y00853464D01*
Y00858542D01*
Y00855157D02*
X01302578Y00851771D01*
X01292422Y00841614D02*
X01294114Y00845000D01*
X01297500Y00848386D01*
X01300885D01*
X01302578Y00846693D01*
Y00843307D01*
X01300885Y00841614D01*
X01299193D01*
X01297500Y00843307D01*
Y00848386D01*
X01294114Y00838229D02*
X01292422Y00836536D01*
Y00833150D01*
X01294114Y00831458D01*
X01295807D01*
X01297500Y00833150D01*
Y00834843D01*
Y00833150D01*
X01299193Y00831458D01*
X01300885D01*
X01302578Y00833150D01*
Y00836536D01*
X01300885Y00838229D01*
X01323464Y00922578D02*
X01316693D01*
X01320078D01*
Y00912422D01*
X01308229D02*
Y00922578D01*
X01313307Y00917500D01*
X01306536D01*
X01226042Y00924922D02*
Y00935078D01*
X01220964D01*
X01219271Y00933386D01*
Y00930000D01*
X01220964Y00928307D01*
X01226042D01*
X01222657D02*
X01219271Y00924922D01*
X01215886Y00933386D02*
X01214193Y00935078D01*
X01210807D01*
X01209114Y00933386D01*
Y00931693D01*
X01210807Y00930000D01*
X01212500D01*
X01210807D01*
X01209114Y00928307D01*
Y00926614D01*
X01210807Y00924922D01*
X01214193D01*
X01215886Y00926614D01*
X01200650Y00924922D02*
Y00935078D01*
X01205729Y00930000D01*
X01198958D01*
X01284271Y00920886D02*
X01285964Y00922578D01*
X01289350D01*
X01291042Y00920886D01*
Y00914114D01*
X01289350Y00912422D01*
X01285964D01*
X01284271Y00914114D01*
X01280886Y00920886D02*
X01279193Y00922578D01*
X01275807D01*
X01274114Y00920886D01*
Y00919193D01*
X01275807Y00917500D01*
X01277500D01*
X01275807D01*
X01274114Y00915807D01*
Y00914114D01*
X01275807Y00912422D01*
X01279193D01*
X01280886Y00914114D01*
X01270729Y00922578D02*
X01263958D01*
Y00920886D01*
X01270729Y00914114D01*
Y00912422D01*
X01205078Y00911042D02*
X01194922D01*
Y00905964D01*
X01196614Y00904271D01*
X01200000D01*
X01201693Y00905964D01*
Y00911042D01*
Y00907657D02*
X01205078Y00904271D01*
Y00895807D02*
X01194922D01*
X01200000Y00900886D01*
Y00894114D01*
X01196614Y00890729D02*
X01194922Y00889036D01*
Y00885650D01*
X01196614Y00883958D01*
X01203385D01*
X01205078Y00885650D01*
Y00889036D01*
X01203385Y00890729D01*
X01196614D01*
X01219271Y00875886D02*
X01220964Y00877578D01*
X01224350D01*
X01226042Y00875886D01*
Y00869114D01*
X01224350Y00867422D01*
X01220964D01*
X01219271Y00869114D01*
X01215886Y00875886D02*
X01214193Y00877578D01*
X01210807D01*
X01209114Y00875886D01*
Y00874193D01*
X01210807Y00872500D01*
X01212500D01*
X01210807D01*
X01209114Y00870807D01*
Y00869114D01*
X01210807Y00867422D01*
X01214193D01*
X01215886Y00869114D01*
X01205729Y00875886D02*
X01204036Y00877578D01*
X01200650D01*
X01198958Y00875886D01*
Y00869114D01*
X01200650Y00867422D01*
X01204036D01*
X01205729Y00869114D01*
Y00875886D01*
X01219271Y00855886D02*
X01220964Y00857578D01*
X01224350D01*
X01226042Y00855886D01*
Y00849114D01*
X01224350Y00847422D01*
X01220964D01*
X01219271Y00849114D01*
X01215886Y00855886D02*
X01214193Y00857578D01*
X01210807D01*
X01209114Y00855886D01*
Y00854193D01*
X01210807Y00852500D01*
X01212500D01*
X01210807D01*
X01209114Y00850807D01*
Y00849114D01*
X01210807Y00847422D01*
X01214193D01*
X01215886Y00849114D01*
X01198958Y00847422D02*
X01205729D01*
X01198958Y00854193D01*
Y00855886D01*
X01200650Y00857578D01*
X01204036D01*
X01205729Y00855886D01*
X01246771Y01120886D02*
X01248464Y01122578D01*
X01251850D01*
X01253542Y01120886D01*
Y01114114D01*
X01251850Y01112422D01*
X01248464D01*
X01246771Y01114114D01*
X01238307Y01112422D02*
Y01122578D01*
X01243385Y01117500D01*
X01236614D01*
X01228150Y01112422D02*
Y01122578D01*
X01233229Y01117500D01*
X01226458D01*
X01209271Y01120886D02*
X01210964Y01122578D01*
X01214350D01*
X01216042Y01120886D01*
Y01114114D01*
X01214350Y01112422D01*
X01210964D01*
X01209271Y01114114D01*
X01200807Y01112422D02*
Y01122578D01*
X01205885Y01117500D01*
X01199114D01*
X01188958Y01122578D02*
X01195729D01*
Y01117500D01*
X01192343Y01119193D01*
X01190650D01*
X01188958Y01117500D01*
Y01114114D01*
X01190650Y01112422D01*
X01194036D01*
X01195729Y01114114D01*
X01289271Y01128386D02*
X01290964Y01130078D01*
X01294350D01*
X01296042Y01128386D01*
Y01121614D01*
X01294350Y01119922D01*
X01290964D01*
X01289271Y01121614D01*
X01279114Y01130078D02*
X01285886D01*
Y01125000D01*
X01282500Y01126693D01*
X01280807D01*
X01279114Y01125000D01*
Y01121614D01*
X01280807Y01119922D01*
X01284193D01*
X01285886Y01121614D01*
X01275729Y01130078D02*
X01268958D01*
Y01128386D01*
X01275729Y01121614D01*
Y01119922D01*
X01342578Y00983542D02*
X01332422D01*
Y00978464D01*
X01334114Y00976771D01*
X01337500D01*
X01339193Y00978464D01*
Y00983542D01*
Y00980157D02*
X01342578Y00976771D01*
X01332422Y00966614D02*
Y00973386D01*
X01337500D01*
X01335807Y00970000D01*
Y00968307D01*
X01337500Y00966614D01*
X01340885D01*
X01342578Y00968307D01*
Y00971693D01*
X01340885Y00973386D01*
Y00963229D02*
X01342578Y00961536D01*
Y00958150D01*
X01340885Y00956458D01*
X01334114D01*
X01332422Y00958150D01*
Y00961536D01*
X01334114Y00963229D01*
X01335807D01*
X01337500Y00961536D01*
Y00956458D01*
X01330078Y01048542D02*
X01319922D01*
Y01043464D01*
X01321614Y01041771D01*
X01325000D01*
X01326693Y01043464D01*
Y01048542D01*
Y01045157D02*
X01330078Y01041771D01*
X01319922Y01031614D02*
Y01038386D01*
X01325000D01*
X01323307Y01035000D01*
Y01033307D01*
X01325000Y01031614D01*
X01328385D01*
X01330078Y01033307D01*
Y01036693D01*
X01328385Y01038386D01*
X01319922Y01028229D02*
Y01021458D01*
X01321614D01*
X01328385Y01028229D01*
X01330078D01*
X01266614Y01041771D02*
X01264922Y01043464D01*
Y01046850D01*
X01266614Y01048542D01*
X01273386D01*
X01275078Y01046850D01*
Y01043464D01*
X01273386Y01041771D01*
X01264922Y01031614D02*
X01266614Y01035000D01*
X01270000Y01038386D01*
X01273386D01*
X01275078Y01036693D01*
Y01033307D01*
X01273386Y01031614D01*
X01271693D01*
X01270000Y01033307D01*
Y01038386D01*
X01275078Y01023150D02*
X01264922D01*
X01270000Y01028229D01*
Y01021458D01*
X01290078Y01091042D02*
X01279922D01*
Y01085964D01*
X01281614Y01084271D01*
X01285000D01*
X01286693Y01085964D01*
Y01091042D01*
Y01087657D02*
X01290078Y01084271D01*
Y01075807D02*
X01279922D01*
X01285000Y01080886D01*
Y01074114D01*
X01279922Y01070729D02*
Y01063958D01*
X01281614D01*
X01288386Y01070729D01*
X01290078D01*
X01339271Y01128386D02*
X01340964Y01130078D01*
X01344350D01*
X01346042Y01128386D01*
Y01121614D01*
X01344350Y01119922D01*
X01340964D01*
X01339271Y01121614D01*
X01329114Y01130078D02*
X01335886D01*
Y01125000D01*
X01332500Y01126693D01*
X01330807D01*
X01329114Y01125000D01*
Y01121614D01*
X01330807Y01119922D01*
X01334193D01*
X01335886Y01121614D01*
X01318958Y01130078D02*
X01322343Y01128386D01*
X01325729Y01125000D01*
Y01121614D01*
X01324036Y01119922D01*
X01320650D01*
X01318958Y01121614D01*
Y01123307D01*
X01320650Y01125000D01*
X01325729D01*
X01371771Y01128386D02*
X01373464Y01130078D01*
X01376850D01*
X01378542Y01128386D01*
Y01121614D01*
X01376850Y01119922D01*
X01373464D01*
X01371771Y01121614D01*
X01363307Y01119922D02*
Y01130078D01*
X01368386Y01125000D01*
X01361614D01*
X01358229Y01128386D02*
X01356536Y01130078D01*
X01353150D01*
X01351458Y01128386D01*
Y01126693D01*
X01353150Y01125000D01*
X01354843D01*
X01353150D01*
X01351458Y01123307D01*
Y01121614D01*
X01353150Y01119922D01*
X01356536D01*
X01358229Y01121614D01*
X01439271Y01130886D02*
X01440964Y01132578D01*
X01444350D01*
X01446042Y01130886D01*
Y01124114D01*
X01444350Y01122422D01*
X01440964D01*
X01439271Y01124114D01*
X01430807Y01122422D02*
Y01132578D01*
X01435886Y01127500D01*
X01429114D01*
X01418958Y01122422D02*
X01425729D01*
X01418958Y01129193D01*
Y01130886D01*
X01420650Y01132578D01*
X01424036D01*
X01425729Y01130886D01*
X01441042Y01197422D02*
Y01207578D01*
X01435964D01*
X01434271Y01205886D01*
Y01202500D01*
X01435964Y01200807D01*
X01441042D01*
X01437657D02*
X01434271Y01197422D01*
X01430886Y01205886D02*
X01429193Y01207578D01*
X01425807D01*
X01424114Y01205886D01*
Y01204193D01*
X01425807Y01202500D01*
X01427500D01*
X01425807D01*
X01424114Y01200807D01*
Y01199114D01*
X01425807Y01197422D01*
X01429193D01*
X01430886Y01199114D01*
X01420729Y01207578D02*
X01413958D01*
Y01205886D01*
X01420729Y01199114D01*
Y01197422D01*
X01434271Y01188386D02*
X01435964Y01190078D01*
X01439350D01*
X01441042Y01188386D01*
Y01181614D01*
X01439350Y01179922D01*
X01435964D01*
X01434271Y01181614D01*
X01424114Y01190078D02*
X01430886D01*
Y01185000D01*
X01427500Y01186693D01*
X01425807D01*
X01424114Y01185000D01*
Y01181614D01*
X01425807Y01179922D01*
X01429193D01*
X01430886Y01181614D01*
X01413958Y01179922D02*
X01420729D01*
X01413958Y01186693D01*
Y01188386D01*
X01415650Y01190078D01*
X01419036D01*
X01420729Y01188386D01*
X01434271Y01168386D02*
X01435964Y01170078D01*
X01439350D01*
X01441042Y01168386D01*
Y01161614D01*
X01439350Y01159922D01*
X01435964D01*
X01434271Y01161614D01*
X01424114Y01170078D02*
X01430886D01*
Y01165000D01*
X01427500Y01166693D01*
X01425807D01*
X01424114Y01165000D01*
Y01161614D01*
X01425807Y01159922D01*
X01429193D01*
X01430886Y01161614D01*
X01415650Y01159922D02*
Y01170078D01*
X01420729Y01165000D01*
X01413958D01*
X01489636Y01195729D02*
X01491328Y01194036D01*
Y01190650D01*
X01489636Y01188958D01*
X01482864D01*
X01481172Y01190650D01*
Y01194036D01*
X01482864Y01195729D01*
X01491328Y01205885D02*
X01489636Y01202500D01*
X01486250Y01199114D01*
X01482864D01*
X01481172Y01200807D01*
Y01204193D01*
X01482864Y01205885D01*
X01484557D01*
X01486250Y01204193D01*
Y01199114D01*
X01491328Y01216042D02*
Y01209271D01*
X01486250D01*
X01487943Y01212657D01*
Y01214350D01*
X01486250Y01216042D01*
X01482864D01*
X01481172Y01214350D01*
Y01210964D01*
X01482864Y01209271D01*
X01540078Y01118542D02*
X01529922D01*
Y01113464D01*
X01531614Y01111771D01*
X01535000D01*
X01536693Y01113464D01*
Y01118542D01*
Y01115157D02*
X01540078Y01111771D01*
X01529922Y01101615D02*
Y01108386D01*
X01535000D01*
X01533307Y01105000D01*
Y01103307D01*
X01535000Y01101615D01*
X01538385D01*
X01540078Y01103307D01*
Y01106693D01*
X01538385Y01108386D01*
X01531614Y01098229D02*
X01529922Y01096536D01*
Y01093150D01*
X01531614Y01091458D01*
X01533307D01*
X01535000Y01093150D01*
X01536693Y01091458D01*
X01538385D01*
X01540078Y01093150D01*
Y01096536D01*
X01538385Y01098229D01*
X01536693D01*
X01535000Y01096536D01*
X01533307Y01098229D01*
X01531614D01*
X01535000Y01096536D02*
Y01093150D01*
X01499672Y01189708D02*
X01509828D01*
Y01194786D01*
X01508136Y01196479D01*
X01504750D01*
X01503057Y01194786D01*
Y01189708D01*
Y01193093D02*
X01499672Y01196479D01*
X01509828Y01206636D02*
X01508136Y01203250D01*
X01504750Y01199864D01*
X01501364D01*
X01499672Y01201557D01*
Y01204943D01*
X01501364Y01206636D01*
X01503057D01*
X01504750Y01204943D01*
Y01199864D01*
X01508136Y01210021D02*
X01509828Y01211714D01*
Y01215099D01*
X01508136Y01216792D01*
X01501364D01*
X01499672Y01215099D01*
Y01211714D01*
X01501364Y01210021D01*
X01508136D01*
X01441042Y01217422D02*
Y01227578D01*
X01435964D01*
X01434271Y01225886D01*
Y01222500D01*
X01435964Y01220807D01*
X01441042D01*
X01437657D02*
X01434271Y01217422D01*
X01430886Y01225886D02*
X01429193Y01227578D01*
X01425807D01*
X01424114Y01225886D01*
Y01224193D01*
X01425807Y01222500D01*
X01427500D01*
X01425807D01*
X01424114Y01220807D01*
Y01219114D01*
X01425807Y01217422D01*
X01429193D01*
X01430886Y01219114D01*
X01420729Y01225886D02*
X01419036Y01227578D01*
X01415650D01*
X01413958Y01225886D01*
Y01224193D01*
X01415650Y01222500D01*
X01413958Y01220807D01*
Y01219114D01*
X01415650Y01217422D01*
X01419036D01*
X01420729Y01219114D01*
Y01220807D01*
X01419036Y01222500D01*
X01420729Y01224193D01*
Y01225886D01*
X01419036Y01222500D02*
X01415650D01*
X01441042Y01234922D02*
Y01245078D01*
X01435964D01*
X01434271Y01243386D01*
Y01240000D01*
X01435964Y01238307D01*
X01441042D01*
X01437657D02*
X01434271Y01234922D01*
X01425807D02*
Y01245078D01*
X01430886Y01240000D01*
X01424114D01*
X01415650Y01234922D02*
Y01245078D01*
X01420729Y01240000D01*
X01413958D01*
X01222422Y01523464D02*
X01232578D01*
Y01516693D01*
X01222422Y01506536D02*
X01224114Y01509922D01*
X01227500Y01513307D01*
X01230885D01*
X01232578Y01511614D01*
Y01508229D01*
X01230885Y01506536D01*
X01229193D01*
X01227500Y01508229D01*
Y01513307D01*
X01222422Y01470964D02*
X01232578D01*
Y01464193D01*
X01222422Y01460807D02*
Y01454036D01*
X01224114D01*
X01230885Y01460807D01*
X01232578D01*
X01325078Y01478542D02*
X01314922D01*
Y01473464D01*
X01316614Y01471771D01*
X01320000D01*
X01321693Y01473464D01*
Y01478542D01*
Y01475157D02*
X01325078Y01471771D01*
X01314922Y01468386D02*
Y01461614D01*
X01316614D01*
X01323386Y01468386D01*
X01325078D01*
Y01451458D02*
Y01458229D01*
X01318307Y01451458D01*
X01316614D01*
X01314922Y01453150D01*
Y01456536D01*
X01316614Y01458229D01*
X01295078Y01479350D02*
X01284922D01*
Y01474271D01*
X01286614Y01472578D01*
X01290000D01*
X01291693Y01474271D01*
Y01479350D01*
Y01475964D02*
X01295078Y01472578D01*
X01284922Y01469193D02*
Y01462422D01*
X01286614D01*
X01293385Y01469193D01*
X01295078D01*
Y01459036D02*
Y01455650D01*
Y01457343D01*
X01284922D01*
X01286614Y01459036D01*
X01379922Y01523464D02*
X01390078D01*
Y01516693D01*
X01379922Y01506536D02*
Y01513307D01*
X01385000D01*
X01383307Y01509922D01*
Y01508229D01*
X01385000Y01506536D01*
X01388386D01*
X01390078Y01508229D01*
Y01511614D01*
X01388386Y01513307D01*
X01379922Y01473464D02*
X01390078D01*
Y01466693D01*
Y01458229D02*
X01379922D01*
X01385000Y01463307D01*
Y01456536D01*
X01449271Y01498386D02*
X01450964Y01500078D01*
X01454350D01*
X01456042Y01498386D01*
Y01491614D01*
X01454350Y01489922D01*
X01450964D01*
X01449271Y01491614D01*
X01439114Y01500078D02*
X01442500Y01498386D01*
X01445886Y01495000D01*
Y01491614D01*
X01444193Y01489922D01*
X01440807D01*
X01439114Y01491614D01*
Y01493307D01*
X01440807Y01495000D01*
X01445886D01*
X01435729Y01498386D02*
X01434036Y01500078D01*
X01430650D01*
X01428958Y01498386D01*
Y01491614D01*
X01430650Y01489922D01*
X01434036D01*
X01435729Y01491614D01*
Y01498386D01*
X01407422Y01415964D02*
X01417578D01*
Y01410886D01*
X01415886Y01409193D01*
X01409114D01*
X01407422Y01410886D01*
Y01415964D01*
X01409114Y01405807D02*
X01407422Y01404114D01*
Y01400729D01*
X01409114Y01399036D01*
X01410807D01*
X01412500Y01400729D01*
Y01402422D01*
Y01400729D01*
X01414193Y01399036D01*
X01415886D01*
X01417578Y01400729D01*
Y01404114D01*
X01415886Y01405807D01*
X01447578Y01374036D02*
X01437422D01*
Y01379114D01*
X01439114Y01380807D01*
X01445886D01*
X01447578Y01379114D01*
Y01374036D01*
X01437422Y01390964D02*
Y01384193D01*
X01444193Y01390964D01*
X01445886D01*
X01447578Y01389271D01*
Y01385886D01*
X01445886Y01384193D01*
X01462422Y01414271D02*
X01472578D01*
Y01409193D01*
X01470886Y01407500D01*
X01464114D01*
X01462422Y01409193D01*
Y01414271D01*
X01472578Y01404114D02*
Y01400729D01*
Y01402422D01*
X01462422D01*
X01464114Y01404114D01*
X01372578Y01353542D02*
X01362422D01*
Y01348464D01*
X01364114Y01346771D01*
X01367500D01*
X01369193Y01348464D01*
Y01353542D01*
Y01350157D02*
X01372578Y01346771D01*
Y01338307D02*
X01362422D01*
X01367500Y01343386D01*
Y01336614D01*
X01372578Y01326458D02*
Y01333229D01*
X01365807Y01326458D01*
X01364114D01*
X01362422Y01328150D01*
Y01331536D01*
X01364114Y01333229D01*
X01420078Y01301536D02*
X01411614D01*
X01409922Y01303229D01*
Y01306614D01*
X01411614Y01308307D01*
X01420078D01*
Y01318464D02*
X01418386Y01315078D01*
X01415000Y01311693D01*
X01411614D01*
X01409922Y01313386D01*
Y01316771D01*
X01411614Y01318464D01*
X01413307D01*
X01415000Y01316771D01*
Y01311693D01*
X01384114Y01346771D02*
X01382422Y01348464D01*
Y01351850D01*
X01384114Y01353542D01*
X01390886D01*
X01392578Y01351850D01*
Y01348464D01*
X01390886Y01346771D01*
X01382422Y01336614D02*
Y01343386D01*
X01387500D01*
X01385807Y01340000D01*
Y01338307D01*
X01387500Y01336614D01*
X01390886D01*
X01392578Y01338307D01*
Y01341693D01*
X01390886Y01343386D01*
X01384114Y01333229D02*
X01382422Y01331536D01*
Y01328150D01*
X01384114Y01326458D01*
X01385807D01*
X01387500Y01328150D01*
X01389193Y01326458D01*
X01390886D01*
X01392578Y01328150D01*
Y01331536D01*
X01390886Y01333229D01*
X01389193D01*
X01387500Y01331536D01*
X01385807Y01333229D01*
X01384114D01*
X01387500Y01331536D02*
Y01328150D01*
X01419114Y01377578D02*
X01417422Y01379271D01*
Y01382657D01*
X01419114Y01384350D01*
X01425886D01*
X01427578Y01382657D01*
Y01379271D01*
X01425886Y01377578D01*
X01417422Y01367422D02*
Y01374193D01*
X01422500D01*
X01420807Y01370807D01*
Y01369114D01*
X01422500Y01367422D01*
X01425886D01*
X01427578Y01369114D01*
Y01372500D01*
X01425886Y01374193D01*
X01427578Y01364036D02*
Y01360650D01*
Y01362343D01*
X01417422D01*
X01419114Y01364036D01*
X01345078Y01383542D02*
X01334922D01*
Y01378464D01*
X01336614Y01376771D01*
X01340000D01*
X01341693Y01378464D01*
Y01383542D01*
Y01380157D02*
X01345078Y01376771D01*
Y01368307D02*
X01334922D01*
X01340000Y01373386D01*
Y01366615D01*
X01343385Y01363229D02*
X01345078Y01361536D01*
Y01358150D01*
X01343385Y01356458D01*
X01336614D01*
X01334922Y01358150D01*
Y01361536D01*
X01336614Y01363229D01*
X01338307D01*
X01340000Y01361536D01*
Y01356458D01*
X01250078Y01386042D02*
X01239922D01*
Y01380964D01*
X01241614Y01379271D01*
X01245000D01*
X01246693Y01380964D01*
Y01386042D01*
Y01382657D02*
X01250078Y01379271D01*
Y01370807D02*
X01239922D01*
X01245000Y01375886D01*
Y01369114D01*
X01239922Y01358958D02*
X01241614Y01362343D01*
X01245000Y01365729D01*
X01248386D01*
X01250078Y01364036D01*
Y01360650D01*
X01248386Y01358958D01*
X01246693D01*
X01245000Y01360650D01*
Y01365729D01*
X01032696Y01522578D02*
Y01514114D01*
X01031003Y01512422D01*
X01027617D01*
X01025925Y01514114D01*
Y01522578D01*
X01022539Y01512422D02*
X01019154D01*
X01020846D01*
Y01522578D01*
X01022539Y01520886D01*
X01014075D02*
X01012382Y01522578D01*
X01008997D01*
X01007304Y01520886D01*
Y01514114D01*
X01008997Y01512422D01*
X01012382D01*
X01014075Y01514114D01*
Y01520886D01*
X01045886Y01455729D02*
X01047578Y01454036D01*
Y01450650D01*
X01045886Y01448958D01*
X01039114D01*
X01037422Y01450650D01*
Y01454036D01*
X01039114Y01455729D01*
X01045886Y01459114D02*
X01047578Y01460807D01*
Y01464193D01*
X01045886Y01465885D01*
X01044193D01*
X01042500Y01464193D01*
X01040807Y01465885D01*
X01039114D01*
X01037422Y01464193D01*
Y01460807D01*
X01039114Y01459114D01*
X01040807D01*
X01042500Y01460807D01*
X01044193Y01459114D01*
X01045886D01*
X01042500Y01460807D02*
Y01464193D01*
X01045886Y01469271D02*
X01047578Y01470964D01*
Y01474350D01*
X01045886Y01476042D01*
X01044193D01*
X01042500Y01474350D01*
Y01472657D01*
Y01474350D01*
X01040807Y01476042D01*
X01039114D01*
X01037422Y01474350D01*
Y01470964D01*
X01039114Y01469271D01*
Y01434271D02*
X01037422Y01435964D01*
Y01439350D01*
X01039114Y01441042D01*
X01045886D01*
X01047578Y01439350D01*
Y01435964D01*
X01045886Y01434271D01*
X01039114Y01430886D02*
X01037422Y01429193D01*
Y01425807D01*
X01039114Y01424114D01*
X01040807D01*
X01042500Y01425807D01*
X01044193Y01424114D01*
X01045886D01*
X01047578Y01425807D01*
Y01429193D01*
X01045886Y01430886D01*
X01044193D01*
X01042500Y01429193D01*
X01040807Y01430886D01*
X01039114D01*
X01042500Y01429193D02*
Y01425807D01*
X01047578Y01415650D02*
X01037422D01*
X01042500Y01420729D01*
Y01413958D01*
X00919271Y01503386D02*
X00920964Y01505078D01*
X00924350D01*
X00926042Y01503386D01*
Y01496614D01*
X00924350Y01494922D01*
X00920964D01*
X00919271Y01496614D01*
X00915886D02*
X00914193Y01494922D01*
X00910807D01*
X00909114Y01496614D01*
Y01503386D01*
X00910807Y01505078D01*
X00914193D01*
X00915886Y01503386D01*
Y01501693D01*
X00914193Y01500000D01*
X00909114D01*
X00905729Y01503386D02*
X00904036Y01505078D01*
X00900650D01*
X00898958Y01503386D01*
Y01496614D01*
X00900650Y01494922D01*
X00904036D01*
X00905729Y01496614D01*
Y01503386D01*
X00912578Y01488621D02*
X00902422D01*
Y01483542D01*
X00904114Y01481850D01*
X00907500D01*
X00909193Y01483542D01*
Y01488621D01*
X00902422Y01473386D02*
Y01476771D01*
X00904114Y01478464D01*
X00910886D01*
X00912578Y01476771D01*
Y01473386D01*
X00910886Y01471693D01*
X00904114D01*
X00902422Y01473386D01*
Y01468307D02*
Y01461536D01*
Y01464922D01*
X00912578D01*
X00910886Y01458150D02*
X00912578Y01456458D01*
Y01453072D01*
X00910886Y01451379D01*
X00904114D01*
X00902422Y01453072D01*
Y01456458D01*
X00904114Y01458150D01*
X00905807D01*
X00907500Y01456458D01*
Y01451379D01*
X00874922Y01508503D02*
X00883386D01*
X00885078Y01506810D01*
Y01503425D01*
X00883386Y01501732D01*
X00874922D01*
X00885078Y01498346D02*
Y01494961D01*
Y01496654D01*
X00874922D01*
X00876614Y01498346D01*
X00885078Y01489882D02*
Y01486497D01*
Y01488190D01*
X00874922D01*
X00876614Y01489882D01*
X00755078Y01503386D02*
X00756771Y01505078D01*
X00760157D01*
X00761850Y01503386D01*
Y01496614D01*
X00760157Y01494922D01*
X00756771D01*
X00755078Y01496614D01*
X00751693D02*
X00750000Y01494922D01*
X00746614D01*
X00744922Y01496614D01*
Y01503386D01*
X00746614Y01505078D01*
X00750000D01*
X00751693Y01503386D01*
Y01501693D01*
X00750000Y01500000D01*
X00744922D01*
X00741536Y01494922D02*
X00738150D01*
X00739843D01*
Y01505078D01*
X00741536Y01503386D01*
X00750078Y01487853D02*
X00739922D01*
Y01482774D01*
X00741614Y01481082D01*
X00745000D01*
X00746693Y01482774D01*
Y01487853D01*
X00739922Y01472617D02*
Y01476003D01*
X00741614Y01477696D01*
X00748385D01*
X00750078Y01476003D01*
Y01472617D01*
X00748385Y01470925D01*
X00741614D01*
X00739922Y01472617D01*
Y01467539D02*
Y01460768D01*
Y01464154D01*
X00750078D01*
Y01457382D02*
Y01453997D01*
Y01455690D01*
X00739922D01*
X00741614Y01457382D01*
Y01448918D02*
X00739922Y01447226D01*
Y01443840D01*
X00741614Y01442147D01*
X00748385D01*
X00750078Y01443840D01*
Y01447226D01*
X00748385Y01448918D01*
X00741614D01*
X00792578Y01387696D02*
X00782422D01*
Y01382617D01*
X00784114Y01380925D01*
X00787500D01*
X00789193Y01382617D01*
Y01387696D01*
Y01384310D02*
X00792578Y01380925D01*
Y01377539D02*
Y01374154D01*
Y01375846D01*
X00782422D01*
X00784114Y01377539D01*
Y01369075D02*
X00782422Y01367382D01*
Y01363997D01*
X00784114Y01362304D01*
X00790886D01*
X00792578Y01363997D01*
Y01367382D01*
X00790886Y01369075D01*
X00784114D01*
X00957578Y01388464D02*
X00947422D01*
Y01383385D01*
X00949114Y01381693D01*
X00952500D01*
X00954193Y01383385D01*
Y01388464D01*
Y01385078D02*
X00957578Y01381693D01*
X00949114Y01378307D02*
X00947422Y01376614D01*
Y01373229D01*
X00949114Y01371536D01*
X00950807D01*
X00952500Y01373229D01*
X00954193Y01371536D01*
X00955886D01*
X00957578Y01373229D01*
Y01376614D01*
X00955886Y01378307D01*
X00954193D01*
X00952500Y01376614D01*
X00950807Y01378307D01*
X00949114D01*
X00952500Y01376614D02*
Y01373229D01*
X00937578Y01388542D02*
X00927422D01*
Y01383464D01*
X00929114Y01381771D01*
X00932500D01*
X00934193Y01383464D01*
Y01388542D01*
Y01385157D02*
X00937578Y01381771D01*
X00927422Y01378386D02*
Y01371614D01*
X00929114D01*
X00935886Y01378386D01*
X00937578D01*
X00929114Y01368229D02*
X00927422Y01366536D01*
Y01363150D01*
X00929114Y01361458D01*
X00930807D01*
X00932500Y01363150D01*
Y01364843D01*
Y01363150D01*
X00934193Y01361458D01*
X00935886D01*
X00937578Y01363150D01*
Y01366536D01*
X00935886Y01368229D01*
X00896614Y01381771D02*
X00894922Y01383464D01*
Y01386850D01*
X00896614Y01388542D01*
X00903386D01*
X00905078Y01386850D01*
Y01383464D01*
X00903386Y01381771D01*
X00896614Y01378386D02*
X00894922Y01376693D01*
Y01373307D01*
X00896614Y01371614D01*
X00898307D01*
X00900000Y01373307D01*
X00901693Y01371614D01*
X00903386D01*
X00905078Y01373307D01*
Y01376693D01*
X00903386Y01378386D01*
X00901693D01*
X00900000Y01376693D01*
X00898307Y01378386D01*
X00896614D01*
X00900000Y01376693D02*
Y01373307D01*
X00894922Y01368229D02*
Y01361458D01*
X00896614D01*
X00903386Y01368229D01*
X00905078D01*
X00876614Y01381771D02*
X00874922Y01383464D01*
Y01386850D01*
X00876614Y01388542D01*
X00883386D01*
X00885078Y01386850D01*
Y01383464D01*
X00883386Y01381771D01*
X00876614Y01378386D02*
X00874922Y01376693D01*
Y01373307D01*
X00876614Y01371614D01*
X00878307D01*
X00880000Y01373307D01*
X00881693Y01371614D01*
X00883386D01*
X00885078Y01373307D01*
Y01376693D01*
X00883386Y01378386D01*
X00881693D01*
X00880000Y01376693D01*
X00878307Y01378386D01*
X00876614D01*
X00880000Y01376693D02*
Y01373307D01*
X00874922Y01361458D02*
X00876614Y01364843D01*
X00880000Y01368229D01*
X00883386D01*
X00885078Y01366536D01*
Y01363150D01*
X00883386Y01361458D01*
X00881693D01*
X00880000Y01363150D01*
Y01368229D01*
X00984271Y01383386D02*
X00985964Y01385078D01*
X00989350D01*
X00991042Y01383386D01*
Y01376614D01*
X00989350Y01374922D01*
X00985964D01*
X00984271Y01376614D01*
X00980886D02*
X00979193Y01374922D01*
X00975807D01*
X00974114Y01376614D01*
Y01383386D01*
X00975807Y01385078D01*
X00979193D01*
X00980886Y01383386D01*
Y01381693D01*
X00979193Y01380000D01*
X00974114D01*
X00965650Y01374922D02*
Y01385078D01*
X00970729Y01380000D01*
X00963958D01*
X00999922Y01333464D02*
X01010078D01*
Y01326693D01*
X01001614Y01323307D02*
X00999922Y01321614D01*
Y01318229D01*
X01001614Y01316536D01*
X01003307D01*
X01005000Y01318229D01*
X01006693Y01316536D01*
X01008386D01*
X01010078Y01318229D01*
Y01321614D01*
X01008386Y01323307D01*
X01006693D01*
X01005000Y01321614D01*
X01003307Y01323307D01*
X01001614D01*
X01005000Y01321614D02*
Y01318229D01*
X01019114Y01326771D02*
X01017422Y01328464D01*
Y01331850D01*
X01019114Y01333542D01*
X01025885D01*
X01027578Y01331850D01*
Y01328464D01*
X01025885Y01326771D01*
Y01323386D02*
X01027578Y01321693D01*
Y01318307D01*
X01025885Y01316615D01*
X01019114D01*
X01017422Y01318307D01*
Y01321693D01*
X01019114Y01323386D01*
X01020807D01*
X01022500Y01321693D01*
Y01316615D01*
X01019114Y01313229D02*
X01017422Y01311536D01*
Y01308150D01*
X01019114Y01306458D01*
X01020807D01*
X01022500Y01308150D01*
Y01309843D01*
Y01308150D01*
X01024193Y01306458D01*
X01025885D01*
X01027578Y01308150D01*
Y01311536D01*
X01025885Y01313229D01*
X01100196Y01402578D02*
Y01394114D01*
X01098503Y01392422D01*
X01095117D01*
X01093425Y01394114D01*
Y01402578D01*
X01090039Y01392422D02*
X01086654D01*
X01088346D01*
Y01402578D01*
X01090039Y01400886D01*
X01074804Y01392422D02*
X01081575D01*
X01074804Y01399193D01*
Y01400886D01*
X01076497Y01402578D01*
X01079882D01*
X01081575Y01400886D01*
X01194271Y01340886D02*
X01195964Y01342578D01*
X01199350D01*
X01201042Y01340886D01*
Y01334114D01*
X01199350Y01332422D01*
X01195964D01*
X01194271Y01334114D01*
X01184114Y01342578D02*
X01190886D01*
Y01337500D01*
X01187500Y01339193D01*
X01185807D01*
X01184114Y01337500D01*
Y01334114D01*
X01185807Y01332422D01*
X01189193D01*
X01190886Y01334114D01*
X01180729Y01340886D02*
X01179036Y01342578D01*
X01175650D01*
X01173958Y01340886D01*
Y01339193D01*
X01175650Y01337500D01*
X01177343D01*
X01175650D01*
X01173958Y01335807D01*
Y01334114D01*
X01175650Y01332422D01*
X01179036D01*
X01180729Y01334114D01*
X01174271Y01320886D02*
X01175964Y01322578D01*
X01179350D01*
X01181042Y01320886D01*
Y01314114D01*
X01179350Y01312422D01*
X01175964D01*
X01174271Y01314114D01*
X01164114Y01322578D02*
X01170886D01*
Y01317500D01*
X01167500Y01319193D01*
X01165807D01*
X01164114Y01317500D01*
Y01314114D01*
X01165807Y01312422D01*
X01169193D01*
X01170886Y01314114D01*
X01160729Y01320886D02*
X01159036Y01322578D01*
X01155650D01*
X01153958Y01320886D01*
Y01314114D01*
X01155650Y01312422D01*
X01159036D01*
X01160729Y01314114D01*
Y01320886D01*
X01174271Y01303386D02*
X01175964Y01305078D01*
X01179350D01*
X01181042Y01303386D01*
Y01296614D01*
X01179350Y01294922D01*
X01175964D01*
X01174271Y01296614D01*
X01164114Y01305078D02*
X01170886D01*
Y01300000D01*
X01167500Y01301693D01*
X01165807D01*
X01164114Y01300000D01*
Y01296614D01*
X01165807Y01294922D01*
X01169193D01*
X01170886Y01296614D01*
X01160729D02*
X01159036Y01294922D01*
X01155650D01*
X01153958Y01296614D01*
Y01303386D01*
X01155650Y01305078D01*
X01159036D01*
X01160729Y01303386D01*
Y01301693D01*
X01159036Y01300000D01*
X01153958D01*
X01181042Y01274922D02*
Y01285078D01*
X01175964D01*
X01174271Y01283386D01*
Y01280000D01*
X01175964Y01278307D01*
X01181042D01*
X01177657D02*
X01174271Y01274922D01*
X01165807D02*
Y01285078D01*
X01170886Y01280000D01*
X01164114D01*
X01153958Y01285078D02*
X01160729D01*
Y01280000D01*
X01157343Y01281693D01*
X01155650D01*
X01153958Y01280000D01*
Y01276614D01*
X01155650Y01274922D01*
X01159036D01*
X01160729Y01276614D01*
X01169271Y01165078D02*
Y01154922D01*
X01162500D01*
X01159114D02*
X01155729D01*
X01157422D01*
Y01165078D01*
X01159114Y01163386D01*
X01181042Y01237422D02*
Y01247578D01*
X01175964D01*
X01174271Y01245886D01*
Y01242500D01*
X01175964Y01240807D01*
X01181042D01*
X01177657D02*
X01174271Y01237422D01*
X01170886Y01245886D02*
X01169193Y01247578D01*
X01165807D01*
X01164114Y01245886D01*
Y01244193D01*
X01165807Y01242500D01*
X01167500D01*
X01165807D01*
X01164114Y01240807D01*
Y01239114D01*
X01165807Y01237422D01*
X01169193D01*
X01170886Y01239114D01*
X01153958Y01247578D02*
X01160729D01*
Y01242500D01*
X01157343Y01244193D01*
X01155650D01*
X01153958Y01242500D01*
Y01239114D01*
X01155650Y01237422D01*
X01159036D01*
X01160729Y01239114D01*
X01181042Y01219922D02*
Y01230078D01*
X01175964D01*
X01174271Y01228386D01*
Y01225000D01*
X01175964Y01223307D01*
X01181042D01*
X01177657D02*
X01174271Y01219922D01*
X01170886Y01228386D02*
X01169193Y01230078D01*
X01165807D01*
X01164114Y01228386D01*
Y01226693D01*
X01165807Y01225000D01*
X01167500D01*
X01165807D01*
X01164114Y01223307D01*
Y01221614D01*
X01165807Y01219922D01*
X01169193D01*
X01170886Y01221614D01*
X01153958Y01230078D02*
X01157343Y01228386D01*
X01160729Y01225000D01*
Y01221614D01*
X01159036Y01219922D01*
X01155650D01*
X01153958Y01221614D01*
Y01223307D01*
X01155650Y01225000D01*
X01160729D01*
X01181042Y01199922D02*
Y01210078D01*
X01175964D01*
X01174271Y01208386D01*
Y01205000D01*
X01175964Y01203307D01*
X01181042D01*
X01177657D02*
X01174271Y01199922D01*
X01165807D02*
Y01210078D01*
X01170886Y01205000D01*
X01164114D01*
X01160729Y01208386D02*
X01159036Y01210078D01*
X01155650D01*
X01153958Y01208386D01*
Y01206693D01*
X01155650Y01205000D01*
X01153958Y01203307D01*
Y01201614D01*
X01155650Y01199922D01*
X01159036D01*
X01160729Y01201614D01*
Y01203307D01*
X01159036Y01205000D01*
X01160729Y01206693D01*
Y01208386D01*
X01159036Y01205000D02*
X01155650D01*
X01176850Y01179922D02*
Y01190078D01*
X01171771D01*
X01170078Y01188386D01*
Y01185000D01*
X01171771Y01183307D01*
X01176850D01*
X01173464D02*
X01170078Y01179922D01*
X01161614D02*
Y01190078D01*
X01166693Y01185000D01*
X01159922D01*
X01156536Y01179922D02*
X01153150D01*
X01154843D01*
Y01190078D01*
X01156536Y01188386D01*
X01079271D02*
X01080964Y01190078D01*
X01084350D01*
X01086042Y01188386D01*
Y01181614D01*
X01084350Y01179922D01*
X01080964D01*
X01079271Y01181614D01*
X01069114Y01190078D02*
X01075886D01*
Y01185000D01*
X01072500Y01186693D01*
X01070807D01*
X01069114Y01185000D01*
Y01181614D01*
X01070807Y01179922D01*
X01074193D01*
X01075886Y01181614D01*
X01058958Y01190078D02*
X01065729D01*
Y01185000D01*
X01062343Y01186693D01*
X01060650D01*
X01058958Y01185000D01*
Y01181614D01*
X01060650Y01179922D01*
X01064036D01*
X01065729Y01181614D01*
X01096771Y01143386D02*
X01098464Y01145078D01*
X01101850D01*
X01103542Y01143386D01*
Y01136614D01*
X01101850Y01134922D01*
X01098464D01*
X01096771Y01136614D01*
X01088307Y01134922D02*
Y01145078D01*
X01093386Y01140000D01*
X01086614D01*
X01083229Y01143386D02*
X01081536Y01145078D01*
X01078150D01*
X01076458Y01143386D01*
Y01141693D01*
X01078150Y01140000D01*
X01076458Y01138307D01*
Y01136614D01*
X01078150Y01134922D01*
X01081536D01*
X01083229Y01136614D01*
Y01138307D01*
X01081536Y01140000D01*
X01083229Y01141693D01*
Y01143386D01*
X01081536Y01140000D02*
X01078150D01*
X01096771Y01123386D02*
X01098464Y01125078D01*
X01101850D01*
X01103542Y01123386D01*
Y01116614D01*
X01101850Y01114922D01*
X01098464D01*
X01096771Y01116614D01*
X01088307Y01114922D02*
Y01125078D01*
X01093386Y01120000D01*
X01086614D01*
X01083229Y01116614D02*
X01081536Y01114922D01*
X01078150D01*
X01076458Y01116614D01*
Y01123386D01*
X01078150Y01125078D01*
X01081536D01*
X01083229Y01123386D01*
Y01121693D01*
X01081536Y01120000D01*
X01076458D01*
X01162422Y01096458D02*
X01172578D01*
Y01101536D01*
X01170886Y01103229D01*
X01167500D01*
X01165807Y01101536D01*
Y01096458D01*
Y01099843D02*
X01162422Y01103229D01*
X01170886Y01106614D02*
X01172578Y01108307D01*
Y01111693D01*
X01170886Y01113385D01*
X01169193D01*
X01167500Y01111693D01*
Y01110000D01*
Y01111693D01*
X01165807Y01113385D01*
X01164114D01*
X01162422Y01111693D01*
Y01108307D01*
X01164114Y01106614D01*
Y01116771D02*
X01162422Y01118464D01*
Y01121850D01*
X01164114Y01123542D01*
X01170886D01*
X01172578Y01121850D01*
Y01118464D01*
X01170886Y01116771D01*
X01169193D01*
X01167500Y01118464D01*
Y01123542D01*
X01096771Y01103386D02*
X01098464Y01105078D01*
X01101850D01*
X01103542Y01103386D01*
Y01096614D01*
X01101850Y01094922D01*
X01098464D01*
X01096771Y01096614D01*
X01088307Y01094922D02*
Y01105078D01*
X01093386Y01100000D01*
X01086614D01*
X01083229Y01105078D02*
X01076458D01*
Y01103386D01*
X01083229Y01096614D01*
Y01094922D01*
X01096771Y01083386D02*
X01098464Y01085078D01*
X01101850D01*
X01103542Y01083386D01*
Y01076614D01*
X01101850Y01074922D01*
X01098464D01*
X01096771Y01076614D01*
X01088307Y01074922D02*
Y01085078D01*
X01093386Y01080000D01*
X01086614D01*
X01076458Y01085078D02*
X01079843Y01083386D01*
X01083229Y01080000D01*
Y01076614D01*
X01081536Y01074922D01*
X01078150D01*
X01076458Y01076614D01*
Y01078307D01*
X01078150Y01080000D01*
X01083229D01*
X01105886Y01028229D02*
X01107578Y01026536D01*
Y01023150D01*
X01105886Y01021458D01*
X01099114D01*
X01097422Y01023150D01*
Y01026536D01*
X01099114Y01028229D01*
X01107578Y01038385D02*
X01105886Y01035000D01*
X01102500Y01031614D01*
X01099114D01*
X01097422Y01033307D01*
Y01036693D01*
X01099114Y01038385D01*
X01100807D01*
X01102500Y01036693D01*
Y01031614D01*
X01105886Y01041771D02*
X01107578Y01043464D01*
Y01046850D01*
X01105886Y01048542D01*
X01104193D01*
X01102500Y01046850D01*
Y01045157D01*
Y01046850D01*
X01100807Y01048542D01*
X01099114D01*
X01097422Y01046850D01*
Y01043464D01*
X01099114Y01041771D01*
X01165078Y01048542D02*
X01154922D01*
Y01043464D01*
X01156614Y01041771D01*
X01160000D01*
X01161693Y01043464D01*
Y01048542D01*
Y01045157D02*
X01165078Y01041771D01*
X01154922Y01031614D02*
Y01038386D01*
X01160000D01*
X01158307Y01035000D01*
Y01033307D01*
X01160000Y01031614D01*
X01163385D01*
X01165078Y01033307D01*
Y01036693D01*
X01163385Y01038386D01*
X01154922Y01021458D02*
X01156614Y01024843D01*
X01160000Y01028229D01*
X01163385D01*
X01165078Y01026536D01*
Y01023150D01*
X01163385Y01021458D01*
X01161693D01*
X01160000Y01023150D01*
Y01028229D01*
X00994922Y01048958D02*
X01005078D01*
Y01054036D01*
X01003386Y01055729D01*
X01000000D01*
X00998307Y01054036D01*
Y01048958D01*
Y01052343D02*
X00994922Y01055729D01*
X01005078Y01065885D02*
X01003386Y01062500D01*
X01000000Y01059114D01*
X00996614D01*
X00994922Y01060807D01*
Y01064193D01*
X00996614Y01065885D01*
X00998307D01*
X01000000Y01064193D01*
Y01059114D01*
X00994922Y01074350D02*
X01005078D01*
X01000000Y01069271D01*
Y01076042D01*
X01023386Y01055729D02*
X01025078Y01054036D01*
Y01050650D01*
X01023386Y01048958D01*
X01016614D01*
X01014922Y01050650D01*
Y01054036D01*
X01016614Y01055729D01*
X01025078Y01065885D02*
X01023386Y01062500D01*
X01020000Y01059114D01*
X01016614D01*
X01014922Y01060807D01*
Y01064193D01*
X01016614Y01065885D01*
X01018307D01*
X01020000Y01064193D01*
Y01059114D01*
X01025078Y01069271D02*
Y01076042D01*
X01023386D01*
X01016614Y01069271D01*
X01014922D01*
X00969922Y01093958D02*
X00980078D01*
Y01099036D01*
X00978386Y01100729D01*
X00975000D01*
X00973307Y01099036D01*
Y01093958D01*
Y01097343D02*
X00969922Y01100729D01*
X00980078Y01110885D02*
Y01104114D01*
X00975000D01*
X00976693Y01107500D01*
Y01109193D01*
X00975000Y01110885D01*
X00971614D01*
X00969922Y01109193D01*
Y01105807D01*
X00971614Y01104114D01*
X00978386Y01114271D02*
X00980078Y01115964D01*
Y01119350D01*
X00978386Y01121042D01*
X00971614D01*
X00969922Y01119350D01*
Y01115964D01*
X00971614Y01114271D01*
X00978386D01*
X00928386Y01195729D02*
X00930078Y01194036D01*
Y01190650D01*
X00928386Y01188958D01*
X00921614D01*
X00919922Y01190650D01*
Y01194036D01*
X00921614Y01195729D01*
X00930078Y01205885D02*
X00928386Y01202500D01*
X00925000Y01199114D01*
X00921614D01*
X00919922Y01200807D01*
Y01204193D01*
X00921614Y01205885D01*
X00923307D01*
X00925000Y01204193D01*
Y01199114D01*
X00919922Y01216042D02*
Y01209271D01*
X00926693Y01216042D01*
X00928386D01*
X00930078Y01214350D01*
Y01210964D01*
X00928386Y01209271D01*
X00937422Y01188958D02*
X00947578D01*
Y01194036D01*
X00945886Y01195729D01*
X00942500D01*
X00940807Y01194036D01*
Y01188958D01*
Y01192343D02*
X00937422Y01195729D01*
X00947578Y01205885D02*
Y01199114D01*
X00942500D01*
X00944193Y01202500D01*
Y01204193D01*
X00942500Y01205885D01*
X00939114D01*
X00937422Y01204193D01*
Y01200807D01*
X00939114Y01199114D01*
X00945886Y01209271D02*
X00947578Y01210964D01*
Y01214350D01*
X00945886Y01216042D01*
X00944193D01*
X00942500Y01214350D01*
Y01212657D01*
Y01214350D01*
X00940807Y01216042D01*
X00939114D01*
X00937422Y01214350D01*
Y01210964D01*
X00939114Y01209271D01*
X00772422Y01191458D02*
X00782578D01*
Y01196536D01*
X00780886Y01198229D01*
X00777500D01*
X00775807Y01196536D01*
Y01191458D01*
Y01194843D02*
X00772422Y01198229D01*
X00782578Y01208385D02*
Y01201614D01*
X00777500D01*
X00779193Y01205000D01*
Y01206693D01*
X00777500Y01208385D01*
X00774114D01*
X00772422Y01206693D01*
Y01203307D01*
X00774114Y01201614D01*
X00772422Y01218542D02*
Y01211771D01*
X00779193Y01218542D01*
X00780886D01*
X00782578Y01216850D01*
Y01213464D01*
X00780886Y01211771D01*
X00760886Y01197422D02*
X00762578Y01195729D01*
Y01192343D01*
X00760886Y01190650D01*
X00754114D01*
X00752422Y01192343D01*
Y01195729D01*
X00754114Y01197422D01*
X00762578Y01207578D02*
X00760886Y01204193D01*
X00757500Y01200807D01*
X00754114D01*
X00752422Y01202500D01*
Y01205885D01*
X00754114Y01207578D01*
X00755807D01*
X00757500Y01205885D01*
Y01200807D01*
X00752422Y01210964D02*
Y01214350D01*
Y01212657D01*
X00762578D01*
X00760886Y01210964D01*
X00827696Y01064922D02*
Y01075078D01*
X00822617D01*
X00820925Y01073386D01*
Y01070000D01*
X00822617Y01068307D01*
X00827696D01*
X00824310D02*
X00820925Y01064922D01*
X00817539D02*
X00814154D01*
X00815846D01*
Y01075078D01*
X00817539Y01073386D01*
X00809075Y01066614D02*
X00807382Y01064922D01*
X00803997D01*
X00802304Y01066614D01*
Y01073386D01*
X00803997Y01075078D01*
X00807382D01*
X00809075Y01073386D01*
Y01071693D01*
X00807382Y01070000D01*
X00802304D01*
X00845196Y01027422D02*
Y01037578D01*
X00840117D01*
X00838425Y01035886D01*
Y01032500D01*
X00840117Y01030807D01*
X00845196D01*
X00841810D02*
X00838425Y01027422D01*
X00835039D02*
X00831654D01*
X00833346D01*
Y01037578D01*
X00835039Y01035886D01*
X00826575D02*
X00824882Y01037578D01*
X00821497D01*
X00819804Y01035886D01*
Y01034193D01*
X00821497Y01032500D01*
X00819804Y01030807D01*
Y01029114D01*
X00821497Y01027422D01*
X00824882D01*
X00826575Y01029114D01*
Y01030807D01*
X00824882Y01032500D01*
X00826575Y01034193D01*
Y01035886D01*
X00824882Y01032500D02*
X00821497D01*
X00850925Y01053386D02*
X00852617Y01055078D01*
X00856003D01*
X00857696Y01053386D01*
Y01046614D01*
X00856003Y01044922D01*
X00852617D01*
X00850925Y01046614D01*
X00847539Y01044922D02*
X00844154D01*
X00845846D01*
Y01055078D01*
X00847539Y01053386D01*
X00832304Y01055078D02*
X00839075D01*
Y01050000D01*
X00835690Y01051693D01*
X00833997D01*
X00832304Y01050000D01*
Y01046614D01*
X00833997Y01044922D01*
X00837382D01*
X00839075Y01046614D01*
X00775964Y01032578D02*
Y01024114D01*
X00774271Y01022422D01*
X00770886D01*
X00769193Y01024114D01*
Y01032578D01*
X00765807Y01030886D02*
X00764114Y01032578D01*
X00760729D01*
X00759036Y01030886D01*
Y01029193D01*
X00760729Y01027500D01*
X00759036Y01025807D01*
Y01024114D01*
X00760729Y01022422D01*
X00764114D01*
X00765807Y01024114D01*
Y01025807D01*
X00764114Y01027500D01*
X00765807Y01029193D01*
Y01030886D01*
X00764114Y01027500D02*
X00760729D01*
X00712578Y01050886D02*
X00714271Y01052578D01*
X00717657D01*
X00719350Y01050886D01*
Y01044114D01*
X00717657Y01042422D01*
X00714271D01*
X00712578Y01044114D01*
X00709193Y01050886D02*
X00707500Y01052578D01*
X00704114D01*
X00702422Y01050886D01*
Y01049193D01*
X00704114Y01047500D01*
X00702422Y01045807D01*
Y01044114D01*
X00704114Y01042422D01*
X00707500D01*
X00709193Y01044114D01*
Y01045807D01*
X00707500Y01047500D01*
X00709193Y01049193D01*
Y01050886D01*
X00707500Y01047500D02*
X00704114D01*
X00699036Y01042422D02*
X00695650D01*
X00697343D01*
Y01052578D01*
X00699036Y01050886D01*
X00691042Y01024922D02*
Y01035078D01*
X00685964D01*
X00684271Y01033386D01*
Y01030000D01*
X00685964Y01028307D01*
X00691042D01*
X00687657D02*
X00684271Y01024922D01*
X00674114D02*
X00680886D01*
X00674114Y01031693D01*
Y01033386D01*
X00675807Y01035078D01*
X00679193D01*
X00680886Y01033386D01*
X00663958Y01024922D02*
X00670729D01*
X00663958Y01031693D01*
Y01033386D01*
X00665650Y01035078D01*
X00669036D01*
X00670729Y01033386D01*
X00691042Y01004922D02*
Y01015078D01*
X00685964D01*
X00684271Y01013386D01*
Y01010000D01*
X00685964Y01008307D01*
X00691042D01*
X00687657D02*
X00684271Y01004922D01*
X00674114D02*
X00680886D01*
X00674114Y01011693D01*
Y01013386D01*
X00675807Y01015078D01*
X00679193D01*
X00680886Y01013386D01*
X00670729D02*
X00669036Y01015078D01*
X00665650D01*
X00663958Y01013386D01*
Y01011693D01*
X00665650Y01010000D01*
X00667343D01*
X00665650D01*
X00663958Y01008307D01*
Y01006614D01*
X00665650Y01004922D01*
X00669036D01*
X00670729Y01006614D01*
X00740078Y00968542D02*
X00729922D01*
Y00963464D01*
X00731614Y00961771D01*
X00735000D01*
X00736693Y00963464D01*
Y00968542D01*
Y00965157D02*
X00740078Y00961771D01*
Y00951615D02*
Y00958386D01*
X00733307Y00951615D01*
X00731614D01*
X00729922Y00953307D01*
Y00956693D01*
X00731614Y00958386D01*
X00740078Y00943150D02*
X00729922D01*
X00735000Y00948229D01*
Y00941458D01*
X00683425Y00995886D02*
X00685117Y00997578D01*
X00688503D01*
X00690196Y00995886D01*
Y00989114D01*
X00688503Y00987422D01*
X00685117D01*
X00683425Y00989114D01*
X00680039Y00987422D02*
X00676654D01*
X00678346D01*
Y00997578D01*
X00680039Y00995886D01*
X00671575D02*
X00669882Y00997578D01*
X00666497D01*
X00664804Y00995886D01*
Y00994193D01*
X00666497Y00992500D01*
X00664804Y00990807D01*
Y00989114D01*
X00666497Y00987422D01*
X00669882D01*
X00671575Y00989114D01*
Y00990807D01*
X00669882Y00992500D01*
X00671575Y00994193D01*
Y00995886D01*
X00669882Y00992500D02*
X00666497D01*
X00683425Y00975886D02*
X00685117Y00977578D01*
X00688503D01*
X00690196Y00975886D01*
Y00969114D01*
X00688503Y00967422D01*
X00685117D01*
X00683425Y00969114D01*
X00680039Y00967422D02*
X00676654D01*
X00678346D01*
Y00977578D01*
X00680039Y00975886D01*
X00671575Y00969114D02*
X00669882Y00967422D01*
X00666497D01*
X00664804Y00969114D01*
Y00975886D01*
X00666497Y00977578D01*
X00669882D01*
X00671575Y00975886D01*
Y00974193D01*
X00669882Y00972500D01*
X00664804D01*
X00784114Y00965925D02*
X00782422Y00967617D01*
Y00971003D01*
X00784114Y00972696D01*
X00790886D01*
X00792578Y00971003D01*
Y00967617D01*
X00790886Y00965925D01*
X00792578Y00962539D02*
Y00959154D01*
Y00960846D01*
X00782422D01*
X00784114Y00962539D01*
X00782422Y00947304D02*
X00784114Y00950690D01*
X00787500Y00954075D01*
X00790886D01*
X00792578Y00952382D01*
Y00948997D01*
X00790886Y00947304D01*
X00789193D01*
X00787500Y00948997D01*
Y00954075D01*
X00804114Y00965925D02*
X00802422Y00967617D01*
Y00971003D01*
X00804114Y00972696D01*
X00810886D01*
X00812578Y00971003D01*
Y00967617D01*
X00810886Y00965925D01*
X00812578Y00962539D02*
Y00959154D01*
Y00960846D01*
X00802422D01*
X00804114Y00962539D01*
X00802422Y00954075D02*
Y00947304D01*
X00804114D01*
X00810886Y00954075D01*
X00812578D01*
X00830078Y00971850D02*
X00819922D01*
Y00966771D01*
X00821614Y00965078D01*
X00825000D01*
X00826693Y00966771D01*
Y00971850D01*
Y00968464D02*
X00830078Y00965078D01*
Y00954922D02*
Y00961693D01*
X00823307Y00954922D01*
X00821614D01*
X00819922Y00956614D01*
Y00960000D01*
X00821614Y00961693D01*
X00830078Y00951536D02*
Y00948150D01*
Y00949843D01*
X00819922D01*
X00821614Y00951536D01*
X00850078Y00973542D02*
X00839922D01*
Y00968464D01*
X00841614Y00966771D01*
X00845000D01*
X00846693Y00968464D01*
Y00973542D01*
Y00970157D02*
X00850078Y00966771D01*
Y00956614D02*
Y00963386D01*
X00843307Y00956614D01*
X00841614D01*
X00839922Y00958307D01*
Y00961693D01*
X00841614Y00963386D01*
X00839922Y00946458D02*
Y00953229D01*
X00845000D01*
X00843307Y00949843D01*
Y00948150D01*
X00845000Y00946458D01*
X00848385D01*
X00850078Y00948150D01*
Y00951536D01*
X00848385Y00953229D01*
X00763464Y00842578D02*
Y00834114D01*
X00761771Y00832422D01*
X00758386D01*
X00756693Y00834114D01*
Y00842578D01*
X00753307Y00834114D02*
X00751614Y00832422D01*
X00748229D01*
X00746536Y00834114D01*
Y00840886D01*
X00748229Y00842578D01*
X00751614D01*
X00753307Y00840886D01*
Y00839193D01*
X00751614Y00837500D01*
X00746536D01*
X00762422Y00848958D02*
X00772578D01*
Y00854036D01*
X00770886Y00855729D01*
X00767500D01*
X00765807Y00854036D01*
Y00848958D01*
Y00852343D02*
X00762422Y00855729D01*
Y00865885D02*
Y00859114D01*
X00769193Y00865885D01*
X00770886D01*
X00772578Y00864193D01*
Y00860807D01*
X00770886Y00859114D01*
Y00869271D02*
X00772578Y00870964D01*
Y00874350D01*
X00770886Y00876042D01*
X00769193D01*
X00767500Y00874350D01*
X00765807Y00876042D01*
X00764114D01*
X00762422Y00874350D01*
Y00870964D01*
X00764114Y00869271D01*
X00765807D01*
X00767500Y00870964D01*
X00769193Y00869271D01*
X00770886D01*
X00767500Y00870964D02*
Y00874350D01*
X00784114Y00774271D02*
X00782422Y00775964D01*
Y00779350D01*
X00784114Y00781042D01*
X00790886D01*
X00792578Y00779350D01*
Y00775964D01*
X00790886Y00774271D01*
X00792578Y00764114D02*
Y00770886D01*
X00785807Y00764114D01*
X00784114D01*
X00782422Y00765807D01*
Y00769193D01*
X00784114Y00770886D01*
X00792578Y00755650D02*
X00782422D01*
X00787500Y00760729D01*
Y00753958D01*
X00804114Y00774271D02*
X00802422Y00775964D01*
Y00779350D01*
X00804114Y00781042D01*
X00810885D01*
X00812578Y00779350D01*
Y00775964D01*
X00810885Y00774271D01*
X00812578Y00764114D02*
Y00770886D01*
X00805807Y00764114D01*
X00804114D01*
X00802422Y00765807D01*
Y00769193D01*
X00804114Y00770886D01*
X00802422Y00753958D02*
Y00760729D01*
X00807500D01*
X00805807Y00757343D01*
Y00755650D01*
X00807500Y00753958D01*
X00810885D01*
X00812578Y00755650D01*
Y00759036D01*
X00810885Y00760729D01*
X00819922Y00818958D02*
X00830078D01*
Y00824036D01*
X00828386Y00825729D01*
X00825000D01*
X00823307Y00824036D01*
Y00818958D01*
Y00822343D02*
X00819922Y00825729D01*
Y00835886D02*
Y00829114D01*
X00826693Y00835886D01*
X00828386D01*
X00830078Y00834193D01*
Y00830807D01*
X00828386Y00829114D01*
X00830078Y00846042D02*
X00828386Y00842657D01*
X00825000Y00839271D01*
X00821614D01*
X00819922Y00840964D01*
Y00844350D01*
X00821614Y00846042D01*
X00823307D01*
X00825000Y00844350D01*
Y00839271D01*
X00821771Y00880886D02*
X00823464Y00882578D01*
X00826850D01*
X00828542Y00880886D01*
Y00874114D01*
X00826850Y00872422D01*
X00823464D01*
X00821771Y00874114D01*
X00811614Y00872422D02*
X00818386D01*
X00811614Y00879193D01*
Y00880886D01*
X00813307Y00882578D01*
X00816693D01*
X00818386Y00880886D01*
X00801458Y00872422D02*
X00808229D01*
X00801458Y00879193D01*
Y00880886D01*
X00803150Y00882578D01*
X00806536D01*
X00808229Y00880886D01*
X00782422Y00881458D02*
X00792578D01*
Y00886536D01*
X00790886Y00888229D01*
X00787500D01*
X00785807Y00886536D01*
Y00881458D01*
Y00884843D02*
X00782422Y00888229D01*
Y00898385D02*
Y00891614D01*
X00789193Y00898385D01*
X00790886D01*
X00792578Y00896693D01*
Y00893307D01*
X00790886Y00891614D01*
X00792578Y00901771D02*
Y00908542D01*
X00790886D01*
X00784114Y00901771D01*
X00782422D01*
X00716771Y00860886D02*
X00718464Y00862578D01*
X00721850D01*
X00723542Y00860886D01*
Y00854114D01*
X00721850Y00852422D01*
X00718464D01*
X00716771Y00854114D01*
X00713386Y00860886D02*
X00711693Y00862578D01*
X00708307D01*
X00706614Y00860886D01*
Y00859193D01*
X00708307Y00857500D01*
X00706614Y00855807D01*
Y00854114D01*
X00708307Y00852422D01*
X00711693D01*
X00713386Y00854114D01*
Y00855807D01*
X00711693Y00857500D01*
X00713386Y00859193D01*
Y00860886D01*
X00711693Y00857500D02*
X00708307D01*
X00703229Y00860886D02*
X00701536Y00862578D01*
X00698150D01*
X00696458Y00860886D01*
Y00854114D01*
X00698150Y00852422D01*
X00701536D01*
X00703229Y00854114D01*
Y00860886D01*
X00691042Y00834922D02*
Y00845078D01*
X00685964D01*
X00684271Y00843386D01*
Y00840000D01*
X00685964Y00838307D01*
X00691042D01*
X00687657D02*
X00684271Y00834922D01*
X00680886Y00843386D02*
X00679193Y00845078D01*
X00675807D01*
X00674114Y00843386D01*
Y00841693D01*
X00675807Y00840000D01*
X00677500D01*
X00675807D01*
X00674114Y00838307D01*
Y00836614D01*
X00675807Y00834922D01*
X00679193D01*
X00680886Y00836614D01*
X00670729Y00843386D02*
X00669036Y00845078D01*
X00665650D01*
X00663958Y00843386D01*
Y00836614D01*
X00665650Y00834922D01*
X00669036D01*
X00670729Y00836614D01*
Y00843386D01*
X00689350Y00814922D02*
Y00825078D01*
X00684271D01*
X00682578Y00823386D01*
Y00820000D01*
X00684271Y00818307D01*
X00689350D01*
X00685964D02*
X00682578Y00814922D01*
X00679193Y00823386D02*
X00677500Y00825078D01*
X00674114D01*
X00672422Y00823386D01*
Y00821693D01*
X00674114Y00820000D01*
X00675807D01*
X00674114D01*
X00672422Y00818307D01*
Y00816614D01*
X00674114Y00814922D01*
X00677500D01*
X00679193Y00816614D01*
X00669036Y00814922D02*
X00665650D01*
X00667343D01*
Y00825078D01*
X00669036Y00823386D01*
X00716771Y00788386D02*
X00718464Y00790078D01*
X00721850D01*
X00723542Y00788386D01*
Y00781614D01*
X00721850Y00779922D01*
X00718464D01*
X00716771Y00781614D01*
X00706614Y00779922D02*
X00713386D01*
X00706614Y00786693D01*
Y00788386D01*
X00708307Y00790078D01*
X00711693D01*
X00713386Y00788386D01*
X00696458Y00790078D02*
X00699843Y00788386D01*
X00703229Y00785000D01*
Y00781614D01*
X00701536Y00779922D01*
X00698150D01*
X00696458Y00781614D01*
Y00783307D01*
X00698150Y00785000D01*
X00703229D01*
X00737578Y00778542D02*
X00727422D01*
Y00773464D01*
X00729114Y00771771D01*
X00732500D01*
X00734193Y00773464D01*
Y00778542D01*
Y00775157D02*
X00737578Y00771771D01*
X00729114Y00768386D02*
X00727422Y00766693D01*
Y00763307D01*
X00729114Y00761615D01*
X00730807D01*
X00732500Y00763307D01*
Y00765000D01*
Y00763307D01*
X00734193Y00761615D01*
X00735885D01*
X00737578Y00763307D01*
Y00766693D01*
X00735885Y00768386D01*
X00737578Y00751458D02*
Y00758229D01*
X00730807Y00751458D01*
X00729114D01*
X00727422Y00753150D01*
Y00756536D01*
X00729114Y00758229D01*
X00670886Y00773229D02*
X00672578Y00771536D01*
Y00768150D01*
X00670886Y00766458D01*
X00664114D01*
X00662422Y00768150D01*
Y00771536D01*
X00664114Y00773229D01*
X00662422Y00783386D02*
Y00776614D01*
X00669193Y00783386D01*
X00670886D01*
X00672578Y00781693D01*
Y00778307D01*
X00670886Y00776614D01*
X00672578Y00786771D02*
Y00793542D01*
X00670886D01*
X00664114Y00786771D01*
X00662422D01*
X00839922Y00818958D02*
X00850078D01*
Y00824036D01*
X00848386Y00825729D01*
X00845000D01*
X00843307Y00824036D01*
Y00818958D01*
Y00822343D02*
X00839922Y00825729D01*
Y00835886D02*
Y00829114D01*
X00846693Y00835886D01*
X00848386D01*
X00850078Y00834193D01*
Y00830807D01*
X00848386Y00829114D01*
X00841614Y00839271D02*
X00839922Y00840964D01*
Y00844350D01*
X00841614Y00846042D01*
X00848386D01*
X00850078Y00844350D01*
Y00840964D01*
X00848386Y00839271D01*
X00846693D01*
X00845000Y00840964D01*
Y00846042D01*
X00857422Y00786458D02*
X00867578D01*
Y00791536D01*
X00865886Y00793229D01*
X00862500D01*
X00860807Y00791536D01*
Y00786458D01*
Y00789843D02*
X00857422Y00793229D01*
X00865886Y00796614D02*
X00867578Y00798307D01*
Y00801693D01*
X00865886Y00803385D01*
X00864193D01*
X00862500Y00801693D01*
Y00800000D01*
Y00801693D01*
X00860807Y00803385D01*
X00859114D01*
X00857422Y00801693D01*
Y00798307D01*
X00859114Y00796614D01*
X00865886Y00806771D02*
X00867578Y00808464D01*
Y00811850D01*
X00865886Y00813542D01*
X00864193D01*
X00862500Y00811850D01*
Y00810157D01*
Y00811850D01*
X00860807Y00813542D01*
X00859114D01*
X00857422Y00811850D01*
Y00808464D01*
X00859114Y00806771D01*
X00784114Y00741771D02*
X00782422Y00743464D01*
Y00746850D01*
X00784114Y00748542D01*
X00790885D01*
X00792578Y00746850D01*
Y00743464D01*
X00790885Y00741771D01*
X00782422Y00738386D02*
Y00731615D01*
X00784114D01*
X00790885Y00738386D01*
X00792578D01*
X00790885Y00728229D02*
X00792578Y00726536D01*
Y00723150D01*
X00790885Y00721458D01*
X00784114D01*
X00782422Y00723150D01*
Y00726536D01*
X00784114Y00728229D01*
X00785807D01*
X00787500Y00726536D01*
Y00721458D01*
X01170178Y00817877D02*
Y00807720D01*
X01163407D01*
X01160021D02*
X01156636D01*
X01158328D01*
Y00817877D01*
X01160021Y00816184D01*
X01151557D02*
X01149865Y00817877D01*
X01146479D01*
X01144786Y00816184D01*
Y00809413D01*
X01146479Y00807720D01*
X01149865D01*
X01151557Y00809413D01*
Y00816184D01*
X01469898Y01115311D02*
X01463127Y01105154D01*
Y01115311D02*
X01469898Y01105154D01*
X01452970D02*
X01459741D01*
X01452970Y01111925D01*
Y01113618D01*
X01454663Y01115311D01*
X01458049D01*
X01459741Y01113618D01*
X01409714Y00734578D02*
Y00726114D01*
X01408021Y00724422D01*
X01404636D01*
X01402943Y00726114D01*
Y00734578D01*
X01399557D02*
X01392786D01*
Y00732886D01*
X01399557Y00726114D01*
Y00724422D01*
X01568714Y00763328D02*
Y00754864D01*
X01567021Y00753172D01*
X01563636D01*
X01561943Y00754864D01*
Y00763328D01*
X01553479Y00753172D02*
Y00763328D01*
X01558557Y00758250D01*
X01551786D01*
X01482578Y00759036D02*
X01474114D01*
X01472422Y00760729D01*
Y00764114D01*
X01474114Y00765807D01*
X01482578D01*
X01480886Y00769193D02*
X01482578Y00770886D01*
Y00774271D01*
X01480886Y00775964D01*
X01479193D01*
X01477500Y00774271D01*
Y00772578D01*
Y00774271D01*
X01475807Y00775964D01*
X01474114D01*
X01472422Y00774271D01*
Y00770886D01*
X01474114Y00769193D01*
X01568714Y00842828D02*
Y00834364D01*
X01567021Y00832672D01*
X01563636D01*
X01561943Y00834364D01*
Y00842828D01*
X01551786Y00832672D02*
X01558557D01*
X01551786Y00839443D01*
Y00841136D01*
X01553479Y00842828D01*
X01556864D01*
X01558557Y00841136D01*
X01417422Y00849271D02*
X01425886D01*
X01427578Y00847578D01*
Y00844193D01*
X01425886Y00842500D01*
X01417422D01*
X01427578Y00839114D02*
Y00835729D01*
Y00837422D01*
X01417422D01*
X01419114Y00839114D01*
X01153414Y00926589D02*
X01146643D01*
X01150028D01*
Y00916432D01*
X01136486D02*
X01143257D01*
X01136486Y00923203D01*
Y00924896D01*
X01138179Y00926589D01*
X01141564D01*
X01143257Y00924896D01*
X00956310Y01063241D02*
X00949539D01*
X00952924D01*
Y01053084D01*
X00946153D02*
X00942768D01*
X00944461D01*
Y01063241D01*
X00946153Y01061548D01*
X01473962Y01311148D02*
Y01321305D01*
X01468884D01*
X01467191Y01319612D01*
Y01316226D01*
X01468884Y01314534D01*
X01473962D01*
X01470576D02*
X01467191Y01311148D01*
X01458727D02*
Y01321305D01*
X01463805Y01316226D01*
X01457034D01*
X01453649Y01319612D02*
X01451956Y01321305D01*
X01448570D01*
X01446877Y01319612D01*
Y01317919D01*
X01448570Y01316226D01*
X01450263D01*
X01448570D01*
X01446877Y01314534D01*
Y01312841D01*
X01448570Y01311148D01*
X01451956D01*
X01453649Y01312841D01*
X01369922Y00704804D02*
X01380078D01*
Y00709883D01*
X01378386Y00711575D01*
X01375000D01*
X01373307Y00709883D01*
Y00704804D01*
Y00708190D02*
X01369922Y00711575D01*
Y00714961D02*
Y00718346D01*
Y00716654D01*
X01380078D01*
X01378386Y00714961D01*
X01380078Y00723425D02*
Y00730196D01*
X01378386D01*
X01371614Y00723425D01*
X01369922D01*
X01605946Y00745422D02*
Y00755578D01*
X01600867D01*
X01599175Y00753886D01*
Y00750500D01*
X01600867Y00748807D01*
X01605946D01*
X01602560D02*
X01599175Y00745422D01*
X01595789D02*
X01592404D01*
X01594096D01*
Y00755578D01*
X01595789Y00753886D01*
X01580554Y00755578D02*
X01583940Y00753886D01*
X01587325Y00750500D01*
Y00747114D01*
X01585632Y00745422D01*
X01582247D01*
X01580554Y00747114D01*
Y00748807D01*
X01582247Y00750500D01*
X01587325D01*
X01412696Y00669922D02*
Y00680078D01*
X01407617D01*
X01405925Y00678386D01*
Y00675000D01*
X01407617Y00673307D01*
X01412696D01*
X01409310D02*
X01405925Y00669922D01*
X01402539D02*
X01399154D01*
X01400846D01*
Y00680078D01*
X01402539Y00678386D01*
X01387304Y00680078D02*
X01394075D01*
Y00675000D01*
X01390690Y00676693D01*
X01388997D01*
X01387304Y00675000D01*
Y00671614D01*
X01388997Y00669922D01*
X01392382D01*
X01394075Y00671614D01*
X01527422Y00694804D02*
X01537578D01*
Y00699882D01*
X01535886Y00701575D01*
X01532500D01*
X01530807Y00699882D01*
Y00694804D01*
Y00698190D02*
X01527422Y00701575D01*
Y00704961D02*
Y00708346D01*
Y00706654D01*
X01537578D01*
X01535886Y00704961D01*
X01527422Y00718503D02*
X01537578D01*
X01532500Y00713425D01*
Y00720196D01*
X01635696Y00803672D02*
Y00813828D01*
X01630618D01*
X01628925Y00812136D01*
Y00808750D01*
X01630618Y00807057D01*
X01635696D01*
X01632310D02*
X01628925Y00803672D01*
X01625539D02*
X01622154D01*
X01623846D01*
Y00813828D01*
X01625539Y00812136D01*
X01617075D02*
X01615382Y00813828D01*
X01611997D01*
X01610304Y00812136D01*
Y00810443D01*
X01611997Y00808750D01*
X01613690D01*
X01611997D01*
X01610304Y00807057D01*
Y00805364D01*
X01611997Y00803672D01*
X01615382D01*
X01617075Y00805364D01*
X01457172Y00696304D02*
X01467328D01*
Y00701383D01*
X01465636Y00703075D01*
X01462250D01*
X01460557Y00701383D01*
Y00696304D01*
Y00699690D02*
X01457172Y00703075D01*
Y00706461D02*
Y00709846D01*
Y00708154D01*
X01467328D01*
X01465636Y00706461D01*
X01457172Y00721696D02*
Y00714925D01*
X01463943Y00721696D01*
X01465636D01*
X01467328Y00720003D01*
Y00716618D01*
X01465636Y00714925D01*
X01667503Y00803672D02*
Y00813828D01*
X01662425D01*
X01660732Y00812136D01*
Y00808750D01*
X01662425Y00807057D01*
X01667503D01*
X01664117D02*
X01660732Y00803672D01*
X01657346D02*
X01653961D01*
X01655654D01*
Y00813828D01*
X01657346Y00812136D01*
X01648882Y00803672D02*
X01645497D01*
X01647190D01*
Y00813828D01*
X01648882Y00812136D01*
X01616464Y00824922D02*
Y00835078D01*
X01611386D01*
X01609693Y00833386D01*
Y00830000D01*
X01611386Y00828307D01*
X01616464D01*
X01613078D02*
X01609693Y00824922D01*
X01606307Y00835078D02*
X01599536D01*
Y00833386D01*
X01606307Y00826614D01*
Y00824922D01*
X01474922Y00796536D02*
X01485078D01*
Y00801614D01*
X01483386Y00803307D01*
X01480000D01*
X01478307Y00801614D01*
Y00796536D01*
Y00799922D02*
X01474922Y00803307D01*
X01485078Y00813464D02*
X01483386Y00810078D01*
X01480000Y00806693D01*
X01476614D01*
X01474922Y00808386D01*
Y00811771D01*
X01476614Y00813464D01*
X01478307D01*
X01480000Y00811771D01*
Y00806693D01*
X01687464Y00867922D02*
Y00878078D01*
X01682386D01*
X01680693Y00876386D01*
Y00873000D01*
X01682386Y00871307D01*
X01687464D01*
X01684078D02*
X01680693Y00867922D01*
X01670536Y00878078D02*
X01677307D01*
Y00873000D01*
X01673922Y00874693D01*
X01672229D01*
X01670536Y00873000D01*
Y00869614D01*
X01672229Y00867922D01*
X01675614D01*
X01677307Y00869614D01*
X01527422Y00829036D02*
X01537578D01*
Y00834114D01*
X01535886Y00835807D01*
X01532500D01*
X01530807Y00834114D01*
Y00829036D01*
Y00832422D02*
X01527422Y00835807D01*
Y00844271D02*
X01537578D01*
X01532500Y00839193D01*
Y00845964D01*
X01453422Y00922536D02*
X01463578D01*
Y00927615D01*
X01461886Y00929307D01*
X01458500D01*
X01456807Y00927615D01*
Y00922536D01*
Y00925922D02*
X01453422Y00929307D01*
X01461886Y00932693D02*
X01463578Y00934386D01*
Y00937771D01*
X01461886Y00939464D01*
X01460193D01*
X01458500Y00937771D01*
Y00936078D01*
Y00937771D01*
X01456807Y00939464D01*
X01455114D01*
X01453422Y00937771D01*
Y00934386D01*
X01455114Y00932693D01*
X01648964Y00883922D02*
Y00894078D01*
X01643886D01*
X01642193Y00892386D01*
Y00889000D01*
X01643886Y00887307D01*
X01648964D01*
X01645578D02*
X01642193Y00883922D01*
X01632036D02*
X01638807D01*
X01632036Y00890693D01*
Y00892386D01*
X01633729Y00894078D01*
X01637114D01*
X01638807Y00892386D01*
X01434672Y00922979D02*
X01444828D01*
Y00928057D01*
X01443136Y00929750D01*
X01439750D01*
X01438057Y00928057D01*
Y00922979D01*
Y00926364D02*
X01434672Y00929750D01*
Y00933136D02*
Y00936521D01*
Y00934828D01*
X01444828D01*
X01443136Y00933136D01*
X01125078Y01491536D02*
X01114922D01*
Y01496614D01*
X01116614Y01498307D01*
X01123386D01*
X01125078Y01496614D01*
Y01491536D01*
X01123386Y01501693D02*
X01125078Y01503386D01*
Y01506771D01*
X01123386Y01508464D01*
X01121693D01*
X01120000Y01506771D01*
X01118307Y01508464D01*
X01116614D01*
X01114922Y01506771D01*
Y01503386D01*
X01116614Y01501693D01*
X01118307D01*
X01120000Y01503386D01*
X01121693Y01501693D01*
X01123386D01*
X01120000Y01503386D02*
Y01506771D01*
X01646886Y00730479D02*
X01648578Y00728786D01*
Y00725400D01*
X01646886Y00723708D01*
X01640114D01*
X01638422Y00725400D01*
Y00728786D01*
X01640114Y00730479D01*
X01638422Y00740636D02*
Y00733864D01*
X01645193Y00740636D01*
X01646886D01*
X01648578Y00738943D01*
Y00735557D01*
X01646886Y00733864D01*
Y00744021D02*
X01648578Y00745714D01*
Y00749100D01*
X01646886Y00750792D01*
X01645193D01*
X01643500Y00749100D01*
Y00747407D01*
Y00749100D01*
X01641807Y00750792D01*
X01640114D01*
X01638422Y00749100D01*
Y00745714D01*
X01640114Y00744021D01*
X01665136Y00733922D02*
X01666828Y00732229D01*
Y00728843D01*
X01665136Y00727150D01*
X01658364D01*
X01656672Y00728843D01*
Y00732229D01*
X01658364Y00733922D01*
X01656672Y00744078D02*
Y00737307D01*
X01663443Y00744078D01*
X01665136D01*
X01666828Y00742385D01*
Y00739000D01*
X01665136Y00737307D01*
X01656672Y00747464D02*
Y00750850D01*
Y00749157D01*
X01666828D01*
X01665136Y00747464D01*
X01643425Y00828386D02*
X01645117Y00830078D01*
X01648503D01*
X01650196Y00828386D01*
Y00821614D01*
X01648503Y00819922D01*
X01645117D01*
X01643425Y00821614D01*
X01640039Y00819922D02*
X01636654D01*
X01638346D01*
Y00830078D01*
X01640039Y00828386D01*
X01626497Y00819922D02*
Y00830078D01*
X01631575Y00825000D01*
X01624804D01*
X01674114Y00853425D02*
X01672422Y00855117D01*
Y00858503D01*
X01674114Y00860196D01*
X01680886D01*
X01682578Y00858503D01*
Y00855117D01*
X01680886Y00853425D01*
X01682578Y00850039D02*
Y00846654D01*
Y00848346D01*
X01672422D01*
X01674114Y00850039D01*
Y00841575D02*
X01672422Y00839882D01*
Y00836497D01*
X01674114Y00834804D01*
X01675807D01*
X01677500Y00836497D01*
Y00838190D01*
Y00836497D01*
X01679193Y00834804D01*
X01680886D01*
X01682578Y00836497D01*
Y00839882D01*
X01680886Y00841575D01*
X01564636Y00918075D02*
X01566328Y00916383D01*
Y00912997D01*
X01564636Y00911304D01*
X01557864D01*
X01556172Y00912997D01*
Y00916383D01*
X01557864Y00918075D01*
X01556172Y00921461D02*
Y00924846D01*
Y00923154D01*
X01566328D01*
X01564636Y00921461D01*
X01556172Y00936696D02*
Y00929925D01*
X01562943Y00936696D01*
X01564636D01*
X01566328Y00935003D01*
Y00931618D01*
X01564636Y00929925D01*
X01582886Y00918268D02*
X01584578Y00916575D01*
Y00913190D01*
X01582886Y00911497D01*
X01576114D01*
X01574422Y00913190D01*
Y00916575D01*
X01576114Y00918268D01*
X01574422Y00921654D02*
Y00925039D01*
Y00923346D01*
X01584578D01*
X01582886Y00921654D01*
X01574422Y00930117D02*
Y00933503D01*
Y00931810D01*
X01584578D01*
X01582886Y00930117D01*
X01598886Y00806825D02*
X01600578Y00805133D01*
Y00801747D01*
X01598886Y00800054D01*
X01592114D01*
X01590422Y00801747D01*
Y00805133D01*
X01592114Y00806825D01*
X01590422Y00810211D02*
Y00813596D01*
Y00811904D01*
X01600578D01*
X01598886Y00810211D01*
Y00818675D02*
X01600578Y00820368D01*
Y00823753D01*
X01598886Y00825446D01*
X01592114D01*
X01590422Y00823753D01*
Y00820368D01*
X01592114Y00818675D01*
X01598886D01*
X01548386Y00818307D02*
X01550078Y00816614D01*
Y00813229D01*
X01548386Y00811536D01*
X01541614D01*
X01539922Y00813229D01*
Y00816614D01*
X01541614Y00818307D01*
Y00821693D02*
X01539922Y00823386D01*
Y00826771D01*
X01541614Y00828464D01*
X01548386D01*
X01550078Y00826771D01*
Y00823386D01*
X01548386Y00821693D01*
X01546693D01*
X01545000Y00823386D01*
Y00828464D01*
X01434193Y00678386D02*
X01435886Y00680078D01*
X01439271D01*
X01440964Y00678386D01*
Y00671614D01*
X01439271Y00669922D01*
X01435886D01*
X01434193Y00671614D01*
X01430807Y00678386D02*
X01429114Y00680078D01*
X01425729D01*
X01424036Y00678386D01*
Y00676693D01*
X01425729Y00675000D01*
X01424036Y00673307D01*
Y00671614D01*
X01425729Y00669922D01*
X01429114D01*
X01430807Y00671614D01*
Y00673307D01*
X01429114Y00675000D01*
X01430807Y00676693D01*
Y00678386D01*
X01429114Y00675000D02*
X01425729D01*
X01480886Y00703307D02*
X01482578Y00701614D01*
Y00698229D01*
X01480886Y00696536D01*
X01474114D01*
X01472422Y00698229D01*
Y00701614D01*
X01474114Y00703307D01*
X01482578Y00706693D02*
Y00713464D01*
X01480886D01*
X01474114Y00706693D01*
X01472422D01*
X01414193Y00748386D02*
X01415886Y00750078D01*
X01419271D01*
X01420964Y00748386D01*
Y00741614D01*
X01419271Y00739922D01*
X01415886D01*
X01414193Y00741614D01*
X01404036Y00750078D02*
X01407422Y00748386D01*
X01410807Y00745000D01*
Y00741614D01*
X01409114Y00739922D01*
X01405729D01*
X01404036Y00741614D01*
Y00743307D01*
X01405729Y00745000D01*
X01410807D01*
X01414193Y00800886D02*
X01415886Y00802578D01*
X01419271D01*
X01420964Y00800886D01*
Y00794114D01*
X01419271Y00792422D01*
X01415886D01*
X01414193Y00794114D01*
X01404036Y00802578D02*
X01410807D01*
Y00797500D01*
X01407422Y00799193D01*
X01405729D01*
X01404036Y00797500D01*
Y00794114D01*
X01405729Y00792422D01*
X01409114D01*
X01410807Y00794114D01*
X01384114Y00776693D02*
X01382422Y00778386D01*
Y00781771D01*
X01384114Y00783464D01*
X01390886D01*
X01392578Y00781771D01*
Y00778386D01*
X01390886Y00776693D01*
X01392578Y00768229D02*
X01382422D01*
X01387500Y00773307D01*
Y00766536D01*
X01414193Y00818386D02*
X01415886Y00820078D01*
X01419271D01*
X01420964Y00818386D01*
Y00811614D01*
X01419271Y00809922D01*
X01415886D01*
X01414193Y00811614D01*
X01410807Y00818386D02*
X01409114Y00820078D01*
X01405729D01*
X01404036Y00818386D01*
Y00816693D01*
X01405729Y00815000D01*
X01407422D01*
X01405729D01*
X01404036Y00813307D01*
Y00811614D01*
X01405729Y00809922D01*
X01409114D01*
X01410807Y00811614D01*
X01498386Y00855807D02*
X01500078Y00854114D01*
Y00850729D01*
X01498386Y00849036D01*
X01491614D01*
X01489922Y00850729D01*
Y00854114D01*
X01491614Y00855807D01*
X01489922Y00865964D02*
Y00859193D01*
X01496693Y00865964D01*
X01498386D01*
X01500078Y00864271D01*
Y00860886D01*
X01498386Y00859193D01*
X01427500Y00880886D02*
X01429193Y00882578D01*
X01432578D01*
X01434271Y00880886D01*
Y00874114D01*
X01432578Y00872422D01*
X01429193D01*
X01427500Y00874114D01*
X01424114Y00872422D02*
X01420729D01*
X01422422D01*
Y00882578D01*
X01424114Y00880886D01*
D15*
X01787500Y00724990D02*
X01787500Y01465009D01*
X00667490Y01475000D02*
X00685000D01*
X00657500Y00724990D02*
X00657500Y01465009D01*
X00724990Y00657500D02*
X01720009Y00657500D01*
X00724990Y01532500D02*
X01155000D01*
X01760000Y00715000D02*
X01777509D01*
X00715000Y01505000D02*
Y01522510D01*
X01730000Y01505000D02*
Y01522510D01*
X01155000Y01532500D02*
X01720009Y01532500D01*
X01760000Y01475000D02*
X01777509D01*
X01730000Y00667490D02*
Y00685000D01*
X00715000Y00667491D02*
Y00685000D01*
X00667490Y00715000D02*
X00685000D01*
D40*
X01233500Y01060500D02*
G03*
X01233500Y01060500I-00001500J00000000D01*
G01*
D71*
X01402500Y01157500D02*
G03*
X01402500Y01157500I-00002500J00000000D01*
G01*
D89*
X01397750Y01420750D02*
D03*
X01438250Y01420749D02*
D03*
X01452250Y01420750D02*
D03*
M02*
