G04*
G04 #@! TF.GenerationSoftware,Altium Limited,Altium Designer,24.4.1 (13)*
G04*
G04 Layer_Physical_Order=2*
G04 Layer_Color=16711680*
%FSAX44Y44*%
%MOMM*%
G71*
G04*
G04 #@! TF.SameCoordinates,A6799A11-F43C-4D9C-96F4-C4FD18313EF3*
G04*
G04*
G04 #@! TF.FilePolarity,Positive*
G04*
G01*
G75*
%ADD10C,0.4000*%
%ADD11C,0.2000*%
%ADD15C,0.1500*%
%ADD16C,1.0000*%
%ADD17R,1.3000X0.7000*%
%ADD18R,0.7000X1.3000*%
%ADD39C,0.3200*%
%ADD40C,0.3000*%
%ADD41O,2.2500X4.5000*%
%ADD42O,4.5000X2.2500*%
%ADD43O,5.0000X2.5000*%
%ADD44C,2.2500*%
%ADD45C,1.5000*%
%ADD46R,1.7250X1.7250*%
%ADD47C,1.6000*%
%ADD48R,1.6000X1.6000*%
%ADD49R,1.0000X1.0000*%
%ADD50O,1.0000X1.8000*%
%ADD51O,1.0000X2.1000*%
%ADD52C,0.6500*%
%ADD53C,0.5000*%
%ADD54R,1.9000X1.3000*%
%ADD55R,5.0000X2.0000*%
%ADD56R,0.4500X1.4750*%
%ADD57O,0.4500X1.4750*%
%ADD58R,0.6000X1.2000*%
%ADD59R,0.7000X0.6000*%
%ADD60R,1.2000X0.3000*%
%ADD61R,0.3000X1.2000*%
%ADD62O,0.3000X1.2000*%
%ADD63R,1.3000X2.1500*%
%ADD64R,6.5000X7.0000*%
%ADD65R,1.2000X1.2000*%
%ADD66R,1.6000X1.5000*%
%ADD67R,1.8000X0.7000*%
%ADD68R,0.9000X1.6000*%
%ADD69R,1.6000X1.4000*%
%ADD70R,1.2000X0.6000*%
%ADD71C,0.5000*%
G36*
X01722034Y01529175D02*
X01723297Y01528651D01*
X01724434Y01527892D01*
X01725401Y01526925D01*
X01726161Y01525788D01*
X01726684Y01524525D01*
X01726951Y01523184D01*
Y01522502D01*
X01726941Y01505002D01*
X01726951Y01504951D01*
X01726943Y01504900D01*
X01727007Y01502938D01*
X01727042Y01502790D01*
X01727032Y01502639D01*
X01727544Y01498748D01*
X01727609Y01498557D01*
X01727622Y01498356D01*
X01728638Y01494565D01*
X01728727Y01494384D01*
X01728766Y01494186D01*
X01730268Y01490561D01*
X01730380Y01490393D01*
X01730445Y01490202D01*
X01732407Y01486804D01*
X01732540Y01486652D01*
X01732629Y01486471D01*
X01735018Y01483358D01*
X01735170Y01483225D01*
X01735282Y01483057D01*
X01738057Y01480282D01*
X01738225Y01480170D01*
X01738358Y01480018D01*
X01741471Y01477629D01*
X01741652Y01477540D01*
X01741804Y01477407D01*
X01745202Y01475445D01*
X01745393Y01475380D01*
X01745561Y01475268D01*
X01749186Y01473766D01*
X01749384Y01473727D01*
X01749565Y01473638D01*
X01753356Y01472622D01*
X01753557Y01472609D01*
X01753748Y01472544D01*
X01757639Y01472032D01*
X01757790Y01472042D01*
X01757938Y01472007D01*
X01759900Y01471943D01*
X01759950Y01471951D01*
X01760000Y01471941D01*
X01777509Y01471941D01*
X01777524Y01471944D01*
X01777539Y01471942D01*
X01778198Y01471948D01*
X01779525Y01471684D01*
X01780788Y01471161D01*
X01781925Y01470401D01*
X01782892Y01469434D01*
X01783651Y01468297D01*
X01784175Y01467034D01*
X01784441Y01465693D01*
X01784441Y01465010D01*
X01784441Y01125000D01*
X01550000D01*
Y01120579D01*
X01525740D01*
Y01121990D01*
X01511161D01*
X01510482Y01123260D01*
X01510572Y01123395D01*
X01537000D01*
X01538284Y01123651D01*
X01539372Y01124378D01*
X01557872Y01142878D01*
X01558599Y01143966D01*
X01558854Y01145250D01*
Y01245250D01*
X01558599Y01246534D01*
X01557872Y01247622D01*
X01538122Y01267372D01*
X01537034Y01268099D01*
X01535750Y01268354D01*
X01427448D01*
X01426705Y01269098D01*
X01425470Y01269609D01*
Y01270984D01*
X01426705Y01271495D01*
X01427623Y01272413D01*
X01645843D01*
X01667146Y01251111D01*
Y01185540D01*
X01661460D01*
Y01173460D01*
X01679540D01*
Y01185540D01*
X01673854D01*
Y01252500D01*
X01673599Y01253784D01*
X01672872Y01254872D01*
X01649604Y01278140D01*
X01648516Y01278867D01*
X01647232Y01279122D01*
X01427623D01*
X01426705Y01280040D01*
X01424852Y01280808D01*
X01422847D01*
X01420995Y01280040D01*
X01419577Y01278623D01*
X01418810Y01276770D01*
Y01274765D01*
X01419577Y01272913D01*
X01420995Y01271495D01*
X01422230Y01270984D01*
Y01269609D01*
X01420995Y01269098D01*
X01419577Y01267680D01*
X01418810Y01265827D01*
Y01263822D01*
X01419577Y01261970D01*
X01420995Y01260552D01*
X01422228Y01260041D01*
Y01258667D01*
X01420992Y01258155D01*
X01419574Y01256737D01*
X01418807Y01254884D01*
Y01252879D01*
X01419574Y01251027D01*
X01420992Y01249609D01*
X01422844Y01248842D01*
X01424849D01*
X01426702Y01249609D01*
X01427620Y01250527D01*
X01492186D01*
X01500645Y01242068D01*
Y01185540D01*
X01494960D01*
Y01173460D01*
X01513040D01*
Y01185540D01*
X01507354D01*
Y01243457D01*
X01507099Y01244741D01*
X01506372Y01245829D01*
X01495947Y01256254D01*
X01494859Y01256981D01*
X01493575Y01257236D01*
X01427620D01*
X01426702Y01258155D01*
X01425468Y01258665D01*
Y01260040D01*
X01426705Y01260552D01*
X01427798Y01261646D01*
X01534361D01*
X01552146Y01243861D01*
Y01146639D01*
X01535611Y01130104D01*
X01508614D01*
X01508274Y01131374D01*
X01510165Y01132466D01*
X01512034Y01134335D01*
X01513356Y01136625D01*
X01514040Y01139178D01*
Y01141822D01*
X01513356Y01144375D01*
X01512034Y01146665D01*
X01510165Y01148534D01*
X01507875Y01149856D01*
X01507354Y01149995D01*
Y01154460D01*
X01513040D01*
Y01166540D01*
X01494960D01*
Y01166540D01*
X01494040D01*
Y01166540D01*
X01475960D01*
Y01154460D01*
X01494040D01*
Y01154460D01*
X01494960D01*
Y01154460D01*
X01500645D01*
Y01149995D01*
X01500125Y01149856D01*
X01497835Y01148534D01*
X01495966Y01146665D01*
X01494644Y01144375D01*
X01493960Y01141822D01*
Y01139178D01*
X01494644Y01136625D01*
X01495966Y01134335D01*
X01497835Y01132466D01*
X01500125Y01131144D01*
X01502678Y01130460D01*
X01505322D01*
X01505360Y01130470D01*
X01505891Y01129298D01*
X01505628Y01129122D01*
X01502778Y01126272D01*
X01502051Y01125184D01*
X01501796Y01123900D01*
Y01084067D01*
X01501433Y01083927D01*
X01500526Y01083851D01*
X01499334Y01085915D01*
X01497465Y01087784D01*
X01495175Y01089106D01*
X01492622Y01089790D01*
X01489978D01*
X01487425Y01089106D01*
X01485135Y01087784D01*
X01483875Y01086523D01*
X01482605Y01087049D01*
Y01117000D01*
X01482349Y01118284D01*
X01481622Y01119372D01*
X01466296Y01134698D01*
X01466782Y01135871D01*
X01470079D01*
X01470966Y01134335D01*
X01472835Y01132466D01*
X01475125Y01131144D01*
X01477678Y01130460D01*
X01480322D01*
X01482875Y01131144D01*
X01485165Y01132466D01*
X01487034Y01134335D01*
X01488356Y01136625D01*
X01489040Y01139178D01*
Y01141822D01*
X01488356Y01144375D01*
X01487034Y01146665D01*
X01485165Y01148534D01*
X01482875Y01149856D01*
X01480322Y01150540D01*
X01477678D01*
X01475125Y01149856D01*
X01472835Y01148534D01*
X01470966Y01146665D01*
X01470079Y01145129D01*
X01458417D01*
X01454629Y01148917D01*
Y01154960D01*
X01456040D01*
Y01173040D01*
X01456040D01*
Y01173960D01*
X01456040D01*
Y01192040D01*
X01456040D01*
Y01192960D01*
X01456040D01*
Y01211040D01*
X01456040D01*
Y01211960D01*
X01456040D01*
Y01230040D01*
X01456040D01*
Y01230960D01*
X01456040D01*
Y01249040D01*
X01443960D01*
Y01243354D01*
X01440250D01*
X01438966Y01243099D01*
X01437878Y01242372D01*
X01428860Y01233354D01*
X01408540D01*
Y01240960D01*
Y01250960D01*
Y01260960D01*
Y01270960D01*
Y01280960D01*
Y01291645D01*
X01443960D01*
Y01285960D01*
X01456040D01*
Y01304040D01*
X01443960D01*
Y01298354D01*
X01408540D01*
Y01299040D01*
X01391460D01*
Y01290960D01*
Y01285960D01*
Y01275960D01*
Y01265960D01*
Y01255960D01*
Y01245960D01*
Y01233354D01*
X01353250D01*
X01351966Y01233099D01*
X01350878Y01232372D01*
X01336628Y01218122D01*
X01336508Y01217942D01*
X01336196Y01217857D01*
X01334962Y01217915D01*
X01333855Y01219023D01*
X01332003Y01219790D01*
X01329998D01*
X01328145Y01219023D01*
X01327352Y01218230D01*
X01253540D01*
Y01230960D01*
Y01240960D01*
Y01250960D01*
Y01261646D01*
X01273227D01*
X01274145Y01260727D01*
X01275997Y01259960D01*
X01278002D01*
X01279855Y01260727D01*
X01281273Y01262145D01*
X01282040Y01263997D01*
Y01266003D01*
X01281273Y01267855D01*
X01279855Y01269273D01*
X01278002Y01270040D01*
X01275997D01*
X01274145Y01269273D01*
X01273227Y01268354D01*
X01253540D01*
Y01280960D01*
Y01290881D01*
X01375000D01*
X01376576Y01291194D01*
X01377913Y01292087D01*
X01385413Y01299587D01*
X01386306Y01300924D01*
X01386619Y01302500D01*
Y01312500D01*
Y01325073D01*
X01408773Y01347227D01*
X01408773Y01347227D01*
X01409777Y01348729D01*
X01410129Y01350500D01*
X01410129Y01350500D01*
Y01356460D01*
X01414540D01*
Y01357871D01*
X01418005D01*
X01418997Y01357460D01*
X01421003D01*
X01422855Y01358227D01*
X01424273Y01359645D01*
X01425040Y01361497D01*
Y01363503D01*
X01424273Y01365355D01*
X01422855Y01366773D01*
X01421003Y01367540D01*
X01418997D01*
X01418005Y01367129D01*
X01414540D01*
Y01368540D01*
X01396810D01*
X01396460Y01368540D01*
X01395540D01*
X01395190Y01368540D01*
X01377460D01*
Y01368540D01*
X01376540D01*
Y01368540D01*
X01358460D01*
Y01356460D01*
X01364146D01*
Y01346587D01*
X01362876Y01346061D01*
X01362053Y01346884D01*
X01360200Y01347651D01*
X01358195D01*
X01356343Y01346884D01*
X01355000Y01345541D01*
X01353657Y01346884D01*
X01351805Y01347651D01*
X01349800D01*
X01347947Y01346884D01*
X01346530Y01345466D01*
X01345762Y01343613D01*
Y01341608D01*
X01346530Y01339756D01*
X01346926Y01339360D01*
Y01336211D01*
X01346926Y01336211D01*
X01347247Y01334595D01*
X01348162Y01333226D01*
X01348544Y01332844D01*
Y01321040D01*
X01325854D01*
Y01356460D01*
X01331540D01*
Y01368540D01*
X01313460D01*
Y01356460D01*
X01319146D01*
Y01321040D01*
X01265855D01*
Y01356460D01*
X01271540D01*
Y01368540D01*
X01253460D01*
Y01356460D01*
X01259146D01*
Y01321040D01*
X01258460D01*
Y01303960D01*
X01376339D01*
X01377094Y01302920D01*
X01373294Y01299119D01*
X01202427D01*
X01180273Y01321273D01*
X01178771Y01322277D01*
X01177000Y01322629D01*
X01177000Y01322629D01*
X01151040D01*
Y01327040D01*
X01151040D01*
Y01327960D01*
X01151040D01*
Y01346040D01*
X01138960D01*
Y01337129D01*
X01132776D01*
X01131540Y01337210D01*
X01131540Y01338399D01*
Y01349290D01*
X01113460D01*
X01112540Y01350135D01*
Y01350740D01*
X01089460D01*
Y01338660D01*
X01111513D01*
X01112412Y01337390D01*
X01112322Y01337135D01*
X01112224Y01337129D01*
X01084750D01*
X01084750Y01337129D01*
X01082979Y01336777D01*
X01081477Y01335773D01*
X01081477Y01335773D01*
X01075727Y01330023D01*
X01074723Y01328521D01*
X01074371Y01326750D01*
X01074371Y01326750D01*
Y01232500D01*
X01074371Y01232500D01*
X01074723Y01230729D01*
X01075727Y01229227D01*
X01084227Y01220727D01*
X01084227Y01220727D01*
X01085729Y01219723D01*
X01087500Y01219371D01*
X01118910D01*
Y01198090D01*
X01108500D01*
X01107509Y01197893D01*
X01106669Y01197331D01*
X01106107Y01196491D01*
X01105910Y01195500D01*
Y01151500D01*
X01106107Y01150509D01*
X01106669Y01149669D01*
X01107509Y01149107D01*
X01108500Y01148910D01*
X01130500D01*
X01131491Y01149107D01*
X01132331Y01149669D01*
X01132893Y01150509D01*
X01133090Y01151500D01*
Y01168121D01*
X01138960D01*
Y01150710D01*
X01138115Y01149790D01*
X01136960D01*
Y01128710D01*
X01136115Y01127790D01*
X01126960D01*
Y01109710D01*
X01126960D01*
Y01108790D01*
X01126960D01*
Y01090710D01*
X01136115D01*
X01136960Y01089790D01*
Y01068710D01*
X01151040D01*
Y01089790D01*
X01147354D01*
Y01093460D01*
X01158040D01*
Y01096395D01*
X01159477D01*
X01160395Y01095477D01*
X01162247Y01094710D01*
X01164252D01*
X01166105Y01095477D01*
X01167523Y01096895D01*
X01168290Y01098747D01*
Y01100046D01*
X01194890Y01126646D01*
X01272750D01*
X01274034Y01126901D01*
X01275122Y01127628D01*
X01284622Y01137128D01*
X01285349Y01138216D01*
X01285604Y01139500D01*
Y01148960D01*
X01286540D01*
Y01166040D01*
X01265855D01*
Y01170361D01*
X01267389Y01171896D01*
X01274977D01*
X01275645Y01171227D01*
X01277497Y01170460D01*
X01279502D01*
X01281355Y01171227D01*
X01282773Y01172645D01*
X01283540Y01174498D01*
Y01176089D01*
X01284731Y01176694D01*
X01288381Y01173044D01*
Y01157500D01*
Y01117040D01*
X01286460D01*
Y01100350D01*
X01264278Y01078167D01*
X01263104Y01078653D01*
Y01116227D01*
X01264023Y01117145D01*
X01264790Y01118997D01*
Y01121003D01*
X01264023Y01122855D01*
X01262605Y01124273D01*
X01260752Y01125040D01*
X01258747D01*
X01256895Y01124273D01*
X01255477Y01122855D01*
X01254710Y01121003D01*
Y01118997D01*
X01255477Y01117145D01*
X01256395Y01116227D01*
Y01084004D01*
X01255126Y01083618D01*
X01254622Y01084372D01*
X01243854Y01095139D01*
Y01112573D01*
X01245244Y01113962D01*
X01246543D01*
X01248395Y01114730D01*
X01249813Y01116148D01*
X01250580Y01118000D01*
Y01120005D01*
X01249813Y01121857D01*
X01248395Y01123275D01*
X01246543Y01124043D01*
X01244538D01*
X01242685Y01123275D01*
X01241267Y01121857D01*
X01240500Y01120005D01*
Y01118706D01*
X01238128Y01116335D01*
X01237401Y01115246D01*
X01237145Y01113962D01*
Y01110059D01*
X01236540Y01109040D01*
X01233854D01*
Y01112977D01*
X01234773Y01113895D01*
X01235540Y01115748D01*
Y01117753D01*
X01234773Y01119605D01*
X01233355Y01121023D01*
X01231503Y01121790D01*
X01229498D01*
X01227645Y01121023D01*
X01226227Y01119605D01*
X01225460Y01117753D01*
Y01115748D01*
X01226227Y01113895D01*
X01227145Y01112977D01*
Y01109040D01*
X01224460D01*
Y01090960D01*
X01227145D01*
Y01083540D01*
X01224460D01*
Y01065460D01*
X01248414D01*
X01248807Y01064300D01*
X01243361Y01058854D01*
X01101250D01*
X01099966Y01058599D01*
X01098878Y01057872D01*
X01084361Y01043354D01*
X01028040D01*
Y01046040D01*
X01009960D01*
Y01046040D01*
X01009040D01*
Y01046040D01*
X00991060D01*
X00990960Y01046040D01*
Y01046040D01*
X00989822Y01045963D01*
Y01045963D01*
X00967875D01*
X00967492Y01045963D01*
X00966604Y01046865D01*
Y01053861D01*
X00992872Y01080128D01*
X00993599Y01081216D01*
X00993855Y01082500D01*
Y01221861D01*
X01016639Y01244645D01*
X01057477D01*
X01058395Y01243727D01*
X01060247Y01242960D01*
X01062253D01*
X01064105Y01243727D01*
X01065523Y01245145D01*
X01066290Y01246998D01*
Y01249003D01*
X01065523Y01250855D01*
X01064105Y01252273D01*
X01062253Y01253040D01*
X01060247D01*
X01058395Y01252273D01*
X01057477Y01251354D01*
X01015250D01*
X01013966Y01251099D01*
X01012878Y01250372D01*
X00988128Y01225622D01*
X00987401Y01224534D01*
X00987145Y01223250D01*
Y01083889D01*
X00960878Y01057622D01*
X00960151Y01056534D01*
X00959895Y01055250D01*
Y00998559D01*
X00959290Y00997540D01*
X00958625Y00997540D01*
X00953604D01*
Y01002960D01*
X00955790D01*
Y01020040D01*
X00944710D01*
Y01002960D01*
X00946896D01*
Y00997540D01*
X00941210D01*
Y00985460D01*
X00958625D01*
X00959290Y00985460D01*
X00959895Y00984441D01*
Y00979559D01*
X00959290Y00978540D01*
X00941210D01*
Y00966460D01*
X00959290D01*
Y00969146D01*
X00959500D01*
X00960784Y00969401D01*
X00961872Y00970128D01*
X00965622Y00973878D01*
X00966349Y00974966D01*
X00966604Y00976250D01*
Y01022731D01*
X00967492Y01023633D01*
X00967875Y01023633D01*
X00989690D01*
X00989822Y01023633D01*
X00990960Y01023315D01*
Y01014960D01*
X00995371D01*
Y01012000D01*
X00995371Y01012000D01*
X00995723Y01010229D01*
X00996727Y01008727D01*
X01002977Y01002477D01*
X01004479Y01001473D01*
X01006250Y01001121D01*
X01006250Y01001121D01*
X01106829D01*
X01107716Y00999585D01*
X01109585Y00997716D01*
X01111121Y00996829D01*
Y00991917D01*
X01080977Y00961773D01*
X01079973Y00960271D01*
X01079621Y00958500D01*
X01079621Y00958500D01*
Y00937348D01*
X01078960Y00935752D01*
Y00933747D01*
X01079371Y00932755D01*
Y00923540D01*
X01075210D01*
Y00911460D01*
X01093290D01*
Y00923540D01*
X01088629D01*
Y00932755D01*
X01089040Y00933747D01*
Y00935752D01*
X01088879Y00936141D01*
Y00956583D01*
X01119023Y00986727D01*
X01119023Y00986727D01*
X01120027Y00988229D01*
X01120379Y00990000D01*
X01120379Y00990000D01*
Y00992915D01*
X01121552Y00993401D01*
X01127977Y00986977D01*
X01129479Y00985973D01*
X01131250Y00985621D01*
X01131250Y00985621D01*
X01144460D01*
Y00975210D01*
X01162540D01*
Y00975210D01*
X01163810Y00975394D01*
X01165871Y00973333D01*
Y00969495D01*
X01165460Y00968503D01*
Y00966497D01*
X01166227Y00964645D01*
X01167645Y00963227D01*
X01169498Y00962460D01*
X01171503D01*
X01173355Y00963227D01*
X01174773Y00964645D01*
X01175540Y00966497D01*
Y00968503D01*
X01175129Y00969495D01*
Y00975250D01*
X01175129Y00975250D01*
X01174777Y00977021D01*
X01173773Y00978523D01*
X01167945Y00984351D01*
X01168078Y00985044D01*
X01168416Y00985621D01*
X01247250D01*
X01247250Y00985621D01*
X01249021Y00985973D01*
X01250523Y00986977D01*
X01264667Y01001121D01*
X01273329D01*
X01274216Y00999585D01*
X01276085Y00997716D01*
X01278375Y00996394D01*
X01280928Y00995710D01*
X01283572D01*
X01286125Y00996394D01*
X01288415Y00997716D01*
X01290284Y00999585D01*
X01291606Y01001875D01*
X01292290Y01004428D01*
Y01007072D01*
X01291606Y01009625D01*
X01290284Y01011915D01*
X01288415Y01013784D01*
X01286125Y01015106D01*
X01283572Y01015790D01*
X01280928D01*
X01279215Y01015331D01*
X01269629Y01024917D01*
Y01044083D01*
X01275167Y01049621D01*
X01298210D01*
Y01038710D01*
X01316290D01*
Y01041428D01*
X01319460D01*
X01320378Y01040509D01*
X01322230Y01039742D01*
X01324235D01*
X01326088Y01040509D01*
X01327505Y01041927D01*
X01328273Y01043779D01*
Y01045785D01*
X01327505Y01047637D01*
X01326088Y01049055D01*
X01324235Y01049822D01*
X01322230D01*
X01320378Y01049055D01*
X01319460Y01048136D01*
X01316290D01*
Y01050790D01*
X01311132D01*
X01310606Y01052060D01*
X01324787Y01066240D01*
X01325960Y01065754D01*
Y01059960D01*
X01381040D01*
Y01085040D01*
X01378354D01*
Y01098960D01*
X01381040D01*
Y01117040D01*
X01378354D01*
Y01118477D01*
X01379273Y01119395D01*
X01379896Y01120901D01*
X01380943Y01121415D01*
X01381310Y01121484D01*
X01381460Y01121384D01*
Y01121247D01*
X01382227Y01119395D01*
X01383145Y01118477D01*
Y01110750D01*
X01383401Y01109466D01*
X01384128Y01108378D01*
X01386878Y01105628D01*
X01387966Y01104901D01*
X01389250Y01104645D01*
X01415960D01*
Y01098960D01*
X01418645D01*
Y01085040D01*
X01415960D01*
Y01061105D01*
X01411527D01*
X01410243Y01060849D01*
X01409155Y01060122D01*
X01399905Y01050872D01*
X01399178Y01049784D01*
X01398922Y01048500D01*
Y01002416D01*
X01392110Y00995604D01*
X01312297D01*
X01311957Y00996874D01*
X01313415Y00997716D01*
X01315284Y00999585D01*
X01316606Y01001875D01*
X01317290Y01004428D01*
Y01007072D01*
X01316606Y01009625D01*
X01315284Y01011915D01*
X01313415Y01013784D01*
X01311125Y01015106D01*
X01310604Y01015245D01*
Y01019710D01*
X01316290D01*
Y01031790D01*
X01298210D01*
Y01031790D01*
X01297290D01*
Y01031790D01*
X01279210D01*
Y01019710D01*
X01297290D01*
Y01019710D01*
X01298210D01*
Y01019710D01*
X01303896D01*
Y01015245D01*
X01303375Y01015106D01*
X01301085Y01013784D01*
X01299216Y01011915D01*
X01297894Y01009625D01*
X01297210Y01007072D01*
Y01004428D01*
X01297894Y01001875D01*
X01299216Y00999585D01*
X01301085Y00997716D01*
X01302543Y00996874D01*
X01302203Y00995604D01*
X01292250D01*
X01290966Y00995349D01*
X01289878Y00994622D01*
X01250861Y00955604D01*
X01183000D01*
X01181716Y00955349D01*
X01180628Y00954622D01*
X01154628Y00928622D01*
X01153901Y00927534D01*
X01153645Y00926250D01*
Y00897889D01*
X01147111Y00891355D01*
X01144506D01*
X01143590Y00892210D01*
X01143590Y00892625D01*
Y00909290D01*
X01142219D01*
Y00935050D01*
X01141906Y00936626D01*
X01141013Y00937963D01*
X01137500Y00941476D01*
X01138090Y00943678D01*
Y00946322D01*
X01137406Y00948875D01*
X01136084Y00951165D01*
X01134215Y00953034D01*
X01131925Y00954356D01*
X01129372Y00955040D01*
X01126728D01*
X01124175Y00954356D01*
X01121885Y00953034D01*
X01120016Y00951165D01*
X01118694Y00948875D01*
X01118010Y00946322D01*
Y00943678D01*
X01118694Y00941125D01*
X01120016Y00938835D01*
X01121885Y00936966D01*
X01124175Y00935644D01*
X01126728Y00934960D01*
X01129372D01*
X01131732Y00935592D01*
X01133981Y00933344D01*
Y00909290D01*
X01132510D01*
Y00892625D01*
X01132510Y00892210D01*
X01131594Y00891355D01*
X01121750D01*
X01120466Y00891099D01*
X01119378Y00890372D01*
X01118431Y00889425D01*
X01117258Y00889911D01*
Y00909463D01*
X01094928D01*
Y00901653D01*
X01093290D01*
Y00904540D01*
X01075210D01*
Y00904540D01*
X01074290Y00904540D01*
Y00904540D01*
X01056210D01*
Y00892460D01*
X01061896D01*
Y00890500D01*
X01062151Y00889216D01*
X01062878Y00888128D01*
X01069128Y00881878D01*
X01070216Y00881151D01*
X01071500Y00880895D01*
X01118000D01*
X01119284Y00881151D01*
X01120372Y00881878D01*
X01123139Y00884646D01*
X01148500D01*
X01149784Y00884901D01*
X01150872Y00885628D01*
X01159372Y00894128D01*
X01160099Y00895216D01*
X01160354Y00896500D01*
Y00924861D01*
X01178787Y00943293D01*
X01178975Y00943246D01*
X01179960Y00942670D01*
Y00940997D01*
X01180727Y00939145D01*
X01182145Y00937727D01*
X01183997Y00936960D01*
X01185296D01*
X01189895Y00932361D01*
Y00828895D01*
X01188625Y00828368D01*
X01185872Y00831122D01*
X01184784Y00831849D01*
X01183500Y00832104D01*
X01163250D01*
X01161966Y00831849D01*
X01160878Y00831122D01*
X01149758Y00820002D01*
X01083284D01*
X01082198Y00821088D01*
X01080345Y00821856D01*
X01078638D01*
X01074290Y00826204D01*
Y00839540D01*
X01071604D01*
Y00853460D01*
X01093290D01*
Y00878540D01*
X01038210D01*
Y00853460D01*
X01064895D01*
Y00839540D01*
X01062210D01*
Y00821460D01*
X01069546D01*
X01074303Y00816703D01*
Y00815813D01*
X01074459Y00815436D01*
X01073754Y00814380D01*
X00990148D01*
X00989225Y00815303D01*
X00987373Y00816070D01*
X00985368D01*
X00983515Y00815303D01*
X00982592Y00814380D01*
X00980364D01*
X00976604Y00818139D01*
Y00821460D01*
X00979290D01*
Y00839540D01*
X00976604D01*
Y00853460D01*
X01003290D01*
Y00878540D01*
X00948210D01*
Y00853460D01*
X00969895D01*
Y00839540D01*
X00967210D01*
Y00821460D01*
X00969895D01*
Y00816750D01*
X00970151Y00815466D01*
X00970878Y00814378D01*
X00976602Y00808654D01*
X00977691Y00807926D01*
X00978975Y00807671D01*
X00982601D01*
X00983515Y00806757D01*
X00985368Y00805990D01*
X00987373D01*
X00989225Y00806757D01*
X00990139Y00807671D01*
X01175681D01*
X01175738Y00807386D01*
X01176797Y00805802D01*
X01178381Y00804743D01*
X01180250Y00804371D01*
X01181718Y00804663D01*
X01181960Y00804465D01*
Y00804465D01*
X01224040D01*
Y00824295D01*
X01222604D01*
Y00880460D01*
X01228290D01*
Y00892540D01*
X01210854D01*
Y00899460D01*
X01228290D01*
Y00911540D01*
X01222604D01*
Y00914477D01*
X01223523Y00915395D01*
X01224290Y00917247D01*
Y00919252D01*
X01223523Y00921105D01*
X01222105Y00922523D01*
X01221253Y00922876D01*
X01221506Y00924146D01*
X01229210D01*
Y00918460D01*
X01241290D01*
Y00936540D01*
X01238604D01*
Y00938477D01*
X01239523Y00939395D01*
X01240290Y00941247D01*
Y00943252D01*
X01239523Y00945105D01*
X01238105Y00946523D01*
X01236253Y00947290D01*
X01234248D01*
X01232395Y00946523D01*
X01230977Y00945105D01*
X01230210Y00943252D01*
Y00941247D01*
X01230977Y00939395D01*
X01231896Y00938477D01*
Y00936540D01*
X01229210D01*
Y00930854D01*
X01218500D01*
X01218056Y00930766D01*
X01217431Y00931937D01*
X01222704Y00937210D01*
X01224502D01*
X01226355Y00937977D01*
X01227773Y00939395D01*
X01228540Y00941247D01*
Y00943252D01*
X01227773Y00945105D01*
X01226355Y00946523D01*
X01224502Y00947290D01*
X01222497D01*
X01220645Y00946523D01*
X01219227Y00945105D01*
X01218460Y00943252D01*
Y00942454D01*
X01201778Y00925772D01*
X01200604Y00926258D01*
Y00933611D01*
X01203954Y00936960D01*
X01205253D01*
X01207105Y00937727D01*
X01208523Y00939145D01*
X01209290Y00940997D01*
Y00943002D01*
X01208523Y00944855D01*
X01207105Y00946273D01*
X01205253Y00947040D01*
X01203248D01*
X01201395Y00946273D01*
X01199977Y00944855D01*
X01199210Y00943002D01*
Y00941704D01*
X01194878Y00937372D01*
X01194417Y00937327D01*
X01190040Y00941704D01*
Y00943002D01*
X01189273Y00944855D01*
X01187855Y00946273D01*
X01186003Y00947040D01*
X01184761D01*
X01184101Y00948215D01*
X01184353Y00948599D01*
X01184662Y00948895D01*
X01252250D01*
X01253534Y00949151D01*
X01254622Y00949878D01*
X01293639Y00988895D01*
X01393500D01*
X01394784Y00989151D01*
X01395872Y00989878D01*
X01404648Y00998655D01*
X01405376Y00999743D01*
X01405631Y01001027D01*
Y01047111D01*
X01412916Y01054396D01*
X01419242D01*
X01419728Y01053222D01*
X01416378Y01049872D01*
X01415651Y01048784D01*
X01415396Y01047500D01*
Y00974640D01*
X01399610Y00958854D01*
X01351500D01*
X01350216Y00958599D01*
X01349128Y00957872D01*
X01345628Y00954372D01*
X01344901Y00953284D01*
X01344646Y00952000D01*
Y00923000D01*
X01344901Y00921716D01*
X01345628Y00920628D01*
X01350878Y00915378D01*
X01351966Y00914651D01*
X01353250Y00914396D01*
X01375361D01*
X01378896Y00910861D01*
Y00909540D01*
X01373210D01*
Y00909540D01*
X01372290D01*
Y00909540D01*
X01354310D01*
X01354210Y00909540D01*
Y00909540D01*
X01353072Y00909463D01*
Y00909463D01*
X01330742D01*
Y00887133D01*
X01352940D01*
X01353072Y00887133D01*
X01354210Y00886814D01*
Y00878460D01*
X01358621D01*
Y00876495D01*
X01358210Y00875502D01*
Y00873497D01*
X01358977Y00871645D01*
X01360395Y00870227D01*
X01362247Y00869460D01*
X01364252D01*
X01366105Y00870227D01*
X01367523Y00871645D01*
X01368290Y00873497D01*
Y00875502D01*
X01367879Y00876495D01*
Y00878460D01*
X01372290D01*
Y00890540D01*
X01354342D01*
X01354210Y00890540D01*
X01353072Y00890859D01*
Y00897141D01*
X01354210Y00897460D01*
Y00897460D01*
X01372290D01*
Y00897460D01*
X01373210D01*
Y00897460D01*
X01390000D01*
Y00839744D01*
X01376611Y00826355D01*
X01295889D01*
X01287122Y00835122D01*
X01286034Y00835849D01*
X01284750Y00836104D01*
X01254813D01*
X01254354Y00836864D01*
X01254261Y00837348D01*
X01259372Y00842460D01*
X01260290D01*
Y00843378D01*
X01260581Y00843669D01*
X01261143Y00844509D01*
X01261340Y00845500D01*
X01261340Y00885900D01*
X01261428Y00887133D01*
X01262610Y00887133D01*
X01283758D01*
Y00909463D01*
X01262610D01*
X01261340Y00910696D01*
X01261340Y00945000D01*
X01261143Y00945991D01*
X01260581Y00946831D01*
X01259741Y00947393D01*
X01258750Y00947590D01*
X01249750D01*
X01248759Y00947393D01*
X01247919Y00946831D01*
X01247357Y00945991D01*
X01247160Y00945000D01*
Y00851573D01*
X01227169Y00831581D01*
X01226607Y00830741D01*
X01226410Y00829750D01*
Y00824295D01*
X01226607Y00823304D01*
X01227169Y00822464D01*
X01227460Y00822269D01*
Y00804465D01*
X01228511D01*
X01228709Y00804169D01*
X01229549Y00803607D01*
X01230540Y00803410D01*
X01240460D01*
X01241451Y00803607D01*
X01242291Y00804169D01*
X01242489Y00804465D01*
X01269540D01*
Y00805900D01*
X01340000D01*
Y00790000D01*
X00895000D01*
Y01125000D01*
X00717129D01*
Y01340083D01*
X00734667Y01357621D01*
X00978255D01*
X00979248Y01357210D01*
X00981253D01*
X00982245Y01357621D01*
X00995460D01*
Y01356210D01*
X01013540D01*
Y01368290D01*
X01008385D01*
X01007540Y01369210D01*
X01007540Y01387290D01*
X01008760Y01387410D01*
X01032410D01*
Y01377500D01*
X01032607Y01376509D01*
X01033169Y01375669D01*
X01033460Y01375474D01*
Y01364710D01*
X01033460Y01364060D01*
X01033460Y01362790D01*
Y01352010D01*
X01033460Y01351360D01*
X01033460Y01350135D01*
X01032540Y01349290D01*
X01014460D01*
Y01349290D01*
X01013540D01*
Y01349290D01*
X00995460D01*
Y01337210D01*
X01013540D01*
Y01337210D01*
X01014460D01*
Y01337210D01*
X01032540D01*
Y01337815D01*
X01033460Y01338660D01*
X01056540D01*
Y01350090D01*
X01056540Y01350740D01*
X01056540Y01352010D01*
Y01362790D01*
X01056540Y01363440D01*
X01056540Y01364710D01*
Y01374910D01*
X01089460D01*
Y01364060D01*
X01111144D01*
X01113460Y01361744D01*
Y01356210D01*
X01131540D01*
Y01368290D01*
X01120006D01*
X01115616Y01372680D01*
X01114115Y01373683D01*
X01113479Y01373810D01*
Y01375105D01*
X01113491Y01375107D01*
X01114331Y01375669D01*
X01114893Y01376509D01*
X01115090Y01377500D01*
Y01395000D01*
X01114893Y01395991D01*
X01114331Y01396831D01*
X01113491Y01397393D01*
X01112500Y01397590D01*
X01105090D01*
Y01403859D01*
X01106360Y01404290D01*
X01107415Y01402915D01*
X01110295Y01400704D01*
X01113650Y01399315D01*
X01117250Y01398841D01*
X01120850Y01399315D01*
X01124204Y01400704D01*
X01127085Y01402915D01*
X01129296Y01405795D01*
X01130685Y01409150D01*
X01131159Y01412750D01*
Y01435250D01*
X01130685Y01438850D01*
X01129296Y01442204D01*
X01127085Y01445085D01*
X01124204Y01447296D01*
X01120850Y01448685D01*
X01121075Y01449910D01*
X01134910D01*
Y01437500D01*
X01135107Y01436509D01*
X01135669Y01435669D01*
X01136509Y01435107D01*
X01137500Y01434910D01*
X01195000D01*
X01195991Y01435107D01*
X01196831Y01435669D01*
X01197393Y01436509D01*
X01197590Y01437500D01*
Y01472500D01*
Y01490000D01*
X01197393Y01490991D01*
X01196831Y01491831D01*
X01195991Y01492393D01*
X01195000Y01492590D01*
X01112540D01*
X01111549Y01492393D01*
X01111410Y01492300D01*
X01092590D01*
X01092451Y01492393D01*
X01091460Y01492590D01*
X01035090D01*
Y01510000D01*
X01034893Y01510991D01*
X01034331Y01511831D01*
X01033491Y01512393D01*
X01032500Y01512590D01*
X01012500D01*
X01011509Y01512393D01*
X01010669Y01511831D01*
X01010107Y01510991D01*
X01009910Y01510000D01*
Y01475000D01*
X01010107Y01474009D01*
X01010669Y01473169D01*
X01011509Y01472607D01*
X01012500Y01472410D01*
X01044910D01*
Y01465000D01*
X01045107Y01464009D01*
X01045669Y01463169D01*
X01046509Y01462607D01*
X01047500Y01462410D01*
X01087410D01*
Y01457790D01*
X01087607Y01456799D01*
X01087950Y01456286D01*
Y01452500D01*
X01088147Y01451509D01*
X01088709Y01450669D01*
X01089549Y01450107D01*
X01090540Y01449910D01*
X01113426D01*
X01113650Y01448685D01*
X01110295Y01447296D01*
X01107415Y01445085D01*
X01105204Y01442204D01*
X01103815Y01438850D01*
X01103341Y01435250D01*
Y01430780D01*
X01102500Y01430090D01*
X01037590D01*
Y01467500D01*
X01037393Y01468491D01*
X01036831Y01469331D01*
X01035991Y01469893D01*
X01035000Y01470090D01*
X00962500D01*
X00961509Y01469893D01*
X00960669Y01469331D01*
X00960107Y01468491D01*
X00959910Y01467500D01*
Y01437590D01*
X00937290D01*
Y01452290D01*
X00920210D01*
Y01448629D01*
X00909995D01*
X00909003Y01449040D01*
X00906998D01*
X00905145Y01448273D01*
X00903727Y01446855D01*
X00902960Y01445002D01*
Y01442997D01*
X00903727Y01441145D01*
X00905145Y01439727D01*
X00906998Y01438960D01*
X00909003D01*
X00909995Y01439371D01*
X00920210D01*
Y01437590D01*
X00890090D01*
Y01507500D01*
X00889893Y01508491D01*
X00889331Y01509331D01*
X00888491Y01509893D01*
X00887500Y01510090D01*
X00847500D01*
X00846509Y01509893D01*
X00845669Y01509331D01*
X00845107Y01508491D01*
X00844910Y01507500D01*
Y01482500D01*
X00845107Y01481509D01*
X00845669Y01480669D01*
X00846509Y01480107D01*
X00847500Y01479910D01*
X00869910D01*
Y01467590D01*
X00797500D01*
X00796509Y01467393D01*
X00795669Y01466831D01*
X00795107Y01465991D01*
X00794910Y01465000D01*
Y01425090D01*
X00777500D01*
X00776509Y01424893D01*
X00775669Y01424331D01*
X00775107Y01423491D01*
X00774910Y01422500D01*
Y01407500D01*
X00775107Y01406509D01*
X00775669Y01405669D01*
X00776509Y01405107D01*
X00777500Y01404910D01*
X00794910D01*
Y01403290D01*
X00778960D01*
Y01401879D01*
X00775417D01*
X00769629Y01407667D01*
Y01435210D01*
X00773540D01*
Y01452290D01*
X00756460D01*
Y01435210D01*
X00760371D01*
Y01405750D01*
X00760371Y01405750D01*
X00760723Y01403979D01*
X00761727Y01402477D01*
X00770227Y01393977D01*
X00770227Y01393977D01*
X00771729Y01392973D01*
X00773500Y01392621D01*
X00773500Y01392621D01*
X00778960D01*
Y01391210D01*
X00794910D01*
Y01375000D01*
X00795107Y01374009D01*
X00795669Y01373169D01*
X00796509Y01372607D01*
X00797500Y01372410D01*
X00910000D01*
X00910991Y01372607D01*
X00911831Y01373169D01*
X00912393Y01374009D01*
X00912590Y01375000D01*
Y01402500D01*
X00912393Y01403491D01*
X00911831Y01404331D01*
X00910991Y01404893D01*
X00910000Y01405090D01*
X00872590D01*
Y01422410D01*
X00917280D01*
X00917532Y01421140D01*
X00916645Y01420773D01*
X00915227Y01419355D01*
X00914460Y01417502D01*
Y01415497D01*
X00915227Y01413645D01*
X00916645Y01412227D01*
X00918497Y01411460D01*
X00920502D01*
X00921193Y01411746D01*
X00923960D01*
Y01410210D01*
X00941690D01*
X00942040Y01410210D01*
X00942960D01*
X00943310Y01410210D01*
X00943855D01*
X00944009Y01410107D01*
X00945000Y01409910D01*
X00959910D01*
Y01403290D01*
X00942960D01*
Y01403290D01*
X00942040D01*
Y01403290D01*
X00923960D01*
Y01391210D01*
X00942040D01*
Y01391210D01*
X00942960D01*
Y01391210D01*
X00959910D01*
Y01390000D01*
X00960107Y01389009D01*
X00960669Y01388169D01*
X00961509Y01387607D01*
X00962500Y01387410D01*
X00994240D01*
X00995460Y01387290D01*
X00995460Y01386140D01*
Y01369210D01*
X00995460D01*
Y01368290D01*
X00995460D01*
Y01366879D01*
X00982245D01*
X00981253Y01367290D01*
X00979248D01*
X00978255Y01366879D01*
X00732750D01*
X00730979Y01366527D01*
X00729477Y01365523D01*
X00729477Y01365523D01*
X00709227Y01345273D01*
X00708223Y01343771D01*
X00707871Y01342000D01*
X00707871Y01342000D01*
Y01125000D01*
X00660558D01*
Y01465010D01*
Y01465693D01*
X00660825Y01467034D01*
X00661348Y01468297D01*
X00662108Y01469434D01*
X00663075Y01470401D01*
X00664212Y01471161D01*
X00665475Y01471684D01*
X00666816Y01471951D01*
X00667498D01*
X00684998Y01471941D01*
X00685049Y01471951D01*
X00685100Y01471943D01*
X00687062Y01472007D01*
X00687210Y01472042D01*
X00687361Y01472032D01*
X00691252Y01472544D01*
X00691443Y01472609D01*
X00691644Y01472622D01*
X00695435Y01473638D01*
X00695616Y01473727D01*
X00695814Y01473766D01*
X00699439Y01475268D01*
X00699607Y01475380D01*
X00699798Y01475445D01*
X00703196Y01477407D01*
X00703348Y01477540D01*
X00703529Y01477629D01*
X00706642Y01480018D01*
X00706775Y01480170D01*
X00706943Y01480282D01*
X00709718Y01483057D01*
X00709830Y01483225D01*
X00709982Y01483358D01*
X00712371Y01486471D01*
X00712460Y01486652D01*
X00712593Y01486804D01*
X00714555Y01490202D01*
X00714620Y01490393D01*
X00714732Y01490561D01*
X00716234Y01494186D01*
X00716273Y01494384D01*
X00716362Y01494565D01*
X00717378Y01498356D01*
X00717391Y01498557D01*
X00717456Y01498748D01*
X00717968Y01502639D01*
X00717958Y01502790D01*
X00717993Y01502938D01*
X00718057Y01504900D01*
X00718049Y01504950D01*
X00718059Y01505000D01*
X00718059Y01522510D01*
X00718056Y01522525D01*
X00718058Y01522539D01*
X00718052Y01523199D01*
X00718316Y01524525D01*
X00718839Y01525788D01*
X00719599Y01526925D01*
X00720566Y01527892D01*
X00721702Y01528651D01*
X00722966Y01529175D01*
X00724307Y01529442D01*
X00724990D01*
X01155000Y01529441D01*
X01720009Y01529442D01*
X01720693D01*
X01722034Y01529175D01*
D02*
G37*
G36*
X01032500Y01490000D02*
X01091460D01*
Y01489710D01*
X01112540D01*
Y01490000D01*
X01195000D01*
Y01472500D01*
Y01437500D01*
X01137500D01*
Y01452500D01*
X01090540D01*
Y01457790D01*
X01090000D01*
Y01465000D01*
X01047500D01*
Y01475000D01*
X01012500D01*
Y01510000D01*
X01032500D01*
Y01490000D01*
D02*
G37*
G36*
X00887500Y01435000D02*
X00962500D01*
Y01467500D01*
X01035000D01*
Y01427500D01*
X01102500D01*
Y01395000D01*
X01112500D01*
Y01377500D01*
X01035000D01*
Y01390000D01*
X00962500D01*
Y01412500D01*
X00945000D01*
Y01425000D01*
X00872590D01*
Y01465000D01*
X00872500Y01465451D01*
Y01482500D01*
X00847500D01*
Y01507500D01*
X00887500D01*
Y01435000D01*
D02*
G37*
G36*
X00870000Y01402500D02*
X00910000D01*
Y01375000D01*
X00797500D01*
Y01407500D01*
X00777500D01*
Y01422500D01*
X00797500D01*
Y01465000D01*
X00870000D01*
Y01402500D01*
D02*
G37*
G36*
X01400871Y01352417D02*
X01379227Y01330773D01*
X01378223Y01329271D01*
X01377871Y01327500D01*
X01378223Y01325728D01*
X01378381Y01325493D01*
Y01312500D01*
Y01304345D01*
X01377642Y01303755D01*
X01376540Y01304449D01*
Y01321040D01*
X01375854D01*
Y01341111D01*
X01380389Y01345645D01*
X01382727D01*
X01383645Y01344727D01*
X01385497Y01343960D01*
X01387502D01*
X01389355Y01344727D01*
X01390773Y01346145D01*
X01391540Y01347997D01*
Y01350002D01*
X01390773Y01351855D01*
X01389854Y01352773D01*
Y01356460D01*
X01395190D01*
X01395540Y01356460D01*
X01396460D01*
X01396810Y01356460D01*
X01400871D01*
Y01352417D01*
D02*
G37*
G36*
X01193926Y01294528D02*
X01193440Y01293354D01*
X01177890D01*
X01172540Y01298704D01*
Y01300002D01*
X01171773Y01301855D01*
X01170355Y01303273D01*
X01168503Y01304040D01*
X01166497D01*
X01164645Y01303273D01*
X01163727Y01302354D01*
X01151040D01*
Y01308040D01*
X01151040D01*
Y01308960D01*
X01151040D01*
Y01313371D01*
X01175083D01*
X01193926Y01294528D01*
D02*
G37*
G36*
X01164645Y01294727D02*
X01166497Y01293960D01*
X01167796D01*
X01174128Y01287628D01*
X01175216Y01286901D01*
X01176500Y01286645D01*
X01236460D01*
Y01283354D01*
X01151040D01*
Y01289040D01*
X01151040D01*
Y01289960D01*
X01151040D01*
Y01295645D01*
X01163727D01*
X01164645Y01294727D01*
D02*
G37*
G36*
X01138960Y01327040D02*
Y01308960D01*
X01138960D01*
Y01308040D01*
X01138960D01*
Y01289960D01*
X01138960D01*
Y01289040D01*
X01138960D01*
Y01270960D01*
X01147057D01*
X01147543Y01269787D01*
X01145611Y01267854D01*
X01091773D01*
X01090855Y01268773D01*
X01089003Y01269540D01*
X01086998D01*
X01085145Y01268773D01*
X01084899Y01268527D01*
X01083629Y01269053D01*
Y01324833D01*
X01086667Y01327871D01*
X01138034D01*
X01138960Y01327040D01*
D02*
G37*
G36*
X01236460Y01263354D02*
X01160008D01*
X01159522Y01264528D01*
X01161639Y01266646D01*
X01236460D01*
Y01263354D01*
D02*
G37*
G36*
X01095484Y01252336D02*
X01095236Y01252233D01*
X01093818Y01250815D01*
X01093051Y01248962D01*
Y01246957D01*
X01093818Y01245105D01*
X01095236Y01243687D01*
X01097089Y01242920D01*
X01099094D01*
X01100946Y01243687D01*
X01102364Y01245105D01*
X01103131Y01246957D01*
Y01248256D01*
X01105297Y01250423D01*
X01138960D01*
Y01233960D01*
X01138960D01*
Y01233040D01*
X01138960D01*
Y01214960D01*
X01138960D01*
Y01214040D01*
X01138960D01*
Y01195960D01*
X01138960D01*
X01138960Y01195040D01*
X01138960D01*
Y01177379D01*
X01133090D01*
Y01231500D01*
X01132893Y01232491D01*
X01132331Y01233331D01*
X01131491Y01233893D01*
X01130500Y01234090D01*
X01121500D01*
X01120509Y01233893D01*
X01119669Y01233331D01*
X01119107Y01232491D01*
X01118910Y01231500D01*
Y01228629D01*
X01089417D01*
X01083629Y01234417D01*
Y01252407D01*
X01084899Y01252933D01*
X01085145Y01252687D01*
X01086998Y01251920D01*
X01089003D01*
X01090855Y01252687D01*
X01091773Y01253605D01*
X01095232D01*
X01095484Y01252336D01*
D02*
G37*
G36*
X01236460Y01248354D02*
X01202962D01*
X01202962Y01248354D01*
X01168273D01*
X01167355Y01249273D01*
X01165502Y01250040D01*
X01163497D01*
X01161645Y01249273D01*
X01160227Y01247855D01*
X01159460Y01246003D01*
Y01243997D01*
X01160227Y01242145D01*
X01161645Y01240727D01*
X01163497Y01239960D01*
X01165502D01*
X01167355Y01240727D01*
X01168273Y01241646D01*
X01202962D01*
X01202962Y01241646D01*
X01236460D01*
Y01233354D01*
X01208773D01*
X01207855Y01234273D01*
X01206003Y01235040D01*
X01203997D01*
X01202145Y01234273D01*
X01201227Y01233354D01*
X01159750D01*
X01158466Y01233099D01*
X01157378Y01232372D01*
X01152361Y01227354D01*
X01151040D01*
Y01233040D01*
X01151040D01*
Y01233960D01*
X01151040D01*
Y01250674D01*
X01151061Y01250678D01*
X01152149Y01251405D01*
X01157389Y01256646D01*
X01236460D01*
Y01248354D01*
D02*
G37*
G36*
Y01213354D02*
X01152026D01*
X01151040Y01214040D01*
Y01214960D01*
X01151040D01*
Y01220646D01*
X01153750D01*
X01155034Y01220901D01*
X01156122Y01221628D01*
X01161140Y01226646D01*
X01201227D01*
X01202145Y01225727D01*
X01203997Y01224960D01*
X01206003D01*
X01207855Y01225727D01*
X01208773Y01226646D01*
X01236460D01*
Y01213354D01*
D02*
G37*
G36*
X01443960Y01230960D02*
X01443960D01*
Y01230040D01*
X01443960D01*
Y01211960D01*
X01443960D01*
Y01211040D01*
X01443960D01*
Y01208354D01*
X01440523D01*
X01439605Y01209273D01*
X01437753Y01210040D01*
X01435748D01*
X01433895Y01209273D01*
X01432977Y01208354D01*
X01408540D01*
Y01215960D01*
Y01226646D01*
X01430250D01*
X01431534Y01226901D01*
X01432622Y01227628D01*
X01441640Y01236646D01*
X01443960D01*
Y01230960D01*
D02*
G37*
G36*
X01164478Y01205472D02*
X01163128Y01204122D01*
X01162401Y01203034D01*
X01162146Y01201750D01*
Y01190639D01*
X01160861Y01189354D01*
X01151040D01*
Y01195040D01*
X01151040D01*
X01151040Y01195960D01*
X01151040D01*
Y01206646D01*
X01163992D01*
X01164478Y01205472D01*
D02*
G37*
G36*
X01236460Y01200960D02*
Y01195960D01*
Y01190960D01*
Y01189119D01*
X01213757D01*
X01213521Y01189277D01*
X01211750Y01189629D01*
X01209979Y01189277D01*
X01208477Y01188273D01*
X01197583Y01177379D01*
X01151040D01*
Y01182646D01*
X01162250D01*
X01163534Y01182901D01*
X01164622Y01183628D01*
X01167872Y01186878D01*
X01168599Y01187966D01*
X01168855Y01189250D01*
Y01200360D01*
X01170139Y01201646D01*
X01236460D01*
Y01200960D01*
D02*
G37*
G36*
X01391460Y01220960D02*
Y01210960D01*
Y01200960D01*
Y01190960D01*
Y01180960D01*
X01408540D01*
Y01190960D01*
Y01201646D01*
X01432977D01*
X01433895Y01200727D01*
X01435748Y01199960D01*
X01437753D01*
X01439605Y01200727D01*
X01440523Y01201646D01*
X01443960D01*
Y01192960D01*
X01443960D01*
Y01192040D01*
X01443960D01*
Y01173960D01*
X01443960D01*
Y01173040D01*
X01443960D01*
Y01168629D01*
X01440417D01*
X01430773Y01178273D01*
X01429271Y01179277D01*
X01427500Y01179629D01*
X01425728Y01179277D01*
X01425493Y01179119D01*
X01400000D01*
X01399602Y01179040D01*
X01391460D01*
Y01170960D01*
X01399602D01*
X01400000Y01170881D01*
X01425073D01*
X01435227Y01160727D01*
X01436729Y01159723D01*
X01438500Y01159371D01*
X01438500Y01159371D01*
X01443960D01*
Y01154960D01*
X01445371D01*
Y01147000D01*
X01445371Y01147000D01*
X01445723Y01145229D01*
X01446727Y01143727D01*
X01452329Y01138124D01*
X01451803Y01136854D01*
X01430027D01*
X01429178Y01138124D01*
X01429540Y01138997D01*
Y01141003D01*
X01428773Y01142855D01*
X01427355Y01144273D01*
X01425502Y01145040D01*
X01423497D01*
X01421645Y01144273D01*
X01420727Y01143354D01*
X01385139D01*
X01381455Y01147039D01*
X01381533Y01147939D01*
X01382500Y01148881D01*
X01384076Y01149194D01*
X01385413Y01150087D01*
X01386306Y01151424D01*
X01386619Y01153000D01*
Y01162000D01*
X01386306Y01163576D01*
X01385854Y01164251D01*
Y01176727D01*
X01386773Y01177645D01*
X01387540Y01179498D01*
Y01181503D01*
X01386773Y01183355D01*
X01385355Y01184773D01*
X01383503Y01185540D01*
X01381497D01*
X01379645Y01184773D01*
X01378227Y01183355D01*
X01377460Y01181503D01*
Y01179498D01*
X01378227Y01177645D01*
X01379146Y01176727D01*
Y01166040D01*
X01361619D01*
Y01178243D01*
X01361306Y01179819D01*
X01360413Y01181155D01*
X01358655Y01182913D01*
X01357319Y01183806D01*
X01355743Y01184119D01*
X01337007D01*
X01336850Y01184235D01*
X01336291Y01185389D01*
X01336654Y01185911D01*
X01337453Y01186071D01*
X01338542Y01186798D01*
X01341372Y01189628D01*
X01342099Y01190716D01*
X01342354Y01192000D01*
Y01214361D01*
X01354639Y01226646D01*
X01391460D01*
Y01220960D01*
D02*
G37*
G36*
X01275346Y01180374D02*
X01275483Y01179611D01*
X01274477Y01178604D01*
X01266000D01*
X01264716Y01178349D01*
X01263628Y01177622D01*
X01260128Y01174122D01*
X01259401Y01173034D01*
X01259146Y01171750D01*
Y01166040D01*
X01258460D01*
Y01148960D01*
X01261256D01*
X01261935Y01147690D01*
X01261710Y01147354D01*
X01230273D01*
X01229355Y01148273D01*
X01227503Y01149040D01*
X01225498D01*
X01223645Y01148273D01*
X01222227Y01146855D01*
X01221460Y01145003D01*
Y01142998D01*
X01221616Y01142620D01*
X01220911Y01141564D01*
X01198198D01*
X01198146Y01141599D01*
X01196862Y01141854D01*
X01167273D01*
X01166355Y01142773D01*
X01164502Y01143540D01*
X01162497D01*
X01160645Y01142773D01*
X01159227Y01141355D01*
X01158460Y01139502D01*
Y01137497D01*
X01159227Y01135645D01*
X01160645Y01134227D01*
X01162497Y01133460D01*
X01164502D01*
X01166355Y01134227D01*
X01167273Y01135145D01*
X01180742D01*
X01181228Y01133972D01*
X01169110Y01121854D01*
X01167023D01*
X01166105Y01122773D01*
X01164252Y01123540D01*
X01162247D01*
X01160395Y01122773D01*
X01159477Y01121854D01*
X01158040D01*
Y01124540D01*
X01147354D01*
Y01128710D01*
X01151040D01*
Y01149790D01*
X01151040D01*
Y01150710D01*
X01151040D01*
Y01168121D01*
X01199500D01*
X01199500Y01168121D01*
X01201271Y01168473D01*
X01202773Y01169477D01*
X01214177Y01180881D01*
X01275094D01*
X01275346Y01180374D01*
D02*
G37*
G36*
X01326210Y01197546D02*
Y01196247D01*
X01326977Y01194395D01*
X01328395Y01192977D01*
X01327793Y01191920D01*
X01327227Y01191355D01*
X01326460Y01189502D01*
Y01187497D01*
X01327227Y01185645D01*
X01328645Y01184227D01*
X01328803Y01183431D01*
X01328227Y01182855D01*
X01327460Y01181003D01*
Y01178997D01*
X01328227Y01177145D01*
X01328381Y01176992D01*
Y01166040D01*
X01320979D01*
Y01170151D01*
X01321794Y01170965D01*
X01322561Y01172818D01*
Y01174823D01*
X01321794Y01176675D01*
X01320376Y01178093D01*
X01318524Y01178860D01*
X01316519D01*
X01314666Y01178093D01*
X01313249Y01176675D01*
X01312481Y01174823D01*
Y01172818D01*
X01313249Y01170965D01*
X01314270Y01169943D01*
Y01166040D01*
X01300979D01*
Y01189852D01*
X01302023Y01190895D01*
X01302790Y01192747D01*
Y01194753D01*
X01302023Y01196605D01*
X01300605Y01198023D01*
X01298752Y01198790D01*
X01296747D01*
X01294895Y01198023D01*
X01293477Y01196605D01*
X01292901Y01195213D01*
X01292480Y01194715D01*
X01291440Y01194548D01*
X01290253Y01195040D01*
X01288248D01*
X01286395Y01194273D01*
X01285477Y01193354D01*
X01272278D01*
X01271752Y01194624D01*
X01272773Y01195645D01*
X01273540Y01197497D01*
Y01199502D01*
X01273178Y01200376D01*
X01274027Y01201646D01*
X01322110D01*
X01326210Y01197546D01*
D02*
G37*
G36*
X01130500Y01151500D02*
X01108500D01*
Y01195500D01*
X01121500D01*
Y01231500D01*
X01130500D01*
Y01151500D01*
D02*
G37*
G36*
X01338227Y01169395D02*
X01339146Y01168477D01*
Y01166040D01*
X01338460D01*
Y01148960D01*
X01344021D01*
Y01144398D01*
X01342977Y01143355D01*
X01342210Y01141503D01*
Y01139498D01*
X01342977Y01137645D01*
X01344395Y01136227D01*
X01346248Y01135460D01*
X01348253D01*
X01350105Y01136227D01*
X01351523Y01137645D01*
X01352290Y01139498D01*
Y01141503D01*
X01351523Y01143355D01*
X01350729Y01144148D01*
Y01148960D01*
X01364146D01*
Y01147250D01*
X01364401Y01145966D01*
X01365128Y01144878D01*
X01377048Y01132958D01*
X01376562Y01131784D01*
X01340153D01*
X01330854Y01141083D01*
Y01148960D01*
X01336540D01*
Y01157102D01*
X01336619Y01157500D01*
Y01169959D01*
X01337889Y01170211D01*
X01338227Y01169395D01*
D02*
G37*
G36*
X01186597Y01129637D02*
X01187015Y01128259D01*
X01163546Y01104790D01*
X01162247D01*
X01160395Y01104023D01*
X01159477Y01103104D01*
X01158040D01*
Y01105540D01*
X01139960D01*
X01139040Y01106385D01*
Y01108790D01*
X01139040D01*
Y01109710D01*
X01139040D01*
Y01111615D01*
X01139960Y01112460D01*
X01158040D01*
Y01115145D01*
X01159477D01*
X01160395Y01114227D01*
X01162247Y01113460D01*
X01164252D01*
X01166105Y01114227D01*
X01167023Y01115145D01*
X01170500D01*
X01171784Y01115401D01*
X01172872Y01116128D01*
X01186417Y01129673D01*
X01186597Y01129637D01*
D02*
G37*
G36*
X01427882Y01124876D02*
X01427210Y01123252D01*
Y01121247D01*
X01427977Y01119395D01*
X01429395Y01117977D01*
X01431248Y01117210D01*
X01433253D01*
X01435105Y01117977D01*
X01436023Y01118896D01*
X01457861D01*
X01468396Y01108361D01*
Y01085040D01*
X01425354D01*
Y01098960D01*
X01428040D01*
Y01117040D01*
X01415960D01*
Y01111354D01*
X01390639D01*
X01389854Y01112140D01*
Y01118477D01*
X01390773Y01119395D01*
X01391540Y01121247D01*
Y01123252D01*
X01390868Y01124876D01*
X01391391Y01126146D01*
X01427359D01*
X01427882Y01124876D01*
D02*
G37*
G36*
X01335711Y01119878D02*
X01336799Y01119151D01*
X01338083Y01118896D01*
X01371227D01*
X01371646Y01118477D01*
Y01117040D01*
X01368960D01*
Y01098960D01*
X01371646D01*
Y01085040D01*
X01328629D01*
Y01098960D01*
X01330040D01*
Y01117040D01*
X01328754D01*
Y01124703D01*
X01328852Y01124940D01*
X01330350Y01125238D01*
X01335711Y01119878D01*
D02*
G37*
G36*
X00885000Y00780000D02*
X01350000D01*
Y00805000D01*
X01400000D01*
Y00819506D01*
X01412872Y00832378D01*
X01413599Y00833466D01*
X01413854Y00834750D01*
Y00895110D01*
X01415372Y00896628D01*
X01416099Y00897716D01*
X01416354Y00899000D01*
Y00925000D01*
X01560000D01*
Y01111321D01*
X01574633D01*
X01592621Y01093333D01*
Y00889379D01*
X01588540D01*
Y00890790D01*
X01570460D01*
Y00890790D01*
X01569540D01*
Y00890790D01*
X01551460D01*
Y00878710D01*
X01554871D01*
Y00876290D01*
X01550960D01*
Y00865879D01*
X01541417D01*
X01530273Y00877023D01*
X01528771Y00878027D01*
X01527000Y00878379D01*
X01527000Y00878379D01*
X01500500D01*
X01500500Y00878379D01*
X01498729Y00878027D01*
X01497227Y00877023D01*
X01497227Y00877023D01*
X01476833Y00856629D01*
X01473790D01*
Y00867040D01*
X01465105D01*
Y00869460D01*
X01467790D01*
Y00887540D01*
X01465105D01*
Y00889460D01*
X01467790D01*
Y00901540D01*
X01449710D01*
Y00901540D01*
X01448790D01*
Y00901540D01*
X01430710Y00901540D01*
X01430605Y00902766D01*
Y00903361D01*
X01435704Y00908460D01*
X01448790D01*
Y00908460D01*
X01449710D01*
Y00908460D01*
X01467790D01*
Y00920540D01*
X01449710D01*
Y00920540D01*
X01448790D01*
Y00920540D01*
X01430710D01*
Y00912954D01*
X01424878Y00907122D01*
X01424151Y00906034D01*
X01423896Y00904750D01*
Y00830389D01*
X01416128Y00822622D01*
X01415401Y00821534D01*
X01415146Y00820250D01*
Y00816273D01*
X01414227Y00815355D01*
X01413460Y00813503D01*
Y00811497D01*
X01414227Y00809645D01*
X01415645Y00808227D01*
X01417498Y00807460D01*
X01419503D01*
X01421355Y00808227D01*
X01422273Y00809146D01*
X01423710D01*
Y00803460D01*
X01435790D01*
Y00821540D01*
X01426193D01*
X01425707Y00822713D01*
X01429622Y00826628D01*
X01430349Y00827716D01*
X01430605Y00829000D01*
Y00835734D01*
X01430710Y00836960D01*
X01431875Y00836960D01*
X01435896D01*
Y00832750D01*
X01436151Y00831466D01*
X01436878Y00830378D01*
X01441178Y00826078D01*
X01442266Y00825351D01*
X01443550Y00825096D01*
X01455710D01*
Y00822939D01*
X01454526Y00822202D01*
X01454241Y00822393D01*
X01453250Y00822590D01*
X01444250D01*
X01443259Y00822393D01*
X01442419Y00821831D01*
X01441857Y00820991D01*
X01441660Y00820000D01*
Y00805000D01*
X01441857Y00804009D01*
X01442419Y00803169D01*
X01443259Y00802607D01*
X01444250Y00802410D01*
X01454660D01*
Y00799640D01*
X01436710D01*
Y00787304D01*
X01436261Y00786854D01*
X01434290D01*
Y00789540D01*
X01416210D01*
Y00789540D01*
X01415290D01*
Y00789540D01*
X01397210D01*
Y00786854D01*
X01370000D01*
X01368716Y00786599D01*
X01367628Y00785872D01*
X01328611Y00746854D01*
X01320790D01*
Y00749540D01*
X01302710D01*
Y00749540D01*
X01301790D01*
Y00749540D01*
X01283710D01*
Y00749355D01*
X01282440Y00749103D01*
X01282026Y00750101D01*
X01280609Y00751519D01*
X01278756Y00752286D01*
X01277458D01*
X01276379Y00753365D01*
X01275291Y00754092D01*
X01274007Y00754347D01*
X01269540D01*
Y00765535D01*
X01261605D01*
Y00766000D01*
X01261349Y00767284D01*
X01260622Y00768372D01*
X01257872Y00771122D01*
X01256784Y00771849D01*
X01255500Y00772104D01*
X01242500D01*
X01241216Y00771849D01*
X01240128Y00771122D01*
X01236683Y00767676D01*
X01235955Y00766588D01*
X01235746Y00765535D01*
X01227460D01*
Y00745705D01*
X01227621D01*
Y00718790D01*
X01226210D01*
Y00700710D01*
X01238290D01*
Y00700871D01*
X01245505D01*
X01246497Y00700460D01*
X01248503D01*
X01250355Y00701227D01*
X01250537Y00701409D01*
X01251710Y00700923D01*
Y00697960D01*
X01269790D01*
Y00710040D01*
X01265379D01*
Y00712005D01*
X01265790Y00712998D01*
Y00714205D01*
X01265890Y00714315D01*
X01267060Y00714839D01*
X01267716Y00714401D01*
X01269000Y00714146D01*
X01337361D01*
X01343645Y00707860D01*
Y00687773D01*
X01342727Y00686855D01*
X01341960Y00685003D01*
Y00682998D01*
X01342727Y00681145D01*
X01344145Y00679727D01*
X01345997Y00678960D01*
X01347296D01*
X01352857Y00673399D01*
X01352855Y00673309D01*
X01352462Y00672129D01*
X00827417D01*
X00793879Y00705667D01*
Y00740800D01*
X00793527Y00742572D01*
X00792523Y00744073D01*
X00792523Y00744073D01*
X00766129Y00770468D01*
Y00784960D01*
X00776540D01*
Y00787645D01*
X00778960D01*
Y00784960D01*
X00797040D01*
Y00784960D01*
X00797960D01*
Y00784960D01*
X00803645D01*
Y00782023D01*
X00802727Y00781105D01*
X00801960Y00779252D01*
Y00777247D01*
X00802727Y00775395D01*
X00804145Y00773977D01*
X00805997Y00773210D01*
X00808002D01*
X00809855Y00773977D01*
X00811273Y00775395D01*
X00812040Y00777247D01*
Y00779252D01*
X00811273Y00781105D01*
X00810354Y00782023D01*
Y00784960D01*
X00815690D01*
X00816960Y00784960D01*
X00817310Y00784960D01*
X00822646D01*
Y00775773D01*
X00821727Y00774855D01*
X00820960Y00773002D01*
Y00770997D01*
X00821727Y00769145D01*
X00822646Y00768227D01*
Y00755378D01*
X00820677Y00754850D01*
X00817533Y00753035D01*
X00814965Y00750467D01*
X00813150Y00747323D01*
X00812210Y00743816D01*
Y00740184D01*
X00813150Y00736677D01*
X00814965Y00733533D01*
X00817533Y00730965D01*
X00820677Y00729150D01*
X00824185Y00728210D01*
X00827816D01*
X00831323Y00729150D01*
X00834467Y00730965D01*
X00837035Y00733533D01*
X00838850Y00736677D01*
X00839790Y00740184D01*
Y00743816D01*
X00838850Y00747323D01*
X00837035Y00750467D01*
X00834467Y00753035D01*
X00831323Y00754850D01*
X00829355Y00755378D01*
Y00768227D01*
X00830273Y00769145D01*
X00831040Y00770997D01*
Y00773002D01*
X00830273Y00774855D01*
X00829355Y00775773D01*
Y00784960D01*
X00835040D01*
Y00784960D01*
X00835960Y00784960D01*
Y00784960D01*
X00854040D01*
Y00797040D01*
X00835960D01*
Y00797040D01*
X00835040Y00797040D01*
Y00797040D01*
X00817310D01*
X00816040Y00797040D01*
X00815690Y00797040D01*
X00797960D01*
Y00797040D01*
X00797040D01*
Y00797040D01*
X00778960D01*
Y00794354D01*
X00776540D01*
Y00802040D01*
X00766129D01*
Y00810960D01*
X00776540D01*
Y00819645D01*
X00778960D01*
Y00816960D01*
X00778960D01*
Y00816040D01*
X00778960D01*
Y00803960D01*
X00796690D01*
X00797040Y00803960D01*
X00797960D01*
X00798310Y00803960D01*
X00816040D01*
Y00803960D01*
X00816960Y00803960D01*
Y00803960D01*
X00835040D01*
Y00816040D01*
X00817310D01*
X00816040Y00816885D01*
X00816040Y00817310D01*
Y00819646D01*
X00821477D01*
X00822395Y00818727D01*
X00824248Y00817960D01*
X00826253D01*
X00828105Y00818727D01*
X00829523Y00820145D01*
X00830290Y00821998D01*
Y00824003D01*
X00829523Y00825855D01*
X00828105Y00827273D01*
X00826253Y00828040D01*
X00824248D01*
X00822395Y00827273D01*
X00821477Y00826355D01*
X00816040D01*
Y00829040D01*
X00798310D01*
X00797960Y00829040D01*
X00797040D01*
X00796690Y00829040D01*
X00778960D01*
Y00826354D01*
X00776540D01*
Y00828040D01*
X00766129D01*
Y00841000D01*
X00766129Y00841000D01*
X00765777Y00842771D01*
X00764773Y00844273D01*
X00764773Y00844273D01*
X00757040Y00852006D01*
Y00863540D01*
X00751506D01*
X00744379Y00870667D01*
Y00936534D01*
X00764773Y00956928D01*
X00764773Y00956928D01*
X00765777Y00958429D01*
X00766129Y00960201D01*
X00766129Y00960201D01*
Y00976460D01*
X00776540D01*
Y00979146D01*
X00778960D01*
Y00976460D01*
X00797040D01*
Y00976460D01*
X00797960D01*
Y00976460D01*
X00803645D01*
Y00972273D01*
X00802727Y00971355D01*
X00801960Y00969502D01*
Y00967497D01*
X00802727Y00965645D01*
X00804145Y00964227D01*
X00805997Y00963460D01*
X00808002D01*
X00809855Y00964227D01*
X00811273Y00965645D01*
X00812040Y00967497D01*
Y00969502D01*
X00811273Y00971355D01*
X00810354Y00972273D01*
Y00976460D01*
X00815690D01*
X00816040Y00976460D01*
X00816960D01*
X00817310Y00976460D01*
X00822646D01*
Y00972273D01*
X00821727Y00971355D01*
X00820960Y00969502D01*
Y00967497D01*
X00821727Y00965645D01*
X00822646Y00964727D01*
Y00946878D01*
X00820677Y00946350D01*
X00817533Y00944535D01*
X00814965Y00941967D01*
X00813150Y00938823D01*
X00812210Y00935315D01*
Y00931684D01*
X00813150Y00928177D01*
X00814965Y00925033D01*
X00817533Y00922465D01*
X00820677Y00920650D01*
X00823448Y00919907D01*
Y00918593D01*
X00820677Y00917850D01*
X00817533Y00916035D01*
X00814965Y00913467D01*
X00813150Y00910323D01*
X00812210Y00906815D01*
Y00903185D01*
X00813150Y00899677D01*
X00814965Y00896533D01*
X00817533Y00893965D01*
X00820677Y00892150D01*
X00824185Y00891210D01*
X00827816D01*
X00831323Y00892150D01*
X00834467Y00893965D01*
X00837035Y00896533D01*
X00838850Y00899677D01*
X00839790Y00903185D01*
Y00906815D01*
X00838850Y00910323D01*
X00837035Y00913467D01*
X00834467Y00916035D01*
X00831323Y00917850D01*
X00828552Y00918593D01*
Y00919907D01*
X00831323Y00920650D01*
X00834467Y00922465D01*
X00837035Y00925033D01*
X00838850Y00928177D01*
X00839790Y00931684D01*
Y00935315D01*
X00838850Y00938823D01*
X00837035Y00941967D01*
X00834467Y00944535D01*
X00831323Y00946350D01*
X00829355Y00946878D01*
Y00964727D01*
X00830273Y00965645D01*
X00831040Y00967497D01*
Y00969502D01*
X00830273Y00971355D01*
X00829355Y00972273D01*
Y00976460D01*
X00835040D01*
Y00976460D01*
X00835960D01*
Y00976460D01*
X00854040D01*
Y00988540D01*
X00835960D01*
Y00988540D01*
X00835040D01*
Y00988540D01*
X00817310D01*
X00816960Y00988540D01*
X00816040D01*
X00815690Y00988540D01*
X00797960D01*
Y00988540D01*
X00797040D01*
Y00988540D01*
X00778960D01*
Y00985854D01*
X00776540D01*
Y00993540D01*
X00766129D01*
Y01002460D01*
X00776540D01*
Y01011145D01*
X00778960D01*
Y01008460D01*
X00778960D01*
Y01007540D01*
X00778960D01*
Y00995460D01*
X00796690D01*
X00797040Y00995460D01*
X00797960D01*
X00798310Y00995460D01*
X00816040D01*
Y00995460D01*
X00816960D01*
Y00995460D01*
X00835040D01*
Y01007540D01*
X00817310D01*
X00816040Y01008385D01*
X00816040Y01008810D01*
Y01011227D01*
X00818149D01*
X00818986Y01010390D01*
X00820839Y01009623D01*
X00822844D01*
X00824696Y01010390D01*
X00826114Y01011808D01*
X00826881Y01013660D01*
Y01015665D01*
X00826114Y01017518D01*
X00824696Y01018935D01*
X00822844Y01019703D01*
X00820839D01*
X00818986Y01018935D01*
X00817987Y01017936D01*
X00816040D01*
Y01020540D01*
X00798310D01*
X00797960Y01020540D01*
X00797040D01*
X00796690Y01020540D01*
X00778960D01*
Y01017854D01*
X00776540D01*
Y01019540D01*
X00766129D01*
Y01032500D01*
X00766129Y01032500D01*
X00765777Y01034271D01*
X00764773Y01035773D01*
X00764773Y01035773D01*
X00757040Y01043506D01*
Y01055040D01*
X00755629D01*
Y01081250D01*
X00755277Y01083021D01*
X00754273Y01084523D01*
X00755033Y01085465D01*
X00758177Y01083650D01*
X00761685Y01082710D01*
X00765316D01*
X00768823Y01083650D01*
X00771967Y01085465D01*
X00774535Y01088033D01*
X00776350Y01091177D01*
X00777290Y01094685D01*
Y01098316D01*
X00776350Y01101823D01*
X00774535Y01104967D01*
X00771967Y01107535D01*
X00768823Y01109350D01*
X00765316Y01110290D01*
X00761685D01*
X00758177Y01109350D01*
X00755033Y01107535D01*
X00752465Y01104967D01*
X00750650Y01101823D01*
X00749710Y01098316D01*
Y01094685D01*
X00750650Y01091177D01*
X00752337Y01088256D01*
X00751320Y01087476D01*
X00724970Y01113827D01*
X00725456Y01115000D01*
X00885000D01*
Y00780000D01*
D02*
G37*
G36*
X01319146Y01137833D02*
X01319401Y01136549D01*
X01320128Y01135461D01*
X01322489Y01133100D01*
X01322191Y01131602D01*
X01321395Y01131273D01*
X01319977Y01129855D01*
X01319210Y01128002D01*
Y01125997D01*
X01319496Y01125307D01*
Y01117040D01*
X01317960D01*
Y01098960D01*
X01319371D01*
Y01073917D01*
X01312713Y01067260D01*
X01311540Y01067746D01*
Y01074540D01*
X01293460D01*
Y01071854D01*
X01282602D01*
X01281695Y01072761D01*
X01279842Y01073529D01*
X01277837D01*
X01275985Y01072761D01*
X01274567Y01071344D01*
X01273800Y01069491D01*
Y01067486D01*
X01274567Y01065634D01*
X01275985Y01064216D01*
X01277837Y01063449D01*
X01279842D01*
X01281695Y01064216D01*
X01282624Y01065145D01*
X01293460D01*
Y01062460D01*
X01306254D01*
X01306740Y01061287D01*
X01304333Y01058879D01*
X01275167D01*
X01269629Y01064417D01*
Y01070426D01*
X01292190Y01092987D01*
X01293460Y01092461D01*
Y01081460D01*
X01311540D01*
Y01093540D01*
X01305854D01*
Y01148960D01*
X01319146D01*
Y01137833D01*
D02*
G37*
G36*
X01550000Y01047159D02*
X01549822Y01045963D01*
X01527492D01*
Y01044298D01*
X01526222Y01043772D01*
X01508504Y01061489D01*
Y01071951D01*
X01509774Y01072477D01*
X01510535Y01071716D01*
X01512825Y01070394D01*
X01515378Y01069710D01*
X01518022D01*
X01520575Y01070394D01*
X01522865Y01071716D01*
X01524734Y01073585D01*
X01526056Y01075875D01*
X01526740Y01078428D01*
Y01081072D01*
X01526056Y01083625D01*
X01524734Y01085915D01*
X01522865Y01087784D01*
X01520819Y01088965D01*
Y01090910D01*
X01525740D01*
Y01102990D01*
X01508504D01*
Y01109910D01*
X01525740D01*
Y01111321D01*
X01550000D01*
Y01047159D01*
D02*
G37*
G36*
X01266704Y01054250D02*
X01261727Y01049273D01*
X01260723Y01047771D01*
X01260371Y01046000D01*
X01260371Y01046000D01*
Y01023000D01*
X01260371Y01023000D01*
X01260723Y01021229D01*
X01261727Y01019727D01*
X01269901Y01011552D01*
X01269415Y01010379D01*
X01262750D01*
X01262750Y01010379D01*
X01260979Y01010027D01*
X01259477Y01009023D01*
X01245333Y00994879D01*
X01143877D01*
X01143710Y00996149D01*
X01144625Y00996394D01*
X01146915Y00997716D01*
X01148784Y00999585D01*
X01150106Y01001875D01*
X01150790Y01004428D01*
Y01007072D01*
X01150106Y01009625D01*
X01148784Y01011915D01*
X01146915Y01013784D01*
X01144625Y01015106D01*
X01144104Y01015245D01*
Y01019710D01*
X01149790D01*
Y01031790D01*
X01131710D01*
Y01031790D01*
X01130790D01*
Y01031790D01*
X01112710D01*
Y01019710D01*
X01130790D01*
Y01019710D01*
X01131710D01*
Y01019710D01*
X01137395D01*
Y01015245D01*
X01136875Y01015106D01*
X01134585Y01013784D01*
X01132716Y01011915D01*
X01131394Y01009625D01*
X01130710Y01007072D01*
Y01004428D01*
X01131394Y01001875D01*
X01132716Y00999585D01*
X01134585Y00997716D01*
X01136875Y00996394D01*
X01137790Y00996149D01*
X01137623Y00994879D01*
X01133167D01*
X01125331Y01002715D01*
X01125790Y01004428D01*
Y01007072D01*
X01125106Y01009625D01*
X01123784Y01011915D01*
X01121915Y01013784D01*
X01119625Y01015106D01*
X01117072Y01015790D01*
X01114428D01*
X01111875Y01015106D01*
X01109585Y01013784D01*
X01107716Y01011915D01*
X01106829Y01010379D01*
X01008167D01*
X01004856Y01013690D01*
X01005178Y01014960D01*
X01009040D01*
Y01027040D01*
X00991092D01*
X00990960Y01027040D01*
X00989822Y01027358D01*
Y01033642D01*
X00990960Y01033960D01*
Y01033960D01*
X01009040D01*
Y01033960D01*
X01009960D01*
Y01033960D01*
X01028040D01*
Y01036646D01*
X01085750D01*
X01087034Y01036901D01*
X01088122Y01037628D01*
X01102639Y01052145D01*
X01244750D01*
X01246034Y01052401D01*
X01246266Y01052556D01*
X01247076Y01051570D01*
X01243611Y01048104D01*
X01149790D01*
Y01050790D01*
X01131710D01*
Y01038710D01*
X01149790D01*
Y01041396D01*
X01245000D01*
X01246284Y01041651D01*
X01247372Y01042378D01*
X01262122Y01057128D01*
X01262248Y01057317D01*
X01263512Y01057441D01*
X01266704Y01054250D01*
D02*
G37*
G36*
X01784441Y00724990D02*
Y00724307D01*
X01784175Y00722966D01*
X01783651Y00721702D01*
X01782892Y00720566D01*
X01781925Y00719599D01*
X01780788Y00718839D01*
X01779525Y00718316D01*
X01778184Y00718049D01*
X01777502D01*
X01760002Y00718059D01*
X01759951Y00718049D01*
X01759900Y00718057D01*
X01757938Y00717993D01*
X01757790Y00717958D01*
X01757639Y00717968D01*
X01753748Y00717456D01*
X01753557Y00717391D01*
X01753356Y00717378D01*
X01749565Y00716362D01*
X01749384Y00716273D01*
X01749186Y00716234D01*
X01745561Y00714732D01*
X01745393Y00714620D01*
X01745202Y00714555D01*
X01741804Y00712593D01*
X01741652Y00712460D01*
X01741471Y00712371D01*
X01738358Y00709982D01*
X01738225Y00709830D01*
X01738057Y00709718D01*
X01735282Y00706943D01*
X01735170Y00706775D01*
X01735018Y00706642D01*
X01732629Y00703529D01*
X01732540Y00703348D01*
X01732407Y00703196D01*
X01730445Y00699798D01*
X01730380Y00699607D01*
X01730268Y00699439D01*
X01728766Y00695814D01*
X01728727Y00695616D01*
X01728638Y00695435D01*
X01727622Y00691644D01*
X01727609Y00691443D01*
X01727544Y00691252D01*
X01727032Y00687361D01*
X01727042Y00687210D01*
X01727007Y00687062D01*
X01726943Y00685100D01*
X01726951Y00685050D01*
X01726941Y00685000D01*
X01726941Y00667490D01*
X01726944Y00667476D01*
X01726942Y00667461D01*
X01726948Y00666802D01*
X01726684Y00665475D01*
X01726161Y00664212D01*
X01725401Y00663075D01*
X01724434Y00662108D01*
X01723297Y00661349D01*
X01722034Y00660825D01*
X01720693Y00660559D01*
X01720009Y00660559D01*
X00724990Y00660559D01*
X00724307D01*
X00722966Y00660825D01*
X00721702Y00661349D01*
X00720566Y00662108D01*
X00719599Y00663075D01*
X00718839Y00664212D01*
X00718316Y00665475D01*
X00718049Y00666816D01*
Y00667498D01*
X00718059Y00684998D01*
X00718049Y00685049D01*
X00718057Y00685100D01*
X00717993Y00687062D01*
X00717958Y00687210D01*
X00717968Y00687361D01*
X00717456Y00691252D01*
X00717391Y00691443D01*
X00717378Y00691644D01*
X00716362Y00695435D01*
X00716273Y00695616D01*
X00716234Y00695814D01*
X00714732Y00699439D01*
X00714620Y00699607D01*
X00714555Y00699798D01*
X00712593Y00703196D01*
X00712460Y00703348D01*
X00712371Y00703529D01*
X00709982Y00706642D01*
X00709830Y00706775D01*
X00709718Y00706943D01*
X00706943Y00709718D01*
X00706775Y00709830D01*
X00706642Y00709982D01*
X00703529Y00712371D01*
X00703348Y00712460D01*
X00703196Y00712593D01*
X00699798Y00714555D01*
X00699607Y00714620D01*
X00699439Y00714732D01*
X00695814Y00716234D01*
X00695616Y00716273D01*
X00695435Y00716362D01*
X00691644Y00717378D01*
X00691443Y00717391D01*
X00691252Y00717456D01*
X00687361Y00717968D01*
X00687210Y00717958D01*
X00687062Y00717993D01*
X00685100Y00718057D01*
X00685049Y00718049D01*
X00684998Y00718059D01*
X00667498Y00718049D01*
X00666816D01*
X00665475Y00718316D01*
X00664212Y00718839D01*
X00663075Y00719599D01*
X00662108Y00720566D01*
X00661348Y00721703D01*
X00660825Y00722966D01*
X00660558Y00724307D01*
Y00724990D01*
Y01115000D01*
X00710704D01*
X00746371Y01079333D01*
Y01055040D01*
X00744960D01*
Y01036960D01*
X00750494D01*
X00756871Y01030583D01*
Y01028053D01*
X00755601Y01027526D01*
X00754855Y01028273D01*
X00753002Y01029040D01*
X00750997D01*
X00749145Y01028273D01*
X00747727Y01026855D01*
X00746960Y01025003D01*
Y01022998D01*
X00747727Y01021145D01*
X00748062Y01020810D01*
X00747536Y01019540D01*
X00746460D01*
Y01014354D01*
X00744040D01*
Y01017040D01*
X00726310D01*
X00725960Y01017040D01*
X00725040Y01017885D01*
Y01020290D01*
X00725040D01*
Y01021210D01*
X00725040D01*
Y01039290D01*
X00712960D01*
Y01021210D01*
X00712960D01*
Y01020290D01*
X00712960D01*
Y01002210D01*
X00712960D01*
Y01001290D01*
X00712960D01*
Y00983560D01*
X00712960Y00983210D01*
Y00982290D01*
X00712960Y00981940D01*
Y00964210D01*
X00725040D01*
Y00972115D01*
X00725960Y00972960D01*
X00743690D01*
X00744040Y00972960D01*
X00744960Y00972115D01*
Y00969629D01*
X00736995D01*
X00736003Y00970040D01*
X00733997D01*
X00732145Y00969273D01*
X00730727Y00967855D01*
X00729960Y00966003D01*
Y00963997D01*
X00730727Y00962145D01*
X00732145Y00960727D01*
X00733997Y00959960D01*
X00736003D01*
X00736995Y00960371D01*
X00744960D01*
Y00957460D01*
X00750553D01*
X00751039Y00956287D01*
X00736477Y00941724D01*
X00735473Y00940222D01*
X00735121Y00938451D01*
X00735121Y00938451D01*
Y00868750D01*
X00735121Y00868750D01*
X00735473Y00866979D01*
X00736477Y00865477D01*
X00744960Y00856994D01*
Y00845460D01*
X00750494D01*
X00755199Y00840755D01*
X00754479Y00839678D01*
X00753002Y00840290D01*
X00750997D01*
X00749145Y00839523D01*
X00747727Y00838105D01*
X00746960Y00836253D01*
Y00834248D01*
X00747727Y00832395D01*
X00748645Y00831477D01*
Y00828040D01*
X00746460D01*
Y00822854D01*
X00744040D01*
Y00825540D01*
X00726310D01*
X00725960Y00825540D01*
X00725040Y00826385D01*
Y00828790D01*
X00725040D01*
Y00829710D01*
X00725040D01*
Y00847790D01*
X00712960D01*
Y00829710D01*
X00712960D01*
Y00828790D01*
X00712960D01*
Y00810710D01*
X00712960D01*
Y00809790D01*
X00712960D01*
Y00791710D01*
X00724690D01*
X00725040Y00791710D01*
X00725960Y00790865D01*
Y00781460D01*
X00731646D01*
Y00775139D01*
X00729611Y00773104D01*
X00695290D01*
Y00776040D01*
X00677210D01*
Y00763960D01*
X00695290D01*
Y00766395D01*
X00731000D01*
X00732284Y00766651D01*
X00733372Y00767378D01*
X00737372Y00771378D01*
X00738099Y00772466D01*
X00738354Y00773750D01*
Y00781460D01*
X00744040D01*
Y00793540D01*
X00726310D01*
X00725960Y00793540D01*
X00725040Y00794385D01*
Y00799615D01*
X00725960Y00800460D01*
X00744040D01*
Y00812190D01*
X00744040Y00812540D01*
Y00813460D01*
X00744040Y00813810D01*
Y00816145D01*
X00746460D01*
Y00810960D01*
X00756871D01*
Y00802040D01*
X00746460D01*
Y00784960D01*
X00746871D01*
Y00776992D01*
X00746723Y00776771D01*
X00746371Y00775000D01*
X00746723Y00773229D01*
X00746960Y00772875D01*
Y00764960D01*
X00748121D01*
Y00762745D01*
X00747710Y00761752D01*
Y00759747D01*
X00748477Y00757895D01*
X00749895Y00756477D01*
X00751748Y00755710D01*
X00753753D01*
X00755605Y00756477D01*
X00757023Y00757895D01*
X00757790Y00759747D01*
Y00761752D01*
X00757379Y00762745D01*
Y00764706D01*
X00758649Y00764855D01*
X00784621Y00738883D01*
Y00703750D01*
X00784621Y00703750D01*
X00784973Y00701979D01*
X00785977Y00700477D01*
X00822227Y00664227D01*
X00822227Y00664227D01*
X00823729Y00663223D01*
X00825500Y00662871D01*
X00825500Y00662871D01*
X01463250D01*
X01463250Y00662871D01*
X01465021Y00663223D01*
X01466523Y00664227D01*
X01477613Y00675316D01*
X01477745Y00675371D01*
X01681000D01*
X01681000Y00675371D01*
X01682771Y00675723D01*
X01684273Y00676727D01*
X01709023Y00701477D01*
X01709023Y00701477D01*
X01710027Y00702979D01*
X01710379Y00704750D01*
X01710379Y00704750D01*
Y00767000D01*
X01710027Y00768771D01*
X01709023Y00770273D01*
X01709023Y00770273D01*
X01702046Y00777250D01*
X01710273Y00785477D01*
X01710273Y00785477D01*
X01711277Y00786979D01*
X01711629Y00788750D01*
X01711629Y00788750D01*
Y00847250D01*
X01711629Y00847250D01*
X01711277Y00849021D01*
X01710273Y00850523D01*
X01710273Y00850523D01*
X01700773Y00860023D01*
X01699271Y00861027D01*
X01697500Y00861379D01*
X01697500Y00861379D01*
X01668040D01*
Y00862790D01*
X01650310D01*
X01649040Y00863635D01*
X01649040Y00864060D01*
Y00881790D01*
X01647159D01*
X01646688Y00883060D01*
X01647273Y00883645D01*
X01648040Y00885498D01*
Y00887503D01*
X01647273Y00889355D01*
X01646354Y00890273D01*
Y01028000D01*
X01646099Y01029284D01*
X01645372Y01030372D01*
X01623354Y01052390D01*
Y01082710D01*
X01623815D01*
X01627323Y01083650D01*
X01630467Y01085465D01*
X01633035Y01088033D01*
X01634850Y01091177D01*
X01635790Y01094685D01*
Y01098316D01*
X01634850Y01101823D01*
X01633035Y01104967D01*
X01630467Y01107535D01*
X01627323Y01109350D01*
X01623815Y01110290D01*
X01620184D01*
X01616677Y01109350D01*
X01613533Y01107535D01*
X01610965Y01104967D01*
X01609150Y01101823D01*
X01608210Y01098316D01*
Y01094685D01*
X01609150Y01091177D01*
X01610965Y01088033D01*
X01613533Y01085465D01*
X01616646Y01083668D01*
Y01051000D01*
X01616901Y01049716D01*
X01617628Y01048628D01*
X01639646Y01026610D01*
Y00890273D01*
X01638727Y00889355D01*
X01637960Y00887503D01*
Y00885498D01*
X01638727Y00883645D01*
X01639312Y00883060D01*
X01638841Y00881790D01*
X01636960D01*
Y00881790D01*
X01636040D01*
Y00881790D01*
X01623960D01*
Y00863710D01*
X01630115D01*
X01630960Y00862790D01*
Y00862649D01*
X01630455Y00861379D01*
X01622724D01*
X01619580Y00864523D01*
X01618078Y00865527D01*
X01617040Y00865733D01*
Y00881790D01*
X01604960D01*
Y00874104D01*
X01594040D01*
Y00876290D01*
X01576960D01*
Y00865879D01*
X01568040D01*
Y00876290D01*
X01564129D01*
Y00878710D01*
X01569540D01*
Y00878710D01*
X01570460D01*
Y00878710D01*
X01588540D01*
Y00880121D01*
X01595255D01*
X01596248Y00879710D01*
X01598253D01*
X01600105Y00880477D01*
X01601523Y00881895D01*
X01602290Y00883747D01*
Y00885752D01*
X01601879Y00886745D01*
Y01095250D01*
X01601527Y01097021D01*
X01600523Y01098523D01*
X01600523Y01098523D01*
X01585220Y01113827D01*
X01585706Y01115000D01*
X01784441D01*
X01784441Y00724990D01*
D02*
G37*
G36*
X01485135Y01071716D02*
X01487425Y01070394D01*
X01489978Y01069710D01*
X01492622D01*
X01494903Y01070321D01*
X01497181Y01068044D01*
Y01044040D01*
X01495760D01*
Y01026960D01*
X01506840D01*
Y01044040D01*
X01505419D01*
Y01053428D01*
X01506592Y01053914D01*
X01521024Y01039482D01*
Y00995747D01*
X01519840Y00995540D01*
X01519754Y00995540D01*
X01514154D01*
Y01000960D01*
X01516340D01*
Y01018040D01*
X01505260D01*
Y01000960D01*
X01507446D01*
Y00995540D01*
X01501760D01*
Y00983460D01*
X01519754D01*
X01519840Y00983460D01*
X01521024Y00983253D01*
Y00977411D01*
X01519851Y00976536D01*
X01519840Y00976540D01*
Y00976540D01*
X01501760D01*
Y00964460D01*
X01519840D01*
Y00967213D01*
X01520784Y00967401D01*
X01521872Y00968128D01*
X01526751Y00973007D01*
X01527478Y00974095D01*
X01527733Y00975379D01*
Y01023633D01*
X01549822D01*
X01550000Y01022437D01*
Y00935000D01*
X01416354D01*
Y00937227D01*
X01417273Y00938145D01*
X01418040Y00939997D01*
Y00942002D01*
X01417273Y00943855D01*
X01415855Y00945273D01*
X01414003Y00946040D01*
X01411998D01*
X01410145Y00945273D01*
X01408727Y00943855D01*
X01407960Y00942002D01*
Y00939997D01*
X01408727Y00938145D01*
X01409646Y00937227D01*
Y00935000D01*
X01404494D01*
X01398790Y00940704D01*
Y00942002D01*
X01398023Y00943855D01*
X01396605Y00945273D01*
X01394753Y00946040D01*
X01392747D01*
X01390895Y00945273D01*
X01389477Y00943855D01*
X01388710Y00942002D01*
Y00939997D01*
X01389477Y00938145D01*
X01390895Y00936727D01*
X01391999Y00936270D01*
X01391747Y00935000D01*
X01390000D01*
Y00931903D01*
X01388827Y00931417D01*
X01379540Y00940704D01*
Y00942002D01*
X01378773Y00943855D01*
X01377355Y00945273D01*
X01375502Y00946040D01*
X01373497D01*
X01371645Y00945273D01*
X01370227Y00943855D01*
X01369460Y00942002D01*
Y00941693D01*
X01368287Y00941207D01*
X01366122Y00943372D01*
X01365034Y00944099D01*
X01363750Y00944354D01*
X01359023D01*
X01358105Y00945273D01*
X01356252Y00946040D01*
X01354247D01*
X01352624Y00945368D01*
X01351354Y00945891D01*
Y00950611D01*
X01352889Y00952145D01*
X01401000D01*
X01402284Y00952401D01*
X01403372Y00953128D01*
X01421122Y00970878D01*
X01421849Y00971966D01*
X01422104Y00973250D01*
Y01033960D01*
X01438040D01*
Y01033960D01*
X01438960D01*
Y01033960D01*
X01457040D01*
Y01033960D01*
X01458178Y01033641D01*
Y01027358D01*
X01457040Y01027040D01*
X01456908Y01027040D01*
X01438960D01*
Y01014960D01*
X01443371D01*
Y01012995D01*
X01442960Y01012002D01*
Y01009997D01*
X01443727Y01008145D01*
X01445145Y01006727D01*
X01446998Y01005960D01*
X01449003D01*
X01450855Y01006727D01*
X01452273Y01008145D01*
X01453040Y01009997D01*
Y01012002D01*
X01452629Y01012995D01*
Y01014960D01*
X01457040D01*
Y01023314D01*
X01458178Y01023633D01*
X01458310Y01023633D01*
X01480508D01*
Y01045963D01*
X01475503D01*
X01474977Y01047233D01*
X01481622Y01053878D01*
X01482349Y01054966D01*
X01482605Y01056250D01*
Y01072451D01*
X01483875Y01072977D01*
X01485135Y01071716D01*
D02*
G37*
G36*
X00746460Y01002460D02*
X00756871D01*
Y00993540D01*
X00746460D01*
Y00976460D01*
X00745615Y00975540D01*
X00744960Y00975540D01*
X00744040Y00976385D01*
Y00985040D01*
X00726310D01*
X00725960Y00985040D01*
X00725040Y00985885D01*
Y00991115D01*
X00725960Y00991960D01*
X00744040D01*
Y01003690D01*
X00744040Y01004040D01*
Y01004960D01*
X00744040Y01005310D01*
Y01007645D01*
X00746460D01*
Y01002460D01*
D02*
G37*
G36*
X01377820Y00922187D02*
X01377194Y00921016D01*
X01376750Y00921105D01*
X01354639D01*
X01351354Y00924389D01*
Y00936109D01*
X01352624Y00936632D01*
X01354247Y00935960D01*
X01356252D01*
X01358105Y00936727D01*
X01359023Y00937645D01*
X01362361D01*
X01377820Y00922187D01*
D02*
G37*
G36*
X01458396Y00887540D02*
X01455710D01*
Y00869460D01*
X01458396D01*
Y00867040D01*
X01456710D01*
Y00856629D01*
X01447790D01*
Y00867040D01*
X01446104D01*
Y00869460D01*
X01448790D01*
Y00887540D01*
X01446104D01*
Y00889460D01*
X01448790D01*
Y00889460D01*
X01449710D01*
Y00889460D01*
X01458396D01*
Y00887540D01*
D02*
G37*
G36*
X01511044Y00867851D02*
X01510875Y00867806D01*
X01508585Y00866484D01*
X01506716Y00864615D01*
X01505394Y00862325D01*
X01504710Y00859772D01*
Y00857128D01*
X01505394Y00854575D01*
X01506716Y00852285D01*
X01508585Y00850416D01*
X01510875Y00849094D01*
X01511396Y00848955D01*
Y00844490D01*
X01505710D01*
Y00844490D01*
X01504790D01*
Y00844490D01*
X01486710D01*
Y00841805D01*
X01485199D01*
X01485040Y00841935D01*
Y00843503D01*
X01484273Y00845355D01*
X01482855Y00846773D01*
X01481947Y00847149D01*
X01481806Y00848582D01*
X01482023Y00848727D01*
X01502417Y00869121D01*
X01510876D01*
X01511044Y00867851D01*
D02*
G37*
G36*
X01215895Y00842894D02*
X01214625Y00842368D01*
X01210854Y00846140D01*
Y00880460D01*
X01215895D01*
Y00842894D01*
D02*
G37*
G36*
X01617533Y00853477D02*
X01617534Y00853477D01*
X01619035Y00852473D01*
X01620807Y00852121D01*
X01620807Y00852121D01*
X01630960D01*
Y00850710D01*
X01649040D01*
Y00850710D01*
X01649960D01*
Y00850710D01*
X01668040D01*
Y00852121D01*
X01695583D01*
X01702371Y00845333D01*
Y00790667D01*
X01693583Y00781879D01*
X01668040D01*
Y00783290D01*
X01649960D01*
Y00783290D01*
X01649040D01*
X01649040Y00784560D01*
Y00802290D01*
X01636960D01*
Y00802290D01*
X01636040D01*
Y00802290D01*
X01633354D01*
Y00806727D01*
X01634273Y00807645D01*
X01635040Y00809498D01*
Y00811503D01*
X01634273Y00813355D01*
X01632855Y00814773D01*
X01631003Y00815540D01*
X01628997D01*
X01627145Y00814773D01*
X01625727Y00813355D01*
X01624960Y00811503D01*
Y00809498D01*
X01625727Y00807645D01*
X01626646Y00806727D01*
Y00802290D01*
X01623960D01*
Y00784210D01*
X01630115D01*
X01630960Y00783290D01*
Y00783149D01*
X01630456Y00781879D01*
X01622724D01*
X01619580Y00785023D01*
X01618078Y00786027D01*
X01617040Y00786233D01*
Y00802290D01*
X01604960D01*
Y00796605D01*
X01594040D01*
Y00796790D01*
X01576960D01*
Y00785710D01*
Y00776210D01*
Y00766710D01*
X01575734Y00766604D01*
X01569266D01*
X01568040Y00766710D01*
Y00777790D01*
X01550960D01*
Y00776830D01*
X01549690Y00776304D01*
X01544372Y00781622D01*
X01543284Y00782349D01*
X01542000Y00782605D01*
X01528250D01*
X01526966Y00782349D01*
X01525878Y00781622D01*
X01512478Y00768222D01*
X01511751Y00767134D01*
X01511496Y00765850D01*
Y00747345D01*
X01510975Y00747206D01*
X01508685Y00745884D01*
X01506816Y00744015D01*
X01505494Y00741725D01*
X01504810Y00739172D01*
Y00736528D01*
X01505494Y00733975D01*
X01506816Y00731685D01*
X01508685Y00729816D01*
X01510975Y00728494D01*
X01511496Y00728355D01*
Y00723890D01*
X01505810D01*
Y00723890D01*
X01504790D01*
Y00723890D01*
X01486710D01*
Y00721205D01*
X01481039D01*
X01473790Y00728454D01*
Y00735790D01*
X01456746D01*
X01456738Y00735793D01*
X01455802Y00737060D01*
X01455840Y00737250D01*
Y00741660D01*
X01479750D01*
X01480741Y00741857D01*
X01481581Y00742419D01*
X01482143Y00743259D01*
X01482340Y00744250D01*
Y00814000D01*
X01482143Y00814991D01*
X01481581Y00815831D01*
X01480741Y00816393D01*
X01479750Y00816590D01*
X01455840D01*
Y00820000D01*
X01455643Y00820991D01*
X01455479Y00821236D01*
X01456222Y00822410D01*
X01473790D01*
Y00825647D01*
X01475750D01*
X01477034Y00825902D01*
X01478122Y00826629D01*
X01485440Y00833947D01*
X01486710Y00833421D01*
Y00832410D01*
X01504790D01*
Y00832410D01*
X01505710D01*
Y00832410D01*
X01523790D01*
Y00844490D01*
X01518105D01*
Y00848955D01*
X01518625Y00849094D01*
X01520915Y00850416D01*
X01521101Y00850602D01*
X01522325Y00849378D01*
X01523414Y00848651D01*
X01524697Y00848395D01*
X01550960D01*
Y00846210D01*
X01568040D01*
Y00856621D01*
X01576960D01*
Y00850954D01*
X01568111Y00842104D01*
X01565273D01*
X01564355Y00843023D01*
X01562502Y00843790D01*
X01560497D01*
X01558645Y00843023D01*
X01557227Y00841605D01*
X01556460Y00839753D01*
Y00837747D01*
X01557227Y00835895D01*
X01558645Y00834477D01*
X01560497Y00833710D01*
X01562502D01*
X01564355Y00834477D01*
X01565273Y00835396D01*
X01569500D01*
X01570784Y00835651D01*
X01571872Y00836378D01*
X01581704Y00846210D01*
X01594040D01*
Y00847463D01*
X01598960D01*
Y00837210D01*
X01611040D01*
Y00855290D01*
X01598960D01*
Y00854172D01*
X01594040D01*
Y00856621D01*
X01614389D01*
X01617533Y00853477D01*
D02*
G37*
G36*
X01456710Y00836960D02*
X01473790D01*
Y00837871D01*
X01478005D01*
X01478058Y00837849D01*
X01478356Y00836351D01*
X01475060Y00833055D01*
X01473790Y00833581D01*
Y00834490D01*
X01455710D01*
Y00831805D01*
X01444940D01*
X01442605Y00834139D01*
Y00836960D01*
X01447790D01*
Y00847371D01*
X01456710D01*
Y00836960D01*
D02*
G37*
G36*
X01178926Y00824126D02*
X01178381Y00824017D01*
X01176797Y00822958D01*
X01175738Y00821374D01*
X01175366Y00819505D01*
Y00814380D01*
X01155283D01*
X01154797Y00815553D01*
X01164640Y00825396D01*
X01178801D01*
X01178926Y00824126D01*
D02*
G37*
G36*
X01258750Y00845500D02*
X01242000Y00828750D01*
X01242000Y00824295D01*
X01240460D01*
Y00806000D01*
X01230540D01*
Y00824295D01*
X01229000D01*
Y00829750D01*
X01249750Y00850500D01*
Y00945000D01*
X01258750D01*
X01258750Y00845500D01*
D02*
G37*
G36*
X01437468Y00778876D02*
X01437210Y00778252D01*
Y00776247D01*
X01437621Y00775255D01*
Y00773640D01*
X01436710D01*
Y00758104D01*
X01394250D01*
X01392966Y00757849D01*
X01391878Y00757122D01*
X01370611Y00735854D01*
X01272647D01*
X01263970Y00744532D01*
X01264456Y00745705D01*
X01269540D01*
Y00747638D01*
X01272618D01*
X01272714Y00747542D01*
Y00746244D01*
X01273481Y00744391D01*
X01274899Y00742974D01*
X01276751Y00742206D01*
X01278050D01*
X01279128Y00741128D01*
X01280216Y00740401D01*
X01281500Y00740145D01*
X01283710D01*
Y00737460D01*
X01301790D01*
Y00737460D01*
X01302710D01*
Y00737460D01*
X01320790D01*
Y00740145D01*
X01330000D01*
X01331284Y00740401D01*
X01332372Y00741128D01*
X01371389Y00780146D01*
X01397210D01*
Y00777460D01*
X01415290D01*
Y00777460D01*
X01416210D01*
Y00777460D01*
X01434290D01*
Y00780146D01*
X01436620D01*
X01437468Y00778876D01*
D02*
G37*
G36*
X01617533Y00773977D02*
X01617534Y00773977D01*
X01619035Y00772973D01*
X01620807Y00772621D01*
X01620807Y00772621D01*
X01630960D01*
Y00771210D01*
X01649040D01*
Y00771210D01*
X01649960D01*
Y00771210D01*
X01668040D01*
Y00772621D01*
X01693583D01*
X01701121Y00765083D01*
Y00706667D01*
X01679083Y00684629D01*
X01477745D01*
X01477613Y00684684D01*
X01471379Y00690917D01*
Y00712250D01*
X01471027Y00714021D01*
X01470023Y00715523D01*
X01470023Y00715523D01*
X01464023Y00721523D01*
X01463661Y00721765D01*
X01463371Y00723486D01*
X01463540Y00723710D01*
X01469046D01*
X01477278Y00715478D01*
X01478366Y00714751D01*
X01479650Y00714495D01*
X01486710D01*
Y00711810D01*
X01504790D01*
Y00711810D01*
X01505810D01*
Y00711810D01*
X01523890D01*
Y00723890D01*
X01518204D01*
Y00728355D01*
X01518725Y00728494D01*
X01521015Y00729816D01*
X01522884Y00731685D01*
X01524206Y00733975D01*
X01524890Y00736528D01*
Y00739172D01*
X01524206Y00741725D01*
X01522884Y00744015D01*
X01521015Y00745884D01*
X01518725Y00747206D01*
X01518204Y00747345D01*
Y00764461D01*
X01529639Y00775896D01*
X01540611D01*
X01542174Y00774332D01*
X01541991Y00774016D01*
X01541420Y00773290D01*
X01538928D01*
X01536375Y00772606D01*
X01534085Y00771284D01*
X01532216Y00769415D01*
X01530894Y00767125D01*
X01530210Y00764572D01*
Y00761928D01*
X01530894Y00759375D01*
X01532216Y00757085D01*
X01534085Y00755216D01*
X01536375Y00753894D01*
X01538928Y00753210D01*
X01541572D01*
X01544125Y00753894D01*
X01546415Y00755216D01*
X01548284Y00757085D01*
X01549606Y00759375D01*
X01549745Y00759895D01*
X01580750D01*
X01582034Y00760151D01*
X01583122Y00760878D01*
X01587872Y00765628D01*
X01588595Y00766710D01*
X01594040D01*
X01594960Y00765865D01*
Y00757710D01*
X01607040D01*
Y00775790D01*
X01596233D01*
X01595365Y00777060D01*
X01595388Y00777121D01*
X01614389D01*
X01617533Y00773977D01*
D02*
G37*
G36*
X01453250Y00814000D02*
X01479750D01*
Y00744250D01*
X01453250D01*
Y00737250D01*
X01444250D01*
Y00752250D01*
X01457250D01*
Y00782560D01*
X01457290D01*
Y00799640D01*
X01457250D01*
Y00805000D01*
X01444250D01*
Y00820000D01*
X01453250D01*
Y00814000D01*
D02*
G37*
G36*
X01441660Y00750096D02*
Y00737250D01*
X01441857Y00736259D01*
X01442419Y00735419D01*
X01443259Y00734857D01*
X01444250Y00734660D01*
X01453250D01*
X01453389Y00734688D01*
X01454293Y00734115D01*
X01453566Y00733290D01*
X01437710D01*
Y00722210D01*
Y00712710D01*
Y00703210D01*
X01439395D01*
Y00700790D01*
X01436710D01*
Y00682710D01*
X01448790D01*
Y00688395D01*
X01451727D01*
X01452645Y00687477D01*
X01454498Y00686710D01*
X01456503D01*
X01458355Y00687477D01*
X01459773Y00688895D01*
X01460540Y00690748D01*
Y00692753D01*
X01459773Y00694605D01*
X01458355Y00696023D01*
X01456503Y00696790D01*
X01454498D01*
X01452645Y00696023D01*
X01451727Y00695105D01*
X01448790D01*
Y00700790D01*
X01446104D01*
Y00703210D01*
X01454790D01*
Y00713621D01*
X01458833D01*
X01462121Y00710333D01*
Y00689000D01*
X01462121Y00689000D01*
X01462473Y00687229D01*
X01463477Y00685727D01*
X01469204Y00680000D01*
X01461333Y00672129D01*
X01392781D01*
X01392388Y00673309D01*
X01392386Y00673399D01*
X01394122Y00675135D01*
X01394849Y00676224D01*
X01395104Y00677507D01*
Y00682710D01*
X01397790D01*
Y00700790D01*
X01395104D01*
Y00731861D01*
X01404639Y00741395D01*
X01423710D01*
Y00735710D01*
X01435790D01*
Y00751396D01*
X01440361D01*
X01441660Y00750096D01*
D02*
G37*
G36*
X01423710Y00748104D02*
X01403250D01*
X01401966Y00747849D01*
X01400878Y00747122D01*
X01389378Y00735622D01*
X01388651Y00734534D01*
X01388396Y00733250D01*
Y00700790D01*
X01386060D01*
X01385710Y00700790D01*
X01384440Y00700790D01*
X01366710D01*
Y00700464D01*
X01366147Y00700111D01*
X01365440Y00699841D01*
X01363752Y00700540D01*
X01361747D01*
X01359895Y00699773D01*
X01358477Y00698355D01*
X01357710Y00696503D01*
Y00694498D01*
X01358477Y00692645D01*
X01359895Y00691227D01*
X01361747Y00690460D01*
X01363752D01*
X01365440Y00691159D01*
X01366147Y00690889D01*
X01366710Y00690536D01*
Y00688710D01*
X01384440D01*
X01384790Y00688710D01*
X01385710Y00687865D01*
Y00682710D01*
X01388396D01*
Y00679104D01*
X01384790D01*
Y00681790D01*
X01366710D01*
Y00679104D01*
X01356640D01*
X01352040Y00683704D01*
Y00685003D01*
X01351273Y00686855D01*
X01350354Y00687773D01*
Y00709250D01*
X01350099Y00710534D01*
X01349372Y00711622D01*
X01341122Y00719872D01*
X01341117Y00719875D01*
X01341502Y00721145D01*
X01342727D01*
X01343645Y00720227D01*
X01345497Y00719460D01*
X01347502D01*
X01349355Y00720227D01*
X01350773Y00721645D01*
X01351540Y00723497D01*
Y00725502D01*
X01350773Y00727355D01*
X01350252Y00727876D01*
X01350778Y00729146D01*
X01372000D01*
X01373284Y00729401D01*
X01374372Y00730128D01*
X01395639Y00751396D01*
X01423710D01*
Y00748104D01*
D02*
G37*
G36*
X01241896Y00741250D02*
X01242151Y00739966D01*
X01242878Y00738878D01*
X01261446Y00720310D01*
X01260920Y00719040D01*
X01259747D01*
X01257895Y00718273D01*
X01256477Y00716855D01*
X01255710Y00715003D01*
Y00712998D01*
X01256121Y00712005D01*
Y00710040D01*
X01251710D01*
Y00710040D01*
X01250563Y00709565D01*
X01250355Y00709773D01*
X01248503Y00710540D01*
X01246497D01*
X01245505Y00710129D01*
X01238290D01*
Y00718790D01*
X01236879D01*
Y00745705D01*
X01241896D01*
Y00741250D01*
D02*
G37*
%LPC*%
G36*
X01264050Y01516605D02*
X01262082Y01516346D01*
X01260247Y01515586D01*
X01258672Y01514378D01*
X01257464Y01512802D01*
X01256810Y01511224D01*
X01255540Y01511477D01*
Y01512040D01*
X01237460D01*
Y01499960D01*
X01255540D01*
X01255540Y01499960D01*
Y01499960D01*
X01256642Y01499505D01*
X01256704Y01499032D01*
X01257464Y01497198D01*
X01258672Y01495622D01*
X01260247Y01494414D01*
X01262082Y01493654D01*
X01264050Y01493395D01*
X01266018Y01493654D01*
X01267852Y01494414D01*
X01269428Y01495622D01*
X01270636Y01497198D01*
X01271396Y01499032D01*
X01271655Y01501000D01*
Y01509000D01*
X01271396Y01510968D01*
X01270636Y01512802D01*
X01269428Y01514378D01*
X01267852Y01515586D01*
X01266018Y01516346D01*
X01264050Y01516605D01*
D02*
G37*
G36*
X00983840Y01508790D02*
X00965760D01*
Y01504379D01*
X00960790D01*
Y01508790D01*
X00948710D01*
Y01498697D01*
X00948621Y01498250D01*
X00948621Y01498250D01*
Y01492167D01*
X00942744Y01486290D01*
X00928210D01*
Y01466210D01*
X00949290D01*
Y01479744D01*
X00956523Y01486977D01*
X00956523Y01486977D01*
X00957527Y01488479D01*
X00957879Y01490250D01*
X00958983Y01490710D01*
X00960790D01*
Y01495121D01*
X00965760D01*
Y01482210D01*
X00983840D01*
Y01508790D01*
D02*
G37*
G36*
X00820040D02*
X00801960D01*
Y01504379D01*
X00797040D01*
Y01508790D01*
X00784960D01*
Y01498697D01*
X00784871Y01498250D01*
X00784871Y01498250D01*
Y01492167D01*
X00778994Y01486290D01*
X00764460D01*
Y01466210D01*
X00785540D01*
Y01479744D01*
X00792773Y01486977D01*
X00792773Y01486977D01*
X00793777Y01488479D01*
X00794129Y01490250D01*
Y01490710D01*
X00797040D01*
Y01495121D01*
X00801960D01*
Y01482210D01*
X00820040D01*
Y01508790D01*
D02*
G37*
G36*
X01350450Y01516605D02*
X01348482Y01516346D01*
X01346647Y01515586D01*
X01345072Y01514378D01*
X01343864Y01512802D01*
X01343104Y01510968D01*
X01342845Y01509000D01*
Y01501000D01*
X01343104Y01499032D01*
X01343864Y01497198D01*
X01345072Y01495622D01*
X01346647Y01494414D01*
X01348482Y01493654D01*
X01350450Y01493395D01*
X01352418Y01493654D01*
X01354252Y01494414D01*
X01355828Y01495622D01*
X01357036Y01497198D01*
X01357796Y01499032D01*
X01357855Y01499480D01*
X01358960Y01499960D01*
X01358960Y01499960D01*
X01358960Y01499960D01*
X01377040D01*
Y01512040D01*
X01358960D01*
Y01511477D01*
X01357690Y01511224D01*
X01357036Y01512802D01*
X01355828Y01514378D01*
X01354252Y01515586D01*
X01352418Y01516346D01*
X01350450Y01516605D01*
D02*
G37*
G36*
Y01476305D02*
X01348482Y01476046D01*
X01346647Y01475286D01*
X01345072Y01474078D01*
X01343864Y01472502D01*
X01343363Y01471293D01*
X01341963Y01471232D01*
X01341391Y01472222D01*
X01340172Y01473441D01*
X01338678Y01474304D01*
X01337012Y01474750D01*
X01335288D01*
X01333622Y01474304D01*
X01332128Y01473441D01*
X01330909Y01472222D01*
X01330046Y01470728D01*
X01329600Y01469062D01*
Y01467338D01*
X01330046Y01465672D01*
X01330909Y01464178D01*
X01332128Y01462959D01*
X01333622Y01462096D01*
X01335288Y01461650D01*
X01337012D01*
X01338678Y01462096D01*
X01340172Y01462959D01*
X01341391Y01464178D01*
X01341575Y01464496D01*
X01342845Y01464156D01*
Y01457700D01*
X01343104Y01455732D01*
X01343864Y01453897D01*
X01345072Y01452322D01*
X01346647Y01451114D01*
X01348482Y01450354D01*
X01350450Y01450095D01*
X01352418Y01450354D01*
X01352982Y01450587D01*
X01353484Y01450252D01*
X01355450Y01449861D01*
X01358960D01*
Y01448960D01*
X01377040D01*
Y01461040D01*
X01358960D01*
X01358055Y01461921D01*
Y01468700D01*
X01357796Y01470668D01*
X01357036Y01472502D01*
X01355828Y01474078D01*
X01354252Y01475286D01*
X01352418Y01476046D01*
X01350450Y01476305D01*
D02*
G37*
G36*
X01328790Y01494790D02*
X01310710D01*
Y01482710D01*
X01316396D01*
Y01479273D01*
X01315477Y01478355D01*
X01314710Y01476503D01*
Y01474498D01*
X01315477Y01472645D01*
X01316895Y01471227D01*
X01318748Y01470460D01*
X01320753D01*
X01322605Y01471227D01*
X01324023Y01472645D01*
X01324790Y01474498D01*
Y01476503D01*
X01324023Y01478355D01*
X01323104Y01479273D01*
Y01482710D01*
X01328790D01*
Y01494790D01*
D02*
G37*
G36*
X01298790D02*
X01280710D01*
Y01482710D01*
X01286396D01*
Y01479273D01*
X01285477Y01478355D01*
X01284710Y01476503D01*
Y01474498D01*
X01285477Y01472645D01*
X01286895Y01471227D01*
X01288748Y01470460D01*
X01290753D01*
X01292605Y01471227D01*
X01294023Y01472645D01*
X01294790Y01474498D01*
Y01476503D01*
X01294023Y01478355D01*
X01293105Y01479273D01*
Y01482710D01*
X01298790D01*
Y01494790D01*
D02*
G37*
G36*
X01264050Y01476305D02*
X01262082Y01476046D01*
X01260247Y01475286D01*
X01258672Y01474078D01*
X01257464Y01472502D01*
X01256704Y01470668D01*
X01256445Y01468700D01*
Y01461921D01*
X01255540Y01461040D01*
X01237460D01*
Y01448960D01*
X01255540D01*
Y01449861D01*
X01259050D01*
X01261016Y01450252D01*
X01261518Y01450587D01*
X01262082Y01450354D01*
X01264050Y01450095D01*
X01266018Y01450354D01*
X01267852Y01451114D01*
X01269428Y01452322D01*
X01270636Y01453897D01*
X01271396Y01455732D01*
X01271655Y01457700D01*
Y01464156D01*
X01272925Y01464496D01*
X01273109Y01464178D01*
X01274328Y01462959D01*
X01275822Y01462096D01*
X01277488Y01461650D01*
X01279212D01*
X01280878Y01462096D01*
X01282372Y01462959D01*
X01283591Y01464178D01*
X01284454Y01465672D01*
X01284900Y01467338D01*
Y01469062D01*
X01284454Y01470728D01*
X01283591Y01472222D01*
X01282372Y01473441D01*
X01280878Y01474304D01*
X01279212Y01474750D01*
X01277488D01*
X01275822Y01474304D01*
X01274328Y01473441D01*
X01273109Y01472222D01*
X01272537Y01471232D01*
X01271137Y01471293D01*
X01270636Y01472502D01*
X01269428Y01474078D01*
X01267852Y01475286D01*
X01266018Y01476046D01*
X01264050Y01476305D01*
D02*
G37*
G36*
X01071540Y01457790D02*
X01053460D01*
Y01455105D01*
X01047773D01*
X01046855Y01456023D01*
X01045003Y01456790D01*
X01042998D01*
X01041145Y01456023D01*
X01039727Y01454605D01*
X01038960Y01452753D01*
Y01450748D01*
X01039727Y01448895D01*
X01041145Y01447477D01*
X01042998Y01446710D01*
X01045003D01*
X01046855Y01447477D01*
X01047773Y01448396D01*
X01053460D01*
Y01445710D01*
X01071540D01*
Y01457790D01*
D02*
G37*
G36*
X01458790Y01484790D02*
X01446710D01*
Y01466710D01*
X01448121D01*
Y01458890D01*
X01442860D01*
Y01445844D01*
X01441590Y01445111D01*
X01440610Y01445676D01*
X01438693Y01446190D01*
X01436707D01*
X01434790Y01445676D01*
X01433070Y01444684D01*
X01432195Y01443808D01*
X01431350Y01443424D01*
X01430505Y01443808D01*
X01429630Y01444684D01*
X01427910Y01445676D01*
X01425993Y01446190D01*
X01424007D01*
X01422090Y01445676D01*
X01420370Y01444684D01*
X01419495Y01443808D01*
X01418650Y01443424D01*
X01417805Y01443808D01*
X01417458Y01444155D01*
X01417074Y01445000D01*
X01417458Y01445845D01*
X01418333Y01446720D01*
X01419326Y01448440D01*
X01419840Y01450357D01*
Y01452343D01*
X01419326Y01454260D01*
X01418333Y01455980D01*
X01416930Y01457384D01*
X01415210Y01458376D01*
X01413293Y01458890D01*
X01411307D01*
X01409390Y01458376D01*
X01407670Y01457384D01*
X01406266Y01455980D01*
X01405274Y01454260D01*
X01404760Y01452343D01*
Y01450357D01*
X01405274Y01448440D01*
X01406266Y01446720D01*
X01407142Y01445845D01*
X01407526Y01445000D01*
X01407142Y01444155D01*
X01406795Y01443808D01*
X01405950Y01443424D01*
X01405105Y01443808D01*
X01404230Y01444684D01*
X01402510Y01445676D01*
X01400593Y01446190D01*
X01398607D01*
X01396690Y01445676D01*
X01394970Y01444684D01*
X01393566Y01443280D01*
X01392574Y01441560D01*
X01392060Y01439643D01*
Y01437657D01*
X01392574Y01435740D01*
X01393566Y01434020D01*
X01394970Y01432616D01*
X01396246Y01431880D01*
Y01419790D01*
X01391710D01*
Y01408710D01*
X01403790D01*
Y01410896D01*
X01414111D01*
X01416146Y01408860D01*
Y01387500D01*
X01416401Y01386216D01*
X01417128Y01385128D01*
X01422628Y01379628D01*
X01423716Y01378901D01*
X01425000Y01378646D01*
X01435361D01*
X01448896Y01365110D01*
Y01327773D01*
X01447977Y01326855D01*
X01447210Y01325002D01*
Y01322997D01*
X01447977Y01321145D01*
X01449395Y01319727D01*
X01451248Y01318960D01*
X01453253D01*
X01455105Y01319727D01*
X01456523Y01321145D01*
X01457290Y01322997D01*
Y01325002D01*
X01456523Y01326855D01*
X01455605Y01327773D01*
Y01366500D01*
X01455349Y01367784D01*
X01454622Y01368872D01*
X01441272Y01382222D01*
X01441758Y01383396D01*
X01454361D01*
X01465646Y01372110D01*
Y01304040D01*
X01462960D01*
Y01285960D01*
X01475040D01*
Y01304040D01*
X01472354D01*
Y01373500D01*
X01472099Y01374784D01*
X01471372Y01375872D01*
X01458122Y01389122D01*
X01457034Y01389849D01*
X01455750Y01390104D01*
X01430639D01*
X01426604Y01394140D01*
Y01407361D01*
X01430139Y01410896D01*
X01432210D01*
Y01408710D01*
X01444290D01*
Y01419790D01*
X01441054D01*
Y01431880D01*
X01442330Y01432616D01*
X01443205Y01433492D01*
X01444050Y01433876D01*
X01444895Y01433492D01*
X01445770Y01432616D01*
X01447045Y01431880D01*
Y01419790D01*
X01446210D01*
Y01408710D01*
X01458290D01*
Y01419790D01*
X01453754D01*
Y01431880D01*
X01455030Y01432616D01*
X01456434Y01434020D01*
X01457426Y01435740D01*
X01457940Y01437657D01*
Y01439643D01*
X01457426Y01441560D01*
X01456861Y01442540D01*
X01457594Y01443810D01*
X01457940D01*
Y01458890D01*
X01457379D01*
Y01466710D01*
X01458790D01*
Y01484790D01*
D02*
G37*
G36*
X01381003Y01405040D02*
X01378997D01*
X01378005Y01404629D01*
X01236495D01*
X01235502Y01405040D01*
X01233497D01*
X01231645Y01404273D01*
X01230227Y01402855D01*
X01229460Y01401003D01*
Y01398997D01*
X01230227Y01397145D01*
X01231645Y01395727D01*
X01233497Y01394960D01*
X01235502D01*
X01236495Y01395371D01*
X01378005D01*
X01378997Y01394960D01*
X01381003D01*
X01382855Y01395727D01*
X01384273Y01397145D01*
X01385040Y01398997D01*
Y01401003D01*
X01384273Y01402855D01*
X01382855Y01404273D01*
X01381003Y01405040D01*
D02*
G37*
G36*
X01376540Y01387540D02*
X01358460D01*
Y01385964D01*
X01357190Y01385438D01*
X01356855Y01385773D01*
X01355002Y01386540D01*
X01352997D01*
X01351145Y01385773D01*
X01349727Y01384355D01*
X01348960Y01382502D01*
Y01380497D01*
X01349727Y01378645D01*
X01351145Y01377227D01*
X01352997Y01376460D01*
X01355002D01*
X01356855Y01377227D01*
X01357190Y01377562D01*
X01358460Y01377036D01*
Y01375460D01*
X01376540D01*
Y01387540D01*
D02*
G37*
G36*
X01331540D02*
X01313460D01*
Y01384854D01*
X01280523D01*
X01279605Y01385773D01*
X01277753Y01386540D01*
X01275748D01*
X01273895Y01385773D01*
X01272810Y01384688D01*
X01271540Y01385158D01*
Y01387540D01*
X01253460D01*
Y01384854D01*
X01245500D01*
X01244216Y01384599D01*
X01243128Y01383872D01*
X01238394Y01379138D01*
X01237667Y01378050D01*
X01237411Y01376766D01*
Y01375774D01*
X01236493Y01374855D01*
X01235726Y01373003D01*
Y01370998D01*
X01236493Y01369146D01*
X01237911Y01367728D01*
X01239763Y01366960D01*
X01241768D01*
X01243621Y01367728D01*
X01245039Y01369146D01*
X01245806Y01370998D01*
Y01373003D01*
X01245039Y01374855D01*
X01244319Y01375575D01*
X01246889Y01378146D01*
X01253460D01*
Y01375460D01*
X01271540D01*
Y01377842D01*
X01272810Y01378312D01*
X01273895Y01377227D01*
X01275748Y01376460D01*
X01277753D01*
X01279605Y01377227D01*
X01280523Y01378146D01*
X01313460D01*
Y01375460D01*
X01331540D01*
Y01387540D01*
D02*
G37*
G36*
X01475040Y01211040D02*
X01462960D01*
Y01192960D01*
X01475040D01*
Y01197371D01*
X01477005D01*
X01477997Y01196960D01*
X01480002D01*
X01481855Y01197727D01*
X01483273Y01199145D01*
X01484040Y01200997D01*
Y01203002D01*
X01483273Y01204855D01*
X01481855Y01206273D01*
X01480002Y01207040D01*
X01477997D01*
X01477005Y01206629D01*
X01475040D01*
Y01211040D01*
D02*
G37*
G36*
X00953040Y01185540D02*
X00934960D01*
Y01173460D01*
X00953040D01*
Y01176146D01*
X00957977D01*
X00958895Y01175227D01*
X00960748Y01174460D01*
X00962753D01*
X00964605Y01175227D01*
X00966023Y01176645D01*
X00966790Y01178497D01*
Y01180502D01*
X00966023Y01182355D01*
X00964605Y01183773D01*
X00962753Y01184540D01*
X00960748D01*
X00958895Y01183773D01*
X00957977Y01182855D01*
X00953040D01*
Y01185540D01*
D02*
G37*
G36*
X00786540Y01185540D02*
X00768460D01*
Y01173460D01*
X00786540D01*
Y01176146D01*
X00801861D01*
X00808628Y01169378D01*
X00809716Y01168651D01*
X00811000Y01168396D01*
X00904727D01*
X00905645Y01167477D01*
X00907497Y01166710D01*
X00909502D01*
X00911355Y01167477D01*
X00912773Y01168895D01*
X00913540Y01170748D01*
Y01172753D01*
X00912773Y01174605D01*
X00911355Y01176023D01*
X00909502Y01176790D01*
X00907497D01*
X00905645Y01176023D01*
X00904727Y01175105D01*
X00812389D01*
X00805622Y01181872D01*
X00804534Y01182599D01*
X00803250Y01182855D01*
X00786540D01*
Y01185540D01*
D02*
G37*
G36*
X00934960Y01166540D02*
X00934040Y01166540D01*
Y01166540D01*
X00933727Y01166540D01*
X00915960D01*
Y01154460D01*
X00934040D01*
Y01154460D01*
X00934960Y01154460D01*
Y01154460D01*
X00940646D01*
Y01149995D01*
X00940125Y01149856D01*
X00937835Y01148534D01*
X00935966Y01146665D01*
X00934644Y01144375D01*
X00933960Y01141822D01*
Y01139178D01*
X00934644Y01136625D01*
X00935966Y01134335D01*
X00937835Y01132466D01*
X00940125Y01131144D01*
X00942678Y01130460D01*
X00945322D01*
X00947875Y01131144D01*
X00950165Y01132466D01*
X00952034Y01134335D01*
X00953356Y01136625D01*
X00954040Y01139178D01*
Y01141822D01*
X00953356Y01144375D01*
X00952034Y01146665D01*
X00950165Y01148534D01*
X00947875Y01149856D01*
X00947354Y01149995D01*
Y01154460D01*
X00953040D01*
Y01166540D01*
X00935273D01*
X00934960Y01166540D01*
Y01166540D01*
D02*
G37*
G36*
X00920322Y01150540D02*
X00917678D01*
X00915125Y01149856D01*
X00912835Y01148534D01*
X00910966Y01146665D01*
X00909644Y01144375D01*
X00908960Y01141822D01*
Y01139178D01*
X00909644Y01136625D01*
X00910966Y01134335D01*
X00912835Y01132466D01*
X00915125Y01131144D01*
X00917678Y01130460D01*
X00920322D01*
X00922875Y01131144D01*
X00925165Y01132466D01*
X00927034Y01134335D01*
X00928356Y01136625D01*
X00929040Y01139178D01*
Y01141822D01*
X00928356Y01144375D01*
X00927034Y01146665D01*
X00925165Y01148534D01*
X00922875Y01149856D01*
X00920322Y01150540D01*
D02*
G37*
G36*
X01660540Y01166540D02*
Y01166540D01*
X01660227Y01166540D01*
X01642460D01*
Y01154460D01*
X01660540D01*
Y01154460D01*
X01661460D01*
Y01154460D01*
X01667146D01*
Y01149995D01*
X01666625Y01149856D01*
X01664335Y01148534D01*
X01662466Y01146665D01*
X01661144Y01144375D01*
X01660460Y01141822D01*
Y01139178D01*
X01661144Y01136625D01*
X01662466Y01134335D01*
X01664335Y01132466D01*
X01666625Y01131144D01*
X01669178Y01130460D01*
X01671822D01*
X01674375Y01131144D01*
X01676665Y01132466D01*
X01678534Y01134335D01*
X01679856Y01136625D01*
X01680540Y01139178D01*
Y01141822D01*
X01679856Y01144375D01*
X01678534Y01146665D01*
X01676665Y01148534D01*
X01674375Y01149856D01*
X01673854Y01149995D01*
Y01154460D01*
X01679540D01*
Y01166540D01*
X01661773D01*
X01661460Y01166540D01*
Y01166540D01*
X01660540D01*
D02*
G37*
G36*
X01646822Y01150540D02*
X01644178D01*
X01641625Y01149856D01*
X01639335Y01148534D01*
X01637466Y01146665D01*
X01636144Y01144375D01*
X01635460Y01141822D01*
Y01139178D01*
X01636144Y01136625D01*
X01637466Y01134335D01*
X01639335Y01132466D01*
X01641625Y01131144D01*
X01644178Y01130460D01*
X01646822D01*
X01649375Y01131144D01*
X01651665Y01132466D01*
X01653534Y01134335D01*
X01654856Y01136625D01*
X01655540Y01139178D01*
Y01141822D01*
X01654856Y01144375D01*
X01653534Y01146665D01*
X01651665Y01148534D01*
X01649375Y01149856D01*
X01646822Y01150540D01*
D02*
G37*
G36*
X00767540Y01166540D02*
Y01166540D01*
X00767227Y01166540D01*
X00749460D01*
Y01154460D01*
X00767540D01*
Y01154460D01*
X00768460D01*
Y01154460D01*
X00774146D01*
Y01149995D01*
X00773625Y01149856D01*
X00771335Y01148534D01*
X00769466Y01146665D01*
X00768144Y01144375D01*
X00767460Y01141822D01*
Y01139178D01*
X00768144Y01136625D01*
X00769466Y01134335D01*
X00771335Y01132466D01*
X00773625Y01131144D01*
X00776178Y01130460D01*
X00778822D01*
X00781375Y01131144D01*
X00783665Y01132466D01*
X00785534Y01134335D01*
X00786856Y01136625D01*
X00787540Y01139178D01*
Y01141822D01*
X00786856Y01144375D01*
X00785534Y01146665D01*
X00783665Y01148534D01*
X00781375Y01149856D01*
X00780854Y01149995D01*
Y01154460D01*
X00786540D01*
Y01166540D01*
X00768773D01*
X00768460Y01166540D01*
Y01166540D01*
X00767540D01*
D02*
G37*
G36*
X00753822Y01150540D02*
X00751178D01*
X00748625Y01149856D01*
X00746335Y01148534D01*
X00744466Y01146665D01*
X00743144Y01144375D01*
X00742460Y01141822D01*
Y01139178D01*
X00743144Y01136625D01*
X00744466Y01134335D01*
X00746335Y01132466D01*
X00748625Y01131144D01*
X00751178Y01130460D01*
X00753822D01*
X00756375Y01131144D01*
X00758665Y01132466D01*
X00760534Y01134335D01*
X00761856Y01136625D01*
X00762540Y01139178D01*
Y01141822D01*
X00761856Y01144375D01*
X00760534Y01146665D01*
X00758665Y01148534D01*
X00756375Y01149856D01*
X00753822Y01150540D01*
D02*
G37*
G36*
X00965740Y01121990D02*
X00947660D01*
Y01120579D01*
X00937945D01*
X00936953Y01120990D01*
X00934948D01*
X00933095Y01120223D01*
X00931677Y01118805D01*
X00930910Y01116953D01*
Y01114948D01*
X00931677Y01113095D01*
X00933095Y01111677D01*
X00934948Y01110910D01*
X00936953D01*
X00937945Y01111321D01*
X00947660D01*
Y01109910D01*
X00965740D01*
Y01121990D01*
D02*
G37*
G36*
Y01102990D02*
X00947660D01*
Y01090910D01*
X00952581D01*
Y01088965D01*
X00950535Y01087784D01*
X00948666Y01085915D01*
X00947344Y01083625D01*
X00946660Y01081072D01*
Y01078428D01*
X00947344Y01075875D01*
X00948666Y01073585D01*
X00950535Y01071716D01*
X00952825Y01070394D01*
X00955378Y01069710D01*
X00958022D01*
X00960575Y01070394D01*
X00962865Y01071716D01*
X00964734Y01073585D01*
X00966056Y01075875D01*
X00966740Y01078428D01*
Y01081072D01*
X00966056Y01083625D01*
X00964734Y01085915D01*
X00962865Y01087784D01*
X00960819Y01088965D01*
Y01090910D01*
X00965740D01*
Y01102990D01*
D02*
G37*
G36*
X01211503Y01121790D02*
X01209498D01*
X01207645Y01121023D01*
X01206227Y01119605D01*
X01205460Y01117753D01*
Y01115748D01*
X01206227Y01113895D01*
X01207145Y01112977D01*
Y01109040D01*
X01204460D01*
Y01090960D01*
X01207145D01*
Y01083540D01*
X01192460D01*
Y01065460D01*
X01216540D01*
Y01083540D01*
X01213854D01*
Y01090960D01*
X01216540D01*
Y01109040D01*
X01213854D01*
Y01112977D01*
X01214773Y01113895D01*
X01215540Y01115748D01*
Y01117753D01*
X01214773Y01119605D01*
X01213355Y01121023D01*
X01211503Y01121790D01*
D02*
G37*
G36*
X00932622Y01089790D02*
X00929978D01*
X00927425Y01089106D01*
X00925135Y01087784D01*
X00923266Y01085915D01*
X00921944Y01083625D01*
X00921260Y01081072D01*
Y01078428D01*
X00921944Y01075875D01*
X00923266Y01073585D01*
X00925135Y01071716D01*
X00927425Y01070394D01*
X00929978Y01069710D01*
X00932622D01*
X00934903Y01070321D01*
X00937181Y01068044D01*
Y01046040D01*
X00935210D01*
Y01028960D01*
X00946290D01*
Y01046040D01*
X00945419D01*
Y01069750D01*
X00945106Y01071326D01*
X00944213Y01072663D01*
X00940729Y01076147D01*
X00941340Y01078428D01*
Y01081072D01*
X00940656Y01083625D01*
X00939334Y01085915D01*
X00937465Y01087784D01*
X00935175Y01089106D01*
X00932622Y01089790D01*
D02*
G37*
G36*
X00920508Y01045963D02*
X00898178D01*
Y01023633D01*
X00920508D01*
Y01045963D01*
D02*
G37*
G36*
X01328990Y00987240D02*
X01310910D01*
Y00985829D01*
X01301195D01*
X01300202Y00986240D01*
X01298197D01*
X01296345Y00985473D01*
X01294927Y00984055D01*
X01294160Y00982203D01*
Y00980198D01*
X01294927Y00978345D01*
X01296345Y00976927D01*
X01298197Y00976160D01*
X01300202D01*
X01301195Y00976571D01*
X01310910D01*
Y00975160D01*
X01328990D01*
Y00987240D01*
D02*
G37*
G36*
Y00968240D02*
X01310910D01*
Y00956160D01*
X01315831D01*
Y00954215D01*
X01313785Y00953034D01*
X01311916Y00951165D01*
X01310594Y00948875D01*
X01309910Y00946322D01*
Y00943678D01*
X01310594Y00941125D01*
X01311916Y00938835D01*
X01313785Y00936966D01*
X01316075Y00935644D01*
X01318628Y00934960D01*
X01321272D01*
X01323825Y00935644D01*
X01326115Y00936966D01*
X01327984Y00938835D01*
X01329306Y00941125D01*
X01329990Y00943678D01*
Y00946322D01*
X01329306Y00948875D01*
X01327984Y00951165D01*
X01326115Y00953034D01*
X01324069Y00954215D01*
Y00956160D01*
X01328990D01*
Y00968240D01*
D02*
G37*
G36*
X01162540Y00968290D02*
X01144460D01*
Y00956210D01*
X01149381D01*
Y00954244D01*
X01147285Y00953034D01*
X01145416Y00951165D01*
X01144094Y00948875D01*
X01143410Y00946322D01*
Y00943678D01*
X01144094Y00941125D01*
X01145416Y00938835D01*
X01147285Y00936966D01*
X01149575Y00935644D01*
X01152128Y00934960D01*
X01154772D01*
X01157325Y00935644D01*
X01159615Y00936966D01*
X01161484Y00938835D01*
X01162806Y00941125D01*
X01163490Y00943678D01*
Y00946322D01*
X01162806Y00948875D01*
X01161484Y00951165D01*
X01159615Y00953034D01*
X01157619Y00954186D01*
Y00956210D01*
X01162540D01*
Y00968290D01*
D02*
G37*
G36*
X01295872Y00955040D02*
X01293228D01*
X01290675Y00954356D01*
X01288385Y00953034D01*
X01286516Y00951165D01*
X01285194Y00948875D01*
X01284510Y00946322D01*
Y00943678D01*
X01285194Y00941125D01*
X01286516Y00938835D01*
X01288385Y00936966D01*
X01290675Y00935644D01*
X01293228Y00934960D01*
X01295872D01*
X01298153Y00935571D01*
X01300431Y00933294D01*
Y00909290D01*
X01299010D01*
Y00892210D01*
X01310090D01*
Y00909290D01*
X01308669D01*
Y00935000D01*
X01308356Y00936576D01*
X01307463Y00937913D01*
X01303979Y00941397D01*
X01304590Y00943678D01*
Y00946322D01*
X01303906Y00948875D01*
X01302584Y00951165D01*
X01300715Y00953034D01*
X01298425Y00954356D01*
X01295872Y00955040D01*
D02*
G37*
G36*
X01186572Y00909463D02*
X01164242D01*
Y00887133D01*
X01186572D01*
Y00909463D01*
D02*
G37*
G36*
X01319590Y00883290D02*
X01308510D01*
Y00866210D01*
X01310695D01*
Y00860790D01*
X01305010D01*
Y00848710D01*
X01323090D01*
Y00860790D01*
X01317404D01*
Y00866210D01*
X01319590D01*
Y00883290D01*
D02*
G37*
G36*
X01153090D02*
X01142010D01*
Y00866210D01*
X01144195D01*
Y00860790D01*
X01138510D01*
Y00848710D01*
X01156590D01*
Y00860790D01*
X01150904D01*
Y00866210D01*
X01153090D01*
Y00883290D01*
D02*
G37*
G36*
X01156590Y00841790D02*
X01138510D01*
Y00837104D01*
X01126273D01*
X01125355Y00838023D01*
X01123503Y00838790D01*
X01121497D01*
X01119645Y00838023D01*
X01118227Y00836605D01*
X01117460Y00834753D01*
Y00832747D01*
X01118227Y00830895D01*
X01119645Y00829477D01*
X01121497Y00828710D01*
X01123503D01*
X01125355Y00829477D01*
X01126273Y00830396D01*
X01138510D01*
Y00829710D01*
X01156590D01*
Y00841790D01*
D02*
G37*
G36*
X01323090D02*
X01305010D01*
Y00829710D01*
X01323090D01*
Y00831395D01*
X01328227D01*
X01329145Y00830477D01*
X01330997Y00829710D01*
X01333002D01*
X01334855Y00830477D01*
X01336273Y00831895D01*
X01337040Y00833747D01*
Y00835752D01*
X01336273Y00837605D01*
X01334855Y00839023D01*
X01333002Y00839790D01*
X01330997D01*
X01329145Y00839023D01*
X01328227Y00838104D01*
X01323090D01*
Y00841790D01*
D02*
G37*
%LPD*%
G36*
X01419495Y01433492D02*
X01420370Y01432616D01*
X01422090Y01431624D01*
X01424007Y01431110D01*
X01425993D01*
X01427910Y01431624D01*
X01429630Y01432616D01*
X01430505Y01433492D01*
X01431350Y01433876D01*
X01432195Y01433492D01*
X01433070Y01432616D01*
X01434346Y01431880D01*
Y01419790D01*
X01432210D01*
Y01417605D01*
X01428750D01*
X01427466Y01417349D01*
X01426378Y01416622D01*
X01422333Y01412577D01*
X01421872Y01412622D01*
X01417872Y01416622D01*
X01416784Y01417349D01*
X01415500Y01417605D01*
X01403790D01*
Y01419790D01*
X01402954D01*
Y01431880D01*
X01404230Y01432616D01*
X01405105Y01433492D01*
X01405950Y01433876D01*
X01406795Y01433492D01*
X01407670Y01432616D01*
X01409390Y01431624D01*
X01411307Y01431110D01*
X01413293D01*
X01415210Y01431624D01*
X01416930Y01432616D01*
X01417805Y01433492D01*
X01418650Y01433876D01*
X01419495Y01433492D01*
D02*
G37*
%LPC*%
G36*
X01132040Y01289040D02*
X01119960D01*
Y01283354D01*
X01118273D01*
X01117355Y01284273D01*
X01115502Y01285040D01*
X01113497D01*
X01111645Y01284273D01*
X01110227Y01282855D01*
X01109460Y01281003D01*
Y01278997D01*
X01110227Y01277145D01*
X01111645Y01275727D01*
X01113497Y01274960D01*
X01115502D01*
X01117355Y01275727D01*
X01118273Y01276646D01*
X01119960D01*
Y01270960D01*
X01132040D01*
Y01289040D01*
D02*
G37*
G36*
X01253540Y01179040D02*
X01236460D01*
Y01170960D01*
X01239557D01*
X01240043Y01169787D01*
X01234132Y01163876D01*
X01167273D01*
X01166355Y01164794D01*
X01164502Y01165562D01*
X01162497D01*
X01160645Y01164794D01*
X01159227Y01163377D01*
X01158460Y01161524D01*
Y01159519D01*
X01159227Y01157667D01*
X01160645Y01156249D01*
X01162497Y01155482D01*
X01164502D01*
X01166355Y01156249D01*
X01167273Y01157167D01*
X01235522D01*
X01236805Y01157422D01*
X01237894Y01158150D01*
X01247372Y01167628D01*
X01248099Y01168717D01*
X01248355Y01170000D01*
Y01170960D01*
X01253540D01*
Y01179040D01*
D02*
G37*
G36*
X00827816Y01110290D02*
X00824185D01*
X00820677Y01109350D01*
X00817533Y01107535D01*
X00814965Y01104967D01*
X00813150Y01101823D01*
X00812210Y01098316D01*
Y01094685D01*
X00813150Y01091177D01*
X00814965Y01088033D01*
X00817533Y01085465D01*
X00820677Y01083650D01*
X00824185Y01082710D01*
X00827816D01*
X00831323Y01083650D01*
X00834467Y01085465D01*
X00837035Y01088033D01*
X00838850Y01091177D01*
X00839790Y01094685D01*
Y01098316D01*
X00838850Y01101823D01*
X00837035Y01104967D01*
X00834467Y01107535D01*
X00831323Y01109350D01*
X00827816Y01110290D01*
D02*
G37*
G36*
X00797040Y01071540D02*
X00778960D01*
Y01059460D01*
X00797040D01*
Y01062146D01*
X00799611D01*
X00800646Y01061111D01*
Y01058540D01*
X00797960D01*
Y01053385D01*
X00797040Y01052540D01*
X00796690Y01052540D01*
X00778960D01*
Y01051464D01*
X00778397Y01051111D01*
X00777690Y01050841D01*
X00776003Y01051540D01*
X00773997D01*
X00772145Y01050773D01*
X00770727Y01049355D01*
X00769960Y01047503D01*
Y01045498D01*
X00770727Y01043645D01*
X00772145Y01042227D01*
X00773997Y01041460D01*
X00776003D01*
X00777690Y01042159D01*
X00778397Y01041889D01*
X00778960Y01041536D01*
X00778960Y01039540D01*
X00778960Y01039190D01*
Y01027460D01*
X00797040D01*
Y01027460D01*
X00797960D01*
Y01027460D01*
X00816040D01*
Y01039540D01*
X00810885D01*
X00810040Y01040460D01*
Y01058540D01*
X00807354D01*
Y01062500D01*
X00807099Y01063784D01*
X00806372Y01064872D01*
X00803372Y01067872D01*
X00802284Y01068599D01*
X00801000Y01068855D01*
X00797040D01*
Y01071540D01*
D02*
G37*
G36*
X01516072Y00919290D02*
X01513428D01*
X01510875Y00918606D01*
X01508585Y00917284D01*
X01506716Y00915415D01*
X01505394Y00913125D01*
X01504710Y00910572D01*
Y00907928D01*
X01505394Y00905375D01*
X01506716Y00903085D01*
X01508585Y00901216D01*
X01510875Y00899894D01*
X01513428Y00899210D01*
X01516072D01*
X01518625Y00899894D01*
X01520915Y00901216D01*
X01522784Y00903085D01*
X01524106Y00905375D01*
X01524790Y00907928D01*
Y00910572D01*
X01524106Y00913125D01*
X01522784Y00915415D01*
X01520915Y00917284D01*
X01518625Y00918606D01*
X01516072Y00919290D01*
D02*
G37*
G36*
X00765316Y00918790D02*
X00761685D01*
X00758177Y00917850D01*
X00755033Y00916035D01*
X00752465Y00913467D01*
X00750650Y00910323D01*
X00749710Y00906815D01*
Y00903185D01*
X00750650Y00899677D01*
X00752465Y00896533D01*
X00755033Y00893965D01*
X00758177Y00892150D01*
X00761685Y00891210D01*
X00765316D01*
X00768823Y00892150D01*
X00771967Y00893965D01*
X00774535Y00896533D01*
X00776350Y00899677D01*
X00777290Y00903185D01*
Y00906815D01*
X00776350Y00910323D01*
X00774535Y00913467D01*
X00771967Y00916035D01*
X00768823Y00917850D01*
X00765316Y00918790D01*
D02*
G37*
G36*
X01541472Y00893890D02*
X01538828D01*
X01536275Y00893206D01*
X01533985Y00891884D01*
X01532116Y00890015D01*
X01530794Y00887725D01*
X01530110Y00885172D01*
Y00882528D01*
X01530794Y00879975D01*
X01532116Y00877685D01*
X01533985Y00875816D01*
X01536275Y00874494D01*
X01538828Y00873810D01*
X01541472D01*
X01544025Y00874494D01*
X01546315Y00875816D01*
X01548184Y00877685D01*
X01549506Y00879975D01*
X01550190Y00882528D01*
Y00885172D01*
X01549506Y00887725D01*
X01548184Y00890015D01*
X01546315Y00891884D01*
X01544025Y00893206D01*
X01541472Y00893890D01*
D02*
G37*
G36*
X00797040Y00880040D02*
X00778960D01*
Y00867960D01*
X00797040D01*
Y00870646D01*
X00799110D01*
X00800646Y00869110D01*
Y00867040D01*
X00797960D01*
Y00861885D01*
X00797040Y00861040D01*
X00796690Y00861040D01*
X00778960D01*
Y00858354D01*
X00776273D01*
X00775355Y00859273D01*
X00773503Y00860040D01*
X00771497D01*
X00769645Y00859273D01*
X00768227Y00857855D01*
X00767460Y00856003D01*
Y00853997D01*
X00768227Y00852145D01*
X00769645Y00850727D01*
X00771497Y00849960D01*
X00773503D01*
X00775355Y00850727D01*
X00776273Y00851646D01*
X00778960D01*
Y00849310D01*
X00778960Y00848960D01*
Y00848040D01*
X00778960Y00847690D01*
Y00835960D01*
X00797040D01*
Y00835960D01*
X00797960D01*
Y00835960D01*
X00816040D01*
Y00848040D01*
X00810885D01*
X00810040Y00848960D01*
Y00867040D01*
X00807354D01*
Y00870500D01*
X00807099Y00871784D01*
X00806372Y00872872D01*
X00802872Y00876372D01*
X00801784Y00877099D01*
X00800500Y00877355D01*
X00797040D01*
Y00880040D01*
D02*
G37*
G36*
X01129003Y00765540D02*
X01126998D01*
X01125145Y00764773D01*
X01123727Y00763355D01*
X01122960Y00761503D01*
Y00759498D01*
X01123727Y00757645D01*
X01125145Y00756227D01*
X01126998Y00755460D01*
X01128296D01*
X01137978Y00745778D01*
X01137492Y00744604D01*
X01131773D01*
X01130855Y00745523D01*
X01129003Y00746290D01*
X01126998D01*
X01125145Y00745523D01*
X01123727Y00744105D01*
X01122960Y00742253D01*
Y00740247D01*
X01123727Y00738395D01*
X01125145Y00736977D01*
X01126998Y00736210D01*
X01129003D01*
X01130855Y00736977D01*
X01131773Y00737896D01*
X01137492D01*
X01137978Y00736722D01*
X01128296Y00727040D01*
X01126998D01*
X01125145Y00726273D01*
X01123727Y00724855D01*
X01122960Y00723002D01*
Y00720997D01*
X01123727Y00719145D01*
X01125145Y00717727D01*
X01126998Y00716960D01*
X01129003D01*
X01130855Y00717727D01*
X01132273Y00719145D01*
X01133040Y00720997D01*
Y00722296D01*
X01135626Y00724882D01*
X01136896Y00724356D01*
Y00716389D01*
X01128296Y00707790D01*
X01126998D01*
X01125145Y00707023D01*
X01123727Y00705605D01*
X01122960Y00703753D01*
Y00701748D01*
X01123727Y00699895D01*
X01125145Y00698477D01*
X01126998Y00697710D01*
X01129003D01*
X01130855Y00698477D01*
X01132273Y00699895D01*
X01133040Y00701748D01*
Y00703046D01*
X01140722Y00710728D01*
X01141896Y00710242D01*
Y00702139D01*
X01128296Y00688540D01*
X01126998D01*
X01125145Y00687773D01*
X01123727Y00686355D01*
X01122960Y00684502D01*
Y00682497D01*
X01123727Y00680645D01*
X01125145Y00679227D01*
X01126998Y00678460D01*
X01129003D01*
X01130855Y00679227D01*
X01132273Y00680645D01*
X01133040Y00682497D01*
Y00683796D01*
X01147622Y00698378D01*
X01148349Y00699466D01*
X01148604Y00700750D01*
Y00715547D01*
X01166056D01*
Y00718232D01*
X01168088D01*
Y00715547D01*
X01186168D01*
Y00718232D01*
X01188200D01*
Y00715547D01*
X01206280D01*
Y00718232D01*
X01206684D01*
X01207967Y00718488D01*
X01209056Y00719215D01*
X01209108Y00719268D01*
X01209248Y00719210D01*
X01211253D01*
X01213105Y00719977D01*
X01214523Y00721395D01*
X01215290Y00723248D01*
Y00724546D01*
X01221622Y00730878D01*
X01222349Y00731966D01*
X01222604Y00733250D01*
Y00745705D01*
X01224040D01*
Y00765535D01*
X01175460D01*
Y00758854D01*
X01172023D01*
X01171105Y00759773D01*
X01169252Y00760540D01*
X01167247D01*
X01165395Y00759773D01*
X01163977Y00758355D01*
X01163210Y00756503D01*
Y00754498D01*
X01163977Y00752645D01*
X01165395Y00751227D01*
X01167247Y00750460D01*
X01169252D01*
X01171105Y00751227D01*
X01172023Y00752145D01*
X01175460D01*
Y00748354D01*
X01144890D01*
X01133040Y00760204D01*
Y00761503D01*
X01132273Y00763355D01*
X01130855Y00764773D01*
X01129003Y00765540D01*
D02*
G37*
G36*
X01245740Y00695540D02*
X01224660D01*
Y00674460D01*
X01245740D01*
Y00681646D01*
X01251710D01*
Y00678960D01*
X01269790D01*
Y00678960D01*
X01270960D01*
Y00678960D01*
X01289040D01*
Y00681646D01*
X01294227D01*
X01295145Y00680727D01*
X01296998Y00679960D01*
X01299003D01*
X01300855Y00680727D01*
X01302273Y00682145D01*
X01303040Y00683997D01*
Y00686003D01*
X01302273Y00687855D01*
X01300855Y00689273D01*
X01299003Y00690040D01*
X01296998D01*
X01295145Y00689273D01*
X01294227Y00688354D01*
X01289040D01*
Y00691040D01*
X01270960D01*
Y00691040D01*
X01269790D01*
Y00691040D01*
X01251710D01*
Y00688354D01*
X01245740D01*
Y00695540D01*
D02*
G37*
G36*
X01248540Y01028540D02*
X01224460D01*
Y01010460D01*
X01248540D01*
Y01028540D01*
D02*
G37*
G36*
X01216540D02*
X01192460D01*
Y01010460D01*
X01216540D01*
Y01028540D01*
D02*
G37*
G36*
X00702816Y01110290D02*
X00699185D01*
X00695677Y01109350D01*
X00692533Y01107535D01*
X00689965Y01104967D01*
X00688150Y01101823D01*
X00687210Y01098316D01*
Y01094685D01*
X00688150Y01091177D01*
X00689965Y01088033D01*
X00692533Y01085465D01*
X00695677Y01083650D01*
X00699185Y01082710D01*
X00702816D01*
X00706323Y01083650D01*
X00709467Y01085465D01*
X00712035Y01088033D01*
X00713850Y01091177D01*
X00714790Y01094685D01*
Y01098316D01*
X00713850Y01101823D01*
X00712035Y01104967D01*
X00709467Y01107535D01*
X00706323Y01109350D01*
X00702816Y01110290D01*
D02*
G37*
G36*
X00706040Y01039290D02*
X00693960D01*
Y01033604D01*
X00690773D01*
X00689855Y01034523D01*
X00688002Y01035290D01*
X00685997D01*
X00684145Y01034523D01*
X00682727Y01033105D01*
X00681960Y01031253D01*
Y01029248D01*
X00682727Y01027395D01*
X00684145Y01025977D01*
X00685997Y01025210D01*
X00688002D01*
X00689855Y01025977D01*
X00690773Y01026896D01*
X00693960D01*
Y01021560D01*
X00693960Y01021210D01*
Y01020290D01*
X00693960Y01019940D01*
Y01014604D01*
X00690773D01*
X00689855Y01015523D01*
X00688002Y01016290D01*
X00685997D01*
X00684145Y01015523D01*
X00682727Y01014105D01*
X00681960Y01012253D01*
Y01010247D01*
X00682727Y01008395D01*
X00684145Y01006977D01*
X00685997Y01006210D01*
X00688002D01*
X00689855Y01006977D01*
X00690773Y01007896D01*
X00693960D01*
Y01002210D01*
X00706040D01*
Y01019940D01*
X00706040Y01020290D01*
Y01021210D01*
X00706040Y01021560D01*
Y01039290D01*
D02*
G37*
G36*
X01748815Y00947290D02*
X01745184D01*
X01741677Y00946350D01*
X01738533Y00944535D01*
X01735965Y00941967D01*
X01734150Y00938823D01*
X01733210Y00935315D01*
Y00931684D01*
X01734150Y00928177D01*
X01735965Y00925033D01*
X01738533Y00922465D01*
X01741677Y00920650D01*
X01745184Y00919710D01*
X01748815D01*
X01752323Y00920650D01*
X01755467Y00922465D01*
X01758035Y00925033D01*
X01759850Y00928177D01*
X01760790Y00931684D01*
Y00935315D01*
X01759850Y00938823D01*
X01758035Y00941967D01*
X01755467Y00944535D01*
X01752323Y00946350D01*
X01748815Y00947290D01*
D02*
G37*
G36*
X01686315D02*
X01682684D01*
X01679177Y00946350D01*
X01676033Y00944535D01*
X01673465Y00941967D01*
X01671650Y00938823D01*
X01670710Y00935315D01*
Y00931684D01*
X01671650Y00928177D01*
X01673465Y00925033D01*
X01676033Y00922465D01*
X01679177Y00920650D01*
X01682684Y00919710D01*
X01686315D01*
X01689823Y00920650D01*
X01692967Y00922465D01*
X01695535Y00925033D01*
X01697350Y00928177D01*
X01698290Y00931684D01*
Y00935315D01*
X01697350Y00938823D01*
X01695535Y00941967D01*
X01692967Y00944535D01*
X01689823Y00946350D01*
X01686315Y00947290D01*
D02*
G37*
G36*
X00702816Y00918790D02*
X00699185D01*
X00695677Y00917850D01*
X00692533Y00916035D01*
X00689965Y00913467D01*
X00688150Y00910323D01*
X00687210Y00906815D01*
Y00903185D01*
X00688150Y00899677D01*
X00689965Y00896533D01*
X00692533Y00893965D01*
X00695677Y00892150D01*
X00699185Y00891210D01*
X00702816D01*
X00706323Y00892150D01*
X00709467Y00893965D01*
X00712035Y00896533D01*
X00713850Y00899677D01*
X00714790Y00903185D01*
Y00906815D01*
X00713850Y00910323D01*
X00712035Y00913467D01*
X00709467Y00916035D01*
X00706323Y00917850D01*
X00702816Y00918790D01*
D02*
G37*
G36*
X01623815Y00947290D02*
X01620184D01*
X01616677Y00946350D01*
X01613533Y00944535D01*
X01610965Y00941967D01*
X01609150Y00938823D01*
X01608210Y00935315D01*
Y00931684D01*
X01609150Y00928177D01*
X01610965Y00925033D01*
X01613533Y00922465D01*
X01616677Y00920650D01*
X01619448Y00919907D01*
Y00918593D01*
X01616677Y00917850D01*
X01613533Y00916035D01*
X01610965Y00913467D01*
X01609150Y00910323D01*
X01608210Y00906815D01*
Y00903185D01*
X01609150Y00899677D01*
X01610965Y00896533D01*
X01613533Y00893965D01*
X01616677Y00892150D01*
X01620184Y00891210D01*
X01623815D01*
X01627323Y00892150D01*
X01630467Y00893965D01*
X01633035Y00896533D01*
X01634850Y00899677D01*
X01635790Y00903185D01*
Y00906815D01*
X01634850Y00910323D01*
X01633035Y00913467D01*
X01630467Y00916035D01*
X01627323Y00917850D01*
X01624552Y00918593D01*
Y00919907D01*
X01627323Y00920650D01*
X01630467Y00922465D01*
X01633035Y00925033D01*
X01634850Y00928177D01*
X01635790Y00931684D01*
Y00935315D01*
X01634850Y00938823D01*
X01633035Y00941967D01*
X01630467Y00944535D01*
X01627323Y00946350D01*
X01623815Y00947290D01*
D02*
G37*
G36*
X00706040Y00847790D02*
X00693960D01*
Y00841854D01*
X00691523D01*
X00690605Y00842773D01*
X00688753Y00843540D01*
X00686748D01*
X00684895Y00842773D01*
X00683477Y00841355D01*
X00682710Y00839502D01*
Y00837497D01*
X00683477Y00835645D01*
X00684895Y00834227D01*
X00686748Y00833460D01*
X00688753D01*
X00690605Y00834227D01*
X00691523Y00835145D01*
X00693960D01*
Y00830060D01*
X00693960Y00829710D01*
Y00828790D01*
X00693960Y00828440D01*
Y00822854D01*
X00691523D01*
X00690605Y00823773D01*
X00688753Y00824540D01*
X00686748D01*
X00684895Y00823773D01*
X00683477Y00822355D01*
X00682710Y00820502D01*
Y00818497D01*
X00683477Y00816645D01*
X00684895Y00815227D01*
X00686748Y00814460D01*
X00688753D01*
X00690605Y00815227D01*
X00691523Y00816145D01*
X00693960D01*
Y00810710D01*
X00706040D01*
Y00828440D01*
X00706040Y00828790D01*
Y00829710D01*
X00706040Y00830060D01*
Y00847790D01*
D02*
G37*
G36*
X01748815Y00755790D02*
X01745184D01*
X01741677Y00754850D01*
X01738533Y00753035D01*
X01735965Y00750467D01*
X01734150Y00747323D01*
X01733210Y00743816D01*
Y00740184D01*
X01734150Y00736677D01*
X01735965Y00733533D01*
X01738533Y00730965D01*
X01741677Y00729150D01*
X01745184Y00728210D01*
X01748815D01*
X01752323Y00729150D01*
X01755467Y00730965D01*
X01758035Y00733533D01*
X01759850Y00736677D01*
X01760790Y00740184D01*
Y00743816D01*
X01759850Y00747323D01*
X01758035Y00750467D01*
X01755467Y00753035D01*
X01752323Y00754850D01*
X01748815Y00755790D01*
D02*
G37*
G36*
X01504790Y00825490D02*
Y00825490D01*
X01504477Y00825490D01*
X01486710D01*
Y00813410D01*
X01504790D01*
Y00813410D01*
X01505710D01*
Y00813410D01*
X01523790D01*
Y00825490D01*
X01506023D01*
X01505710Y00825490D01*
Y00825490D01*
X01504790D01*
D02*
G37*
G36*
X01569540Y00811290D02*
Y00811290D01*
X01569227Y00811290D01*
X01551460D01*
Y00809879D01*
X01544245D01*
X01543253Y00810290D01*
X01541248D01*
X01539395Y00809523D01*
X01537977Y00808105D01*
X01537210Y00806253D01*
Y00804248D01*
X01537977Y00802395D01*
X01539395Y00800977D01*
X01541248Y00800210D01*
X01543253D01*
X01544245Y00800621D01*
X01551460D01*
Y00799210D01*
X01555371D01*
Y00796790D01*
X01550960D01*
Y00785710D01*
X01568040D01*
Y00796790D01*
X01564629D01*
Y00799210D01*
X01569540D01*
Y00799210D01*
X01570460D01*
Y00799210D01*
X01588540D01*
Y00811290D01*
X01570773D01*
X01570460Y00811290D01*
Y00811290D01*
X01569540D01*
D02*
G37*
G36*
X01516172Y00798690D02*
X01513528D01*
X01510975Y00798006D01*
X01508685Y00796684D01*
X01506816Y00794815D01*
X01505494Y00792525D01*
X01504810Y00789972D01*
Y00787328D01*
X01505494Y00784775D01*
X01506816Y00782485D01*
X01508685Y00780616D01*
X01510975Y00779294D01*
X01513528Y00778610D01*
X01516172D01*
X01518725Y00779294D01*
X01521015Y00780616D01*
X01522884Y00782485D01*
X01524206Y00784775D01*
X01524890Y00787328D01*
Y00789972D01*
X01524206Y00792525D01*
X01522884Y00794815D01*
X01521015Y00796684D01*
X01518725Y00798006D01*
X01516172Y00798690D01*
D02*
G37*
G36*
X01686315Y00755790D02*
X01682684D01*
X01679177Y00754850D01*
X01676033Y00753035D01*
X01673465Y00750467D01*
X01671650Y00747323D01*
X01670710Y00743816D01*
Y00740184D01*
X01671650Y00736677D01*
X01673465Y00733533D01*
X01676033Y00730965D01*
X01679177Y00729150D01*
X01682684Y00728210D01*
X01686315D01*
X01689823Y00729150D01*
X01692967Y00730965D01*
X01695535Y00733533D01*
X01697350Y00736677D01*
X01698290Y00740184D01*
Y00743816D01*
X01697350Y00747323D01*
X01695535Y00750467D01*
X01692967Y00753035D01*
X01689823Y00754850D01*
X01686315Y00755790D01*
D02*
G37*
G36*
X01623815D02*
X01620184D01*
X01616677Y00754850D01*
X01613533Y00753035D01*
X01610965Y00750467D01*
X01609150Y00747323D01*
X01608210Y00743816D01*
Y00740184D01*
X01609150Y00736677D01*
X01610965Y00733533D01*
X01613533Y00730965D01*
X01616677Y00729150D01*
X01620184Y00728210D01*
X01623815D01*
X01627323Y00729150D01*
X01630467Y00730965D01*
X01633035Y00733533D01*
X01634850Y00736677D01*
X01635790Y00740184D01*
Y00743816D01*
X01634850Y00747323D01*
X01633035Y00750467D01*
X01630467Y00753035D01*
X01627323Y00754850D01*
X01623815Y00755790D01*
D02*
G37*
G36*
X01504790Y00704890D02*
Y00704890D01*
X01504577Y00704890D01*
X01486710D01*
Y00692810D01*
X01504790D01*
Y00692810D01*
X01505810D01*
Y00692810D01*
X01523890D01*
Y00704890D01*
X01506023D01*
X01505810Y00704890D01*
Y00704890D01*
X01504790D01*
D02*
G37*
G36*
X01428790Y00733290D02*
X01411710D01*
Y00732379D01*
X01410095D01*
X01409102Y00732790D01*
X01407097D01*
X01405245Y00732023D01*
X01403827Y00730605D01*
X01403060Y00728753D01*
Y00726748D01*
X01403827Y00724895D01*
X01405245Y00723477D01*
X01407097Y00722710D01*
X01409102D01*
X01410095Y00723121D01*
X01411710D01*
Y00722210D01*
X01428790D01*
Y00733290D01*
D02*
G37*
G36*
Y00714290D02*
X01411710D01*
Y00703210D01*
X01420396D01*
Y00700790D01*
X01417710D01*
Y00700790D01*
X01416790D01*
Y00700790D01*
X01404710D01*
Y00682710D01*
X01416790D01*
Y00682710D01*
X01417710D01*
Y00682710D01*
X01429790D01*
Y00700790D01*
X01427104D01*
Y00703210D01*
X01428790D01*
Y00714290D01*
D02*
G37*
%LPD*%
D10*
X01265000Y01072343D02*
X01291336Y01098679D01*
X01265000Y01062500D02*
Y01072343D01*
X01291336Y01106836D02*
X01292500Y01108000D01*
X01291336Y01098679D02*
Y01106836D01*
X01324125Y01108125D02*
Y01126875D01*
X01324250Y01127000D01*
X01324000Y01108000D02*
X01324125Y01108125D01*
X01382500Y01327500D02*
X01405500Y01350500D01*
Y01362500D01*
X00980250Y01362250D02*
X01004500D01*
X00732750D02*
X00980250D01*
X01265000Y01062500D02*
X01273250Y01054250D01*
X01265000Y01046000D02*
X01273250Y01054250D01*
X01324000Y01072000D02*
Y01108000D01*
X01306250Y01054250D02*
X01324000Y01072000D01*
X01170500Y00967500D02*
Y00975250D01*
X01164500Y00981250D02*
X01170500Y00975250D01*
X01265000Y01023000D02*
Y01046000D01*
X01273250Y01054250D02*
X01306250D01*
X01456500Y01140500D02*
X01479000D01*
X01450000Y01147000D02*
X01456500Y01140500D01*
X01450000Y01147000D02*
Y01164000D01*
X01084000Y00917750D02*
Y00934750D01*
Y00917750D02*
X01084250Y00917500D01*
X01153500Y00981250D02*
X01164500D01*
X01079000Y01232500D02*
Y01326750D01*
Y01232500D02*
X01087500Y01224000D01*
X01079000Y01326750D02*
X01084750Y01332500D01*
X01126000Y01186000D02*
X01128000Y01184000D01*
Y01175007D02*
X01130257Y01172750D01*
X01128000Y01175007D02*
Y01184000D01*
X01130257Y01172750D02*
X01199500D01*
X01084750Y01332500D02*
X01143500D01*
X01145000Y01318000D02*
Y01334000D01*
X01087500Y01224000D02*
X01126000D01*
X01260750Y00704000D02*
Y00714000D01*
X01004500Y01343250D02*
X01023500D01*
X01024225Y01343975D01*
X01044275D02*
X01045000Y01344700D01*
X01024225Y01343975D02*
X01044275D01*
X01101725D02*
X01121775D01*
X01101000Y01344700D02*
X01101725Y01343975D01*
X01121775D02*
X01122500Y01343250D01*
X01112343Y01369407D02*
X01119500Y01362250D01*
X01101000Y01370100D02*
X01101693Y01369407D01*
X01112343D01*
X01119500Y01362250D02*
X01122500D01*
X01199500Y01172750D02*
X01211750Y01185000D01*
X00765000Y01405750D02*
Y01443750D01*
X00773500Y01397250D02*
X00788000D01*
X00765000Y01405750D02*
X00773500Y01397250D01*
X00775500Y01476250D02*
X00789500Y01490250D01*
X00775000Y01476250D02*
X00775500D01*
X00789500Y01490250D02*
Y01498250D01*
X00791000Y01499750D01*
X00806750D01*
X00811000Y01495500D01*
X00928500Y01444000D02*
X00928750Y01443750D01*
X00908000Y01444000D02*
X00928500D01*
X00919500Y01416500D02*
X00919625Y01416375D01*
X00932875D01*
X00933000Y01416250D01*
Y01397250D02*
X00952000D01*
X00953250Y01490250D02*
Y01498250D01*
X00954750Y01499750D01*
X00938750Y01476250D02*
X00939250D01*
X00953250Y01490250D01*
X00954750Y01499750D02*
X00970550D01*
X00974800Y01495500D01*
X01084250Y00934750D02*
Y00958500D01*
X00752750Y00773750D02*
X00753000Y00774000D01*
X00752750Y00760750D02*
Y00773750D01*
X01408100Y00727750D02*
X01420250D01*
X01451750Y00791100D02*
X01452400Y00790450D01*
X01451750Y00777750D02*
Y00791100D01*
X01233750Y00705500D02*
X01247500D01*
X01299200Y00981200D02*
X01319950D01*
X01448000Y01011000D02*
Y01021000D01*
X01115750Y01005750D02*
X01131250Y00990250D01*
X01247250D01*
X01115750Y00990000D02*
Y01005750D01*
X01084250Y00958500D02*
X01115750Y00990000D01*
X01000000Y01012000D02*
X01006250Y01005750D01*
X01115750D01*
X01000000Y01012000D02*
Y01021000D01*
X01247250Y00990250D02*
X01262750Y01005750D01*
X01282250D01*
X01062500Y01419750D02*
X01081500D01*
X01081625Y01419875D01*
X01094875D01*
X01095000Y01420000D01*
X01234500Y01400000D02*
X01380000D01*
X00935950Y01115950D02*
X00956700D01*
X00751500Y00984500D02*
X00752000Y00985000D01*
X00751500Y00967000D02*
Y00984500D01*
X00751000Y00966500D02*
X00751500Y00967000D01*
X00735000Y00965000D02*
X00749500D01*
X00751000Y00966500D01*
X00751500Y00775500D02*
Y00793000D01*
X00752000Y00793500D01*
X00751000Y00775000D02*
X00751500Y00775500D01*
X01232250Y00709000D02*
X01233750Y00707500D01*
X01232250Y00709000D02*
Y00755620D01*
X01442250Y00765100D02*
Y00777250D01*
X01516700Y01115950D02*
X01576550D01*
X01597250Y01095250D01*
Y00884750D02*
Y01095250D01*
X01560000Y00791750D02*
Y00805250D01*
X01465250Y00842500D02*
X01480000D01*
X01559500Y00884250D02*
X01560000Y00884750D01*
X01559500Y00870750D02*
Y00884250D01*
X01560000Y00884750D02*
X01560500D01*
X01579500D01*
X01597250D01*
X01560000Y00805250D02*
X01560500D01*
X01542250D02*
X01560000D01*
X01559500Y00791250D02*
X01560000Y00791750D01*
X01560500Y00805250D02*
X01579500D01*
X01143500Y01332500D02*
X01145000Y01334000D01*
Y01337000D01*
X01177000Y01318000D02*
X01200000Y01295000D01*
X01145000Y01318000D02*
X01177000D01*
X01405500Y01362500D02*
X01420000D01*
X01450400Y01451350D02*
X01452750Y01453700D01*
Y01475750D01*
X01265000Y01023000D02*
X01282250Y01005750D01*
X01469000Y01202000D02*
X01479000D01*
X01450000Y01164000D02*
Y01183000D01*
X01427500Y01175000D02*
X01438500Y01164000D01*
X01450000D01*
X01363250Y00874500D02*
Y00884500D01*
X01004500Y01362250D02*
X01004500Y01362250D01*
X00712500Y01342000D02*
X00732750Y01362250D01*
X00712500Y01119750D02*
Y01342000D01*
X00751000Y01046000D02*
Y01081250D01*
X00712500Y01119750D02*
X00751000Y01081250D01*
X01463250Y00667500D02*
X01475750Y00680000D01*
X00789250Y00703750D02*
X00825500Y00667500D01*
X01463250D01*
X00789250Y00703750D02*
Y00740800D01*
X00761500Y00768550D02*
Y00819500D01*
Y00768550D02*
X00789250Y00740800D01*
X01475750Y00680000D02*
X01681000D01*
X01705750Y00704750D01*
X01695500Y00777250D02*
X01705750Y00767000D01*
Y00704750D02*
Y00767000D01*
X01466750Y00689000D02*
X01475750Y00680000D01*
X01466750Y00689000D02*
Y00712250D01*
X01446250Y00718250D02*
X01460750D01*
X01466750Y00712250D01*
X00739750Y00868750D02*
X00751000Y00857500D01*
X00739750Y00938451D02*
X00761500Y00960201D01*
X00739750Y00868750D02*
Y00938451D01*
X00751000Y00851500D02*
Y00857500D01*
X00761500Y00960201D02*
Y01011000D01*
X01539500Y00861250D02*
X01585500D01*
X01527000Y00873750D02*
X01539500Y00861250D01*
X01500500Y00873750D02*
X01527000D01*
X01478750Y00852000D02*
X01500500Y00873750D01*
X01439250Y00852000D02*
X01478750D01*
X01620807Y00856750D02*
X01659000D01*
X01697500D01*
X01707000Y00788750D02*
Y00847250D01*
X01697500Y00856750D02*
X01707000Y00847250D01*
X01695500Y00777250D02*
X01707000Y00788750D01*
X01659000Y00777250D02*
X01695500D01*
X01585500Y00861250D02*
X01616307D01*
X01620807Y00856750D01*
X01616307Y00781750D02*
X01620807Y00777250D01*
X01640000D01*
X01585500Y00781750D02*
X01616307D01*
X01640000Y00777250D02*
X01659000D01*
X00751000Y00851500D02*
X00761500Y00841000D01*
Y00819500D02*
Y00841000D01*
X00751000Y01043000D02*
Y01046000D01*
X00761500Y01011000D02*
Y01032500D01*
X00751000Y01043000D02*
X00761500Y01032500D01*
X01001500Y01362750D02*
X01002000Y01362250D01*
X01001500Y01362750D02*
Y01378250D01*
X01002000Y01362250D02*
X01004500D01*
D11*
X01760000Y00715000D02*
G03*
X01730000Y00685000I00000000J-00030000D01*
G01*
X00685000Y01475000D02*
G03*
X00715000Y01505000I00000000J00030000D01*
G01*
X01730009Y01522500D02*
G03*
X01720009Y01532500I-00010000J00000000D01*
G01*
X01777500Y00714990D02*
G03*
X01787500Y00724990I00000000J00010000D01*
G01*
Y01465010D02*
G03*
X01777500Y01475010I-00010000J00000000D01*
G01*
X00667500D02*
G03*
X00657500Y01465010I00000000J-00010000D01*
G01*
X00724990Y01532500D02*
G03*
X00714990Y01522500I00000000J-00010000D01*
G01*
X01720009Y00657500D02*
G03*
X01730009Y00667500I00000000J00010000D01*
G01*
X01730000Y01505000D02*
G03*
X01760000Y01475000I00030000J00000000D01*
G01*
X00714990Y00667500D02*
G03*
X00724990Y00657500I00010000J00000000D01*
G01*
X00715000Y00685000D02*
G03*
X00685000Y00715000I-00030000J00000000D01*
G01*
X00657500Y00724990D02*
G03*
X00667500Y00714990I00010000J00000000D01*
G01*
D15*
X00826000Y00772000D02*
Y00791000D01*
Y00742000D02*
Y00772000D01*
X01205000Y01230000D02*
X01245000D01*
X01159750D02*
X01205000D01*
X00687750Y00838500D02*
X00699750D01*
X00772500Y00855000D02*
X00788000D01*
X01277754Y00747246D02*
X01281500Y00743500D01*
X01274007Y00750993D02*
X01277754Y00747246D01*
X01311750Y00743500D02*
X01330000D01*
X01292750D02*
X01311750D01*
X01281500D02*
X01292750D01*
X01079343Y00816816D02*
X01079511Y00816647D01*
X01151147D01*
X01163250Y00828750D01*
X01078934Y00816816D02*
X01079343D01*
X01068250Y00827500D02*
X01078934Y00816816D01*
X00978975Y00811026D02*
X01178864D01*
X00973250Y00816750D02*
X00978975Y00811026D01*
X01180250Y00812411D02*
Y00814380D01*
X01178864Y00811026D02*
X01180250Y00812411D01*
X01068250Y00827500D02*
Y00830500D01*
Y00863500D01*
X00973250Y00816750D02*
Y00830500D01*
Y00863500D01*
X01163250Y01099750D02*
X01193500Y01130000D01*
X01272750D02*
X01282250Y01139500D01*
X01193500Y01130000D02*
X01272750D01*
X01185750Y01133750D02*
X01268000D01*
X01277500Y01143250D01*
X01149000Y01118500D02*
X01170500D01*
X01185750Y01133750D01*
X01259750Y01059500D02*
Y01120000D01*
X01240500Y01093750D02*
Y01113962D01*
X01245540Y01119003D01*
X01327500Y01139694D02*
Y01157500D01*
Y01139694D02*
X01338764Y01128430D01*
X01380320D01*
X01322500Y01137833D02*
Y01157500D01*
X01338083Y01122250D02*
X01375000D01*
X01322500Y01137833D02*
X01338083Y01122250D01*
X01380320Y01128430D02*
X01386500Y01122250D01*
X01372500Y01147000D02*
X01386000Y01133500D01*
X01429000Y01040000D02*
X01431121D01*
X01367500Y01147250D02*
X01385250Y01129500D01*
X01459500D01*
X01377500Y01146250D02*
X01383750Y01140000D01*
X01386000Y01133500D02*
X01462750D01*
X01383750Y01140000D02*
X01424500D01*
X01429000Y01040000D02*
X01448000D01*
X01459500Y01129500D02*
X01476000Y01113000D01*
X01347375Y01140625D02*
Y01157375D01*
X01347250Y01140500D02*
X01347375Y01140625D01*
X01372500Y01342500D02*
X01379000Y01349000D01*
X01372500Y01312500D02*
Y01342500D01*
X01379000Y01349000D02*
X01386500D01*
X01163500Y01160522D02*
X01235522D01*
X01245000Y01170000D02*
Y01175000D01*
X01235522Y01160522D02*
X01245000Y01170000D01*
X01317625Y01157625D02*
Y01173717D01*
X01317521Y01173820D02*
X01317625Y01173717D01*
X01382500Y01157500D02*
Y01180500D01*
X01382500Y01157500D02*
X01382500Y01157500D01*
Y01180500D02*
X01382500Y01180500D01*
X01342500Y01157500D02*
Y01172250D01*
X01240500Y01093750D02*
X01252250Y01082000D01*
Y01063000D02*
Y01082000D01*
X01244750Y01055500D02*
X01252250Y01063000D01*
X01101250Y01055500D02*
X01244750D01*
X01019000Y01040000D02*
X01085750D01*
X01101250Y01055500D01*
X00983859Y01040000D02*
X01000000D01*
X00978657Y01034798D02*
X00983859Y01040000D01*
X01000000D02*
X01019000D01*
X01245000Y01044750D02*
X01259750Y01059500D01*
X01140750Y01044750D02*
X01245000D01*
X01266250Y00809255D02*
X01385005D01*
X01427250Y00829000D02*
Y00904750D01*
X01418500Y00812500D02*
Y00820250D01*
X01427250Y00829000D01*
Y00904750D02*
X01434000Y00911500D01*
Y00911750D02*
X01436750Y00914500D01*
X01458750D01*
X01434000Y00911500D02*
Y00911750D01*
X01410500Y00896500D02*
X01413000Y00899000D01*
Y00941000D01*
X01410500Y00834750D02*
Y00896500D01*
X01353250Y01230000D02*
X01400000D01*
X01339000Y01215750D02*
X01353250Y01230000D01*
X01323500Y01205000D02*
X01331250Y01197250D01*
X01147750Y01210000D02*
X01245000D01*
X01245125Y01214875D02*
X01330875D01*
X01245000Y01205000D02*
X01323500D01*
X01245000Y01210000D02*
X01327000D01*
X01168750Y01205000D02*
X01245000D01*
X01330875Y01214875D02*
X01331000Y01214750D01*
X01327000Y01210000D02*
X01331000Y01206000D01*
X01385005Y00809255D02*
X01410500Y00834750D01*
X01378000Y00823000D02*
X01398000Y00843000D01*
X01294500Y00823000D02*
X01378000D01*
X01284750Y00832750D02*
X01294500Y00823000D01*
X01254500Y00832750D02*
X01284750D01*
X01380500Y00818500D02*
X01402250Y00840250D01*
X01282000Y00829500D02*
X01293000Y00818500D01*
X01380500D01*
X01259856Y00829500D02*
X01282000D01*
X01276500Y00824750D02*
X01287000Y00814250D01*
X01260750Y00824750D02*
X01276500D01*
X01287000Y00814250D02*
X01383000D01*
X01406250Y00837500D01*
X01264750Y00810755D02*
X01266250Y00809255D01*
X01264750Y00810755D02*
Y00814380D01*
X01245250Y00823500D02*
X01254500Y00832750D01*
X01245250Y00814380D02*
Y00823500D01*
X01393750Y00941000D02*
X01406250Y00928500D01*
Y00837500D02*
Y00928500D01*
X01374500Y00941000D02*
X01402250Y00913250D01*
Y00840250D02*
Y00913250D01*
X01355250Y00941000D02*
X01363750D01*
X01398000Y00906750D01*
X01418750Y01047500D02*
X01425250Y01054000D01*
X01401000Y00955500D02*
X01418750Y00973250D01*
Y01047500D01*
X01425250Y01054000D02*
X01470750D01*
X01476000Y01059250D02*
Y01113000D01*
X01470750Y01054000D02*
X01476000Y01059250D01*
X01411527Y01057750D02*
X01467639D01*
X01471750Y01061861D01*
X01402277Y01048500D02*
X01411527Y01057750D01*
X01472000Y01049000D02*
X01479250Y01056250D01*
X01438000Y01049000D02*
X01472000D01*
X01433871Y01044871D02*
X01438000Y01049000D01*
X01433871Y01042750D02*
Y01044871D01*
X01431121Y01040000D02*
X01433871Y01042750D01*
X01471750Y01061861D02*
Y01109750D01*
X01459250Y01122250D02*
X01471750Y01109750D01*
X01432250Y01122250D02*
X01459250D01*
X01462750Y01133500D02*
X01479250Y01117000D01*
X01402277Y01001027D02*
Y01048500D01*
X01479250Y01056250D02*
Y01117000D01*
X01393500Y00992250D02*
X01402277Y01001027D01*
X01292250Y00992250D02*
X01393500D01*
X01348000Y00923000D02*
Y00952000D01*
X01351500Y00955500D01*
X01401000D01*
X01353250Y00917750D02*
X01376750D01*
X01348000Y00923000D02*
X01353250Y00917750D01*
X01376750D02*
X01382250Y00912250D01*
X01252250Y00952250D02*
X01292250Y00992250D01*
X01183000Y00952250D02*
X01252250D01*
X01157000Y00926250D02*
X01183000Y00952250D01*
X01157000Y00896500D02*
Y00926250D01*
X01148500Y00888000D02*
X01157000Y00896500D01*
X01121750Y00888000D02*
X01148500D01*
X01118000Y00884250D02*
X01121750Y00888000D01*
X01071500Y00884250D02*
X01118000D01*
X01065250Y00890500D02*
Y00898500D01*
Y00890500D02*
X01071500Y00884250D01*
X01377500Y01146250D02*
Y01157500D01*
X01372500Y01147000D02*
Y01157500D01*
X01367500Y01147250D02*
Y01157500D01*
X01266460Y01138210D02*
X01272500Y01144250D01*
X01197152Y01138210D02*
X01266460D01*
X01226500Y01144000D02*
X01264000D01*
X01196862Y01138500D02*
X01197152Y01138210D01*
X01163500Y01138500D02*
X01196862D01*
X01264000Y01144000D02*
X01267500Y01147500D01*
Y01157500D01*
X01282250Y01139500D02*
Y01157250D01*
X01272500Y01144250D02*
Y01157500D01*
X01277500Y01143250D02*
Y01157500D01*
X01121750Y01025750D02*
X01140750D01*
Y01005750D02*
Y01025750D01*
X01347375Y01157375D02*
X01347500Y01157500D01*
X01230500Y01100000D02*
Y01116750D01*
X01230500Y01116750D01*
X01210500Y01100000D02*
Y01116750D01*
Y01080250D02*
Y01100000D01*
X01230500Y01080250D02*
Y01100000D01*
X01204500Y01074500D02*
X01204750D01*
X01210500Y01080250D01*
X01230500D02*
X01236250Y01074500D01*
X01236500D01*
X01149250Y01099750D02*
X01163250D01*
X01149000Y01099500D02*
X01149250Y01099750D01*
X00803250Y01179500D02*
X00811000Y01171750D01*
X00777500Y01179500D02*
X00803250D01*
X00811000Y01171750D02*
X00908500D01*
X01282250Y01157250D02*
X01282500Y01157500D01*
X01302500Y01087500D02*
Y01157500D01*
X01133250Y01099500D02*
X01146750D01*
X01144000Y01096750D02*
X01146750Y01099500D01*
X01149000D01*
X01144000Y01079250D02*
Y01096750D01*
X01133000Y01099750D02*
X01133250Y01099500D01*
X01146750Y01118500D02*
X01149000D01*
X01133250D02*
X01146750D01*
X01133000Y01118750D02*
X01133250Y01118500D01*
X01144000Y01121250D02*
X01146750Y01118500D01*
X01144000Y01121250D02*
Y01139250D01*
X01145000Y01140250D02*
Y01159750D01*
X01144000Y01139250D02*
X01145000Y01140250D01*
X01307282Y01044782D02*
X01323233D01*
X01307250Y01044750D02*
X01307282Y01044782D01*
X01245000Y01190000D02*
X01289250D01*
X01289250Y01190000D01*
X01262500Y01157500D02*
Y01171750D01*
X01266000Y01175250D01*
X01278250D01*
X01278500Y01175500D01*
X01265000Y01195000D02*
X01268500Y01198500D01*
X01423847Y01253882D02*
X01493575D01*
X01504000Y01243457D01*
Y01179500D02*
Y01243457D01*
X01423850Y01275768D02*
X01647232D01*
X01670500Y01252500D01*
X01423750Y01265000D02*
X01535750D01*
X01423847Y01264825D02*
Y01264903D01*
X01423750Y01265000D02*
X01423847Y01264903D01*
X01535750Y01265000D02*
X01555500Y01245250D01*
X01670500Y01179500D02*
Y01252500D01*
X01245000Y01195000D02*
X01265000D01*
X01149777Y01253777D02*
X01156000Y01260000D01*
X01245000D01*
X01103908Y01253777D02*
X01149777D01*
X01160250Y01270000D02*
X01245000D01*
X01147210Y01256960D02*
X01160250Y01270000D01*
X01088000Y01256960D02*
X01147210D01*
X01157500Y01275000D02*
X01245000D01*
X01088000Y01264500D02*
X01147000D01*
X01157500Y01275000D01*
X01098091Y01247960D02*
X01103908Y01253777D01*
X00990500Y01223250D02*
X01015250Y01248000D01*
X01061250D01*
X00990500Y01082500D02*
Y01223250D01*
X00963250Y01055250D02*
X00990500Y01082500D01*
X00963250Y00976250D02*
Y01055250D01*
X00959500Y00972500D02*
X00963250Y00976250D01*
X00950250Y00972500D02*
X00959500D01*
X01505150Y01060100D02*
Y01123900D01*
X01508000Y01126750D01*
X01537000D01*
X01505150Y01060100D02*
X01524379Y01040871D01*
Y00975379D02*
Y01040871D01*
X01245000Y01265000D02*
X01277000D01*
X01277000Y01265000D01*
X01245000Y01265000D02*
X01245000Y01265000D01*
X01555500Y01145250D02*
Y01245250D01*
X01537000Y01126750D02*
X01555500Y01145250D01*
X01519500Y00970500D02*
X01524379Y00975379D01*
X01510800Y00970500D02*
X01519500D01*
X01288250Y01025750D02*
X01307250D01*
Y01005750D02*
Y01025750D01*
X01084250Y00898500D02*
X01084250Y00898500D01*
X01065250Y00898500D02*
X01084250D01*
X01084452Y00898298D02*
X01106093D01*
X01084250Y00898500D02*
X01084452Y00898298D01*
X01122500Y00833750D02*
X01145550D01*
X01147550Y00835750D01*
X01164500Y01245000D02*
X01202962D01*
X01147550Y00854750D02*
Y00874750D01*
X01314050Y00835750D02*
X01315050Y00834750D01*
X01332000D01*
X01440250Y01240000D02*
X01450000D01*
X01400000Y01230000D02*
X01430250D01*
X01440250Y01240000D01*
X01269000Y00717500D02*
X01338750D01*
X01245250Y00741250D02*
Y00755620D01*
Y00741250D02*
X01269000Y00717500D01*
X00807000Y00823000D02*
X00825250D01*
X01339000Y01192000D02*
Y01215750D01*
X01336170Y01189170D02*
X01339000Y01192000D01*
X01331500Y01188500D02*
X01332170Y01189170D01*
X01336170D01*
X01245000Y01215000D02*
X01245125Y01214875D01*
X01375000Y01108000D02*
Y01122250D01*
X01386500Y01110750D02*
Y01122250D01*
X01317500Y01157500D02*
X01317625Y01157625D01*
X01436750Y01382000D02*
X01452250Y01366500D01*
Y01324000D02*
Y01366500D01*
X01400000Y01295000D02*
X01450000D01*
X01425000Y01382000D02*
X01436750D01*
X01419500Y01387500D02*
X01425000Y01382000D01*
X01419500Y01387500D02*
Y01410250D01*
X01397750Y01414250D02*
X01415500D01*
X01419500Y01410250D01*
X01386500Y01349000D02*
Y01362500D01*
X00758500Y01160500D02*
X00777500D01*
Y01140500D02*
Y01160500D01*
X00925000D02*
X00944000D01*
X00944000Y01160500D01*
Y01140500D02*
Y01160500D01*
Y01179500D02*
X00944000Y01179500D01*
X00961750D01*
X01162250Y01186000D02*
X01165500Y01189250D01*
X01145000Y01186000D02*
X01162250D01*
X01165500Y01189250D02*
Y01201750D01*
X01168750Y01205000D01*
X01145000Y01207250D02*
X01147750Y01210000D01*
X01145000Y01205000D02*
Y01207250D01*
Y01224000D02*
Y01243000D01*
Y01224000D02*
X01153750D01*
X01159750Y01230000D01*
X01145000Y01280000D02*
X01245000D01*
X01145000Y01299000D02*
X01167500D01*
X01176500Y01290000D01*
X01245000D01*
X01651500Y01160500D02*
X01670500D01*
Y01140500D02*
Y01160500D01*
X01485000D02*
X01504000D01*
Y01140500D02*
Y01160500D01*
X01400000Y01205000D02*
X01447250D01*
X01450000Y01202250D02*
Y01221000D01*
X01447250Y01205000D02*
X01450000Y01202250D01*
Y01202000D02*
Y01202250D01*
X01423250Y01392750D02*
Y01408750D01*
X01428750Y01414250D01*
X01438250D01*
X01423250Y01392750D02*
X01429250Y01386750D01*
X01455750D01*
X01469000Y01373500D01*
Y01295000D02*
Y01373500D01*
X01399600Y01416100D02*
Y01438650D01*
X01397750Y01414250D02*
X01399600Y01416100D01*
X01354000Y01381500D02*
X01367500D01*
X01289750Y01475500D02*
Y01488750D01*
X01289750Y01488750D02*
X01289750Y01488750D01*
X01319750Y01475500D02*
Y01488750D01*
X01314050Y00854750D02*
Y00874750D01*
X01510800Y00989500D02*
Y01009500D01*
X01448000Y01040000D02*
X01464141D01*
X01469343Y01034798D01*
X01365750Y01072500D02*
X01375000Y01081750D01*
Y01108000D01*
X01353500Y01072500D02*
X01365750D01*
X01422000Y01081750D02*
X01431250Y01072500D01*
X01443500D01*
X01422000Y01081750D02*
Y01108000D01*
X01389250D02*
X01422000D01*
X01386500Y01110750D02*
X01389250Y01108000D01*
X01382250Y00903500D02*
Y00912250D01*
X01341907Y00898298D02*
X01347109Y00903500D01*
X01363250D01*
X01382250D01*
X01398000Y00843000D02*
Y00906750D01*
X01251750Y00814380D02*
X01253250Y00815880D01*
Y00822894D01*
X01259856Y00829500D01*
X01259750Y00823750D02*
X01260750Y00824750D01*
X01259750Y00815880D02*
Y00823750D01*
X01258250Y00814380D02*
X01259750Y00815880D01*
X01418500Y00812500D02*
X01429750D01*
Y00815500D01*
X01459000Y00895500D02*
X01461750Y00892750D01*
Y00878500D02*
Y00892750D01*
X01458750Y00895500D02*
X01459000D01*
X01440000D02*
X01442750Y00892750D01*
X01439750Y00895500D02*
X01440000D01*
X01442750Y00878500D02*
Y00892750D01*
X01440500Y00861500D02*
X01442750Y00863750D01*
X01439250Y00861500D02*
X01440500D01*
X01442750Y00863750D02*
Y00878500D01*
X01461750Y00863000D02*
Y00878500D01*
X01367500Y01312500D02*
Y01362500D01*
X01437700Y01414800D02*
X01438250Y01414250D01*
X01437700Y01414800D02*
Y01438650D01*
X01450400Y01416100D02*
X01452250Y01414250D01*
X01450400Y01416100D02*
Y01438650D01*
X01044000Y01451750D02*
X01062500D01*
X01062500Y01451750D01*
X01202962Y01245000D02*
X01202962Y01245000D01*
X01245000D01*
X01168250Y00755500D02*
X01180130D01*
X01280000Y00685000D02*
X01298000D01*
X01219250Y00733250D02*
Y00755620D01*
X01210250Y00724250D02*
X01219250Y00733250D01*
X01206684Y00721587D02*
X01209347Y00724250D01*
X01177128Y00721587D02*
X01206684D01*
X01209347Y00724250D02*
X01210250D01*
X01206250Y00730000D02*
X01212750Y00736500D01*
X01199500Y00733500D02*
X01206250Y00740250D01*
X01212750Y00736500D02*
Y00755620D01*
X01206250Y00740250D02*
Y00755620D01*
X01235200Y00685000D02*
X01260750D01*
X01280000D01*
X01271257Y00732500D02*
X01372000D01*
X01258250Y00745507D02*
Y00766000D01*
Y00745507D02*
X01271257Y00732500D01*
X01251750Y00743711D02*
X01270961Y00724500D01*
X01346500D01*
X01251750Y00743711D02*
Y00755620D01*
X01264750Y00751743D02*
Y00755620D01*
Y00751743D02*
X01265500Y00750993D01*
X01274007D01*
X01347000Y00684000D02*
X01355250Y00675750D01*
X01375750D01*
X01347000Y00684000D02*
Y00709250D01*
X01338750Y00717500D02*
X01347000Y00709250D01*
X01238750Y00755620D02*
X01239054Y00755925D01*
Y00765304D01*
X01242500Y00768750D02*
X01255500D01*
X01239054Y00765304D02*
X01242500Y00768750D01*
X01255500D02*
X01258250Y00766000D01*
X01394250Y00754750D02*
X01441750D01*
X01448750Y00747750D01*
Y00746750D02*
Y00747750D01*
Y00744750D02*
Y00746750D01*
X01372000Y00732500D02*
X01394250Y00754750D01*
X01403250Y00744750D02*
X01416500D01*
X01391750Y00733250D02*
X01403250Y00744750D01*
X01391750Y00691750D02*
Y00733250D01*
X01370000Y00783500D02*
X01406250D01*
X01330000Y00743500D02*
X01370000Y00783500D01*
X01437650D02*
X01442250Y00788100D01*
X01425250Y00783500D02*
X01437650D01*
X01442250Y00788100D02*
Y00791100D01*
X01406250Y00783500D02*
X01425250D01*
X01416500Y00744750D02*
X01429750D01*
X01643000Y00886500D02*
Y01028000D01*
Y00872750D02*
Y00886500D01*
X01630000Y00793250D02*
Y00810500D01*
X01620000Y01051000D02*
Y01094500D01*
X01622000Y01096500D01*
X01620000Y01051000D02*
X01643000Y01028000D01*
X01630000Y00872750D02*
X01643000D01*
X01585500Y00870750D02*
X01609000D01*
X01611000Y00872750D01*
X01582500Y00851750D02*
X01585500D01*
X01569500Y00838750D02*
X01582500Y00851750D01*
X01561500Y00838750D02*
X01569500D01*
X01586433Y00850817D02*
X01603000D01*
X01605000Y00846250D02*
Y00848817D01*
X01585500Y00851750D02*
X01586433Y00850817D01*
X01603000D02*
X01605000Y00848817D01*
X01517997Y00858450D02*
X01524697Y00851750D01*
X01559500D01*
X01514750Y00858450D02*
X01517997D01*
X01514750Y00838450D02*
Y00858450D01*
X01495750Y00819450D02*
X01514750D01*
X01443550Y00828450D02*
X01462250D01*
X01462801Y00829001D02*
X01475750D01*
X01462250Y00828450D02*
X01462801Y00829001D01*
X01485199Y00838450D02*
X01495750D01*
X01475750Y00829001D02*
X01485199Y00838450D01*
X01439250Y00832750D02*
Y00842500D01*
Y00832750D02*
X01443550Y00828450D01*
X01442750Y00691750D02*
X01442750Y00691750D01*
X01455500D01*
X01362750Y00695500D02*
X01375000D01*
X01375750Y00694750D01*
X01391750Y00677507D02*
Y00691750D01*
X01375750Y00675750D02*
X01389993D01*
X01391750Y00677507D01*
X01410750Y00691750D02*
X01423750D01*
X01422250Y00708750D02*
X01423750Y00707250D01*
Y00691750D02*
Y00707250D01*
X01420250Y00708750D02*
X01422250D01*
X01442750Y00707250D02*
X01444250Y00708750D01*
X01446250D01*
X01442750Y00691750D02*
Y00707250D01*
X01450750Y00748750D02*
X01464750D01*
X01448750Y00746750D02*
X01450750Y00748750D01*
X01446250Y00727750D02*
X01447250Y00728750D01*
X01463750D01*
X01464750Y00729750D01*
X01467750D02*
X01479650Y00717850D01*
X01495750D01*
X01464750Y00729750D02*
X01467750D01*
X01495750Y00698850D02*
X01514850D01*
Y00717850D02*
Y00737850D01*
X01540250Y00763250D02*
X01580750D01*
X01585500Y00768000D01*
Y00772250D01*
X01514850Y00737850D02*
Y00765850D01*
X01528250Y00779250D01*
X01542000D02*
X01549000Y00772250D01*
X01528250Y00779250D02*
X01542000D01*
X01549000Y00772250D02*
X01559500D01*
X01598135D02*
X01601000Y00769385D01*
Y00766750D02*
Y00769385D01*
X01585500Y00772250D02*
X01598135D01*
X01585500Y00791250D02*
X01587500Y00793250D01*
X01611000D01*
X01630000D02*
X01643000D01*
X01065750Y00866000D02*
X01068250Y00863500D01*
X01163250Y00828750D02*
X01183500D01*
X01186750Y00825500D01*
Y00814380D02*
Y00825500D01*
X00973250Y00863500D02*
X00975750Y00866000D01*
X01145250Y00700750D02*
Y00726250D01*
X01149000Y00730000D01*
X01140250Y00715000D02*
Y00725500D01*
X01148250Y00733500D01*
X01128000Y00702750D02*
X01140250Y00715000D01*
X01128000Y00683500D02*
X01145250Y00700750D01*
X01149000Y00730000D02*
X01206250D01*
X01148250Y00733500D02*
X01199500D01*
X01128000Y00760500D02*
X01143500Y00745000D01*
X01184500D01*
X01157016Y00721587D02*
X01177128D01*
X01128000Y00722000D02*
X01144000Y00738000D01*
X01193250D01*
X01199750Y00744500D01*
Y00755620D01*
X01188250Y00741250D02*
X01193250Y00746250D01*
X01128000Y00741250D02*
X01188250D01*
X01184500Y00745000D02*
X01186584Y00747084D01*
Y00755454D02*
X01186750Y00755620D01*
X01186584Y00747084D02*
Y00755454D01*
X01193250Y00746250D02*
Y00755620D01*
X01180130Y00755500D02*
X01180250Y00755620D01*
X00775000Y01046500D02*
X00788000D01*
X00687750Y00819500D02*
X00699750D01*
X00687000Y01030250D02*
X00700000D01*
X00699750Y00819500D02*
X00700000Y00819750D01*
X00752000Y00819500D02*
Y00835250D01*
X00735000Y00819500D02*
X00752000D01*
X00752000Y00819500D01*
X00686500Y00769750D02*
X00731000D01*
X00686250Y00770000D02*
X00686500Y00769750D01*
X00731000D02*
X00735000Y00773750D01*
Y00787500D01*
X00950250Y00991500D02*
Y01011500D01*
X00826000Y00968500D02*
Y00982500D01*
Y00933500D02*
Y00968500D01*
X00788000Y01065500D02*
X00801000D01*
X00804000Y01062500D01*
Y01049500D02*
Y01062500D01*
X00788000Y01033500D02*
X00806230D01*
X00804000Y01035730D02*
X00806230Y01033500D01*
X00807000D01*
X00804000Y01035730D02*
Y01049500D01*
X00807081Y01014581D02*
X00821760D01*
X00807000Y01014500D02*
X00807081Y01014581D01*
X00821760D02*
X00821841Y01014663D01*
X00807000Y00968500D02*
Y00982500D01*
X00826000D02*
X00826000Y00982500D01*
X00687000Y01011250D02*
X00700000D01*
X00752000Y01011000D02*
Y01024000D01*
X00721230Y00978480D02*
X00734480D01*
X00735000Y00979000D01*
X00719000Y00976250D02*
X00721230Y00978480D01*
X00719000Y00973250D02*
Y00976250D01*
Y00994520D02*
Y01011250D01*
Y00992250D02*
Y00994520D01*
X00721230Y00996750D01*
X00733750D01*
X00735000Y00998000D01*
X00719000Y01011250D02*
Y01030250D01*
X00735000Y01011000D02*
X00752000D01*
X00771000Y01012135D02*
X00773365Y01014500D01*
X00788000D01*
X00771000Y01011000D02*
Y01012135D01*
X00788000Y01001500D02*
Y01014500D01*
X00807000Y01001500D02*
X00826000D01*
X00771000Y00984230D02*
Y00985000D01*
Y00984230D02*
X00772730Y00982500D01*
X00788000D01*
X00807000D01*
X00826000D02*
X00845000D01*
X01276750Y01381500D02*
X01322500D01*
Y01312500D02*
Y01362500D01*
X01262500Y01312500D02*
Y01362500D01*
X01240766Y01376766D02*
X01245500Y01381500D01*
X01262500D01*
X01240766Y01372000D02*
Y01376766D01*
X01114500Y01280000D02*
X01126000D01*
X01126000Y01280000D01*
X01278851Y01068500D02*
X01302500D01*
X01297625Y01157625D02*
Y01193625D01*
X01297750Y01193750D01*
X01297500Y01157500D02*
X01297625Y01157625D01*
X01197250Y00840250D02*
Y00935000D01*
X01200500Y00815130D02*
Y00837000D01*
X01197250Y00840250D02*
X01200500Y00837000D01*
X01212750Y00814380D02*
Y00839500D01*
X01207500Y00844750D02*
Y00916500D01*
Y00844750D02*
X01212750Y00839500D01*
X01201750Y00843250D02*
Y00921000D01*
Y00843250D02*
X01206250Y00838750D01*
Y00814380D02*
Y00838750D01*
X01193250Y00814380D02*
Y00933750D01*
X01185000Y00942000D02*
X01193250Y00933750D01*
X01199750Y00814380D02*
X01200500Y00815130D01*
X01197250Y00935000D02*
X01204250Y00942000D01*
X01201750Y00921000D02*
X01223000Y00942250D01*
X01218500Y00927500D02*
X01235250D01*
X01207500Y00916500D02*
X01218500Y00927500D01*
X01235250D02*
Y00942250D01*
X01235250Y00942250D01*
X01219250Y00905500D02*
Y00918250D01*
Y00814380D02*
Y00886500D01*
X01219250Y00814380D02*
X01219250Y00814380D01*
X00719000Y00803750D02*
Y00819750D01*
Y00838750D01*
X00721230Y00805980D02*
X00724230D01*
X00719000Y00800750D02*
Y00803750D01*
X00721230Y00805980D01*
X00826000Y00791000D02*
X00826000Y00791000D01*
X00845000D01*
X00807000Y00810000D02*
X00826000D01*
X00788000Y00791000D02*
X00807000D01*
X00771000Y00792730D02*
X00772730Y00791000D01*
X00788000D01*
X00771000Y00792730D02*
Y00793500D01*
X00807000Y00778250D02*
Y00791000D01*
Y00823000D02*
X00807000Y00823000D01*
X00804000Y00844230D02*
Y00858000D01*
Y00844230D02*
X00806230Y00842000D01*
X00788000D02*
X00806230D01*
X00807000D01*
X00800500Y00874000D02*
X00804000Y00870500D01*
Y00858000D02*
Y00870500D01*
X00788000Y00874000D02*
X00800500D01*
X00724750Y00806500D02*
X00735000D01*
X00724230Y00805980D02*
X00724750Y00806500D01*
X00788000Y00810000D02*
Y00823000D01*
X00771000Y00821270D02*
X00772730Y00823000D01*
X00771000Y00819500D02*
Y00821270D01*
X00772730Y00823000D02*
X00788000D01*
X01787500Y00724990D02*
X01787500Y01465009D01*
X00667490Y01475000D02*
X00685000D01*
X00657500Y00724990D02*
X00657500Y01465009D01*
X00724990Y00657500D02*
X01720009Y00657500D01*
X00724990Y01532500D02*
X01155000D01*
X01760000Y00715000D02*
X01777509D01*
X00715000Y01505000D02*
Y01522510D01*
X01730000Y01505000D02*
Y01522510D01*
X01155000Y01532500D02*
X01720009Y01532500D01*
X01760000Y01475000D02*
X01777509D01*
X01730000Y00667490D02*
Y00685000D01*
X00715000Y00667491D02*
Y00685000D01*
X00667490Y00715000D02*
X00685000D01*
D16*
X01399600Y01438650D02*
D03*
Y01451350D02*
D03*
X01450400Y01438650D02*
D03*
X01437700Y01451350D02*
D03*
Y01438650D02*
D03*
X01425000Y01451350D02*
D03*
Y01438650D02*
D03*
X01412300Y01451350D02*
D03*
Y01438650D02*
D03*
D17*
X01084250Y00898500D02*
D03*
Y00917500D02*
D03*
X01065250Y00917500D02*
D03*
Y00898500D02*
D03*
X01147550Y00835750D02*
D03*
Y00854750D02*
D03*
X00950250Y00972500D02*
D03*
Y00991500D02*
D03*
X01153500Y00962250D02*
D03*
Y00981250D02*
D03*
X01670500Y01179500D02*
D03*
Y01160500D02*
D03*
X01651500Y01179500D02*
D03*
Y01160500D02*
D03*
X01510800Y00970500D02*
D03*
Y00989500D02*
D03*
X01448000Y01040000D02*
D03*
Y01021000D02*
D03*
X01429000D02*
D03*
Y01040000D02*
D03*
X01363250Y00903500D02*
D03*
Y00884500D02*
D03*
X01382250D02*
D03*
Y00903500D02*
D03*
X01197240Y00702587D02*
D03*
Y00721587D02*
D03*
X01177128Y00702587D02*
D03*
Y00721587D02*
D03*
X01157016Y00702587D02*
D03*
Y00721587D02*
D03*
X01260750Y00685000D02*
D03*
Y00704000D02*
D03*
X01280000D02*
D03*
Y00685000D02*
D03*
X01282750Y00794500D02*
D03*
Y00775500D02*
D03*
X01292750Y00743500D02*
D03*
Y00762500D02*
D03*
X01311750Y00743500D02*
D03*
Y00762500D02*
D03*
X01314050Y00835750D02*
D03*
Y00854750D02*
D03*
X01219250Y00886500D02*
D03*
Y00905500D02*
D03*
X01319950Y00962200D02*
D03*
Y00981200D02*
D03*
X01307250Y01044750D02*
D03*
Y01025750D02*
D03*
X01288250Y01044750D02*
D03*
Y01025750D02*
D03*
X01302500Y01068500D02*
D03*
Y01087500D02*
D03*
X01485000Y01179500D02*
D03*
Y01160500D02*
D03*
X01516700Y01096950D02*
D03*
Y01115950D02*
D03*
X01504000Y01179500D02*
D03*
Y01160500D02*
D03*
X01246500Y01525000D02*
D03*
Y01506000D02*
D03*
Y01474000D02*
D03*
Y01455000D02*
D03*
X01319750Y01507750D02*
D03*
Y01488750D02*
D03*
X01289750Y01507750D02*
D03*
Y01488750D02*
D03*
X01368000Y01525000D02*
D03*
Y01506000D02*
D03*
Y01474000D02*
D03*
Y01455000D02*
D03*
X01367500Y01381500D02*
D03*
Y01362500D02*
D03*
X01386500Y01381500D02*
D03*
Y01362500D02*
D03*
X01405500Y01381500D02*
D03*
Y01362500D02*
D03*
X01322500Y01381500D02*
D03*
Y01362500D02*
D03*
X01262500Y01381500D02*
D03*
Y01362500D02*
D03*
X01062500Y01451750D02*
D03*
Y01470750D02*
D03*
X01043500Y01502750D02*
D03*
Y01483750D02*
D03*
X01062500Y01502750D02*
D03*
Y01483750D02*
D03*
X01081500Y01438750D02*
D03*
Y01419750D02*
D03*
X01062500Y01438750D02*
D03*
Y01419750D02*
D03*
X00788000Y01397250D02*
D03*
Y01416250D02*
D03*
X00952000Y01397250D02*
D03*
Y01416250D02*
D03*
X00933000D02*
D03*
Y01397250D02*
D03*
X00898750Y01416250D02*
D03*
Y01397250D02*
D03*
X00879750Y01416250D02*
D03*
Y01397250D02*
D03*
X01004500Y01343250D02*
D03*
Y01362250D02*
D03*
X01023500D02*
D03*
Y01343250D02*
D03*
X01122500D02*
D03*
Y01362250D02*
D03*
X01149000Y01118500D02*
D03*
Y01099500D02*
D03*
X01121750Y01044750D02*
D03*
Y01025750D02*
D03*
X01140750Y01044750D02*
D03*
Y01025750D02*
D03*
X01000000Y01040000D02*
D03*
Y01021000D02*
D03*
X01019000D02*
D03*
Y01040000D02*
D03*
X00956700Y01096950D02*
D03*
Y01115950D02*
D03*
X00925000Y01179500D02*
D03*
Y01160500D02*
D03*
X00944000Y01179500D02*
D03*
Y01160500D02*
D03*
X00777500Y01179500D02*
D03*
Y01160500D02*
D03*
X00758500Y01179500D02*
D03*
Y01160500D02*
D03*
X00788000Y01046500D02*
D03*
Y01065500D02*
D03*
X00807000Y01033500D02*
D03*
Y01014500D02*
D03*
X00788000Y01033500D02*
D03*
Y01014500D02*
D03*
X00735000Y01030000D02*
D03*
Y01011000D02*
D03*
Y00998000D02*
D03*
Y00979000D02*
D03*
X00788000Y01001500D02*
D03*
Y00982500D02*
D03*
X00807000D02*
D03*
Y01001500D02*
D03*
X00826000D02*
D03*
Y00982500D02*
D03*
X00845000Y01001500D02*
D03*
Y00982500D02*
D03*
X00788000Y00842000D02*
D03*
Y00823000D02*
D03*
Y00810000D02*
D03*
Y00791000D02*
D03*
X00807000D02*
D03*
Y00810000D02*
D03*
Y00842000D02*
D03*
Y00823000D02*
D03*
X00788000Y00855000D02*
D03*
Y00874000D02*
D03*
X00735000Y00838500D02*
D03*
Y00819500D02*
D03*
Y00806500D02*
D03*
Y00787500D02*
D03*
X00686250Y00770000D02*
D03*
Y00789000D02*
D03*
X00826000Y00810000D02*
D03*
Y00791000D02*
D03*
X00845000Y00810000D02*
D03*
Y00791000D02*
D03*
X01495750Y00819450D02*
D03*
Y00838450D02*
D03*
X01406250Y00764500D02*
D03*
Y00783500D02*
D03*
X01425250Y00764500D02*
D03*
Y00783500D02*
D03*
X01495750Y00698850D02*
D03*
Y00717850D02*
D03*
X01560500Y00824250D02*
D03*
Y00805250D02*
D03*
X01579500Y00824250D02*
D03*
Y00805250D02*
D03*
Y00903750D02*
D03*
Y00884750D02*
D03*
X01560500Y00903750D02*
D03*
Y00884750D02*
D03*
X01659000Y00837750D02*
D03*
Y00856750D02*
D03*
X01640000Y00837750D02*
D03*
Y00856750D02*
D03*
X01659000Y00758250D02*
D03*
Y00777250D02*
D03*
X01640000Y00758250D02*
D03*
Y00777250D02*
D03*
X01081500Y01502750D02*
D03*
Y01483750D02*
D03*
Y01451750D02*
D03*
Y01470750D02*
D03*
X01439750Y00895500D02*
D03*
Y00914500D02*
D03*
X01458750Y00895500D02*
D03*
Y00914500D02*
D03*
X01514750Y00838450D02*
D03*
Y00819450D02*
D03*
X01464750Y00809450D02*
D03*
Y00828450D02*
D03*
Y00748750D02*
D03*
Y00729750D02*
D03*
X01514850Y00717850D02*
D03*
Y00698850D02*
D03*
X01375750Y00694750D02*
D03*
Y00675750D02*
D03*
X01162250Y00794500D02*
D03*
Y00775500D02*
D03*
D18*
X01068250Y00830500D02*
D03*
X01087250D02*
D03*
X00973250D02*
D03*
X00954250D02*
D03*
X01232250Y00709750D02*
D03*
X01213250D02*
D03*
X01235250Y00927500D02*
D03*
X01254250D02*
D03*
X01235250Y00908500D02*
D03*
X01254250D02*
D03*
X01235250Y00889500D02*
D03*
X01254250D02*
D03*
X01254250Y00870500D02*
D03*
X01235250D02*
D03*
X01254250Y00851500D02*
D03*
X01235250D02*
D03*
X01230500Y01100000D02*
D03*
X01249500D02*
D03*
X01210500D02*
D03*
X01191500D02*
D03*
X01273500Y01108000D02*
D03*
X01292500D02*
D03*
X01343000D02*
D03*
X01324000D02*
D03*
X01375000D02*
D03*
X01356000D02*
D03*
X01422000D02*
D03*
X01441000D02*
D03*
X01469000Y01202000D02*
D03*
X01450000D02*
D03*
X01469000Y01183000D02*
D03*
X01450000D02*
D03*
X01469000Y01164000D02*
D03*
X01450000D02*
D03*
X01469000Y01221000D02*
D03*
X01450000D02*
D03*
X01469000Y01240000D02*
D03*
X01450000D02*
D03*
X01433750Y01475750D02*
D03*
X01452750D02*
D03*
X00935750Y01499750D02*
D03*
X00954750D02*
D03*
X00772000D02*
D03*
X00791000D02*
D03*
X01020500Y01378250D02*
D03*
X01001500D02*
D03*
X01164000Y01337000D02*
D03*
X01145000D02*
D03*
X01126000Y01318000D02*
D03*
X01145000D02*
D03*
X01126000Y01299000D02*
D03*
X01145000D02*
D03*
X01126000Y01280000D02*
D03*
X01145000D02*
D03*
X01126000Y01159750D02*
D03*
X01145000D02*
D03*
X01126000Y01243000D02*
D03*
X01145000D02*
D03*
X01126000Y01224000D02*
D03*
X01145000D02*
D03*
X01126000Y01205000D02*
D03*
X01145000D02*
D03*
X01126000Y01186000D02*
D03*
X01145000D02*
D03*
X01094000Y01186000D02*
D03*
X01113000D02*
D03*
X01133000Y01118750D02*
D03*
X01114000D02*
D03*
Y01099750D02*
D03*
X01133000D02*
D03*
X00823000Y01049500D02*
D03*
X00804000D02*
D03*
X00732000Y01046000D02*
D03*
X00751000D02*
D03*
X00700000Y01030250D02*
D03*
X00719000D02*
D03*
Y01011250D02*
D03*
X00700000D02*
D03*
Y00992250D02*
D03*
X00719000D02*
D03*
Y00973250D02*
D03*
X00700000D02*
D03*
X00770000Y00966500D02*
D03*
X00751000D02*
D03*
X00823000Y00858000D02*
D03*
X00804000D02*
D03*
X00732000Y00854500D02*
D03*
X00751000D02*
D03*
X00700000Y00838750D02*
D03*
X00719000D02*
D03*
Y00819750D02*
D03*
X00700000D02*
D03*
Y00800750D02*
D03*
X00719000D02*
D03*
X00772000Y00774000D02*
D03*
X00753000D02*
D03*
X01442750Y00878500D02*
D03*
X01461750D02*
D03*
X01448750Y00812500D02*
D03*
X01429750D02*
D03*
X01448750Y00744750D02*
D03*
X01429750D02*
D03*
X01442750Y00691750D02*
D03*
X01423750D02*
D03*
X01630000Y00872750D02*
D03*
X01611000D02*
D03*
X01662000D02*
D03*
X01643000D02*
D03*
X01624000Y00846250D02*
D03*
X01605000D02*
D03*
X01643000Y00793250D02*
D03*
X01662000D02*
D03*
X01630000D02*
D03*
X01611000D02*
D03*
X01410750Y00691750D02*
D03*
X01391750D02*
D03*
X01620000Y00766750D02*
D03*
X01601000D02*
D03*
X01469000Y01295000D02*
D03*
X01450000D02*
D03*
D39*
X01358853Y01342267D02*
X01359198Y01342611D01*
X01358853Y01335945D02*
Y01342267D01*
X01352765Y01320356D02*
Y01334592D01*
X01357235Y01320356D02*
Y01334326D01*
X01358853Y01335945D01*
X01351147Y01336211D02*
Y01342267D01*
Y01336211D02*
X01352765Y01334592D01*
X01350802Y01342611D02*
X01351147Y01342267D01*
D40*
X01382500Y01312500D02*
Y01327500D01*
Y01302500D02*
Y01312500D01*
X01332500Y01157500D02*
Y01180000D01*
X01355743D01*
X01292500Y01108000D02*
Y01157500D01*
Y01174750D01*
X01357235Y01320215D02*
Y01320356D01*
X01357500Y01312500D02*
Y01319950D01*
X01357235Y01320215D02*
X01357500Y01319950D01*
X01319950Y00945000D02*
Y00962200D01*
X01304550Y00900750D02*
Y00935000D01*
X01294550Y00945000D02*
X01304550Y00935000D01*
X01153500Y00945050D02*
Y00962250D01*
X01138100Y00900800D02*
Y00935050D01*
X01128100Y00945050D02*
X01138100Y00935050D01*
X00956700Y01079750D02*
Y01096950D01*
X00941300Y01035500D02*
Y01069750D01*
X00931300Y01079750D02*
X00941300Y01069750D01*
X01491300Y01079750D02*
X01501300Y01069750D01*
Y01035500D02*
Y01069750D01*
X01516700Y01079750D02*
Y01096950D01*
X01355743Y01180000D02*
X01357500Y01178243D01*
Y01157500D02*
Y01178243D01*
X01463250Y00861500D02*
X01465250D01*
X01461750Y00863000D02*
X01463250Y00861500D01*
X01375000Y01295000D02*
X01382500Y01302500D01*
X01245000Y01295000D02*
X01375000D01*
X01200000D02*
X01245000D01*
Y01185000D02*
X01282250D01*
X01292500Y01174750D01*
X01400000Y01175000D02*
X01427500D01*
X01211750Y01185000D02*
X01245000D01*
X01352500Y01320091D02*
X01352765Y01320356D01*
X01352500Y01312500D02*
Y01320091D01*
D41*
X01117250Y01424000D02*
D03*
D42*
X01164250Y01454000D02*
D03*
D43*
Y01394000D02*
D03*
D44*
X01747000Y01096500D02*
D03*
X01684500D02*
D03*
X01622000D02*
D03*
Y00933500D02*
D03*
X01684500D02*
D03*
X01747000D02*
D03*
Y00742000D02*
D03*
X01684500D02*
D03*
X01622000D02*
D03*
Y00905000D02*
D03*
X01684500D02*
D03*
X01747000D02*
D03*
X00701000Y00933500D02*
D03*
X00763500D02*
D03*
X00826000D02*
D03*
Y01096500D02*
D03*
X00763500D02*
D03*
X00701000D02*
D03*
Y00905000D02*
D03*
X00763500D02*
D03*
X00826000D02*
D03*
Y00742000D02*
D03*
X00763500D02*
D03*
X00701000D02*
D03*
D45*
X00931300Y01079750D02*
D03*
X00956700D02*
D03*
X01540150Y00883850D02*
D03*
X01514750Y00909250D02*
D03*
Y00858450D02*
D03*
X01540250Y00763250D02*
D03*
X01514850Y00788650D02*
D03*
Y00737850D02*
D03*
X01307250Y01005750D02*
D03*
X01332250D02*
D03*
X01282250D02*
D03*
X01140750D02*
D03*
X01165750D02*
D03*
X01115750D02*
D03*
X01128050Y00945000D02*
D03*
X01153450D02*
D03*
X01670500Y01140500D02*
D03*
X01695500D02*
D03*
X01645500D02*
D03*
X01504000D02*
D03*
X01529000D02*
D03*
X01479000D02*
D03*
X00944000Y01140500D02*
D03*
X00969000D02*
D03*
X00919000D02*
D03*
X00777500Y01140500D02*
D03*
X00802500D02*
D03*
X00752500D02*
D03*
X01491300Y01079750D02*
D03*
X01516700D02*
D03*
X01294550Y00945000D02*
D03*
X01319950D02*
D03*
D46*
X00909343Y01034798D02*
D03*
X00978657D02*
D03*
Y00988202D02*
D03*
X00909343D02*
D03*
X01469343Y01034798D02*
D03*
X01538657D02*
D03*
Y00988202D02*
D03*
X01469343D02*
D03*
X01272593Y00898298D02*
D03*
X01341907D02*
D03*
Y00851702D02*
D03*
X01272593D02*
D03*
X01106093Y00898298D02*
D03*
X01175407D02*
D03*
Y00851702D02*
D03*
X01106093D02*
D03*
D47*
X01209800Y00685000D02*
D03*
D48*
X01235200D02*
D03*
D49*
X01450400Y01451350D02*
D03*
D50*
X01264050Y01505000D02*
D03*
X01350450D02*
D03*
D51*
X01264050Y01463200D02*
D03*
X01350450D02*
D03*
D52*
X01278350Y01468200D02*
D03*
X01336150D02*
D03*
D53*
X00826000Y00772000D02*
D03*
X01205000Y01230000D02*
D03*
X00687750Y00838500D02*
D03*
X00772500Y00855000D02*
D03*
X01051150Y01470558D02*
D03*
X01167500Y01299000D02*
D03*
X01475750Y00680000D02*
D03*
X01476000Y00802000D02*
D03*
X01277754Y00747246D02*
D03*
X00986370Y00811030D02*
D03*
X01079343Y00816816D02*
D03*
X01365500Y01091250D02*
D03*
X01259750Y01120000D02*
D03*
X01270000Y01095000D02*
D03*
X01245540Y01119003D02*
D03*
X01375000Y01122250D02*
D03*
X01336791Y01141578D02*
D03*
X01324250Y01127000D02*
D03*
X01347250Y01140500D02*
D03*
X01360911Y01142136D02*
D03*
X01309642Y01123404D02*
D03*
X01110000Y01240000D02*
D03*
X01115000Y01300000D02*
D03*
Y01315000D02*
D03*
X01185000Y01335000D02*
D03*
X01420000Y01500000D02*
D03*
X01390000Y01480000D02*
D03*
Y01500000D02*
D03*
Y01520000D02*
D03*
X01225000Y01500000D02*
D03*
Y01480000D02*
D03*
Y01460000D02*
D03*
X01167237Y01368913D02*
D03*
X01198178Y01374068D02*
D03*
X01223110Y01367442D02*
D03*
X01225000Y01340000D02*
D03*
X01250000D02*
D03*
X01300000D02*
D03*
X01285000D02*
D03*
Y01355000D02*
D03*
Y01370000D02*
D03*
X01340000Y01375000D02*
D03*
X01335000Y01340000D02*
D03*
X01381730Y01338853D02*
D03*
X01365740Y01285161D02*
D03*
X01282915Y01284436D02*
D03*
X01325125Y01284726D02*
D03*
X01365000Y01245000D02*
D03*
X01320000Y01240000D02*
D03*
X01290000Y01230000D02*
D03*
X01210000Y01220000D02*
D03*
X01200000Y01195000D02*
D03*
X01212184Y01169249D02*
D03*
X01212601Y01147852D02*
D03*
X01281812Y01122958D02*
D03*
X01160000Y01065000D02*
D03*
Y01080000D02*
D03*
X01460000Y01105000D02*
D03*
X01435000Y01150000D02*
D03*
X01430000Y01190000D02*
D03*
X01490000Y01195000D02*
D03*
X00885000Y00685000D02*
D03*
Y00765000D02*
D03*
X00809371Y00762482D02*
D03*
X00836083Y00768897D02*
D03*
X00854592Y00768792D02*
D03*
X00832958Y00711728D02*
D03*
X00925000Y00685000D02*
D03*
Y00765000D02*
D03*
X00955000Y00685000D02*
D03*
Y00765000D02*
D03*
X00985000Y00685000D02*
D03*
Y00765000D02*
D03*
X01015000Y00685000D02*
D03*
Y00765000D02*
D03*
X01045000Y00685000D02*
D03*
Y00765000D02*
D03*
X01075000Y00685000D02*
D03*
Y00765000D02*
D03*
X01375000Y00795000D02*
D03*
X01335000Y00765000D02*
D03*
X01365000Y00755000D02*
D03*
X01375000Y00765000D02*
D03*
X01385000Y00775000D02*
D03*
X01575000Y00705000D02*
D03*
X01605000D02*
D03*
X01635000D02*
D03*
X01665000D02*
D03*
X01645000Y00815000D02*
D03*
X01665000D02*
D03*
X01685000Y00805000D02*
D03*
Y00825000D02*
D03*
Y00845000D02*
D03*
X00980250Y01362250D02*
D03*
X01332500Y01180000D02*
D03*
X01317521Y01173820D02*
D03*
X01382500Y01180500D02*
D03*
X01342500Y01172250D02*
D03*
X01239500Y00833250D02*
D03*
X01432250Y01122250D02*
D03*
X01170500Y00967500D02*
D03*
X01424500Y01140000D02*
D03*
X01226500Y01144000D02*
D03*
X01230500Y01116750D02*
D03*
X01210500D02*
D03*
X01163250Y01099750D02*
D03*
Y01118500D02*
D03*
X00908500Y01171750D02*
D03*
X01163500Y01138500D02*
D03*
X01323233Y01044782D02*
D03*
X01289250Y01190000D02*
D03*
X01278500Y01175500D02*
D03*
X01268500Y01198500D02*
D03*
X01423847Y01253882D02*
D03*
X01423850Y01275768D02*
D03*
X01088000Y01264500D02*
D03*
X01098091Y01247960D02*
D03*
X01061250Y01248000D02*
D03*
X01277000Y01265000D02*
D03*
X01423850Y01264825D02*
D03*
X01122500Y00833750D02*
D03*
X01084000Y00934750D02*
D03*
X01164500Y01245000D02*
D03*
X01332000Y00834750D02*
D03*
X01088000Y01256960D02*
D03*
X01260750Y00714000D02*
D03*
X00825250Y00823000D02*
D03*
X01331500Y01188500D02*
D03*
X01413000Y00941000D02*
D03*
X01331000Y01206000D02*
D03*
X01331250Y01197250D02*
D03*
X01331000Y01214750D02*
D03*
X01386500Y01122250D02*
D03*
X01452250Y01324000D02*
D03*
X01386500Y01349000D02*
D03*
X00961750Y01179500D02*
D03*
X01163500Y01160522D02*
D03*
X01436750Y01205000D02*
D03*
X01354000Y01381500D02*
D03*
X01289750Y01475500D02*
D03*
X01319750D02*
D03*
X01355250Y00941000D02*
D03*
X01374500D02*
D03*
X01393750D02*
D03*
X01418500Y00812500D02*
D03*
X00908000Y01444000D02*
D03*
X00919500Y01416500D02*
D03*
X01044000Y01451750D02*
D03*
X00752750Y00760750D02*
D03*
X01168250Y00755500D02*
D03*
X01298000Y00685000D02*
D03*
X01210250Y00724250D02*
D03*
X01347000Y00684000D02*
D03*
X01346500Y00724500D02*
D03*
X01408100Y00727750D02*
D03*
X01643000Y00886500D02*
D03*
X01630000Y00810500D02*
D03*
X01561500Y00838750D02*
D03*
X01451750Y00777250D02*
D03*
X01247500Y00705500D02*
D03*
X01455500Y00691750D02*
D03*
X01362750Y00695500D02*
D03*
X01128000Y00760500D02*
D03*
Y00741250D02*
D03*
Y00722000D02*
D03*
Y00702750D02*
D03*
Y00683500D02*
D03*
X00775000Y01046500D02*
D03*
X00687750Y00819500D02*
D03*
X00687000Y01030250D02*
D03*
X00752000Y00835250D02*
D03*
X00826000Y00968500D02*
D03*
X00821841Y01014663D02*
D03*
X00807000Y00968500D02*
D03*
X00687000Y01011250D02*
D03*
X00752000Y01024000D02*
D03*
X01299200Y00981200D02*
D03*
X01448000Y01011000D02*
D03*
X01276750Y01381500D02*
D03*
X01240766Y01372000D02*
D03*
X01114500Y01280000D02*
D03*
X01278840Y01068489D02*
D03*
X01297750Y01193750D02*
D03*
X01185000Y00942000D02*
D03*
X01204250D02*
D03*
X01223500Y00942250D02*
D03*
X01235250D02*
D03*
X01219250Y00918250D02*
D03*
X01095000Y01420000D02*
D03*
X01234500Y01400000D02*
D03*
X01380000D02*
D03*
X00900000Y01380000D02*
D03*
X00935950Y01115950D02*
D03*
X00735000Y00965000D02*
D03*
X01442250Y00777250D02*
D03*
X00807000Y00778250D02*
D03*
X01597250Y00884750D02*
D03*
X01542250Y00805250D02*
D03*
X01480000Y00842500D02*
D03*
X01420000Y01362500D02*
D03*
X01479000Y01202000D02*
D03*
X01363250Y00874500D02*
D03*
X01359198Y01342611D02*
D03*
X01350802D02*
D03*
D54*
X01236500Y01074500D02*
D03*
Y01019500D02*
D03*
X01204500D02*
D03*
Y01074500D02*
D03*
D55*
X00975750Y00866000D02*
D03*
X01065750D02*
D03*
X01353500Y01072500D02*
D03*
X01443500D02*
D03*
D56*
X01199750Y00755620D02*
D03*
X01193250D02*
D03*
X01186750D02*
D03*
X01180250D02*
D03*
X01264750D02*
D03*
X01258250D02*
D03*
X01251750D02*
D03*
X01245250D02*
D03*
X01238750D02*
D03*
X01232250D02*
D03*
X01225750D02*
D03*
X01219250D02*
D03*
X01212750D02*
D03*
X01206250D02*
D03*
X01264750Y00814380D02*
D03*
X01258250D02*
D03*
X01251750D02*
D03*
X01245250D02*
D03*
X01238750D02*
D03*
X01232250D02*
D03*
X01225750D02*
D03*
X01219250D02*
D03*
X01212750D02*
D03*
X01206250D02*
D03*
X01199750D02*
D03*
X01193250D02*
D03*
X01186750D02*
D03*
D57*
X01180250D02*
D03*
D58*
X01491800Y01009500D02*
D03*
X01510800D02*
D03*
X01501300Y01035500D02*
D03*
X01295050Y00874750D02*
D03*
X01314050D02*
D03*
X01304550Y00900750D02*
D03*
X00752000Y01011000D02*
D03*
X00771000D02*
D03*
Y00985000D02*
D03*
X00752000D02*
D03*
X00761500Y01011000D02*
D03*
X00752000Y00819500D02*
D03*
X00771000D02*
D03*
Y00793500D02*
D03*
X00752000D02*
D03*
X00761500Y00819500D02*
D03*
X01442250Y00791100D02*
D03*
X01461250D02*
D03*
Y00765100D02*
D03*
X01442250D02*
D03*
X01451750Y00791100D02*
D03*
X00931250Y01011500D02*
D03*
X00950250D02*
D03*
X00940750Y01037500D02*
D03*
X01128550Y00874750D02*
D03*
X01147550D02*
D03*
X01138050Y00900750D02*
D03*
D59*
X01397750Y01400250D02*
D03*
Y01414250D02*
D03*
X01438250Y01400250D02*
D03*
Y01414250D02*
D03*
X01452250Y01400250D02*
D03*
Y01414250D02*
D03*
D60*
X01400000Y01175000D02*
D03*
Y01180000D02*
D03*
Y01185000D02*
D03*
Y01190000D02*
D03*
Y01195000D02*
D03*
Y01200000D02*
D03*
Y01205000D02*
D03*
Y01210000D02*
D03*
Y01215000D02*
D03*
Y01220000D02*
D03*
Y01225000D02*
D03*
Y01230000D02*
D03*
Y01235000D02*
D03*
Y01240000D02*
D03*
Y01245000D02*
D03*
Y01250000D02*
D03*
Y01255000D02*
D03*
Y01260000D02*
D03*
Y01265000D02*
D03*
Y01270000D02*
D03*
Y01275000D02*
D03*
Y01280000D02*
D03*
Y01285000D02*
D03*
Y01290000D02*
D03*
Y01295000D02*
D03*
X01245000D02*
D03*
Y01290000D02*
D03*
Y01285000D02*
D03*
Y01280000D02*
D03*
Y01275000D02*
D03*
Y01270000D02*
D03*
Y01265000D02*
D03*
Y01260000D02*
D03*
Y01255000D02*
D03*
Y01250000D02*
D03*
Y01245000D02*
D03*
Y01240000D02*
D03*
Y01235000D02*
D03*
Y01230000D02*
D03*
Y01225000D02*
D03*
Y01220000D02*
D03*
Y01215000D02*
D03*
Y01210000D02*
D03*
Y01205000D02*
D03*
Y01200000D02*
D03*
Y01195000D02*
D03*
Y01190000D02*
D03*
Y01185000D02*
D03*
Y01180000D02*
D03*
Y01175000D02*
D03*
D61*
X01382500Y01312500D02*
D03*
X01377500D02*
D03*
X01372500D02*
D03*
X01367500D02*
D03*
X01362500D02*
D03*
X01357500D02*
D03*
X01352500D02*
D03*
X01347500D02*
D03*
X01342500D02*
D03*
X01337500D02*
D03*
X01332500D02*
D03*
X01327500D02*
D03*
X01322500D02*
D03*
X01317500D02*
D03*
X01312500D02*
D03*
X01307500D02*
D03*
X01302500D02*
D03*
X01297500D02*
D03*
X01292500D02*
D03*
X01287500D02*
D03*
X01282500D02*
D03*
X01277500D02*
D03*
X01272500D02*
D03*
X01267500D02*
D03*
X01262500D02*
D03*
Y01157500D02*
D03*
X01267500D02*
D03*
X01272500D02*
D03*
X01277500D02*
D03*
X01282500D02*
D03*
X01287500D02*
D03*
X01292500D02*
D03*
X01297500D02*
D03*
X01302500D02*
D03*
X01307500D02*
D03*
X01312500D02*
D03*
X01317500D02*
D03*
X01322500D02*
D03*
X01327500D02*
D03*
X01332500D02*
D03*
X01337500D02*
D03*
X01342500D02*
D03*
X01347500D02*
D03*
X01352500D02*
D03*
X01357500D02*
D03*
X01362500D02*
D03*
X01367500D02*
D03*
X01372500D02*
D03*
X01377500D02*
D03*
D62*
X01382500D02*
D03*
D63*
X00974800Y01495500D02*
D03*
X01020500D02*
D03*
X00811000D02*
D03*
X00856700D02*
D03*
D64*
X00997650Y01428850D02*
D03*
X00833850D02*
D03*
D65*
X00928750Y01443750D02*
D03*
X00948750D02*
D03*
X00765000D02*
D03*
X00785000D02*
D03*
D66*
X00938750Y01476250D02*
D03*
X00775000D02*
D03*
D67*
X01045000Y01344700D02*
D03*
X01101000D02*
D03*
X01045000Y01357400D02*
D03*
X01101000D02*
D03*
X01045000Y01382800D02*
D03*
X01101000D02*
D03*
X01045000Y01370100D02*
D03*
X01101000D02*
D03*
D68*
X01115000Y01139250D02*
D03*
X01144000D02*
D03*
X01115000Y01079250D02*
D03*
X01144000D02*
D03*
D69*
X01102000Y01465250D02*
D03*
Y01499250D02*
D03*
D70*
X01439250Y00842500D02*
D03*
Y00861500D02*
D03*
X01465250D02*
D03*
Y00842500D02*
D03*
X01439250Y00852000D02*
D03*
X01585500Y00870750D02*
D03*
Y00851750D02*
D03*
X01559500D02*
D03*
Y00870750D02*
D03*
X01585500Y00861250D02*
D03*
Y00791250D02*
D03*
Y00772250D02*
D03*
X01559500D02*
D03*
Y00791250D02*
D03*
X01585500Y00781750D02*
D03*
X01446250Y00727750D02*
D03*
Y00708750D02*
D03*
X01420250D02*
D03*
Y00727750D02*
D03*
X01446250Y00718250D02*
D03*
D71*
X01350450Y01505000D02*
X01350950Y01505500D01*
X01367500D02*
X01368000Y01506000D01*
X01350950Y01505500D02*
X01367500D01*
X01247000D02*
X01263550D01*
X01246500Y01506000D02*
X01247000Y01505500D01*
X01263550D02*
X01264050Y01505000D01*
X01259050Y01455000D02*
X01264050Y01460000D01*
X01246500Y01455000D02*
X01259050D01*
X01264050Y01460000D02*
Y01463200D01*
X01350450Y01460000D02*
Y01463200D01*
X01355450Y01455000D02*
X01368000D01*
X01350450Y01460000D02*
X01355450Y01455000D01*
M02*
