G04*
G04 #@! TF.GenerationSoftware,Altium Limited,Altium Designer,24.4.1 (13)*
G04*
G04 Layer_Color=8388736*
%FSAX44Y44*%
%MOMM*%
G71*
G04*
G04 #@! TF.SameCoordinates,A6799A11-F43C-4D9C-96F4-C4FD18313EF3*
G04*
G04*
G04 #@! TF.FilePolarity,Negative*
G04*
G01*
G75*
%ADD11C,0.2000*%
%ADD14C,0.1524*%
%ADD15C,0.1500*%
%ADD21C,1.2032*%
%ADD22R,1.5032X0.9032*%
%ADD23R,0.9032X1.5032*%
%ADD24R,0.5032X1.3532*%
%ADD25R,0.8032X1.3532*%
%ADD26O,2.4532X4.7032*%
%ADD27O,4.7032X2.4532*%
%ADD28O,5.2032X2.7032*%
%ADD29C,2.4532*%
%ADD30C,1.7032*%
%ADD31R,1.9282X1.9282*%
%ADD32C,1.8032*%
%ADD33R,1.8032X1.8032*%
%ADD34R,1.2032X1.2032*%
%ADD35O,1.2032X2.0032*%
%ADD36O,1.2032X2.3032*%
%ADD37C,0.8532*%
%ADD38C,0.7032*%
D11*
X01760000Y00715000D02*
G03*
X01730000Y00685000I00000000J-00030000D01*
G01*
X00685000Y01475000D02*
G03*
X00715000Y01505000I00000000J00030000D01*
G01*
X01730009Y01522500D02*
G03*
X01720009Y01532500I-00010000J00000000D01*
G01*
X01777500Y00714990D02*
G03*
X01787500Y00724990I00000000J00010000D01*
G01*
Y01465010D02*
G03*
X01777500Y01475010I-00010000J00000000D01*
G01*
X00667500D02*
G03*
X00657500Y01465010I00000000J-00010000D01*
G01*
X00724990Y01532500D02*
G03*
X00714990Y01522500I00000000J-00010000D01*
G01*
X01720009Y00657500D02*
G03*
X01730009Y00667500I00000000J00010000D01*
G01*
X01730000Y01505000D02*
G03*
X01760000Y01475000I00030000J00000000D01*
G01*
X00714990Y00667500D02*
G03*
X00724990Y00657500I00010000J00000000D01*
G01*
X00715000Y00685000D02*
G03*
X00685000Y00715000I-00030000J00000000D01*
G01*
X00657500Y00724990D02*
G03*
X00667500Y00714990I00010000J00000000D01*
G01*
D14*
X01516524Y01390066D02*
Y01383295D01*
X01519910Y01379910D01*
X01523295Y01383295D01*
Y01390066D01*
X01531759Y01379910D02*
X01528374D01*
X01526681Y01381602D01*
Y01384988D01*
X01528374Y01386681D01*
X01531759D01*
X01533452Y01384988D01*
Y01383295D01*
X01526681D01*
X01536837Y01386681D02*
Y01379910D01*
Y01383295D01*
X01538530Y01384988D01*
X01540223Y01386681D01*
X01541916D01*
X01546994Y01379910D02*
Y01381602D01*
X01548687D01*
Y01379910D01*
X01546994D01*
X01565615D02*
X01569000D01*
X01567308D01*
Y01390066D01*
X01565615Y01388374D01*
X01584236Y01379910D02*
Y01390066D01*
X01587621Y01386681D01*
X01591007Y01390066D01*
Y01379910D01*
X01596085Y01386681D02*
X01599471D01*
X01601163Y01384988D01*
Y01379910D01*
X01596085D01*
X01594392Y01381602D01*
X01596085Y01383295D01*
X01601163D01*
X01604549Y01386681D02*
Y01381602D01*
X01606242Y01379910D01*
X01611320D01*
Y01378217D01*
X01609627Y01376524D01*
X01607935D01*
X01611320Y01379910D02*
Y01386681D01*
X01631633Y01379910D02*
X01624862D01*
X01631633Y01386681D01*
Y01388374D01*
X01629941Y01390066D01*
X01626555D01*
X01624862Y01388374D01*
X01635019D02*
X01636712Y01390066D01*
X01640098D01*
X01641790Y01388374D01*
Y01381602D01*
X01640098Y01379910D01*
X01636712D01*
X01635019Y01381602D01*
Y01388374D01*
X01651947Y01379910D02*
X01645176D01*
X01651947Y01386681D01*
Y01388374D01*
X01650254Y01390066D01*
X01646869D01*
X01645176Y01388374D01*
X01660411Y01379910D02*
Y01390066D01*
X01655333Y01384988D01*
X01662104D01*
X01516524Y01430066D02*
Y01419910D01*
X01521602D01*
X01523295Y01421602D01*
Y01428374D01*
X01521602Y01430066D01*
X01516524D01*
X01526681Y01426681D02*
X01528374D01*
Y01424988D01*
X01526681D01*
Y01426681D01*
Y01421602D02*
X01528374D01*
Y01419910D01*
X01526681D01*
Y01421602D01*
X01545301Y01419910D02*
Y01430066D01*
X01548687Y01426681D01*
X01552072Y01430066D01*
Y01419910D01*
X01555458D02*
Y01421602D01*
X01557151D01*
Y01419910D01*
X01555458D01*
X01574079Y01430066D02*
Y01419910D01*
Y01423295D01*
X01580850Y01430066D01*
X01575772Y01424988D01*
X01580850Y01419910D01*
X01585928D02*
X01589314D01*
X01591007Y01421602D01*
Y01424988D01*
X01589314Y01426681D01*
X01585928D01*
X01584236Y01424988D01*
Y01421602D01*
X01585928Y01419910D01*
X01594392Y01426681D02*
Y01421602D01*
X01596085Y01419910D01*
X01597778Y01421602D01*
X01599471Y01419910D01*
X01601163Y01421602D01*
Y01426681D01*
X01606242D02*
X01609627D01*
X01611320Y01424988D01*
Y01419910D01*
X01606242D01*
X01604549Y01421602D01*
X01606242Y01423295D01*
X01611320D01*
X01614706Y01419910D02*
X01618091D01*
X01616398D01*
Y01430066D01*
X01614706D01*
X01629941Y01426681D02*
X01624862D01*
X01623170Y01424988D01*
Y01421602D01*
X01624862Y01419910D01*
X01629941D01*
X01633326Y01426681D02*
X01640098D01*
X01633326Y01419910D01*
X01640098D01*
X01643483Y01426681D02*
Y01421602D01*
X01645176Y01419910D01*
X01650254D01*
Y01418217D01*
X01648561Y01416524D01*
X01646869D01*
X01650254Y01419910D02*
Y01426681D01*
X01653640Y01419910D02*
Y01430066D01*
Y01423295D02*
X01658718Y01426681D01*
X01653640Y01423295D02*
X01658718Y01419910D01*
X01516524Y01456524D02*
Y01466681D01*
X01521602D01*
X01523295Y01464988D01*
Y01461602D01*
X01521602Y01459910D01*
X01516524D01*
X01526681Y01463295D02*
X01528374D01*
Y01461602D01*
X01526681D01*
Y01463295D01*
Y01458217D02*
X01528374D01*
Y01456524D01*
X01526681D01*
Y01458217D01*
X01552072Y01464988D02*
X01550380Y01466681D01*
X01546994D01*
X01545301Y01464988D01*
Y01463295D01*
X01546994Y01461602D01*
X01550380D01*
X01552072Y01459910D01*
Y01458217D01*
X01550380Y01456524D01*
X01546994D01*
X01545301Y01458217D01*
X01555458Y01466681D02*
X01562229D01*
X01558844D01*
Y01456524D01*
X01565615D02*
Y01466681D01*
X01569000Y01463295D01*
X01572386Y01466681D01*
Y01456524D01*
X01575772Y01464988D02*
X01577464Y01466681D01*
X01580850D01*
X01582543Y01464988D01*
Y01463295D01*
X01580850Y01461602D01*
X01579157D01*
X01580850D01*
X01582543Y01459910D01*
Y01458217D01*
X01580850Y01456524D01*
X01577464D01*
X01575772Y01458217D01*
X01592699Y01456524D02*
X01585928D01*
X01592699Y01463295D01*
Y01464988D01*
X01591007Y01466681D01*
X01587621D01*
X01585928Y01464988D01*
X01606242Y01466681D02*
Y01456524D01*
X01611320D01*
X01613013Y01458217D01*
Y01464988D01*
X01611320Y01466681D01*
X01606242D01*
X01623170Y01464988D02*
X01621477Y01466681D01*
X01618091D01*
X01616398Y01464988D01*
Y01463295D01*
X01618091Y01461602D01*
X01621477D01*
X01623170Y01459910D01*
Y01458217D01*
X01621477Y01456524D01*
X01618091D01*
X01616398Y01458217D01*
X01626555Y01456524D02*
Y01466681D01*
X01631633D01*
X01633326Y01464988D01*
Y01461602D01*
X01631633Y01459910D01*
X01626555D01*
D15*
X01787500Y00724990D02*
X01787500Y01465009D01*
X00667490Y01475000D02*
X00685000D01*
X00657500Y00724990D02*
X00657500Y01465009D01*
X00724990Y00657500D02*
X01720009Y00657500D01*
X00724990Y01532500D02*
X01155000D01*
X01760000Y00715000D02*
X01777509D01*
X00715000Y01505000D02*
Y01522510D01*
X01730000Y01505000D02*
Y01522510D01*
X01155000Y01532500D02*
X01720009Y01532500D01*
X01760000Y01475000D02*
X01777509D01*
X01730000Y00667490D02*
Y00685000D01*
X00715000Y00667491D02*
Y00685000D01*
X00667490Y00715000D02*
X00685000D01*
D21*
X00965250Y01362250D02*
D03*
X00892500Y01392500D02*
D03*
X01051150Y01483750D02*
D03*
X01082500Y01420000D02*
D03*
X01279750Y01400000D02*
D03*
X01386500Y01362500D02*
D03*
X01334750Y01400000D02*
D03*
X01317000Y01440250D02*
D03*
X01297500D02*
D03*
X01317000Y01379750D02*
D03*
X01297500D02*
D03*
X01382250Y01438750D02*
D03*
X01425000Y01474750D02*
D03*
X01450250D02*
D03*
X01437750Y01415250D02*
D03*
X01467750Y01438500D02*
D03*
X01459750Y01205000D02*
D03*
X01514750Y00819450D02*
D03*
X01514850Y00698850D02*
D03*
X01463750Y00802000D02*
D03*
X01429750Y00812500D02*
D03*
X01413000Y00956500D02*
D03*
X01393750D02*
D03*
X01374500D02*
D03*
X01355250D02*
D03*
X01386500Y01134000D02*
D03*
X01375000Y01110500D02*
D03*
X01149000Y01118500D02*
D03*
Y01096500D02*
D03*
X01230500Y01100000D02*
D03*
X01210500D02*
D03*
X01204250Y00961250D02*
D03*
X01185000D02*
D03*
X01262000Y00961500D02*
D03*
X01242750Y00961500D02*
D03*
X01223500Y00961500D02*
D03*
X01264750Y00755620D02*
D03*
X01361500Y00675750D02*
D03*
X01194250Y00724250D02*
D03*
X01115000Y00760500D02*
D03*
Y00741250D02*
D03*
Y00722000D02*
D03*
Y00702750D02*
D03*
Y00683500D02*
D03*
X01095750Y00760500D02*
D03*
X01096044Y00816410D02*
D03*
X01002868Y00810827D02*
D03*
X00700000Y00838750D02*
D03*
X00788000Y00855000D02*
D03*
X00826000Y00791000D02*
D03*
X01643000Y00872750D02*
D03*
X00826000Y00982500D02*
D03*
X01220000Y01230000D02*
D03*
X01145000Y01299000D02*
D03*
X01630000Y00793250D02*
D03*
X01399600Y01438650D02*
D03*
Y01451350D02*
D03*
X01450400Y01438650D02*
D03*
X01437700Y01451350D02*
D03*
Y01438650D02*
D03*
X01425000Y01451350D02*
D03*
Y01438650D02*
D03*
X01412300Y01451350D02*
D03*
Y01438650D02*
D03*
D22*
X01101750Y01492750D02*
D03*
Y01473750D02*
D03*
X01240750Y01436250D02*
D03*
Y01417250D02*
D03*
X01221772Y01436250D02*
D03*
Y01417250D02*
D03*
X01297500Y01425500D02*
D03*
Y01406500D02*
D03*
X01317000Y01425500D02*
D03*
Y01406500D02*
D03*
D23*
X01260750Y01420000D02*
D03*
X01279750D02*
D03*
X01353750Y01439000D02*
D03*
X01334750D02*
D03*
X01353750Y01420000D02*
D03*
X01334750D02*
D03*
X01368500Y01400000D02*
D03*
X01349500D02*
D03*
X01260750Y01439000D02*
D03*
X01279750D02*
D03*
X01246000Y01400000D02*
D03*
X01265000D02*
D03*
D24*
X01309750Y01457450D02*
D03*
X01314750D02*
D03*
X01319750D02*
D03*
X01324750D02*
D03*
X01304750D02*
D03*
X01299750D02*
D03*
X01294750D02*
D03*
X01289750D02*
D03*
D25*
X01275250D02*
D03*
X01283250D02*
D03*
X01331250D02*
D03*
X01339250D02*
D03*
D26*
X01117250Y01424000D02*
D03*
D27*
X01164250Y01454000D02*
D03*
D28*
Y01394000D02*
D03*
D29*
X01747000Y01096500D02*
D03*
X01684500D02*
D03*
X01622000D02*
D03*
Y00933500D02*
D03*
X01684500D02*
D03*
X01747000D02*
D03*
Y00742000D02*
D03*
X01684500D02*
D03*
X01622000D02*
D03*
Y00905000D02*
D03*
X01684500D02*
D03*
X01747000D02*
D03*
X00701000Y00933500D02*
D03*
X00763500D02*
D03*
X00826000D02*
D03*
Y01096500D02*
D03*
X00763500D02*
D03*
X00701000D02*
D03*
Y00905000D02*
D03*
X00763500D02*
D03*
X00826000D02*
D03*
Y00742000D02*
D03*
X00763500D02*
D03*
X00701000D02*
D03*
D30*
X00931300Y01079750D02*
D03*
X00956700D02*
D03*
X01540150Y00883850D02*
D03*
X01514750Y00909250D02*
D03*
Y00858450D02*
D03*
X01540250Y00763250D02*
D03*
X01514850Y00788650D02*
D03*
Y00737850D02*
D03*
X01307250Y01005750D02*
D03*
X01332250D02*
D03*
X01282250D02*
D03*
X01140750D02*
D03*
X01165750D02*
D03*
X01115750D02*
D03*
X01128050Y00945000D02*
D03*
X01153450D02*
D03*
X01670500Y01140500D02*
D03*
X01695500D02*
D03*
X01645500D02*
D03*
X01504000D02*
D03*
X01529000D02*
D03*
X01479000D02*
D03*
X00944000Y01140500D02*
D03*
X00969000D02*
D03*
X00919000D02*
D03*
X00777500Y01140500D02*
D03*
X00802500D02*
D03*
X00752500D02*
D03*
X01491300Y01079750D02*
D03*
X01516700D02*
D03*
X01294550Y00945000D02*
D03*
X01319950D02*
D03*
D31*
X00909343Y01034798D02*
D03*
X00978657D02*
D03*
Y00988202D02*
D03*
X00909343D02*
D03*
X01469343Y01034798D02*
D03*
X01538657D02*
D03*
Y00988202D02*
D03*
X01469343D02*
D03*
X01272593Y00898298D02*
D03*
X01341907D02*
D03*
Y00851702D02*
D03*
X01272593D02*
D03*
X01106093Y00898298D02*
D03*
X01175407D02*
D03*
Y00851702D02*
D03*
X01106093D02*
D03*
D32*
X01209800Y00685000D02*
D03*
D33*
X01235200D02*
D03*
D34*
X01450400Y01451350D02*
D03*
D35*
X01264050Y01505000D02*
D03*
X01350450D02*
D03*
D36*
X01264050Y01463200D02*
D03*
X01350450D02*
D03*
D37*
X01278350Y01468200D02*
D03*
X01336150D02*
D03*
D38*
X00826000Y00772000D02*
D03*
X01205000Y01230000D02*
D03*
X00687750Y00838500D02*
D03*
X00772500Y00855000D02*
D03*
X01051150Y01470558D02*
D03*
X01167500Y01299000D02*
D03*
X01475750Y00680000D02*
D03*
X01476000Y00802000D02*
D03*
X01277754Y00747246D02*
D03*
X00986370Y00811030D02*
D03*
X01079343Y00816816D02*
D03*
X01365500Y01091250D02*
D03*
X01259750Y01120000D02*
D03*
X01270000Y01095000D02*
D03*
X01245540Y01119003D02*
D03*
X01375000Y01122250D02*
D03*
X01336791Y01141578D02*
D03*
X01324250Y01127000D02*
D03*
X01347250Y01140500D02*
D03*
X01360911Y01142136D02*
D03*
X01309642Y01123404D02*
D03*
X01110000Y01240000D02*
D03*
X01115000Y01300000D02*
D03*
Y01315000D02*
D03*
X01185000Y01335000D02*
D03*
X01420000Y01500000D02*
D03*
X01390000Y01480000D02*
D03*
Y01500000D02*
D03*
Y01520000D02*
D03*
X01225000Y01500000D02*
D03*
Y01480000D02*
D03*
Y01460000D02*
D03*
X01167237Y01368913D02*
D03*
X01198178Y01374068D02*
D03*
X01223110Y01367442D02*
D03*
X01225000Y01340000D02*
D03*
X01250000D02*
D03*
X01300000D02*
D03*
X01285000D02*
D03*
Y01355000D02*
D03*
Y01370000D02*
D03*
X01340000Y01375000D02*
D03*
X01335000Y01340000D02*
D03*
X01381730Y01338853D02*
D03*
X01365740Y01285161D02*
D03*
X01282915Y01284436D02*
D03*
X01325125Y01284726D02*
D03*
X01365000Y01245000D02*
D03*
X01320000Y01240000D02*
D03*
X01290000Y01230000D02*
D03*
X01210000Y01220000D02*
D03*
X01200000Y01195000D02*
D03*
X01212184Y01169249D02*
D03*
X01212601Y01147852D02*
D03*
X01281812Y01122958D02*
D03*
X01160000Y01065000D02*
D03*
Y01080000D02*
D03*
X01460000Y01105000D02*
D03*
X01435000Y01150000D02*
D03*
X01430000Y01190000D02*
D03*
X01490000Y01195000D02*
D03*
X00885000Y00685000D02*
D03*
Y00765000D02*
D03*
X00809371Y00762482D02*
D03*
X00836083Y00768897D02*
D03*
X00854592Y00768792D02*
D03*
X00832958Y00711728D02*
D03*
X00925000Y00685000D02*
D03*
Y00765000D02*
D03*
X00955000Y00685000D02*
D03*
Y00765000D02*
D03*
X00985000Y00685000D02*
D03*
Y00765000D02*
D03*
X01015000Y00685000D02*
D03*
Y00765000D02*
D03*
X01045000Y00685000D02*
D03*
Y00765000D02*
D03*
X01075000Y00685000D02*
D03*
Y00765000D02*
D03*
X01375000Y00795000D02*
D03*
X01335000Y00765000D02*
D03*
X01365000Y00755000D02*
D03*
X01375000Y00765000D02*
D03*
X01385000Y00775000D02*
D03*
X01575000Y00705000D02*
D03*
X01605000D02*
D03*
X01635000D02*
D03*
X01665000D02*
D03*
X01645000Y00815000D02*
D03*
X01665000D02*
D03*
X01685000Y00805000D02*
D03*
Y00825000D02*
D03*
Y00845000D02*
D03*
X00980250Y01362250D02*
D03*
X01332500Y01180000D02*
D03*
X01317521Y01173820D02*
D03*
X01382500Y01180500D02*
D03*
X01342500Y01172250D02*
D03*
X01239500Y00833250D02*
D03*
X01432250Y01122250D02*
D03*
X01170500Y00967500D02*
D03*
X01424500Y01140000D02*
D03*
X01226500Y01144000D02*
D03*
X01230500Y01116750D02*
D03*
X01210500D02*
D03*
X01163250Y01099750D02*
D03*
Y01118500D02*
D03*
X00908500Y01171750D02*
D03*
X01163500Y01138500D02*
D03*
X01323233Y01044782D02*
D03*
X01289250Y01190000D02*
D03*
X01278500Y01175500D02*
D03*
X01268500Y01198500D02*
D03*
X01423847Y01253882D02*
D03*
X01423850Y01275768D02*
D03*
X01088000Y01264500D02*
D03*
X01098091Y01247960D02*
D03*
X01061250Y01248000D02*
D03*
X01277000Y01265000D02*
D03*
X01423850Y01264825D02*
D03*
X01122500Y00833750D02*
D03*
X01084000Y00934750D02*
D03*
X01164500Y01245000D02*
D03*
X01332000Y00834750D02*
D03*
X01088000Y01256960D02*
D03*
X01260750Y00714000D02*
D03*
X00825250Y00823000D02*
D03*
X01331500Y01188500D02*
D03*
X01413000Y00941000D02*
D03*
X01331000Y01206000D02*
D03*
X01331250Y01197250D02*
D03*
X01331000Y01214750D02*
D03*
X01386500Y01122250D02*
D03*
X01452250Y01324000D02*
D03*
X01386500Y01349000D02*
D03*
X00961750Y01179500D02*
D03*
X01163500Y01160522D02*
D03*
X01436750Y01205000D02*
D03*
X01354000Y01381500D02*
D03*
X01289750Y01475500D02*
D03*
X01319750D02*
D03*
X01355250Y00941000D02*
D03*
X01374500D02*
D03*
X01393750D02*
D03*
X01418500Y00812500D02*
D03*
X00908000Y01444000D02*
D03*
X00919500Y01416500D02*
D03*
X01044000Y01451750D02*
D03*
X00752750Y00760750D02*
D03*
X01168250Y00755500D02*
D03*
X01298000Y00685000D02*
D03*
X01210250Y00724250D02*
D03*
X01347000Y00684000D02*
D03*
X01346500Y00724500D02*
D03*
X01408100Y00727750D02*
D03*
X01643000Y00886500D02*
D03*
X01630000Y00810500D02*
D03*
X01561500Y00838750D02*
D03*
X01451750Y00777250D02*
D03*
X01247500Y00705500D02*
D03*
X01455500Y00691750D02*
D03*
X01362750Y00695500D02*
D03*
X01128000Y00760500D02*
D03*
Y00741250D02*
D03*
Y00722000D02*
D03*
Y00702750D02*
D03*
Y00683500D02*
D03*
X00775000Y01046500D02*
D03*
X00687750Y00819500D02*
D03*
X00687000Y01030250D02*
D03*
X00752000Y00835250D02*
D03*
X00826000Y00968500D02*
D03*
X00821841Y01014663D02*
D03*
X00807000Y00968500D02*
D03*
X00687000Y01011250D02*
D03*
X00752000Y01024000D02*
D03*
X01299200Y00981200D02*
D03*
X01448000Y01011000D02*
D03*
X01276750Y01381500D02*
D03*
X01240766Y01372000D02*
D03*
X01114500Y01280000D02*
D03*
X01278840Y01068489D02*
D03*
X01297750Y01193750D02*
D03*
X01185000Y00942000D02*
D03*
X01204250D02*
D03*
X01223500Y00942250D02*
D03*
X01235250D02*
D03*
X01219250Y00918250D02*
D03*
X01095000Y01420000D02*
D03*
X01234500Y01400000D02*
D03*
X01380000D02*
D03*
X00900000Y01380000D02*
D03*
X00935950Y01115950D02*
D03*
X00735000Y00965000D02*
D03*
X01442250Y00777250D02*
D03*
X00807000Y00778250D02*
D03*
X01597250Y00884750D02*
D03*
X01542250Y00805250D02*
D03*
X01480000Y00842500D02*
D03*
X01420000Y01362500D02*
D03*
X01479000Y01202000D02*
D03*
X01363250Y00874500D02*
D03*
X01359198Y01342611D02*
D03*
X01350802D02*
D03*
M02*
