G04*
G04 #@! TF.GenerationSoftware,Altium Limited,Altium Designer,24.4.1 (13)*
G04*
G04 Layer_Color=128*
%FSAX44Y44*%
%MOMM*%
G71*
G04*
G04 #@! TF.SameCoordinates,A6799A11-F43C-4D9C-96F4-C4FD18313EF3*
G04*
G04*
G04 #@! TF.FilePolarity,Positive*
G04*
G01*
G75*
%ADD11C,0.2000*%
%ADD15C,0.1500*%
%ADD17R,1.3000X0.7000*%
%ADD18R,0.7000X1.3000*%
%ADD54R,1.9000X1.3000*%
%ADD55R,5.0000X2.0000*%
%ADD56R,0.4500X1.4750*%
%ADD57O,0.4500X1.4750*%
%ADD58R,0.6000X1.2000*%
%ADD59R,0.7000X0.6000*%
%ADD60R,1.2000X0.3000*%
%ADD61R,0.3000X1.2000*%
%ADD62O,0.3000X1.2000*%
%ADD63R,1.3000X2.1500*%
%ADD64R,6.5000X7.0000*%
%ADD65R,1.2000X1.2000*%
%ADD66R,1.6000X1.5000*%
%ADD67R,1.8000X0.7000*%
%ADD68R,0.9000X1.6000*%
%ADD69R,1.6000X1.4000*%
%ADD70R,1.2000X0.6000*%
D11*
X01760000Y00715000D02*
G03*
X01730000Y00685000I00000000J-00030000D01*
G01*
X00685000Y01475000D02*
G03*
X00715000Y01505000I00000000J00030000D01*
G01*
X01730009Y01522500D02*
G03*
X01720009Y01532500I-00010000J00000000D01*
G01*
X01777500Y00714990D02*
G03*
X01787500Y00724990I00000000J00010000D01*
G01*
Y01465010D02*
G03*
X01777500Y01475010I-00010000J00000000D01*
G01*
X00667500D02*
G03*
X00657500Y01465010I00000000J-00010000D01*
G01*
X00724990Y01532500D02*
G03*
X00714990Y01522500I00000000J-00010000D01*
G01*
X01720009Y00657500D02*
G03*
X01730009Y00667500I00000000J00010000D01*
G01*
X01730000Y01505000D02*
G03*
X01760000Y01475000I00030000J00000000D01*
G01*
X00714990Y00667500D02*
G03*
X00724990Y00657500I00010000J00000000D01*
G01*
X00715000Y00685000D02*
G03*
X00685000Y00715000I-00030000J00000000D01*
G01*
X00657500Y00724990D02*
G03*
X00667500Y00714990I00010000J00000000D01*
G01*
D15*
X01787500Y00724990D02*
X01787500Y01465009D01*
X00667490Y01475000D02*
X00685000D01*
X00657500Y00724990D02*
X00657500Y01465009D01*
X00724990Y00657500D02*
X01720009Y00657500D01*
X00724990Y01532500D02*
X01155000D01*
X01760000Y00715000D02*
X01777509D01*
X00715000Y01505000D02*
Y01522510D01*
X01730000Y01505000D02*
Y01522510D01*
X01155000Y01532500D02*
X01720009Y01532500D01*
X01760000Y01475000D02*
X01777509D01*
X01730000Y00667490D02*
Y00685000D01*
X00715000Y00667491D02*
Y00685000D01*
X00667490Y00715000D02*
X00685000D01*
D17*
X01084250Y00898500D02*
D03*
Y00917500D02*
D03*
X01065250Y00917500D02*
D03*
Y00898500D02*
D03*
X01147550Y00835750D02*
D03*
Y00854750D02*
D03*
X00950250Y00972500D02*
D03*
Y00991500D02*
D03*
X01153500Y00962250D02*
D03*
Y00981250D02*
D03*
X01670500Y01179500D02*
D03*
Y01160500D02*
D03*
X01651500Y01179500D02*
D03*
Y01160500D02*
D03*
X01510800Y00970500D02*
D03*
Y00989500D02*
D03*
X01448000Y01040000D02*
D03*
Y01021000D02*
D03*
X01429000D02*
D03*
Y01040000D02*
D03*
X01363250Y00903500D02*
D03*
Y00884500D02*
D03*
X01382250D02*
D03*
Y00903500D02*
D03*
X01197240Y00702587D02*
D03*
Y00721587D02*
D03*
X01177128Y00702587D02*
D03*
Y00721587D02*
D03*
X01157016Y00702587D02*
D03*
Y00721587D02*
D03*
X01260750Y00685000D02*
D03*
Y00704000D02*
D03*
X01280000D02*
D03*
Y00685000D02*
D03*
X01282750Y00794500D02*
D03*
Y00775500D02*
D03*
X01292750Y00743500D02*
D03*
Y00762500D02*
D03*
X01311750Y00743500D02*
D03*
Y00762500D02*
D03*
X01314050Y00835750D02*
D03*
Y00854750D02*
D03*
X01219250Y00886500D02*
D03*
Y00905500D02*
D03*
X01319950Y00962200D02*
D03*
Y00981200D02*
D03*
X01307250Y01044750D02*
D03*
Y01025750D02*
D03*
X01288250Y01044750D02*
D03*
Y01025750D02*
D03*
X01302500Y01068500D02*
D03*
Y01087500D02*
D03*
X01485000Y01179500D02*
D03*
Y01160500D02*
D03*
X01516700Y01096950D02*
D03*
Y01115950D02*
D03*
X01504000Y01179500D02*
D03*
Y01160500D02*
D03*
X01246500Y01525000D02*
D03*
Y01506000D02*
D03*
Y01474000D02*
D03*
Y01455000D02*
D03*
X01319750Y01507750D02*
D03*
Y01488750D02*
D03*
X01289750Y01507750D02*
D03*
Y01488750D02*
D03*
X01368000Y01525000D02*
D03*
Y01506000D02*
D03*
Y01474000D02*
D03*
Y01455000D02*
D03*
X01367500Y01381500D02*
D03*
Y01362500D02*
D03*
X01386500Y01381500D02*
D03*
Y01362500D02*
D03*
X01405500Y01381500D02*
D03*
Y01362500D02*
D03*
X01322500Y01381500D02*
D03*
Y01362500D02*
D03*
X01262500Y01381500D02*
D03*
Y01362500D02*
D03*
X01062500Y01451750D02*
D03*
Y01470750D02*
D03*
X01043500Y01502750D02*
D03*
Y01483750D02*
D03*
X01062500Y01502750D02*
D03*
Y01483750D02*
D03*
X01081500Y01438750D02*
D03*
Y01419750D02*
D03*
X01062500Y01438750D02*
D03*
Y01419750D02*
D03*
X00788000Y01397250D02*
D03*
Y01416250D02*
D03*
X00952000Y01397250D02*
D03*
Y01416250D02*
D03*
X00933000D02*
D03*
Y01397250D02*
D03*
X00898750Y01416250D02*
D03*
Y01397250D02*
D03*
X00879750Y01416250D02*
D03*
Y01397250D02*
D03*
X01004500Y01343250D02*
D03*
Y01362250D02*
D03*
X01023500D02*
D03*
Y01343250D02*
D03*
X01122500D02*
D03*
Y01362250D02*
D03*
X01149000Y01118500D02*
D03*
Y01099500D02*
D03*
X01121750Y01044750D02*
D03*
Y01025750D02*
D03*
X01140750Y01044750D02*
D03*
Y01025750D02*
D03*
X01000000Y01040000D02*
D03*
Y01021000D02*
D03*
X01019000D02*
D03*
Y01040000D02*
D03*
X00956700Y01096950D02*
D03*
Y01115950D02*
D03*
X00925000Y01179500D02*
D03*
Y01160500D02*
D03*
X00944000Y01179500D02*
D03*
Y01160500D02*
D03*
X00777500Y01179500D02*
D03*
Y01160500D02*
D03*
X00758500Y01179500D02*
D03*
Y01160500D02*
D03*
X00788000Y01046500D02*
D03*
Y01065500D02*
D03*
X00807000Y01033500D02*
D03*
Y01014500D02*
D03*
X00788000Y01033500D02*
D03*
Y01014500D02*
D03*
X00735000Y01030000D02*
D03*
Y01011000D02*
D03*
Y00998000D02*
D03*
Y00979000D02*
D03*
X00788000Y01001500D02*
D03*
Y00982500D02*
D03*
X00807000D02*
D03*
Y01001500D02*
D03*
X00826000D02*
D03*
Y00982500D02*
D03*
X00845000Y01001500D02*
D03*
Y00982500D02*
D03*
X00788000Y00842000D02*
D03*
Y00823000D02*
D03*
Y00810000D02*
D03*
Y00791000D02*
D03*
X00807000D02*
D03*
Y00810000D02*
D03*
Y00842000D02*
D03*
Y00823000D02*
D03*
X00788000Y00855000D02*
D03*
Y00874000D02*
D03*
X00735000Y00838500D02*
D03*
Y00819500D02*
D03*
Y00806500D02*
D03*
Y00787500D02*
D03*
X00686250Y00770000D02*
D03*
Y00789000D02*
D03*
X00826000Y00810000D02*
D03*
Y00791000D02*
D03*
X00845000Y00810000D02*
D03*
Y00791000D02*
D03*
X01495750Y00819450D02*
D03*
Y00838450D02*
D03*
X01406250Y00764500D02*
D03*
Y00783500D02*
D03*
X01425250Y00764500D02*
D03*
Y00783500D02*
D03*
X01495750Y00698850D02*
D03*
Y00717850D02*
D03*
X01560500Y00824250D02*
D03*
Y00805250D02*
D03*
X01579500Y00824250D02*
D03*
Y00805250D02*
D03*
Y00903750D02*
D03*
Y00884750D02*
D03*
X01560500Y00903750D02*
D03*
Y00884750D02*
D03*
X01659000Y00837750D02*
D03*
Y00856750D02*
D03*
X01640000Y00837750D02*
D03*
Y00856750D02*
D03*
X01659000Y00758250D02*
D03*
Y00777250D02*
D03*
X01640000Y00758250D02*
D03*
Y00777250D02*
D03*
X01081500Y01502750D02*
D03*
Y01483750D02*
D03*
Y01451750D02*
D03*
Y01470750D02*
D03*
X01439750Y00895500D02*
D03*
Y00914500D02*
D03*
X01458750Y00895500D02*
D03*
Y00914500D02*
D03*
X01514750Y00838450D02*
D03*
Y00819450D02*
D03*
X01464750Y00809450D02*
D03*
Y00828450D02*
D03*
Y00748750D02*
D03*
Y00729750D02*
D03*
X01514850Y00717850D02*
D03*
Y00698850D02*
D03*
X01375750Y00694750D02*
D03*
Y00675750D02*
D03*
X01162250Y00794500D02*
D03*
Y00775500D02*
D03*
D18*
X01068250Y00830500D02*
D03*
X01087250D02*
D03*
X00973250D02*
D03*
X00954250D02*
D03*
X01232250Y00709750D02*
D03*
X01213250D02*
D03*
X01235250Y00927500D02*
D03*
X01254250D02*
D03*
X01235250Y00908500D02*
D03*
X01254250D02*
D03*
X01235250Y00889500D02*
D03*
X01254250D02*
D03*
X01254250Y00870500D02*
D03*
X01235250D02*
D03*
X01254250Y00851500D02*
D03*
X01235250D02*
D03*
X01230500Y01100000D02*
D03*
X01249500D02*
D03*
X01210500D02*
D03*
X01191500D02*
D03*
X01273500Y01108000D02*
D03*
X01292500D02*
D03*
X01343000D02*
D03*
X01324000D02*
D03*
X01375000D02*
D03*
X01356000D02*
D03*
X01422000D02*
D03*
X01441000D02*
D03*
X01469000Y01202000D02*
D03*
X01450000D02*
D03*
X01469000Y01183000D02*
D03*
X01450000D02*
D03*
X01469000Y01164000D02*
D03*
X01450000D02*
D03*
X01469000Y01221000D02*
D03*
X01450000D02*
D03*
X01469000Y01240000D02*
D03*
X01450000D02*
D03*
X01433750Y01475750D02*
D03*
X01452750D02*
D03*
X00935750Y01499750D02*
D03*
X00954750D02*
D03*
X00772000D02*
D03*
X00791000D02*
D03*
X01020500Y01378250D02*
D03*
X01001500D02*
D03*
X01164000Y01337000D02*
D03*
X01145000D02*
D03*
X01126000Y01318000D02*
D03*
X01145000D02*
D03*
X01126000Y01299000D02*
D03*
X01145000D02*
D03*
X01126000Y01280000D02*
D03*
X01145000D02*
D03*
X01126000Y01159750D02*
D03*
X01145000D02*
D03*
X01126000Y01243000D02*
D03*
X01145000D02*
D03*
X01126000Y01224000D02*
D03*
X01145000D02*
D03*
X01126000Y01205000D02*
D03*
X01145000D02*
D03*
X01126000Y01186000D02*
D03*
X01145000D02*
D03*
X01094000Y01186000D02*
D03*
X01113000D02*
D03*
X01133000Y01118750D02*
D03*
X01114000D02*
D03*
Y01099750D02*
D03*
X01133000D02*
D03*
X00823000Y01049500D02*
D03*
X00804000D02*
D03*
X00732000Y01046000D02*
D03*
X00751000D02*
D03*
X00700000Y01030250D02*
D03*
X00719000D02*
D03*
Y01011250D02*
D03*
X00700000D02*
D03*
Y00992250D02*
D03*
X00719000D02*
D03*
Y00973250D02*
D03*
X00700000D02*
D03*
X00770000Y00966500D02*
D03*
X00751000D02*
D03*
X00823000Y00858000D02*
D03*
X00804000D02*
D03*
X00732000Y00854500D02*
D03*
X00751000D02*
D03*
X00700000Y00838750D02*
D03*
X00719000D02*
D03*
Y00819750D02*
D03*
X00700000D02*
D03*
Y00800750D02*
D03*
X00719000D02*
D03*
X00772000Y00774000D02*
D03*
X00753000D02*
D03*
X01442750Y00878500D02*
D03*
X01461750D02*
D03*
X01448750Y00812500D02*
D03*
X01429750D02*
D03*
X01448750Y00744750D02*
D03*
X01429750D02*
D03*
X01442750Y00691750D02*
D03*
X01423750D02*
D03*
X01630000Y00872750D02*
D03*
X01611000D02*
D03*
X01662000D02*
D03*
X01643000D02*
D03*
X01624000Y00846250D02*
D03*
X01605000D02*
D03*
X01643000Y00793250D02*
D03*
X01662000D02*
D03*
X01630000D02*
D03*
X01611000D02*
D03*
X01410750Y00691750D02*
D03*
X01391750D02*
D03*
X01620000Y00766750D02*
D03*
X01601000D02*
D03*
X01469000Y01295000D02*
D03*
X01450000D02*
D03*
D54*
X01236500Y01074500D02*
D03*
Y01019500D02*
D03*
X01204500D02*
D03*
Y01074500D02*
D03*
D55*
X00975750Y00866000D02*
D03*
X01065750D02*
D03*
X01353500Y01072500D02*
D03*
X01443500D02*
D03*
D56*
X01199750Y00755620D02*
D03*
X01193250D02*
D03*
X01186750D02*
D03*
X01180250D02*
D03*
X01264750D02*
D03*
X01258250D02*
D03*
X01251750D02*
D03*
X01245250D02*
D03*
X01238750D02*
D03*
X01232250D02*
D03*
X01225750D02*
D03*
X01219250D02*
D03*
X01212750D02*
D03*
X01206250D02*
D03*
X01264750Y00814380D02*
D03*
X01258250D02*
D03*
X01251750D02*
D03*
X01245250D02*
D03*
X01238750D02*
D03*
X01232250D02*
D03*
X01225750D02*
D03*
X01219250D02*
D03*
X01212750D02*
D03*
X01206250D02*
D03*
X01199750D02*
D03*
X01193250D02*
D03*
X01186750D02*
D03*
D57*
X01180250D02*
D03*
D58*
X01491800Y01009500D02*
D03*
X01510800D02*
D03*
X01501300Y01035500D02*
D03*
X01295050Y00874750D02*
D03*
X01314050D02*
D03*
X01304550Y00900750D02*
D03*
X00752000Y01011000D02*
D03*
X00771000D02*
D03*
Y00985000D02*
D03*
X00752000D02*
D03*
X00761500Y01011000D02*
D03*
X00752000Y00819500D02*
D03*
X00771000D02*
D03*
Y00793500D02*
D03*
X00752000D02*
D03*
X00761500Y00819500D02*
D03*
X01442250Y00791100D02*
D03*
X01461250D02*
D03*
Y00765100D02*
D03*
X01442250D02*
D03*
X01451750Y00791100D02*
D03*
X00931250Y01011500D02*
D03*
X00950250D02*
D03*
X00940750Y01037500D02*
D03*
X01128550Y00874750D02*
D03*
X01147550D02*
D03*
X01138050Y00900750D02*
D03*
D59*
X01397750Y01400250D02*
D03*
Y01414250D02*
D03*
X01438250Y01400250D02*
D03*
Y01414250D02*
D03*
X01452250Y01400250D02*
D03*
Y01414250D02*
D03*
D60*
X01400000Y01175000D02*
D03*
Y01180000D02*
D03*
Y01185000D02*
D03*
Y01190000D02*
D03*
Y01195000D02*
D03*
Y01200000D02*
D03*
Y01205000D02*
D03*
Y01210000D02*
D03*
Y01215000D02*
D03*
Y01220000D02*
D03*
Y01225000D02*
D03*
Y01230000D02*
D03*
Y01235000D02*
D03*
Y01240000D02*
D03*
Y01245000D02*
D03*
Y01250000D02*
D03*
Y01255000D02*
D03*
Y01260000D02*
D03*
Y01265000D02*
D03*
Y01270000D02*
D03*
Y01275000D02*
D03*
Y01280000D02*
D03*
Y01285000D02*
D03*
Y01290000D02*
D03*
Y01295000D02*
D03*
X01245000D02*
D03*
Y01290000D02*
D03*
Y01285000D02*
D03*
Y01280000D02*
D03*
Y01275000D02*
D03*
Y01270000D02*
D03*
Y01265000D02*
D03*
Y01260000D02*
D03*
Y01255000D02*
D03*
Y01250000D02*
D03*
Y01245000D02*
D03*
Y01240000D02*
D03*
Y01235000D02*
D03*
Y01230000D02*
D03*
Y01225000D02*
D03*
Y01220000D02*
D03*
Y01215000D02*
D03*
Y01210000D02*
D03*
Y01205000D02*
D03*
Y01200000D02*
D03*
Y01195000D02*
D03*
Y01190000D02*
D03*
Y01185000D02*
D03*
Y01180000D02*
D03*
Y01175000D02*
D03*
D61*
X01382500Y01312500D02*
D03*
X01377500D02*
D03*
X01372500D02*
D03*
X01367500D02*
D03*
X01362500D02*
D03*
X01357500D02*
D03*
X01352500D02*
D03*
X01347500D02*
D03*
X01342500D02*
D03*
X01337500D02*
D03*
X01332500D02*
D03*
X01327500D02*
D03*
X01322500D02*
D03*
X01317500D02*
D03*
X01312500D02*
D03*
X01307500D02*
D03*
X01302500D02*
D03*
X01297500D02*
D03*
X01292500D02*
D03*
X01287500D02*
D03*
X01282500D02*
D03*
X01277500D02*
D03*
X01272500D02*
D03*
X01267500D02*
D03*
X01262500D02*
D03*
Y01157500D02*
D03*
X01267500D02*
D03*
X01272500D02*
D03*
X01277500D02*
D03*
X01282500D02*
D03*
X01287500D02*
D03*
X01292500D02*
D03*
X01297500D02*
D03*
X01302500D02*
D03*
X01307500D02*
D03*
X01312500D02*
D03*
X01317500D02*
D03*
X01322500D02*
D03*
X01327500D02*
D03*
X01332500D02*
D03*
X01337500D02*
D03*
X01342500D02*
D03*
X01347500D02*
D03*
X01352500D02*
D03*
X01357500D02*
D03*
X01362500D02*
D03*
X01367500D02*
D03*
X01372500D02*
D03*
X01377500D02*
D03*
D62*
X01382500D02*
D03*
D63*
X00974800Y01495500D02*
D03*
X01020500D02*
D03*
X00811000D02*
D03*
X00856700D02*
D03*
D64*
X00997650Y01428850D02*
D03*
X00833850D02*
D03*
D65*
X00928750Y01443750D02*
D03*
X00948750D02*
D03*
X00765000D02*
D03*
X00785000D02*
D03*
D66*
X00938750Y01476250D02*
D03*
X00775000D02*
D03*
D67*
X01045000Y01344700D02*
D03*
X01101000D02*
D03*
X01045000Y01357400D02*
D03*
X01101000D02*
D03*
X01045000Y01382800D02*
D03*
X01101000D02*
D03*
X01045000Y01370100D02*
D03*
X01101000D02*
D03*
D68*
X01115000Y01139250D02*
D03*
X01144000D02*
D03*
X01115000Y01079250D02*
D03*
X01144000D02*
D03*
D69*
X01102000Y01465250D02*
D03*
Y01499250D02*
D03*
D70*
X01439250Y00842500D02*
D03*
Y00861500D02*
D03*
X01465250D02*
D03*
Y00842500D02*
D03*
X01439250Y00852000D02*
D03*
X01585500Y00870750D02*
D03*
Y00851750D02*
D03*
X01559500D02*
D03*
Y00870750D02*
D03*
X01585500Y00861250D02*
D03*
Y00791250D02*
D03*
Y00772250D02*
D03*
X01559500D02*
D03*
Y00791250D02*
D03*
X01585500Y00781750D02*
D03*
X01446250Y00727750D02*
D03*
Y00708750D02*
D03*
X01420250D02*
D03*
Y00727750D02*
D03*
X01446250Y00718250D02*
D03*
M02*
