M48
;Layer_Color=9474304
;FILE_FORMAT=4:4
METRIC
;TYPE=PLATED
T01F00S00C0.3000
T03F00S00C0.7000
T04F00S00C0.8000
T05F00S00C0.9000
T06F00S00C1.0000
T08F00S00C1.1500
T09F00S00C1.5000
;TYPE=NON_PLATED
T10F00S00C0.6500
%
T01
X01605000Y00705000
X01635000
X01665000
X01575000
X01475750Y00680000
X01455500Y00691750
X01408100Y00727750
X01346500Y00724500
X01347000Y00684000
X01362750Y00695500
X01365000Y00755000
X01375000Y00765000
X01385000Y00775000
X01442250Y00777250
X01451750
X01335000Y00765000
X01277754Y00747246
X01260750Y00714000
X01247500Y00705500
X01210250Y00724250
X01298000Y00685000
X01128000Y00683500
Y00702750
Y00722000
Y00741250
Y00760500
X01168250Y00755500
X01075000Y00765000
X01045000
X01015000
X00985000
X00955000
X00925000
X00885000
X00854592Y00768792
X00836083Y00768897
X00826000Y00772000
X00807000Y00778250
X00809371Y00762482
X00832958Y00711728
X00885000Y00685000
X00925000
X00955000
X00985000
X01015000
X01045000
X01075000
X00752750Y00760750
X00752000Y00835250
X00772500Y00855000
X00687750Y00838500
Y00819500
X00687000Y01011250
Y01030250
X00752000Y01024000
X00775000Y01046500
X00735000Y00965000
X00807000Y00968500
X00826000Y00968500
X00821841Y01014663
X00825250Y00823000
X00986370Y00811030
X01079343Y00816816
X01122500Y00833750
X01084000Y00934750
X01185000Y00942000
X01170500Y00967500
X01160000Y01065000
Y01080000
X01163250Y01099750
Y01118500
X01163500Y01138500
Y01160522
X00961750Y01179500
X00908500Y01171750
X00935950Y01115950
X01210500Y01116750
X01230500
X01245540Y01119003
X01259750Y01120000
X01281812Y01122958
X01309642Y01123404
X01324250Y01127000
X01336791Y01141578
X01347250Y01140500
X01360911Y01142136
X01375000Y01122250
X01386500
X01432250
X01424500Y01140000
X01435000Y01150000
X01430000Y01190000
X01382500Y01180500
X01342500Y01172250
X01332500Y01180000
X01331500Y01188500
X01317521Y01173820
X01278500Y01175500
X01289250Y01190000
X01212184Y01169249
X01212601Y01147852
X01226500Y01144000
X01270000Y01095000
X01278840Y01068489
X01323233Y01044782
X01299200Y00981200
X01355250Y00941000
X01374500
X01393750
X01413000
X01448000Y01011000
X01460000Y01105000
X01365500Y01091250
X01363250Y00874500
X01332000Y00834750
X01375000Y00795000
X01418500Y00812500
X01476000Y00802000
X01480000Y00842500
X01561500Y00838750
X01542250Y00805250
X01239500Y00833250
X01219250Y00918250
X01223500Y00942250
X01235250
X01204250Y00942000
X01597250Y00884750
X01643000Y00886500
X01645000Y00815000
X01630000Y00810500
X01665000Y00815000
X01685000Y00805000
Y00825000
Y00845000
X01490000Y01195000
X01479000Y01202000
X01436750Y01205000
X01423847Y01253882
X01423850Y01264825
Y01275768
X01365740Y01285161
X01365000Y01245000
X01320000Y01240000
X01331000Y01214750
Y01206000
X01331250Y01197250
X01297750Y01193750
X01268500Y01198500
X01290000Y01230000
X01277000Y01265000
X01282915Y01284436
X01325125Y01284726
X01335000Y01340000
X01350802Y01342611
X01359198
X01381730Y01338853
X01386500Y01349000
X01420000Y01362500
X01452250Y01324000
X01380000Y01400000
X01354000Y01381500
X01340000Y01375000
X01285000Y01370000
Y01355000
Y01340000
X01300000
X01250000
X01225000
X01223110Y01367442
X01240766Y01372000
X01234500Y01400000
X01276750Y01381500
X01198178Y01374068
X01225000Y01460000
Y01480000
Y01500000
X01289750Y01475500
X01319750
X01390000Y01480000
Y01500000
Y01520000
X01420000Y01500000
X01205000Y01230000
X01210000Y01220000
X01200000Y01195000
X01164500Y01245000
X01167500Y01299000
X01115000Y01300000
Y01315000
X01114500Y01280000
X01088000Y01264500
Y01256960
X01098091Y01247960
X01110000Y01240000
X01061250Y01248000
X00980250Y01362250
X00900000Y01380000
X00919500Y01416500
X00908000Y01444000
X01044000Y01451750
X01051150Y01470558
X01095000Y01420000
X01167237Y01368913
X01185000Y01335000
T03
X01399600Y01438650
Y01451350
X01412300
X01425000
X01437700
X01450400
Y01438650
X01437700
X01425000
X01412300
T04
X01514850Y00737850
X01540250Y00763250
X01514850Y00788650
X01514750Y00858450
X01540150Y00883850
X01514750Y00909250
T05
X00752500Y01140500
X00777500
X00802500
X00919000Y01140500
X00944000
X00969000
X01115750Y01005750
X01140750
X01165750
X01282250
X01307250
X01332250
X01479000Y01140500
X01504000
X01529000
X01645500
X01670500
X01695500
T06
X01209800Y00685000
X01235200
X01153450Y00945000
X01128050
X00956700Y01079750
X00931300
X01294550Y00945000
X01319950
X01491300Y01079750
X01516700
T08
X00909343Y00988202
Y01034798
X00978657
Y00988202
X01106093Y00898298
Y00851702
X01175407
Y00898298
X01272593
Y00851702
X01341907
Y00898298
X01469343Y00988202
Y01034798
X01538657
Y00988202
T09
X01622000Y00742000
X01684500
X01747000
X00826000Y00742000
X00763500
X00701000
Y00905000
Y00933500
X00763500
Y00905000
Y01096500
X00701000
X00826000
Y00933500
Y00905000
X01622000Y00905000
Y00933500
X01684500
Y00905000
X01747000
Y00933500
Y01096500
X01684500
X01622000
T10
X01278350Y01468200
X01336150
M30
